<?xml version="1.0" encoding="utf-8"?>
<!-- Generator: Adobe Illustrator 16.0.0, SVG Export Plug-In . SVG Version: 6.00 Build 0)  -->
<!DOCTYPE svg PUBLIC "-//W3C//DTD SVG 1.1//EN" "http://www.w3.org/Graphics/SVG/1.1/DTD/svg11.dtd">
<svg version="1.1" id="Layer_1" xmlns="http://www.w3.org/2000/svg" xmlns:xlink="http://www.w3.org/1999/xlink" x="0px" y="0px"
	 width="381px" height="381.281px" viewBox="0 0 381 381.281" enable-background="new 0 0 381 381.281" xml:space="preserve">
<circle fill="#FFFFFF" cx="190.5" cy="190.641" r="187"/>
<g>
	<g>
		<path d="M377.25,190.649c0,0-0.027,1.144-0.078,3.36c-0.025,1.109-0.059,2.486-0.096,4.121c-0.031,0.818-0.014,1.701-0.088,2.646
			c-0.07,0.946-0.146,1.956-0.225,3.028c-0.541,8.571-1.924,21.176-6.102,36.696c-0.539,1.934-1.092,3.92-1.658,5.957
			c-0.664,2.008-1.344,4.064-2.04,6.172c-0.642,2.127-1.483,4.236-2.308,6.408c-0.84,2.164-1.617,4.412-2.637,6.61
			c-3.717,8.952-8.572,18.3-14.615,27.755c-6.047,9.449-13.33,18.996-22.004,28.164c-4.314,4.604-9.031,9.053-14.035,13.406
			c-1.217,1.133-2.557,2.129-3.852,3.195c-1.308,1.053-2.623,2.109-3.945,3.174c-2.734,2.01-5.504,4.043-8.353,6.021
			c-5.78,3.832-11.786,7.623-18.226,10.908c-1.605,0.826-3.219,1.656-4.84,2.49c-1.66,0.758-3.326,1.52-5,2.283
			c-3.317,1.604-6.813,2.869-10.282,4.279c-1.726,0.732-3.532,1.268-5.312,1.9c-1.789,0.604-3.576,1.246-5.396,1.809
			c-1.833,0.518-3.673,1.037-5.519,1.561c-0.924,0.262-1.85,0.521-2.777,0.785c-0.934,0.234-1.877,0.438-2.818,0.658
			c-1.885,0.432-3.777,0.867-5.677,1.303c-1.901,0.426-3.839,0.707-5.769,1.068c-0.966,0.172-1.934,0.344-2.904,0.516l-1.455,0.258
			l-1.469,0.186c-1.963,0.242-3.931,0.482-5.906,0.727c-1.971,0.283-3.967,0.381-5.965,0.529c-1.998,0.135-4.002,0.299-6.014,0.41
			c-2.015,0.039-4.037,0.08-6.064,0.121l-3.046,0.061c-1.117-0.004-2.044-0.053-3.077-0.078c-2.018-0.066-4.041-0.137-6.07-0.205
			c-2.036-0.094-4.113-0.326-6.175-0.484c-4.152-0.266-8.243-0.932-12.379-1.479c-8.224-1.373-16.502-3.061-24.628-5.584
			c-4.107-1.107-8.099-2.648-12.156-4.033c-2.003-0.766-3.983-1.604-5.981-2.402l-2.994-1.219l-2.938-1.361
			c-15.761-7.123-30.67-16.693-44.237-28.129c-1.668-1.463-3.339-2.928-5.012-4.395c-1.653-1.488-3.217-3.08-4.838-4.611
			c-0.802-0.773-1.62-1.533-2.41-2.322l-2.309-2.432l-2.312-2.436c-0.773-0.811-1.551-1.617-2.267-2.48
			c-6.008-6.666-11.408-13.904-16.521-21.365c-1.227-1.902-2.454-3.805-3.683-5.709c-1.207-1.918-2.293-3.914-3.446-5.869
			c-0.563-0.986-1.151-1.959-1.695-2.959l-1.564-3.031l-1.565-3.034c-0.53-1.009-1.049-2.022-1.502-3.068l-2.837-6.227
			c-0.915-2.091-1.708-4.235-2.568-6.353c-0.415-1.063-0.86-2.119-1.251-3.193l-1.11-3.246l-1.11-3.25
			c-0.377-1.082-0.747-2.166-1.042-3.273l-1.928-6.603c-0.623-2.208-1.093-4.457-1.646-6.685l-0.796-3.354l-0.633-3.389
			c-0.399-2.262-0.897-4.512-1.214-6.791l-0.925-6.842c-0.176-1.139-0.277-2.285-0.365-3.434L3.3,204.447l-0.29-3.443
			c-0.108-1.148-0.096-2.303-0.15-3.453l-0.229-6.946c0.03-9.102,0.518-18.438,1.781-27.561c0.28-2.29,0.739-4.552,1.101-6.83
			l0.578-3.411l0.742-3.377c0.518-2.246,0.951-4.513,1.539-6.741l1.829-6.665c0.288-1.116,0.65-2.208,1.019-3.299l1.087-3.277
			l1.087-3.275c0.384-1.084,0.821-2.148,1.229-3.222c0.846-2.137,1.625-4.301,2.527-6.413l2.798-6.291
			c0.447-1.057,0.961-2.082,1.484-3.101l1.548-3.069l1.548-3.066c0.539-1.009,1.121-1.994,1.68-2.992c1.144-1.98,2.22-4,3.418-5.942
			c1.221-1.93,2.441-3.858,3.659-5.784c0.592-0.976,1.252-1.904,1.909-2.834l1.962-2.795l1.966-2.789l2.088-2.693
			c1.412-1.777,2.758-3.605,4.221-5.336c1.478-1.718,2.954-3.434,4.427-5.147c0.722-0.871,1.504-1.686,2.283-2.503l2.327-2.458
			l2.325-2.454c0.796-0.796,1.619-1.564,2.427-2.347c1.634-1.545,3.217-3.141,4.887-4.638c1.691-1.475,3.379-2.947,5.064-4.417
			c13.689-11.518,28.802-21.03,44.707-28.103l2.966-1.353l3.021-1.207c2.016-0.793,4.014-1.623,6.035-2.378
			c4.09-1.371,8.117-2.888,12.259-3.962c8.194-2.462,16.53-4.084,24.802-5.387c4.158-0.512,8.281-1.143,12.421-1.368
			c2.066-0.141,4.123-0.355,6.18-0.432c2.059-0.051,4.111-0.103,6.157-0.153l1.534-0.034l0.766-0.017l0.383-0.008
			c0.114-0.006,0.38,0.006,0.446,0.006l3.013,0.085c2.005,0.056,4.004,0.112,5.996,0.168c2.018,0.126,4.049,0.307,6.062,0.459
			c2.015,0.165,4.033,0.281,6,0.58c1.978,0.257,3.949,0.513,5.913,0.768l1.473,0.192l1.457,0.264
			c0.971,0.176,1.94,0.352,2.908,0.527c1.932,0.37,3.871,0.66,5.773,1.093c1.9,0.444,3.795,0.887,5.682,1.328
			c0.941,0.225,1.887,0.431,2.82,0.671c0.929,0.266,1.854,0.531,2.777,0.796c1.848,0.53,3.688,1.059,5.521,1.585
			c1.818,0.569,3.605,1.218,5.396,1.827c1.779,0.639,3.586,1.179,5.313,1.918c14,5.395,26.867,12.242,38.334,20.074
			c11.496,7.805,21.492,16.691,30.169,25.847c8.671,9.179,15.94,18.739,21.991,28.189c6.043,9.458,10.896,18.81,14.613,27.765
			c1.019,2.2,1.795,4.448,2.635,6.613c0.822,2.172,1.666,4.282,2.307,6.41c0.695,2.107,1.375,4.166,2.038,6.174
			c0.565,2.037,1.119,4.024,1.655,5.958c4.176,15.523,5.547,28.137,6.08,36.7c0.078,1.072,0.152,2.081,0.222,3.026
			c0.075,0.945,0.056,1.831,0.086,2.649c0.037,1.638,0.067,3.017,0.093,4.126c0.049,2.22,0.075,3.365,0.075,3.365L377.25,190.649
			L377.25,190.649z M376.75,190.643c0,0-0.032-1.143-0.096-3.356c-0.03-1.106-0.069-2.481-0.115-4.114
			c-0.035-0.816-0.021-1.699-0.102-2.641c-0.074-0.942-0.153-1.948-0.237-3.016c-0.578-8.53-1.984-21.115-6.417-36.489
			c-2.057-7.724-5.18-16.031-9.081-24.813c-3.906-8.788-8.945-17.925-15.147-27.118c-12.371-18.368-29.854-36.885-52.613-51.777
			c-11.387-7.391-24.02-13.895-37.713-18.994c-13.687-5.112-28.482-8.616-43.896-10.371c-1.926-0.283-3.853-0.378-5.786-0.526
			c-1.938-0.135-3.865-0.3-5.826-0.414c-1.992-0.045-3.992-0.089-5.998-0.135l-3.013-0.067c-0.186-0.001-0.17-0.009-0.309-0.003
			l-0.372,0.011l-0.744,0.021l-1.491,0.042c-1.989,0.051-3.985,0.103-5.986,0.154c-2,0.073-3.999,0.282-6.007,0.416
			c-4.024,0.213-8.031,0.828-12.072,1.319c-8.038,1.261-16.14,2.826-24.103,5.214c-4.024,1.046-7.94,2.509-11.929,3.803
			c-1.968,0.722-3.916,1.516-5.881,2.272l-2.946,1.152l-2.893,1.296c-15.514,6.771-30.292,15.927-43.711,27.06
			c-1.653,1.422-3.309,2.846-4.966,4.271c-1.638,1.447-3.191,2.994-4.796,4.489c-0.792,0.757-1.602,1.5-2.383,2.271l-2.283,2.378
			l-2.287,2.381c-0.765,0.792-1.535,1.581-2.244,2.427c-5.942,6.527-11.308,13.609-16.355,20.941
			C16.978,118.252,5.67,154.219,5.368,190.673c0.045,9.019,0.53,18.167,1.785,27.159c0.277,2.256,0.734,4.483,1.092,6.728
			l0.572,3.36l0.735,3.326c0.513,2.211,0.941,4.443,1.522,6.637l1.81,6.563c0.286,1.099,0.646,2.173,1.013,3.246l1.081,3.224
			l1.08,3.224c0.381,1.065,0.816,2.112,1.221,3.169c0.84,2.102,1.612,4.23,2.506,6.307l2.774,6.186
			c0.443,1.041,0.952,2.048,1.471,3.05l1.534,3.017l1.533,3.014c0.533,0.992,1.11,1.959,1.663,2.941
			c1.132,1.944,2.197,3.93,3.382,5.838c1.208,1.896,2.414,3.791,3.62,5.682c0.584,0.959,1.237,1.871,1.887,2.785l1.939,2.744
			l1.947,2.736l2.069,2.639c1.399,1.74,2.733,3.533,4.182,5.227c1.463,1.684,2.924,3.361,4.384,5.039
			c6,6.561,12.312,12.793,19.122,18.359c13.542,11.217,28.522,20.314,44.18,27.037l2.921,1.285l2.974,1.141
			c1.984,0.75,3.949,1.535,5.934,2.248c4.022,1.281,7.973,2.721,12.032,3.732c8.031,2.326,16.191,3.824,24.276,5.018
			c4.063,0.457,8.102,1.037,12.114,1.211c2.013,0.115,3.991,0.307,6.012,0.361c2.03,0.035,4.055,0.068,6.073,0.104
			c0.984,0.014,2.072,0.055,2.966,0.045l2.979-0.092c1.981-0.061,3.959-0.121,5.929-0.18c1.967-0.131,3.924-0.313,5.875-0.465
			c1.949-0.164,3.898-0.277,5.821-0.576c15.437-1.852,30.241-5.408,43.929-10.57c13.695-5.145,26.319-11.688,37.701-19.104
			c11.354-7.467,21.436-15.838,30.192-24.635c8.759-8.801,16.192-18.021,22.396-27.215c6.202-9.196,11.241-18.336,15.145-27.127
			c3.902-8.785,7.023-17.096,9.076-24.821c4.43-15.375,5.824-27.972,6.396-36.493c0.083-1.066,0.162-2.072,0.235-3.014
			c0.08-0.941,0.064-1.827,0.1-2.645c0.044-1.635,0.082-3.012,0.111-4.119c0.062-2.217,0.093-3.36,0.093-3.36L376.75,190.643
			L376.75,190.643z"/>
	</g>
	<g>
		<g>
			<g>
				<path d="M190.353,15.023c0,0,0.058,0.069,0.167,0.2c0.092,0.13,0.262,0.321,0.408,0.563c0.333,0.485,0.739,1.176,1.089,2.003
					c0.354,0.826,0.66,1.788,0.854,2.815c0.196,1.027,0.297,2.12,0.271,3.21c-0.035,2.18-0.605,4.348-1.404,5.965
					c-0.393,0.809-0.83,1.479-1.189,1.948c-0.159,0.234-0.339,0.417-0.438,0.543c-0.116,0.125-0.177,0.192-0.177,0.192
					s-0.058-0.069-0.168-0.2c-0.093-0.13-0.263-0.321-0.411-0.563c-0.336-0.485-0.742-1.177-1.094-2.003
					c-0.721-1.653-1.187-3.845-1.117-6.025c0.024-1.09,0.178-2.177,0.423-3.193c0.244-1.017,0.595-1.962,0.989-2.771
					c0.39-0.809,0.828-1.48,1.184-1.948c0.158-0.235,0.337-0.418,0.435-0.543C190.292,15.09,190.353,15.023,190.353,15.023z"/>
			</g>
			<g>
				<path d="M14.883,190.789c0,0,0.069-0.058,0.2-0.167c0.13-0.092,0.321-0.262,0.563-0.408c0.485-0.333,1.176-0.739,2.003-1.089
					c0.826-0.355,1.788-0.66,2.815-0.855c1.027-0.197,2.12-0.298,3.21-0.27c2.181,0.035,4.348,0.605,5.965,1.404
					c0.809,0.392,1.479,0.83,1.948,1.189c0.234,0.159,0.417,0.339,0.543,0.438c0.125,0.116,0.192,0.177,0.192,0.177
					s-0.069,0.059-0.2,0.168c-0.13,0.092-0.321,0.263-0.563,0.41c-0.485,0.336-1.177,0.742-2.003,1.094
					c-1.653,0.722-3.846,1.188-6.025,1.117c-1.09-0.023-2.177-0.178-3.193-0.422c-1.017-0.244-1.962-0.596-2.771-0.99
					c-0.809-0.39-1.48-0.828-1.948-1.184c-0.235-0.158-0.418-0.337-0.543-0.435C14.95,190.85,14.883,190.789,14.883,190.789z"/>
			</g>
			<g>
				<path d="M190.648,366.259c0,0-0.058-0.068-0.167-0.201c-0.092-0.129-0.262-0.32-0.409-0.563
					c-0.333-0.484-0.738-1.176-1.089-2.002c-0.354-0.826-0.66-1.789-0.855-2.816c-0.197-1.025-0.298-2.119-0.271-3.209
					c0.035-2.182,0.605-4.348,1.404-5.965c0.391-0.809,0.83-1.479,1.188-1.949c0.159-0.234,0.339-0.418,0.438-0.543
					c0.116-0.125,0.177-0.191,0.177-0.191s0.058,0.068,0.168,0.199c0.093,0.131,0.263,0.322,0.41,0.564
					c0.336,0.484,0.744,1.176,1.096,2.002c0.721,1.654,1.187,3.846,1.117,6.025c-0.024,1.09-0.178,2.178-0.424,3.193
					c-0.244,1.018-0.595,1.963-0.988,2.771c-0.391,0.809-0.828,1.479-1.185,1.947c-0.157,0.234-0.337,0.418-0.435,0.545
					C190.709,366.193,190.648,366.259,190.648,366.259z"/>
			</g>
			<g>
				<path d="M366.117,190.494c0,0-0.069,0.058-0.2,0.167c-0.13,0.092-0.321,0.262-0.563,0.408c-0.485,0.333-1.176,0.739-2.002,1.091
					c-0.826,0.354-1.789,0.659-2.814,0.854c-1.027,0.196-2.12,0.298-3.21,0.271c-2.181-0.035-4.347-0.604-5.964-1.404
					c-0.809-0.391-1.479-0.83-1.948-1.188c-0.233-0.159-0.417-0.339-0.543-0.438c-0.125-0.116-0.192-0.177-0.192-0.177
					s0.069-0.059,0.2-0.168c0.13-0.093,0.321-0.263,0.563-0.411c0.484-0.336,1.176-0.742,2.002-1.095
					c1.652-0.721,3.845-1.187,6.023-1.117c1.09,0.024,2.178,0.177,3.193,0.423c1.018,0.244,1.962,0.595,2.771,0.989
					c0.809,0.39,1.479,0.827,1.947,1.184c0.234,0.158,0.417,0.337,0.543,0.435C366.05,190.433,366.117,190.494,366.117,190.494z"/>
			</g>
		</g>
	</g>
	<g>
		<g>
			<path d="M102.563,38.627c0,0,0.816,0.797,1.808,2.119c0.505,0.656,1.055,1.442,1.607,2.305c0.556,0.861,1.119,1.796,1.641,2.753
				c0.522,0.957,1.007,1.934,1.43,2.868c0.428,0.931,0.791,1.819,1.069,2.599c0.575,1.549,0.801,2.667,0.802,2.667
				s-0.818-0.796-1.81-2.117c-0.505-0.656-1.057-1.442-1.607-2.306c-0.558-0.86-1.117-1.797-1.639-2.754
				c-0.522-0.957-1.004-1.936-1.428-2.869c-0.427-0.932-0.791-1.82-1.069-2.6C102.792,39.744,102.564,38.627,102.563,38.627z"/>
		</g>
		<g>
			<path d="M38.339,102.96c0,0,1.105,0.282,2.625,0.931c0.765,0.316,1.635,0.722,2.545,1.193c0.912,0.468,1.867,0.996,2.798,1.564
				c0.931,0.567,1.84,1.171,2.672,1.77c0.836,0.592,1.595,1.18,2.226,1.716c1.272,1.055,2.028,1.91,2.028,1.91
				s-1.106-0.28-2.626-0.929c-0.765-0.315-1.636-0.721-2.545-1.193c-0.913-0.466-1.866-0.998-2.796-1.566
				c-0.931-0.567-1.838-1.175-2.671-1.771c-0.835-0.593-1.595-1.181-2.226-1.717C39.096,103.813,38.339,102.96,38.339,102.96z"/>
		</g>
		<g>
			<path d="M38.487,278.58c0,0,0.797-0.816,2.119-1.808c0.656-0.505,1.442-1.056,2.306-1.606c0.861-0.557,1.795-1.119,2.753-1.642
				c0.957-0.522,1.934-1.008,2.868-1.43c0.931-0.429,1.819-0.791,2.599-1.069c1.549-0.574,2.667-0.802,2.667-0.802
				s-0.796,0.817-2.118,1.81c-0.656,0.506-1.441,1.057-2.305,1.607c-0.86,0.559-1.797,1.117-2.754,1.639
				c-0.957,0.523-1.936,1.004-2.869,1.428c-0.931,0.428-1.82,0.791-2.599,1.069C39.604,278.351,38.487,278.58,38.487,278.58z"/>
		</g>
		<g>
			<path d="M102.819,342.802c0,0,0.282-1.104,0.932-2.625c0.315-0.764,0.721-1.635,1.193-2.545c0.468-0.91,0.996-1.865,1.564-2.797
				c0.567-0.93,1.171-1.84,1.77-2.672c0.592-0.836,1.18-1.594,1.716-2.227c1.055-1.271,1.91-2.027,1.91-2.027
				s-0.28,1.105-0.929,2.627c-0.315,0.766-0.721,1.635-1.193,2.545c-0.466,0.912-0.998,1.865-1.566,2.795
				c-0.567,0.932-1.175,1.838-1.771,2.672c-0.593,0.836-1.181,1.594-1.717,2.227C103.672,342.046,102.819,342.802,102.819,342.802z"
				/>
		</g>
		<g>
			<path d="M278.436,342.656c0,0-0.814-0.797-1.807-2.117c-0.504-0.656-1.055-1.441-1.607-2.305
				c-0.556-0.861-1.119-1.797-1.641-2.752c-0.521-0.957-1.007-1.934-1.429-2.867c-0.429-0.932-0.791-1.818-1.069-2.6
				c-0.574-1.547-0.801-2.666-0.801-2.666s0.816,0.795,1.809,2.117c0.506,0.654,1.057,1.441,1.607,2.305
				c0.557,0.859,1.117,1.797,1.639,2.754c0.522,0.955,1.004,1.934,1.428,2.865c0.427,0.934,0.791,1.82,1.068,2.6
				C278.207,341.539,278.436,342.656,278.436,342.656z"/>
		</g>
		<g>
			<path d="M342.661,278.326c0,0-1.104-0.283-2.625-0.933c-0.765-0.315-1.636-0.722-2.544-1.192
				c-0.912-0.469-1.867-0.996-2.797-1.564c-0.932-0.567-1.84-1.172-2.672-1.77c-0.836-0.593-1.596-1.182-2.226-1.718
				c-1.272-1.055-2.028-1.909-2.028-1.909s1.106,0.28,2.627,0.928c0.765,0.316,1.635,0.722,2.543,1.194
				c0.914,0.466,1.865,0.998,2.797,1.566c0.931,0.567,1.836,1.175,2.67,1.771c0.835,0.594,1.594,1.182,2.225,1.717
				C341.904,277.472,342.661,278.326,342.661,278.326z"/>
		</g>
		<g>
			<path d="M342.514,102.706c0,0-0.795,0.816-2.117,1.807c-0.656,0.505-1.442,1.056-2.306,1.607
				c-0.86,0.556-1.795,1.119-2.752,1.641c-0.957,0.522-1.935,1.007-2.868,1.43c-0.93,0.428-1.818,0.791-2.599,1.069
				c-1.55,0.575-2.667,0.802-2.667,0.802s0.795-0.817,2.117-1.81c0.654-0.505,1.441-1.056,2.305-1.607
				c0.859-0.557,1.797-1.117,2.754-1.639c0.957-0.523,1.936-1.004,2.869-1.428c0.932-0.427,1.818-0.79,2.6-1.069
				C341.396,102.935,342.514,102.706,342.514,102.706z"/>
		</g>
		<g>
			<path d="M278.182,38.479c0,0-0.283,1.105-0.932,2.625c-0.314,0.765-0.721,1.635-1.191,2.545
				c-0.469,0.912-0.996,1.867-1.564,2.797c-0.566,0.931-1.171,1.84-1.77,2.672c-0.592,0.836-1.18,1.595-1.716,2.226
				c-1.054,1.272-1.909,2.028-1.909,2.028s0.28-1.106,0.93-2.626c0.314-0.765,0.721-1.636,1.193-2.544
				c0.467-0.913,0.998-1.866,1.565-2.796c0.567-0.931,1.174-1.838,1.771-2.671c0.594-0.835,1.182-1.595,1.717-2.226
				C277.328,39.236,278.182,38.479,278.182,38.479z"/>
		</g>
	</g>
	<g>
		<g>
			<g>
				<g>
					<path d="M183.009,42.67c0.066-0.229,0.058-0.402-0.025-0.52c-0.082-0.114-0.182-0.214-0.296-0.296
						c-0.115-0.083-0.231-0.165-0.346-0.248c-0.117-0.081-0.173-0.206-0.173-0.371c0-0.263,0.089-0.419,0.271-0.469
						c0.181-0.05,0.354-0.075,0.52-0.075c0.725,0,1.254,0.182,1.584,0.544c0.329,0.363,0.461,0.776,0.396,1.238
						c-0.167,0.988-0.323,2.102-0.471,3.338c-0.148,1.236-0.289,2.498-0.421,3.784c-0.131,1.286-0.238,2.564-0.321,3.834
						c-0.082,1.27-0.123,2.449-0.123,3.538c0,1.089-0.346,1.632-1.039,1.632c-0.561,0-0.875-0.198-0.94-0.594
						c-0.067-0.396-0.1-0.791-0.1-1.187c0-0.759,0.025-1.765,0.075-3.019c0.05-1.253,0.131-2.573,0.248-3.957
						c0.114-1.385,0.271-2.721,0.469-4.007C182.515,44.551,182.746,43.496,183.009,42.67z"/>
					<path d="M193.102,56.918c0.955,0.132,1.961,0.182,3.017,0.148c1.055-0.031,2.209-0.081,3.463-0.148
						c1.353-0.064,2.028,0.148,2.028,0.644c0,0.263-0.141,0.469-0.422,0.617c-0.279,0.148-0.766,0.257-1.459,0.323
						c-1.945,0.196-4.055,0.246-6.332,0.148c-0.43-0.033-0.865-0.108-1.312-0.223c-0.444-0.114-0.799-0.281-1.063-0.494
						c-0.263-0.214-0.388-0.496-0.371-0.842c0.016-0.346,0.29-0.75,0.817-1.211c0.726-0.627,1.459-1.294,2.202-2.003
						c0.742-0.708,1.436-1.484,2.077-2.325c0.644-0.842,1.196-1.749,1.657-2.721c0.462-0.973,0.791-2.036,0.99-3.191
						c0.229-1.417,0.024-2.448-0.619-3.092c-0.643-0.643-1.443-0.996-2.399-1.063c-0.824-0.066-1.642,0.14-2.448,0.619
						c-0.81,0.478-1.312,1.293-1.509,2.448c-0.067,0.265-0.157,0.502-0.272,0.717s-0.387,0.306-0.815,0.273
						c-0.296-0.033-0.494-0.165-0.594-0.396c-0.098-0.231-0.131-0.511-0.098-0.842c0.131-1.187,0.692-2.232,1.681-3.14
						c0.988-0.906,2.309-1.361,3.957-1.361c0.891,0,1.675,0.157,2.351,0.471c0.675,0.313,1.235,0.742,1.683,1.287
						c0.443,0.544,0.766,1.17,0.963,1.878c0.197,0.709,0.248,1.459,0.148,2.251c-0.167,1.155-0.488,2.251-0.964,3.29
						c-0.479,1.038-1.063,2.028-1.757,2.969c-0.692,0.938-1.443,1.822-2.25,2.646C194.641,55.417,193.859,56.193,193.102,56.918z"/>
				</g>
				<g>
					<path d="M189.934,323.486c-0.988,1.355-1.772,2.59-2.35,3.711c-0.578,1.123-1.013,2.16-1.311,3.119
						c1.353-0.43,2.679-0.654,3.982-0.672c1.304-0.016,2.476,0.199,3.513,0.646c1.039,0.441,1.881,1.129,2.522,2.051
						c0.646,0.922,0.965,2.094,0.965,3.512c0,0.791-0.157,1.553-0.47,2.275c-0.314,0.727-0.766,1.359-1.36,1.906
						c-0.594,0.543-1.319,0.973-2.176,1.285s-1.813,0.471-2.869,0.471c-2.112,0-3.761-0.576-4.947-1.73
						c-1.188-1.154-1.764-2.869-1.732-5.146c0-1.383,0.165-2.688,0.496-3.906c0.329-1.221,0.733-2.367,1.211-3.439
						c0.477-1.07,0.99-2.033,1.534-2.895c0.544-0.857,1.046-1.6,1.507-2.227c0.298-0.43,0.652-0.824,1.063-1.188
						c0.413-0.363,0.784-0.426,1.113-0.197c0.362,0.266,0.454,0.568,0.273,0.914C190.718,322.324,190.396,322.828,189.934,323.486z
						 M195.277,335.658c0-1.154-0.307-2.039-0.916-2.648c-0.61-0.607-1.377-1.027-2.301-1.26s-1.946-0.299-3.066-0.199
						c-1.122,0.102-2.177,0.279-3.165,0.547c-0.067,0.426-0.108,0.838-0.125,1.234c-0.017,0.395-0.025,0.775-0.025,1.137
						c0,2.049,0.438,3.475,1.311,4.279c0.873,0.809,2.02,1.213,3.438,1.213c1.419,0,2.581-0.371,3.488-1.113
						C194.822,338.105,195.277,337.042,195.277,335.658z"/>
				</g>
			</g>
		</g>
		<g>
			<g>
				<path d="M46.637,201.283c0.957-1.353,1.722-2.58,2.299-3.686c0.577-1.104,1.015-2.135,1.312-3.092
					c-1.353,0.428-2.679,0.65-3.982,0.666c-1.304,0.018-2.467-0.197-3.488-0.643s-1.855-1.129-2.498-2.053
					c-0.644-0.923-0.965-2.109-0.965-3.563c0-0.79,0.156-1.549,0.471-2.274c0.313-0.725,0.766-1.361,1.359-1.906
					c0.594-0.544,1.319-0.971,2.177-1.284c0.856-0.314,1.813-0.471,2.869-0.471c2.111,0,3.761,0.578,4.947,1.732
					c1.188,1.153,1.764,2.869,1.732,5.144c0,1.386-0.166,2.688-0.496,3.909c-0.33,1.22-0.734,2.367-1.211,3.438
					c-0.478,1.072-0.997,2.037-1.558,2.895s-1.057,1.6-1.484,2.227c-0.165,0.198-0.338,0.414-0.519,0.643
					c-0.182,0.231-0.371,0.422-0.569,0.57c-0.198,0.147-0.388,0.248-0.569,0.297c-0.182,0.049-0.354,0.008-0.519-0.125
					c-0.363-0.263-0.455-0.568-0.273-0.916C45.853,202.444,46.174,201.942,46.637,201.283z M41.293,189.112
					c0,1.155,0.306,2.046,0.916,2.673c0.61,0.625,1.377,1.047,2.301,1.26c0.922,0.215,1.937,0.271,3.042,0.174
					c1.104-0.1,2.151-0.281,3.142-0.545c0.131-0.758,0.198-1.55,0.198-2.375c0-2.045-0.438-3.471-1.312-4.28
					c-0.874-0.807-2.021-1.211-3.438-1.211c-1.42,0-2.582,0.371-3.488,1.113C41.748,186.664,41.293,187.727,41.293,189.112z"/>
			</g>
			<g>
				<path d="M340.904,197.82c0,0.891-0.19,1.674-0.569,2.35c-0.38,0.677-0.89,1.236-1.532,1.682
					c-0.644,0.445-1.395,0.783-2.251,1.016c-0.856,0.23-1.78,0.362-2.771,0.396c-0.363,0.034-0.709-0.009-1.038-0.125
					c-0.33-0.114-0.511-0.304-0.544-0.568c-0.067-0.396,0.033-0.668,0.296-0.815c0.264-0.148,0.61-0.24,1.04-0.272
					c1.781-0.165,3.125-0.511,4.031-1.039c0.906-0.526,1.36-1.401,1.36-2.621c0-1.088-0.37-1.888-1.112-2.399
					c-0.742-0.51-1.707-0.768-2.895-0.768c-1.154,0-1.797-0.23-1.928-0.691c-0.067-0.363,0.025-0.637,0.271-0.817
					c0.247-0.181,0.486-0.354,0.717-0.519c0.328-0.231,0.699-0.494,1.112-0.793c0.413-0.295,0.8-0.643,1.163-1.039
					s0.659-0.84,0.891-1.336c0.229-0.495,0.346-1.071,0.346-1.731c0-1.021-0.313-1.747-0.94-2.176
					c-0.626-0.429-1.336-0.611-2.127-0.544c-0.463,0.034-0.974,0.182-1.534,0.445c-0.562,0.265-1.072,0.727-1.531,1.386
					c-0.363,0.494-0.678,0.776-0.94,0.84c-0.265,0.067-0.511,0.034-0.742-0.098c-0.165-0.066-0.223-0.273-0.173-0.619
					c0.049-0.346,0.223-0.733,0.52-1.161c0.361-0.561,0.922-1.096,1.682-1.609c0.759-0.511,1.615-0.798,2.572-0.865
					c0.593-0.033,1.195,0.017,1.807,0.148c0.607,0.134,1.161,0.38,1.656,0.742c0.496,0.363,0.892,0.834,1.188,1.411
					c0.297,0.576,0.446,1.262,0.446,2.052c0,1.253-0.315,2.327-0.94,3.217c-0.627,0.89-1.468,1.601-2.522,2.126
					c0.625,0,1.235,0.107,1.829,0.32c0.594,0.216,1.129,0.52,1.609,0.916c0.477,0.396,0.855,0.89,1.135,1.484
					C340.764,196.335,340.904,197.028,340.904,197.82z"/>
			</g>
		</g>
	</g>
</g>
</svg>
