<?xml version="1.0" encoding="utf-8"?>
<!-- Generator: Adobe Illustrator 16.0.0, SVG Export Plug-In . SVG Version: 6.00 Build 0)  -->
<!DOCTYPE svg PUBLIC "-//W3C//DTD SVG 1.1//EN" "http://www.w3.org/Graphics/SVG/1.1/DTD/svg11.dtd">
<svg version="1.1" id="Layer_1" xmlns="http://www.w3.org/2000/svg" xmlns:xlink="http://www.w3.org/1999/xlink" x="0px" y="0px"
	 width="2000px" height="550px" viewBox="0 0 2000 550" enable-background="new 0 0 2000 550" xml:space="preserve">
<g>
	<g>
		<rect x="0" y="0.004" fill="none" width="500.003" height="549.989"/>
	</g>
	<g>
		<rect x="500" y="0.004" fill="none" width="500" height="549.989"/>
	</g>
	<g>
		<rect x="1000" y="0.004" fill="none" width="500" height="549.989"/>
	</g>
	<g>
		<rect x="1500" fill="none" width="500" height="550"/>
	</g>
</g>
<g>
	<g>
		<path fill="#FFFFFF" d="M1750.03,535.95c-10.421-13.477-30.854-44.694-38.974-59.001c0.781-0.035,1.586-0.053,2.42-0.053
			c3.357,0,6.747,0.285,10.025,0.563c3.271,0.276,6.653,0.563,9.999,0.563h0.001c3.151,0,5.956-0.257,8.565-0.78l1.96-0.396
			l0.118-5.159c1.011-43.354,2.701-115.919-34.896-140.618c-30.26-19.857-55.437-27.888-77.647-34.968
			c-29.806-9.505-55.547-17.711-84.184-51.378c-21.229-24.958-32.896-51.179-34.686-77.933c-1.887-28.234,7.446-55.649,27.74-81.484
			c37.415-47.625,120.812-72.201,186.862-75.43c11.529-0.564,22.891-0.85,33.764-0.85c62.917,0,115.872,9.264,161.891,28.321
			c21.005,8.699,39.158,26.321,51.12,49.623c11.953,23.284,16.104,49.045,11.686,72.539c-4.739,25.207-17.339,48.454-37.447,69.097
			c-16.765,17.209-38.752,32.665-65.351,45.938c-6.896,3.44-14.737,6.913-23.041,10.589c-27.211,12.049-61.077,27.043-86.467,52.435
			c-17.565,17.564-19.854,67.595-17.883,137.307l0.069,2.458l2.459-0.028c4.142-0.048,7.476-0.142,10.417-0.224
			c3.314-0.094,6.18-0.174,9.436-0.174c2.941,0,6,0.067,9.432,0.216c-5.803,13.467-17.109,29.621-27.173,43.999
			C1756.595,526.336,1753.109,531.315,1750.03,535.95z"/>
		<path d="M1750.032,536.122l-5.303-7.25l-2.61-3.568c-0.871-1.188-1.748-2.374-2.563-3.604l-9.966-14.621l-9.634-14.839
			c-0.814-1.229-1.594-2.481-2.352-3.748l-2.3-3.78l-4.603-7.563l-0.354-0.585l0.688-0.019l2.083-0.055
			c0.722-0.02,1.388,0.031,2.083,0.044c1.379,0.058,2.755,0.052,4.137,0.162l8.268,0.604c1.377,0.121,2.739,0.11,4.109,0.173
			c0.675,0.014,1.389,0.065,2.031,0.048l2.066-0.096l2.064-0.095l2.012-0.289l2.008-0.293l2.025-0.411l-0.416,0.495
			c0.334-15.624,0.68-31.244,0.127-46.842c-0.589-15.58-1.918-31.186-5.23-46.398c-1.677-7.591-3.816-15.095-6.806-22.252
			c-3.036-7.114-6.778-14.001-11.852-19.824c-2.46-2.971-5.321-5.579-8.366-7.916l-2.342-1.681
			c-0.765-0.521-1.642-1.031-2.457-1.548l-4.979-3.091l-2.489-1.545c-0.827-0.521-1.658-1.034-2.516-1.489l-5.1-2.829
			c-1.708-0.929-3.381-1.918-5.116-2.798l-5.233-2.59c-13.976-6.891-28.608-12.335-43.489-17.043
			c-14.824-4.814-29.951-9.228-44.071-16.22c-7.048-3.478-13.825-7.538-20.143-12.225c-6.324-4.678-12.201-9.929-17.704-15.525
			c-10.926-11.254-20.602-23.775-28.202-37.531c-7.614-13.72-12.862-28.837-14.769-44.443c-0.279-1.944-0.371-3.909-0.566-5.862
			c-0.107-1.982-0.174-3.91-0.237-5.872c0.038-1.967,0-3.94,0.103-5.901l0.177-2.939l0.09-1.47l0.159-1.463
			c0.782-7.813,2.44-15.529,4.878-22.984c4.878-14.931,12.821-28.721,22.476-41.031c9.657-12.385,21.842-22.584,34.939-31.105
			c13.146-8.507,27.229-15.486,41.75-21.301c14.548-5.76,29.521-10.423,44.73-14.087c15.215-3.637,30.65-6.371,46.209-8.065
			c7.777-0.84,15.585-1.445,23.405-1.736l11.712-0.452c3.904-0.146,7.819-0.136,11.729-0.213
			c31.263-0.437,62.639,1.408,93.519,6.637c15.433,2.634,30.712,6.203,45.705,10.736l2.814,0.84l2.792,0.912l5.581,1.839
			c1.859,0.612,3.688,1.316,5.535,1.97c1.836,0.681,3.695,1.297,5.513,2.033l5.466,2.158c0.914,0.376,1.813,0.688,2.74,1.116
			l2.679,1.187c3.569,1.702,7.083,3.554,10.38,5.713c13.341,8.487,24.325,20.325,32.689,33.643c1.05,1.665,2.025,3.376,3.021,5.074
			c0.918,1.746,1.907,3.435,2.766,5.228c0.859,1.754,1.736,3.492,2.515,5.32c0.396,0.905,0.811,1.804,1.191,2.713l1.092,2.744
			c2.895,7.325,5.03,14.948,6.423,22.704c1.421,7.753,1.979,15.664,1.706,23.548l-0.043,1.479l-0.105,1.476l-0.214,2.952
			l-0.339,2.94c-0.108,0.981-0.225,1.961-0.399,2.933l-0.479,2.922c-0.195,1.047-0.428,1.931-0.641,2.904l-1.305,5.713
			c-0.186,0.955-0.496,1.898-0.793,2.842l-0.886,2.833l-0.887,2.833c-0.303,0.941-0.562,1.902-0.958,2.803l-2.206,5.483
			l-1.111,2.738l-1.309,2.648l-2.621,5.296c-0.406,0.898-0.956,1.719-1.444,2.574l-1.503,2.542l-1.503,2.542
			c-0.512,0.84-0.972,1.715-1.559,2.506l-3.362,4.852l-1.683,2.426c-0.566,0.804-1.216,1.545-1.819,2.321l-3.688,4.606
			c-1.188,1.572-2.563,2.981-3.882,4.438l-3.979,4.35l-0.498,0.544c-0.065,0.075-0.188,0.205-0.272,0.284l-0.263,0.255l-1.049,1.023
			l-2.099,2.045c-1.417,1.349-2.749,2.765-4.262,4.041c-2.959,2.596-5.856,5.276-8.964,7.672
			c-12.212,9.876-25.433,18.442-39.208,25.924c-3.488,1.799-6.926,3.639-10.459,5.402l-10.6,5.006l-21.436,9.542
			c-14.25,6.36-28.33,13.118-41.679,21.15c-13.313,8.007-26.016,17.325-36.675,28.564c-2.393,2.897-4.333,6.298-5.895,9.806
			c-1.569,3.524-2.804,7.205-3.843,10.94c-1.048,3.735-1.855,7.543-2.555,11.368c-0.71,3.824-1.259,7.682-1.733,11.548
			c-1.865,15.479-2.404,31.106-2.608,46.715c-0.173,15.616,0.104,31.237,0.518,46.856l-0.488-0.471
			c2.647-0.013,5.283-0.082,7.934-0.128l7.938-0.142l3.968-0.058l1.984-0.027c0.691-0.022,1.331,0.023,1.999,0.033l7.934,0.213
			l0.587,0.017l-0.243,0.517l-1.874,3.958c-0.596,1.337-1.332,2.596-2.012,3.887c-0.699,1.277-1.353,2.584-2.113,3.826l-2.218,3.766
			c-0.738,1.256-1.54,2.472-2.307,3.71c-0.778,1.229-1.536,2.474-2.35,3.681l-2.403,3.646c-0.794,1.22-1.633,2.409-2.446,3.614
			c-3.266,4.816-6.64,9.562-9.979,14.318L1750.032,536.122z M1750.028,535.776l9.761-14.294c3.306-4.791,6.637-9.558,9.86-14.396
			c0.804-1.211,1.632-2.406,2.415-3.631l2.37-3.659c0.803-1.212,1.549-2.458,2.314-3.69c0.755-1.241,1.544-2.463,2.271-3.72
			l2.179-3.771c0.749-1.244,1.388-2.549,2.074-3.826c0.664-1.289,1.389-2.549,1.968-3.878l1.827-3.942l0.343,0.532l-7.937-0.15
			c-0.654-0.003-1.337-0.045-1.969-0.017l-1.983,0.044l-3.968,0.09l-7.934,0.183c-2.642,0.058-5.295,0.139-7.938,0.163l-0.476,0.004
			l-0.014-0.475c-0.48-15.622-0.826-31.255-0.721-46.894c0.137-15.634,0.606-31.297,2.417-46.868
			c0.46-3.891,0.995-7.775,1.693-11.637c0.688-3.861,1.488-7.711,2.534-11.505c1.038-3.795,2.276-7.548,3.87-11.17
			c1.604-3.625,3.537-7.093,6.113-10.235c10.811-11.497,23.536-20.896,36.93-29.035c13.407-8.149,27.534-15.001,41.786-21.437
			l21.38-9.558l10.595-5.012c3.454-1.729,6.907-3.58,10.361-5.363c13.68-7.442,26.788-15.953,38.874-25.742
			c3.084-2.381,5.923-5.015,8.837-7.571c1.478-1.245,2.827-2.681,4.238-4.025l2.098-2.046l1.049-1.023l0.262-0.256
			c0.094-0.088,0.137-0.138,0.234-0.245l0.489-0.538l3.929-4.299c1.301-1.44,2.658-2.832,3.826-4.384l3.636-4.546
			c0.595-0.765,1.234-1.498,1.794-2.29l1.653-2.392l3.313-4.783c0.579-0.78,1.029-1.641,1.532-2.469l1.479-2.503l1.479-2.503
			c0.479-0.841,1.021-1.65,1.421-2.534l2.573-5.212l1.286-2.605l1.089-2.693l2.166-5.392c0.396-0.889,0.645-1.82,0.941-2.737
			l0.869-2.758l0.87-2.758c0.292-0.918,0.599-1.831,0.788-2.795c4.113-15.017,4.638-30.784,1.886-46.047
			c-1.354-7.625-3.438-15.127-6.275-22.342l-1.068-2.704c-0.371-0.893-0.773-1.769-1.159-2.654
			c-0.746-1.771-1.625-3.524-2.482-5.279c-0.824-1.734-1.809-3.422-2.704-5.137c-0.977-1.673-1.935-3.359-2.965-5
			c-8.208-13.124-18.985-24.774-32.047-33.117c-3.24-2.129-6.651-3.934-10.127-5.602l-2.677-1.192
			c-0.845-0.395-1.793-0.73-2.686-1.098l-5.427-2.167c-1.803-0.739-3.651-1.359-5.475-2.044c-1.834-0.658-3.649-1.367-5.498-1.983
			l-5.544-1.852l-2.774-0.919l-2.798-0.848c-14.902-4.573-30.102-8.19-45.467-10.878c-30.753-5.338-62.032-7.309-93.248-7.002
			c-3.902,0.063-7.803,0.043-11.707,0.177l-11.713,0.418c-7.797,0.267-15.582,0.847-23.343,1.663
			c-15.521,1.644-30.928,4.327-46.118,7.911c-15.186,3.612-30.14,8.221-44.668,13.926c-14.496,5.765-28.593,12.653-41.658,21.191
			c-13.038,8.522-25.139,18.701-34.707,31.027c-9.585,12.275-17.464,26.006-22.202,40.855c-4.769,14.826-6.356,30.623-4.311,46.074
			c1.973,15.433,7.237,30.357,14.853,43.906c7.591,13.576,17.266,25.954,28.15,37.055c5.459,5.533,11.275,10.713,17.527,15.322
			c6.244,4.617,12.936,8.609,19.904,12.034c13.956,6.891,28.995,11.24,43.861,16.062c14.897,4.747,29.634,10.263,43.686,17.227
			l5.265,2.619c1.747,0.891,3.438,1.896,5.16,2.836l5.144,2.869c0.867,0.464,1.697,0.979,2.522,1.501l2.486,1.55l4.973,3.102
			c0.833,0.529,1.647,1.003,2.496,1.581l2.416,1.74c3.14,2.418,6.083,5.117,8.604,8.173c5.197,5.999,8.996,13.034,12.065,20.268
			c3.021,7.276,5.166,14.868,6.842,22.53c1.673,7.67,2.757,15.446,3.553,23.237c0.784,7.796,1.241,15.615,1.483,23.438
			c0.475,15.646,0.047,31.29-0.363,46.907l-0.012,0.416l-0.404,0.079l-2.03,0.4l-2.086,0.296c-0.695,0.096-1.394,0.204-2.087,0.284
			l-2.065,0.084l-2.067,0.084c-0.733,0.019-1.397-0.04-2.102-0.057c-1.385-0.069-2.784-0.067-4.154-0.196l-8.23-0.673
			c-1.367-0.122-2.754-0.128-4.129-0.197c-0.683-0.019-1.394-0.075-2.052-0.062l-2.052,0.035l0.333-0.604l4.526,7.585l2.263,3.793
			c0.745,1.271,1.512,2.528,2.314,3.763l9.499,14.911l9.83,14.691c0.803,1.236,1.668,2.429,2.531,3.624l2.579,3.592
			L1750.028,535.776z"/>
	</g>
</g>
<g>
	<g>
		<path fill="#FFFFFF" d="M1250.03,514.487c-10.418-13.473-30.853-44.69-38.974-59c0.782-0.035,1.588-0.055,2.423-0.055
			c3.356,0,6.746,0.286,10.024,0.563c3.271,0.277,6.653,0.563,9.999,0.563h0.001c3.15,0,5.953-0.256,8.563-0.779l1.961-0.396
			l0.154-6.63c0.996-41.555,2.235-93.271-34.936-117.688c-30.26-19.858-55.436-27.888-77.646-34.97
			c-29.806-9.503-55.547-17.711-84.183-51.375c-21.229-24.958-32.896-51.179-34.687-77.933c-1.886-28.234,7.447-55.649,27.74-81.484
			c37.417-47.625,120.813-72.2,186.863-75.428c11.531-0.564,22.894-0.85,33.769-0.85c62.913,0,115.866,9.264,161.886,28.321
			c21.005,8.699,39.158,26.321,51.12,49.623c11.953,23.284,16.104,49.045,11.686,72.539c-4.739,25.206-17.338,48.453-37.447,69.096
			c-16.764,17.208-38.751,32.664-65.35,45.938c-6.896,3.44-14.74,6.914-23.045,10.591c-27.212,12.047-61.075,27.042-86.466,52.433
			c-19.143,19.143-19.509,58.297-17.881,115.845l0.069,2.458l2.458-0.028c4.139-0.048,7.469-0.142,10.407-0.224
			c3.313-0.094,6.177-0.173,9.429-0.173c2.947,0,6.01,0.067,9.447,0.216c-5.803,13.467-17.106,29.618-27.17,43.994
			C1256.597,504.87,1253.11,509.851,1250.03,514.487z"/>
		<path d="M1250.032,514.659l-5.304-7.249l-2.61-3.568c-0.872-1.188-1.748-2.373-2.563-3.603l-9.968-14.62l-9.636-14.838
			c-0.814-1.229-1.594-2.481-2.352-3.747l-2.301-3.781l-4.603-7.563l-0.363-0.597l0.702-0.019l2.084-0.057
			c0.723-0.019,1.388,0.031,2.083,0.044c1.38,0.059,2.755,0.052,4.137,0.161l8.268,0.607c1.377,0.121,2.739,0.109,4.109,0.172
			c0.675,0.013,1.389,0.065,2.03,0.047l2.066-0.095l2.065-0.095l2.011-0.288l2.008-0.294l2.025-0.411l-0.421,0.501
			c0.299-15.191,0.796-30.386-0.043-45.528c-0.851-15.096-2.9-30.298-8.345-44.397c-2.72-7.021-6.312-13.724-10.972-19.618
			c-2.334-2.938-4.865-5.73-7.695-8.196c-1.355-1.3-2.888-2.395-4.339-3.582l-2.306-1.615c-0.38-0.261-0.777-0.557-1.145-0.789
			l-1.211-0.751l-9.683-6.01l-9.915-5.507c-3.354-1.751-6.776-3.378-10.16-5.073c-3.432-1.601-6.92-3.077-10.376-4.622
			c-13.974-5.874-28.488-10.324-42.965-14.969c-7.235-2.351-14.45-4.824-21.501-7.761c-7.049-2.928-13.918-6.342-20.431-10.354
			c-13.092-7.969-24.447-18.482-34.429-29.99c-9.951-11.533-18.654-24.282-25.034-38.167c-3.188-6.938-5.788-14.155-7.659-21.563
			c-1.841-7.415-2.95-15.012-3.248-22.645c-0.635-15.267,2.131-30.636,7.866-44.768c2.844-7.079,6.374-13.865,10.391-20.338
			c4.04-6.455,8.507-12.659,13.486-18.412c10.059-11.51,22.212-20.956,35.154-28.929c12.976-7.959,26.769-14.533,40.971-19.973
			c14.194-5.48,28.811-9.831,43.614-13.318c14.812-3.477,29.842-6.003,44.968-7.646c7.566-0.797,15.159-1.363,22.765-1.636
			l11.389-0.44c3.796-0.142,7.604-0.133,11.405-0.208c30.399-0.443,60.907,1.27,90.96,6.175c15.02,2.462,29.928,5.706,44.545,9.997
			c3.646,1.094,7.311,2.142,10.914,3.377l5.424,1.793l5.373,1.942c3.602,1.246,7.117,2.719,10.665,4.105l1.328,0.526l1.325,0.584
			l2.604,1.154l2.585,1.3c0.868,0.425,1.722,0.872,2.547,1.359l2.502,1.422l2.436,1.535c1.645,0.992,3.173,2.156,4.754,3.241
			c3.065,2.301,6.067,4.698,8.854,7.333c2.845,2.574,5.454,5.388,8.014,8.238c2.478,2.921,4.894,5.9,7.079,9.046
			c4.41,6.251,8.284,12.921,11.45,19.857c3.201,6.991,5.763,14.217,7.646,21.651c3.709,14.854,4.598,30.5,1.904,45.64l-0.116,0.71
			c-0.052,0.319-0.105,0.487-0.158,0.738l-0.316,1.389l-0.634,2.778l-0.634,2.778c-0.222,0.925-0.388,1.855-0.708,2.771
			l-1.728,5.508l-0.865,2.753c-0.339,0.896-0.71,1.78-1.063,2.67l-2.146,5.331c-0.186,0.441-0.346,0.894-0.551,1.327l-0.637,1.288
			l-1.271,2.575c-0.86,1.71-1.676,3.446-2.573,5.135l-2.922,4.943c-7.885,13.12-17.939,24.907-29.203,35.147
			c-11.348,10.3-23.765,19.239-36.824,27.124c-1.608,1.024-3.269,1.962-4.932,2.894l-4.976,2.817
			c-3.325,1.864-6.747,3.546-10.115,5.328c-3.432,1.731-6.867,3.279-10.301,4.927c-3.432,1.631-6.938,3.131-10.408,4.689
			c-13.914,6.148-27.821,12.208-41.229,19.296c-13.378,7.092-26.326,15.09-37.993,24.733c-2.887,2.438-5.767,4.895-8.466,7.539
			l-2.054,1.954c-0.627,0.645-1.308,1.365-1.937,2.052c-1.195,1.398-2.352,2.867-3.386,4.429
			c-4.166,6.229-6.783,13.407-8.594,20.714c-1.81,7.33-2.804,14.858-3.479,22.399c-0.658,7.548-0.964,15.133-1.097,22.719
			c-0.253,15.178,0.117,30.368,0.509,45.557l-0.494-0.475c2.646-0.013,5.283-0.082,7.934-0.129l7.938-0.145l3.969-0.057l1.983-0.028
			c0.691-0.021,1.331,0.025,1.999,0.034l7.934,0.214l0.599,0.018l-0.249,0.525l-1.874,3.958c-0.595,1.335-1.332,2.595-2.011,3.885
			c-0.7,1.278-1.354,2.584-2.115,3.826l-2.217,3.768c-0.739,1.255-1.54,2.472-2.308,3.709c-0.777,1.229-1.537,2.474-2.35,3.681
			l-2.404,3.645c-0.794,1.22-1.633,2.408-2.446,3.614c-3.267,4.815-6.641,9.56-9.979,14.316L1250.032,514.659z M1250.028,514.313
			l9.758-14.293c3.306-4.792,6.637-9.558,9.859-14.396c0.804-1.211,1.632-2.406,2.414-3.631l2.37-3.659
			c0.803-1.212,1.548-2.458,2.314-3.692c0.755-1.239,1.544-2.461,2.271-3.718l2.178-3.771c0.749-1.245,1.387-2.55,2.073-3.826
			c0.665-1.289,1.39-2.549,1.968-3.878l1.827-3.942l0.348,0.542l-7.936-0.147c-0.654-0.004-1.337-0.045-1.968-0.019l-1.984,0.044
			l-3.968,0.089l-7.933,0.18c-2.642,0.058-5.295,0.139-7.938,0.163l-0.479,0.005l-0.015-0.479
			c-0.459-15.188-0.897-30.388-0.711-45.602c0.101-7.605,0.371-15.217,1-22.812c0.646-7.587,1.614-15.178,3.414-22.617
			c1.804-7.413,4.431-14.755,8.702-21.209c1.059-1.611,2.245-3.141,3.515-4.632c0.651-0.716,1.271-1.381,1.966-2.101l2.066-1.983
			c2.716-2.686,5.611-5.177,8.516-7.651c11.735-9.788,24.748-17.901,38.169-25.093c13.438-7.183,27.396-13.333,41.244-19.528
			c3.449-1.576,6.934-3.057,10.364-4.691c3.414-1.643,6.905-3.221,10.256-4.916c3.346-1.773,6.746-3.447,10.047-5.302l4.938-2.801
			c1.65-0.927,3.3-1.858,4.896-2.876c12.943-7.823,25.291-16.74,36.446-26.878c11.199-10.198,21.063-21.797,28.829-34.735
			l2.875-4.869c0.883-1.664,1.682-3.372,2.525-5.055l1.252-2.534l0.626-1.267c0.199-0.426,0.357-0.871,0.538-1.306l2.105-5.243
			c0.347-0.875,0.712-1.745,1.043-2.624l0.841-2.684l1.687-5.366c0.313-0.879,0.485-1.824,0.707-2.745l0.641-2.777l0.639-2.776
			l0.32-1.388c0.045-0.214,0.123-0.503,0.142-0.654l0.115-0.695c2.666-14.811,1.829-30.171-1.788-44.783
			c-1.834-7.3-4.358-14.457-7.469-21.288c-3.132-6.895-6.914-13.427-11.247-19.598c-2.145-3.1-4.516-6.033-6.943-8.91
			c-2.51-2.806-5.068-5.576-7.856-8.108c-2.729-2.593-5.672-4.95-8.675-7.213c-1.548-1.066-3.044-2.212-4.652-3.187l-2.384-1.509
			l-2.448-1.397c-0.811-0.481-1.64-0.917-2.478-1.329l-2.502-1.267l-2.603-1.16l-1.281-0.568l-1.319-0.525
			c-3.526-1.382-7.018-2.858-10.594-4.115l-5.336-1.955l-5.389-1.807c-3.58-1.245-7.221-2.302-10.846-3.406
			c-14.529-4.331-29.36-7.625-44.315-10.142c-29.934-5.015-60.346-6.855-90.699-6.542c-3.795,0.061-7.587,0.042-11.384,0.172
			l-11.391,0.406c-7.582,0.249-15.152,0.791-22.701,1.563c-15.09,1.594-30.094,4.069-44.881,7.494
			c-14.781,3.435-29.377,7.732-43.554,13.158c-14.18,5.394-27.985,11.871-40.887,19.865c-12.88,7.97-24.977,17.426-34.921,28.858
			c-9.809,11.554-18.028,24.527-23.614,38.611c-5.614,14.06-8.261,29.29-7.549,44.39c0.336,7.549,1.477,15.058,3.336,22.38
			c1.892,7.317,4.501,14.441,7.692,21.29c6.396,13.716,15.063,26.273,25.009,37.677c9.925,11.394,21.161,21.76,34.09,29.597
			c6.433,3.95,13.218,7.308,20.203,10.196c6.983,2.896,14.161,5.338,21.378,7.678c14.439,4.667,29.02,9.169,43.069,15.11
			c3.477,1.562,6.984,3.056,10.435,4.675c3.404,1.714,6.844,3.356,10.22,5.13l9.999,5.583l9.671,6.03l1.208,0.754
			c0.437,0.276,0.798,0.553,1.2,0.83l2.358,1.659c1.484,1.219,3.05,2.346,4.438,3.68c2.895,2.534,5.483,5.4,7.864,8.412
			c4.759,6.046,8.405,12.896,11.155,20.037c1.397,3.566,2.493,7.238,3.489,10.929c0.952,3.703,1.732,7.444,2.382,11.206
			c1.251,7.53,1.988,15.132,2.351,22.738c0.763,15.222,0.184,30.438-0.193,45.619l-0.01,0.422l-0.41,0.08l-2.03,0.401l-2.088,0.295
			c-0.695,0.095-1.392,0.204-2.086,0.284l-2.066,0.084l-2.065,0.084c-0.735,0.017-1.399-0.041-2.104-0.058
			c-1.385-0.069-2.784-0.067-4.155-0.195l-8.229-0.671c-1.367-0.122-2.753-0.128-4.129-0.197c-0.683-0.019-1.395-0.075-2.051-0.062
			l-2.053,0.036l0.341-0.614l4.523,7.586l2.264,3.793c0.744,1.271,1.512,2.526,2.314,3.763l9.497,14.911l9.829,14.692
			c0.803,1.235,1.668,2.43,2.529,3.625l2.579,3.591L1250.028,514.313z"/>
	</g>
</g>
<g>
	<g>
		<path fill="#FFFFFF" d="M750.03,495.048c-10.419-13.471-30.854-44.689-38.974-59.001c0.781-0.035,1.586-0.053,2.419-0.053
			c3.356,0,6.747,0.287,10.025,0.563c3.271,0.276,6.653,0.563,9.999,0.563c3.152,0,5.957-0.255,8.567-0.781l1.96-0.396
			c0,0,0.134-5.754,0.182-7.615c1.021-41.581,1.904-77.491-34.96-101.71c-30.894-20.273-56.484-27.371-79.064-33.634
			c-29.293-8.125-54.591-15.141-82.767-48.266c-21.229-24.958-32.896-51.179-34.685-77.933
			c-1.887-28.234,7.446-55.649,27.739-81.484c37.419-47.625,120.814-72.201,186.863-75.428c11.531-0.564,22.894-0.85,33.769-0.85
			c62.913,0,115.866,9.264,161.886,28.321c21.003,8.699,39.158,26.321,51.12,49.623c11.952,23.283,16.104,49.045,11.686,72.539
			c-4.739,25.206-17.339,48.453-37.447,69.096c-16.765,17.209-38.751,32.665-65.351,45.938c-8.35,4.166-18.102,8.023-28.427,12.111
			c-26.855,10.632-57.298,22.682-81.083,46.463c-18.599,18.599-19.604,39.875-17.881,100.853l0.069,2.458l2.458-0.026
			c4.146-0.05,7.481-0.144,10.426-0.226c3.313-0.093,6.174-0.174,9.426-0.174c2.943,0,6.001,0.069,9.434,0.216
			c-5.804,13.468-17.109,29.622-27.174,44.001C756.595,485.434,753.109,490.413,750.03,495.048z"/>
		<path d="M750.032,495.22l-5.304-7.249l-2.611-3.567c-0.873-1.188-1.749-2.372-2.563-3.603l-9.969-14.619l-9.637-14.838
			c-0.814-1.229-1.594-2.48-2.352-3.747l-2.301-3.78l-4.604-7.563l-0.368-0.604l0.713-0.02l2.084-0.055
			c0.723-0.02,1.388,0.031,2.083,0.044c1.379,0.058,2.754,0.051,4.138,0.161l8.267,0.608c1.377,0.12,2.739,0.109,4.109,0.172
			c0.675,0.014,1.389,0.065,2.031,0.048l2.065-0.096l2.066-0.095l2.01-0.289l2.007-0.294l2.025-0.41l-0.424,0.506
			c0.257-14.854,0.911-29.725-0.154-44.504c-0.572-7.374-1.57-14.729-3.509-21.847c-1.888-7.124-4.774-13.975-8.698-20.188
			c-1.941-3.118-4.193-6.037-6.641-8.774c-2.441-2.744-5.1-5.301-7.95-7.626c-1.39-1.207-2.897-2.269-4.355-3.391l-2.274-1.565
			l-1.122-0.771l-1.187-0.729l-9.486-5.851c-12.785-7.416-26.319-13.595-40.312-18.44c-13.979-4.934-28.438-8.348-42.707-12.646
			c-7.125-2.175-14.195-4.63-21.022-7.689c-6.829-3.049-13.395-6.717-19.535-10.993c-6.148-4.268-11.875-9.112-17.24-14.313
			c-2.589-2.69-5.262-5.305-7.683-8.147c-2.515-2.769-4.891-5.646-7.202-8.552c-9.241-11.73-17.097-24.614-22.509-38.562
			c-5.421-13.914-8.294-28.878-7.942-43.818c0.166-7.475,1.131-14.917,2.855-22.182c1.735-7.263,4.228-14.333,7.326-21.113
			c3.099-6.784,6.813-13.272,10.955-19.463c4.178-6.171,8.713-12.089,13.85-17.511c10.254-10.843,22.337-19.787,35.122-27.375
			c25.721-15.049,54.104-25.078,83.062-31.75c14.495-3.352,29.204-5.765,43.999-7.342c7.398-0.786,14.826-1.313,22.262-1.58
			l11.138-0.431c3.712-0.146,7.436-0.132,11.153-0.207c29.728-0.457,59.563,1.146,88.975,5.789
			c29.379,4.694,58.425,12.292,85.718,24.449c6.761,3.34,13.064,7.472,18.789,12.328c5.736,4.831,10.968,10.257,15.552,16.184
			c9.203,11.829,16.186,25.344,20.594,39.663c4.445,14.299,6.182,29.495,4.692,44.442c-0.229,1.863-0.396,3.734-0.736,5.582
			l-0.468,2.818l-0.62,2.717l-1.244,5.432c-0.179,0.908-0.462,1.806-0.752,2.703l-0.845,2.693c-0.576,1.79-1.101,3.602-1.72,5.374
			l-2.099,5.213c-1.283,3.527-3.088,6.82-4.721,10.189c-0.428,0.832-0.802,1.694-1.273,2.501l-1.43,2.417l-2.858,4.833
			c-0.454,0.82-0.992,1.586-1.53,2.352l-1.599,2.307l-3.198,4.612c-2.338,2.917-4.64,5.871-7.04,8.735l-3.785,4.137l-1.893,2.068
			l-0.946,1.034c-0.353,0.382-0.67,0.665-1.007,1.001l-3.99,3.89c-0.672,0.643-1.315,1.308-2.01,1.934l-2.104,1.86l-4.209,3.72
			c-1.42,1.216-2.898,2.353-4.346,3.532c-1.465,1.156-2.885,2.372-4.388,3.477l-4.512,3.313c-2.967,2.267-6.128,4.254-9.207,6.359
			c-0.777,0.514-1.54,1.054-2.33,1.547l-2.381,1.468l-4.761,2.935c-1.571,1.006-3.22,1.878-4.835,2.808l-4.866,2.754
			c-3.265,1.796-6.602,3.46-9.898,5.197c-1.686,0.889-3.361,1.611-5.042,2.425l-2.521,1.188l-2.575,1.109
			c-13.716,5.92-27.693,10.906-41.314,16.791c-13.61,5.848-26.942,12.46-39.123,20.871c-6.089,4.19-11.884,8.811-17.258,13.88
			l-2.011,1.907l-0.502,0.477l-0.46,0.486l-0.952,1.018l-1.902,2.034l-1.705,2.139c-1.192,1.38-2.142,2.958-3.168,4.475
			c-0.54,0.742-0.931,1.575-1.377,2.375l-1.304,2.42c-3.153,6.634-4.862,13.883-5.885,21.188c-1.022,7.319-1.421,14.734-1.58,22.148
			c-0.356,14.833,0.085,29.692,0.44,44.545l-0.498-0.479c2.646-0.011,5.283-0.081,7.932-0.127l7.938-0.144l3.968-0.062l1.984-0.027
			c0.691-0.022,1.33,0.023,1.999,0.032l7.935,0.216l0.606,0.017l-0.253,0.534l-1.875,3.959c-0.596,1.335-1.334,2.595-2.012,3.885
			c-0.701,1.278-1.354,2.584-2.115,3.826l-2.217,3.767c-0.739,1.255-1.541,2.472-2.308,3.709c-0.779,1.229-1.537,2.475-2.35,3.682
			l-2.404,3.645c-0.794,1.219-1.633,2.408-2.447,3.614c-3.267,4.814-6.641,9.56-9.979,14.317L750.032,495.22z M750.028,494.873
			l9.759-14.294c3.305-4.792,6.635-9.559,9.858-14.397c0.803-1.212,1.631-2.406,2.414-3.632l2.37-3.659
			c0.802-1.212,1.547-2.459,2.313-3.691c0.754-1.241,1.543-2.462,2.271-3.719l2.178-3.771c0.749-1.245,1.387-2.549,2.073-3.826
			c0.664-1.289,1.389-2.549,1.966-3.878l1.827-3.942l0.354,0.551l-7.936-0.148c-0.654-0.004-1.338-0.045-1.969-0.017l-1.983,0.045
			l-3.968,0.086l-7.933,0.179c-2.643,0.06-5.296,0.142-7.94,0.164l-0.484,0.004l-0.014-0.482
			c-0.422-14.854-0.933-29.715-0.641-44.601c0.126-7.438,0.49-14.894,1.49-22.298c1-7.387,2.7-14.781,5.91-21.613l1.326-2.491
			c0.456-0.824,0.855-1.683,1.405-2.448c1.048-1.564,2.014-3.184,3.247-4.628l1.763-2.226l1.895-2.043l0.946-1.021l0.496-0.527
			l0.506-0.484l2.023-1.938c5.411-5.15,11.249-9.846,17.378-14.106c12.264-8.55,25.672-15.271,39.315-21.206
			c13.642-5.965,27.657-11.041,41.205-16.963l2.54-1.104l2.521-1.188c1.662-0.807,3.398-1.562,4.999-2.41
			c3.273-1.728,6.589-3.384,9.832-5.171l4.831-2.739c1.603-0.925,3.241-1.792,4.799-2.792l4.724-2.917l2.362-1.458
			c0.785-0.49,1.539-1.026,2.311-1.537c3.053-2.09,6.188-4.063,9.125-6.313l4.47-3.287c1.488-1.096,2.893-2.302,4.343-3.447
			c1.431-1.169,2.898-2.298,4.299-3.499l4.14-3.664l2.071-1.831c0.687-0.617,1.335-1.289,2.004-1.93l3.988-3.893
			c0.319-0.32,0.694-0.658,0.967-0.963l0.935-1.022l1.866-2.044l3.736-4.088c2.367-2.829,4.632-5.744,6.939-8.623l3.146-4.549
			l1.574-2.274c0.53-0.755,1.06-1.51,1.506-2.318l2.811-4.762l1.406-2.38c0.465-0.795,0.832-1.644,1.252-2.463
			c1.603-3.317,3.378-6.557,4.636-10.026l2.06-5.127c0.604-1.733,1.111-3.495,1.673-5.24l0.824-2.624
			c0.282-0.871,0.56-1.745,0.74-2.662l1.245-5.432l0.625-2.715l0.446-2.678c0.338-1.807,0.502-3.64,0.731-5.463
			c1.487-14.636-0.182-29.565-4.525-43.638c-4.306-14.091-11.162-27.425-20.188-39.072c-4.496-5.837-9.626-11.177-15.245-15.929
			c-5.597-4.771-11.809-8.851-18.361-12.106c-0.802-0.428-1.646-0.811-2.5-1.182l-2.525-1.122l-5.162-2.056
			c-3.425-1.414-6.925-2.632-10.399-3.918c-3.477-1.284-7.019-2.378-10.524-3.578c-3.543-1.084-7.083-2.185-10.644-3.208
			c-14.264-4.041-28.778-7.195-43.418-9.578c-29.296-4.754-59.035-6.484-88.72-6.156c-3.711,0.061-7.42,0.037-11.133,0.171
			l-11.138,0.397c-7.415,0.244-14.821,0.746-22.202,1.508c-14.759,1.528-29.44,3.891-43.913,7.191
			c-14.48,3.257-28.756,7.44-42.683,12.575c-13.897,5.191-27.479,11.329-40.241,18.911c-12.728,7.592-24.744,16.533-34.908,27.331
			c-5.075,5.381-9.599,11.308-13.733,17.448c-4.117,6.162-7.758,12.643-10.798,19.393c-3.039,6.75-5.47,13.775-7.146,20.979
			c-1.668,7.204-2.58,14.584-2.702,21.966c-0.262,14.795,2.659,29.559,8.095,43.293c5.424,13.757,13.287,26.495,22.484,38.038
			c1.139,1.454,2.354,2.87,3.527,4.308c1.146,1.434,2.435,2.777,3.646,4.17c2.404,2.814,5.053,5.395,7.619,8.053
			c5.314,5.132,10.975,9.902,17.042,14.099c6.062,4.203,12.53,7.805,19.274,10.801c6.741,3.01,13.741,5.428,20.828,7.576
			c14.174,4.305,28.687,7.766,42.742,12.759c14.08,4.913,27.687,11.154,40.596,18.685l9.474,5.869l1.185,0.733l1.177,0.809
			l2.311,1.599c1.484,1.146,3.015,2.229,4.43,3.464c2.901,2.377,5.611,4.993,8.101,7.806c2.496,2.803,4.794,5.795,6.772,8.989
			c4.012,6.358,6.906,13.383,8.787,20.628c1.933,7.242,2.898,14.687,3.437,22.119c0.994,14.896,0.255,29.777-0.08,44.622
			l-0.01,0.425l-0.415,0.081l-2.031,0.4l-2.087,0.296c-0.696,0.095-1.394,0.204-2.086,0.284l-2.067,0.084l-2.065,0.083
			c-0.736,0.018-1.4-0.04-2.104-0.058c-1.384-0.068-2.784-0.067-4.155-0.195l-8.23-0.668c-1.366-0.122-2.752-0.129-4.127-0.198
			c-0.683-0.02-1.395-0.075-2.052-0.063l-2.052,0.035l0.344-0.623l4.524,7.586l2.262,3.794c0.745,1.271,1.512,2.527,2.314,3.764
			l9.496,14.913l9.827,14.692c0.803,1.235,1.668,2.43,2.529,3.624l2.579,3.592L750.028,494.873z"/>
	</g>
</g>
<g>
	<g>
		<path fill="#FFFFFF" d="M250.032,474.89c-10.417-13.469-30.852-44.688-38.973-59c0.78-0.033,1.588-0.053,2.423-0.053
			c3.355,0,6.747,0.287,10.023,0.563c3.271,0.275,6.655,0.563,9.999,0.563h0.001c3.152,0,5.954-0.256,8.564-0.781l1.96-0.396
			l0.045-1.999c0.051-2.261,0.107-4.463,0.162-6.61c1.001-39.332,1.553-60.998-34.987-85.004
			c-31.445-20.639-57.401-26.75-80.303-32.144c-28.845-6.791-53.756-12.658-81.529-45.308
			c-21.227-24.958-32.896-51.179-34.683-77.934c-1.887-28.233,7.447-55.649,27.74-81.484C77.894,37.678,161.29,13.103,227.34,9.875
			c11.531-0.564,22.893-0.85,33.766-0.85c62.917,0,115.871,9.264,161.888,28.32c21.004,8.699,39.159,26.322,51.121,49.623
			c11.953,23.284,16.104,49.045,11.685,72.539c-4.738,25.206-17.338,48.453-37.446,69.096
			c-16.764,17.209-38.75,32.665-65.351,45.938c-9.294,4.637-20.336,8.452-32.025,12.49c-25.661,8.863-54.745,18.91-77.48,41.639
			c-18.439,18.438-19.611,24.008-17.882,85.139l0.069,2.458l2.458-0.026c4.138-0.048,7.469-0.144,10.405-0.226
			c3.314-0.093,6.179-0.173,9.431-0.173c2.945,0,6.01,0.069,9.445,0.216c-5.802,13.469-17.106,29.62-27.172,43.997
			C256.597,465.274,253.112,470.254,250.032,474.89z"/>
		<path d="M250.034,475.063l-5.305-7.248l-2.611-3.568c-0.873-1.188-1.749-2.372-2.563-3.602l-9.972-14.618l-9.637-14.837
			c-0.815-1.229-1.594-2.48-2.352-3.747l-2.302-3.78l-4.604-7.563l-0.374-0.612l0.724-0.021l2.084-0.055
			c0.723-0.021,1.388,0.031,2.084,0.043c1.379,0.058,2.754,0.052,4.138,0.161l8.266,0.61c1.377,0.121,2.739,0.109,4.109,0.173
			c0.674,0.013,1.389,0.064,2.03,0.047l2.066-0.097l2.065-0.095c0.675-0.083,1.34-0.193,2.01-0.288l2.006-0.295l2.024-0.41
			l-0.429,0.514c0.135-7.258,0.352-14.521,0.417-21.766c0.038-7.243-0.071-14.497-0.956-21.652
			c-0.877-7.144-2.659-14.197-5.88-20.604c-3.187-6.422-7.75-12.079-12.96-17.018l-1.988-1.823
			c-0.668-0.603-1.304-1.238-2.029-1.776l-4.237-3.354c-1.418-1.11-2.946-2.082-4.413-3.13l-2.222-1.546
			c-0.696-0.492-1.526-0.953-2.282-1.432l-9.285-5.687c-3.166-1.74-6.369-3.396-9.55-5.101
			c-12.902-6.521-26.534-11.533-40.499-15.322c-13.948-3.869-28.272-6.442-42.229-10.746c-6.964-2.166-13.811-4.812-20.321-8.154
			c-6.517-3.33-12.672-7.349-18.402-11.889c-5.752-4.525-10.953-9.686-15.901-15.038c-4.936-5.374-9.48-11.069-13.718-17.021
			c-8.421-11.892-15.359-24.931-19.771-38.863c-4.416-13.924-6.274-28.647-4.945-43.229c1.282-14.556,5.71-28.735,12.38-41.671
			c3.333-6.476,7.183-12.68,11.462-18.564c4.255-5.897,8.955-11.488,14.172-16.577c5.193-5.1,10.802-9.764,16.672-14.054
			c5.867-4.3,12.018-8.204,18.352-11.769c6.33-3.574,12.831-6.835,19.438-9.862c6.62-2.999,13.368-5.709,20.191-8.207
			c6.821-2.508,13.745-4.729,20.723-6.751c6.979-2.023,14.018-3.849,21.111-5.421c14.179-3.19,28.547-5.538,43.007-7.027
			c7.229-0.753,14.485-1.273,21.75-1.52l10.879-0.421c3.626-0.149,7.265-0.131,10.896-0.206c29.04-0.469,58.186,1.024,86.941,5.401
			c28.739,4.404,57.107,11.71,84.025,22.96c13.502,5.762,25.346,15.047,34.906,26.102c4.769,5.556,9.001,11.563,12.678,17.886
			c0.961,1.558,1.77,3.201,2.654,4.801c0.884,1.644,1.622,3.262,2.439,4.895c0.762,1.661,1.505,3.349,2.235,5.029
			c0.662,1.705,1.383,3.388,1.997,5.111c5.015,13.734,7.711,28.397,7.262,43.066c-0.062,3.666-0.422,7.321-0.872,10.959
			c-0.107,0.911-0.284,1.812-0.424,2.718c-0.166,0.918-0.259,1.781-0.485,2.744l-1.219,5.306c-0.685,3.55-1.939,7.042-3.012,10.553
			c-0.288,0.872-0.526,1.765-0.854,2.619l-1.024,2.546l-2.05,5.093c-0.317,0.86-0.724,1.68-1.136,2.496l-1.218,2.459l-2.434,4.919
			l-2.79,4.723l-1.396,2.361c-0.47,0.784-0.907,1.589-1.452,2.324l-3.124,4.507c-1.06,1.489-2.03,3.044-3.218,4.436l-3.426,4.278
			l-1.713,2.139c-0.565,0.718-1.218,1.36-1.823,2.043l-3.697,4.041l-1.85,2.021c-0.666,0.695-1.304,1.284-1.957,1.931l-3.897,3.8
			c-0.638,0.643-1.314,1.255-2.008,1.855l-2.056,1.817l-4.12,3.622l-4.262,3.428c-2.801,2.34-5.778,4.446-8.711,6.609
			c-11.824,8.533-24.406,15.967-37.405,22.522l-1.212,0.627c-0.458,0.236-0.838,0.39-1.261,0.589l-2.478,1.129l-2.477,1.129
			c-0.819,0.387-1.652,0.751-2.512,1.074c-3.401,1.342-6.792,2.746-10.223,3.935l-5.133,1.851l-5.149,1.779l-10.291,3.553
			c-13.687,4.754-27.267,9.903-39.978,16.801c-6.35,3.438-12.469,7.305-18.214,11.671c-5.766,4.364-11.066,9.228-16.021,14.535
			c-2.497,2.596-4.771,5.386-6.784,8.336c-1.946,2.998-3.396,6.271-4.5,9.669c-1.982,6.891-2.515,14.158-2.816,21.373
			c-0.292,7.232-0.194,14.49-0.118,21.742c0.117,7.254,0.294,14.509,0.48,21.765l-0.504-0.484c2.646-0.01,5.282-0.08,7.932-0.127
			l7.938-0.144l3.969-0.063l1.983-0.027c0.693-0.021,1.331,0.024,2,0.034l7.935,0.216l0.615,0.017l-0.256,0.542l-1.875,3.959
			c-0.595,1.336-1.333,2.595-2.012,3.886c-0.701,1.278-1.354,2.584-2.116,3.826l-2.218,3.767c-0.74,1.256-1.541,2.472-2.308,3.709
			c-0.779,1.229-1.537,2.474-2.352,3.681l-2.404,3.645c-0.794,1.221-1.633,2.408-2.447,3.614c-3.268,4.815-6.644,9.56-9.983,14.315
			L250.034,475.063z M250.03,474.715l9.756-14.296c3.304-4.792,6.634-9.559,9.857-14.397c0.803-1.212,1.631-2.406,2.414-3.632
			l2.368-3.658c0.803-1.214,1.549-2.46,2.314-3.693c0.754-1.24,1.543-2.462,2.27-3.719l2.178-3.771
			c0.749-1.245,1.387-2.549,2.072-3.826c0.664-1.289,1.389-2.55,1.967-3.879l1.825-3.941l0.359,0.559l-7.935-0.146
			c-0.654-0.005-1.338-0.045-1.969-0.019l-1.983,0.045l-3.967,0.083l-7.933,0.181c-2.641,0.058-5.294,0.141-7.938,0.163
			l-0.489,0.005l-0.015-0.488c-0.22-7.255-0.431-14.514-0.581-21.773c-0.109-7.262-0.242-14.526,0.018-21.804
			c0.273-7.259,0.763-14.599,2.771-21.702c1.118-3.512,2.611-6.92,4.612-10.03c2.063-3.056,4.377-5.916,6.9-8.563
			c4.925-5.327,10.334-10.342,16.126-14.764c5.792-4.444,11.963-8.383,18.359-11.885c12.802-7.021,26.452-12.268,40.146-17.095
			l10.277-3.602l5.134-1.799l5.101-1.867c3.426-1.203,6.736-2.596,10.081-3.93c0.839-0.32,1.666-0.686,2.487-1.076l2.472-1.142
			l2.472-1.141c0.396-0.188,0.856-0.383,1.203-0.567l1.201-0.629c12.913-6.529,25.4-13.919,37.116-22.388
			c2.906-2.147,5.856-4.237,8.627-6.557l4.22-3.398l4.053-3.57l2.022-1.789c0.68-0.588,1.349-1.192,1.988-1.84l3.896-3.803
			c0.635-0.63,1.33-1.276,1.917-1.893l1.824-1.998l3.648-3.994c0.597-0.675,1.243-1.309,1.799-2.019l1.688-2.112l3.376-4.223
			c1.172-1.374,2.126-2.907,3.168-4.376l3.076-4.443c0.537-0.726,0.967-1.519,1.429-2.291l1.373-2.326l2.745-4.652l2.39-4.842
			l1.196-2.42c0.406-0.803,0.805-1.61,1.116-2.456c2.782-6.668,5.206-13.36,6.802-20.443l1.214-5.307
			c0.193-0.802,0.303-1.748,0.459-2.615c0.138-0.887,0.313-1.768,0.42-2.659c0.447-3.562,0.809-7.14,0.875-10.734
			c0.471-14.377-2.146-28.792-7.051-42.314c-0.6-1.697-1.307-3.354-1.955-5.033c-0.713-1.648-1.429-3.285-2.175-4.925
			c-0.804-1.613-1.573-3.3-2.406-4.853c-0.87-1.576-1.661-3.197-2.604-4.731c-3.606-6.231-7.758-12.147-12.435-17.617
			c-9.382-10.887-20.954-20-34.193-25.681c-26.666-11.202-54.898-18.674-83.51-23.167c-28.646-4.489-57.695-6.108-86.696-5.768
			c-3.625,0.061-7.249,0.033-10.875,0.17l-10.881,0.388c-7.245,0.224-14.479,0.719-21.69,1.448
			c-14.426,1.44-28.769,3.738-42.925,6.877c-7.083,1.546-14.11,3.346-21.08,5.343c-6.97,1.997-13.886,4.191-20.697,6.673
			c-6.815,2.471-13.557,5.153-20.169,8.125c-6.607,2.985-13.083,6.259-19.386,9.839c-6.307,3.568-12.427,7.474-18.26,11.77
			c-5.837,4.286-11.408,8.941-16.561,14.025c-5.166,5.061-9.827,10.63-14.052,16.514c-4.255,5.859-8.035,12.059-11.311,18.508
			c-6.55,12.888-10.851,26.963-12.034,41.368c-0.131,1.799-0.206,3.604-0.313,5.404l-0.03,5.399l0.253,5.421
			c0.18,1.795,0.306,3.596,0.528,5.386c0.88,7.164,2.473,14.234,4.692,21.099c4.438,13.748,11.372,26.607,19.779,38.34
			c4.207,5.851,8.731,11.527,13.631,16.833c4.907,5.288,10.055,10.378,15.73,14.826c5.654,4.464,11.716,8.404,18.132,11.669
			c6.411,3.278,13.159,5.873,20.055,8.001c13.801,4.279,28.123,6.898,42.146,10.816c14.041,3.844,27.778,8.927,40.782,15.536
			c3.214,1.729,6.455,3.417,9.645,5.18l9.272,5.708c0.775,0.492,1.538,0.912,2.324,1.466l2.244,1.566
			c1.482,1.064,3.021,2.049,4.458,3.179l4.291,3.413c0.733,0.547,1.382,1.197,2.062,1.812l2.02,1.86
			c5.302,5.034,9.958,10.867,13.193,17.482c3.272,6.598,5.051,13.832,5.899,21.076c0.857,7.261,0.925,14.56,0.848,21.825
			c-0.106,7.271-0.361,14.519-0.536,21.774l-0.011,0.432l-0.418,0.082l-2.031,0.399l-2.088,0.296
			c-0.696,0.095-1.394,0.204-2.087,0.284l-2.066,0.083l-2.067,0.084c-0.735,0.017-1.399-0.041-2.103-0.058
			c-1.384-0.069-2.785-0.068-4.155-0.196l-8.23-0.665c-1.366-0.122-2.752-0.129-4.128-0.198c-0.683-0.019-1.395-0.076-2.051-0.063
			l-2.052,0.035l0.352-0.634l4.522,7.586l2.262,3.795c0.745,1.271,1.511,2.526,2.314,3.763l9.494,14.913l9.826,14.693
			c0.803,1.235,1.667,2.43,2.529,3.625l2.579,3.593L250.03,474.715z"/>
	</g>
</g>
<g>
	<g>
		<g>
			<path fill="#FF2839" d="M116.726,105.672c-14.612,11.816-24.143,31.13-24.143,54.127c0,23.506,9.529,41.676,24.143,54.127v2.033
				c-22.362-12.452-31.767-32.146-31.767-56.161c0-23.633,9.529-43.708,31.767-56.415V105.672z"/>
			<path fill="#FF2839" d="M383.405,213.927c14.611-12.452,24.141-30.621,24.141-54.127c0-22.998-9.527-42.311-24.141-54.127v-2.287
				c22.235,12.706,31.765,32.782,31.765,56.415c0,24.015-9.527,43.708-31.765,56.161V213.927L383.405,213.927z"/>
		</g>
	</g>
</g>
<g>
	<g>
		<g>
			<path fill="#FF2839" d="M616.726,105.672c-14.612,11.816-24.143,31.13-24.143,54.127c0,23.506,9.528,41.676,24.143,54.127v2.033
				c-22.362-12.452-31.765-32.146-31.765-56.161c0-23.633,9.527-43.708,31.765-56.415V105.672z"/>
			<path fill="#FF2839" d="M883.404,213.927c14.611-12.452,24.143-30.621,24.143-54.127c0-22.998-9.529-42.311-24.143-54.127v-2.287
				c22.235,12.706,31.767,32.782,31.767,56.415c0,24.015-9.529,43.708-31.767,56.161V213.927z"/>
		</g>
	</g>
</g>
<g>
	<g>
		<path fill="#FF2839" d="M1116.725,105.672c-14.611,11.816-24.142,31.13-24.142,54.127c0,23.506,9.528,41.676,24.142,54.127v2.033
			c-22.361-12.452-31.765-32.146-31.765-56.161c0-23.633,9.528-43.708,31.765-56.415V105.672z"/>
		<path fill="#FF2839" d="M1383.404,213.927c14.611-12.452,24.143-30.621,24.143-54.127c0-22.998-9.529-42.311-24.143-54.127v-2.287
			c22.234,12.706,31.766,32.782,31.766,56.415c0,24.015-9.529,43.708-31.766,56.161V213.927z"/>
	</g>
</g>
<g>
	<g>
		<path fill="#FF2839" d="M1616.727,105.672c-14.612,11.816-24.142,31.13-24.142,54.127c0,23.506,9.527,41.676,24.142,54.127v2.033
			c-22.363-12.452-31.766-32.146-31.766-56.161c0-23.633,9.527-43.708,31.766-56.415V105.672z"/>
		<path fill="#FF2839" d="M1883.404,213.927c14.611-12.452,24.143-30.621,24.143-54.127c0-22.998-9.529-42.311-24.143-54.127v-2.287
			c22.236,12.706,31.768,32.782,31.768,56.415c0,24.015-9.529,43.708-31.768,56.161V213.927z"/>
	</g>
</g>
<g>
	<path fill="#FF2839" d="M181.022,114.784h6.709v13.192h12.693v-13.192h6.664v33.547h-6.664v-14.507h-12.693v14.507h-6.709V114.784z
		"/>
	<path fill="#FF2839" d="M213.072,114.784h20.582v5.576h-13.872v7.752h11.787v5.621h-11.787v8.977h14.371v5.621h-21.08V114.784z"/>
	<path fill="#FF2839" d="M238.683,114.784h6.709v27.926h13.6v5.621h-20.309V114.784z"/>
	<path fill="#FF2839" d="M262.573,114.784h6.71v27.926h13.6v5.621h-20.31V114.784z"/>
	<path fill="#FF2839" d="M283.064,131.422c0-10.926,6.12-17.272,15.005-17.272c8.886,0,15.006,6.392,15.006,17.272
		c0,10.88-6.12,17.544-15.006,17.544C289.184,148.966,283.064,142.302,283.064,131.422z M306.229,131.422
		c0-7.208-3.173-11.516-8.16-11.516c-4.986,0-8.16,4.308-8.16,11.516c0,7.162,3.174,11.741,8.16,11.741
		C303.056,143.163,306.229,138.584,306.229,131.422z"/>
	<path fill="#FF2839" d="M165.473,172.431h6.846l2.674,16.365c0.499,3.536,1.043,7.117,1.542,10.699h0.181
		c0.68-3.582,1.406-7.208,2.131-10.699l3.899-16.365h5.712l3.899,16.365c0.725,3.445,1.405,7.072,2.13,10.699h0.227
		c0.499-3.627,0.998-7.208,1.496-10.699l2.629-16.365h6.392l-6.21,33.547h-8.342l-3.763-16.592c-0.544-2.63-1.042-5.214-1.451-7.753
		h-0.181c-0.454,2.539-0.907,5.123-1.451,7.753l-3.672,16.592h-8.206L165.473,172.431z"/>
	<path fill="#FF2839" d="M206.181,189.068c0-10.926,6.12-17.272,15.005-17.272c8.885,0,15.005,6.392,15.005,17.272
		c0,10.88-6.12,17.544-15.005,17.544C212.301,206.612,206.181,199.948,206.181,189.068z M229.347,189.068
		c0-7.208-3.173-11.516-8.16-11.516s-8.16,4.308-8.16,11.516c0,7.162,3.173,11.741,8.16,11.741S229.347,196.23,229.347,189.068z"/>
	<path fill="#FF2839" d="M258.767,205.978l-6.891-12.693h-4.669v12.693h-6.709v-33.547h11.696c7.026,0,12.603,2.448,12.603,10.154
		c0,5.032-2.539,8.16-6.392,9.656l7.843,13.736H258.767z M247.207,187.98h4.352c4.307,0,6.664-1.813,6.664-5.396
		c0-3.626-2.357-4.851-6.664-4.851h-4.352V187.98z"/>
	<path fill="#FF2839" d="M269.146,172.431h6.71v27.926h13.6v5.621h-20.31V172.431z"/>
	<path fill="#FF2839" d="M293.036,172.431h9.203c10.245,0,16.592,5.304,16.592,16.638c0,11.288-6.347,16.909-16.229,16.909h-9.565
		V172.431z M301.831,200.583c6.256,0,10.155-3.354,10.155-11.515c0-8.206-3.899-11.288-10.155-11.288h-2.085v22.803H301.831z"/>
	<path fill="#FF2839" d="M323.273,202.26c0-2.447,1.768-4.352,4.125-4.352s4.171,1.904,4.171,4.352c0,2.448-1.813,4.353-4.171,4.353
		S323.273,204.708,323.273,202.26z M324.27,177.825l-0.227-6.302h6.709l-0.227,6.302l-0.952,16.729h-4.352L324.27,177.825z"/>
</g>
<g>
	<path fill="#FF2839" d="M681.04,114.784h6.709v13.192h12.693v-13.192h6.664v33.547h-6.664v-14.507h-12.693v14.507h-6.709V114.784z"
		/>
	<path fill="#FF2839" d="M713.089,114.784h20.582v5.576h-13.872v7.752h11.787v5.621h-11.787v8.977h14.371v5.621h-21.08V114.784z"/>
	<path fill="#FF2839" d="M738.701,114.784h6.709v27.926h13.6v5.621h-20.309V114.784z"/>
	<path fill="#FF2839" d="M762.59,114.784h6.71v27.926h13.6v5.621h-20.31V114.784z"/>
	<path fill="#FF2839" d="M783.081,131.422c0-10.926,6.12-17.272,15.005-17.272c8.886,0,15.006,6.392,15.006,17.272
		c0,10.88-6.12,17.544-15.006,17.544C789.201,148.966,783.081,142.302,783.081,131.422z M806.246,131.422
		c0-7.208-3.173-11.516-8.16-11.516c-4.986,0-8.16,4.308-8.16,11.516c0,7.162,3.174,11.741,8.16,11.741
		C803.073,143.163,806.246,138.584,806.246,131.422z"/>
	<path fill="#FF2839" d="M665.49,172.431h6.846l2.674,16.365c0.499,3.536,1.043,7.117,1.542,10.699h0.181
		c0.68-3.582,1.406-7.208,2.131-10.699l3.899-16.365h5.712l3.899,16.365c0.725,3.445,1.405,7.072,2.13,10.699h0.227
		c0.499-3.627,0.998-7.208,1.496-10.699l2.629-16.365h6.392l-6.21,33.547h-8.342l-3.763-16.592c-0.544-2.63-1.042-5.214-1.451-7.753
		h-0.181c-0.454,2.539-0.907,5.123-1.451,7.753l-3.672,16.592h-8.206L665.49,172.431z"/>
	<path fill="#FF2839" d="M706.199,189.068c0-10.926,6.12-17.272,15.005-17.272c8.885,0,15.005,6.392,15.005,17.272
		c0,10.88-6.12,17.544-15.005,17.544C712.319,206.612,706.199,199.948,706.199,189.068z M729.365,189.068
		c0-7.208-3.173-11.516-8.16-11.516s-8.16,4.308-8.16,11.516c0,7.162,3.173,11.741,8.16,11.741S729.365,196.23,729.365,189.068z"/>
	<path fill="#FF2839" d="M758.784,205.978l-6.891-12.693h-4.669v12.693h-6.709v-33.547h11.696c7.026,0,12.603,2.448,12.603,10.154
		c0,5.032-2.539,8.16-6.392,9.656l7.843,13.736H758.784z M747.224,187.98h4.352c4.307,0,6.664-1.813,6.664-5.396
		c0-3.626-2.357-4.851-6.664-4.851h-4.352V187.98z"/>
	<path fill="#FF2839" d="M769.163,172.431h6.71v27.926h13.6v5.621h-20.31V172.431z"/>
	<path fill="#FF2839" d="M793.054,172.431h9.203c10.245,0,16.592,5.304,16.592,16.638c0,11.288-6.347,16.909-16.229,16.909h-9.565
		V172.431z M801.849,200.583c6.256,0,10.155-3.354,10.155-11.515c0-8.206-3.899-11.288-10.155-11.288h-2.085v22.803H801.849z"/>
	<path fill="#FF2839" d="M823.29,202.26c0-2.447,1.768-4.352,4.125-4.352s4.171,1.904,4.171,4.352c0,2.448-1.813,4.353-4.171,4.353
		S823.29,204.708,823.29,202.26z M824.287,177.825l-0.227-6.302h6.709l-0.227,6.302l-0.952,16.729h-4.352L824.287,177.825z"/>
</g>
<g>
	<path fill="#FF2839" d="M1181.057,114.784h6.71v13.192h12.693v-13.192h6.664v33.547h-6.664v-14.507h-12.693v14.507h-6.71V114.784z"
		/>
	<path fill="#FF2839" d="M1213.107,114.784h20.581v5.576h-13.872v7.752h11.787v5.621h-11.787v8.977h14.371v5.621h-21.08V114.784z"/>
	<path fill="#FF2839" d="M1238.719,114.784h6.709v27.926h13.6v5.621h-20.309V114.784z"/>
	<path fill="#FF2839" d="M1262.607,114.784h6.711v27.926h13.6v5.621h-20.311V114.784z"/>
	<path fill="#FF2839" d="M1283.099,131.422c0-10.926,6.119-17.272,15.004-17.272c8.887,0,15.006,6.392,15.006,17.272
		c0,10.88-6.119,17.544-15.006,17.544C1289.219,148.966,1283.099,142.302,1283.099,131.422z M1306.263,131.422
		c0-7.208-3.172-11.516-8.16-11.516c-4.986,0-8.16,4.308-8.16,11.516c0,7.162,3.174,11.741,8.16,11.741
		C1303.092,143.163,1306.263,138.584,1306.263,131.422z"/>
	<path fill="#FF2839" d="M1165.508,172.431h6.846l2.675,16.365c0.499,3.536,1.043,7.117,1.542,10.699h0.181
		c0.681-3.582,1.405-7.208,2.131-10.699l3.899-16.365h5.711l3.899,16.365c0.726,3.445,1.405,7.072,2.13,10.699h0.227
		c0.5-3.627,0.998-7.208,1.496-10.699l2.63-16.365h6.392l-6.21,33.547h-8.342l-3.763-16.592c-0.544-2.63-1.043-5.214-1.451-7.753
		h-0.181c-0.454,2.539-0.907,5.123-1.45,7.753l-3.672,16.592h-8.206L1165.508,172.431z"/>
	<path fill="#FF2839" d="M1206.217,189.068c0-10.926,6.119-17.272,15.006-17.272c8.885,0,15.005,6.392,15.005,17.272
		c0,10.88-6.12,17.544-15.005,17.544C1212.336,206.612,1206.217,199.948,1206.217,189.068z M1229.383,189.068
		c0-7.208-3.174-11.516-8.16-11.516c-4.987,0-8.16,4.308-8.16,11.516c0,7.162,3.173,11.741,8.16,11.741
		C1226.209,200.81,1229.383,196.23,1229.383,189.068z"/>
	<path fill="#FF2839" d="M1258.802,205.978l-6.891-12.693h-4.67v12.693h-6.709v-33.547h11.695c7.027,0,12.604,2.448,12.604,10.154
		c0,5.032-2.539,8.16-6.393,9.656l7.844,13.736H1258.802z M1247.242,187.98h4.352c4.307,0,6.664-1.813,6.664-5.396
		c0-3.626-2.357-4.851-6.664-4.851h-4.352V187.98z"/>
	<path fill="#FF2839" d="M1269.181,172.431h6.709v27.926h13.6v5.621h-20.309V172.431z"/>
	<path fill="#FF2839" d="M1293.072,172.431h9.203c10.244,0,16.592,5.304,16.592,16.638c0,11.288-6.348,16.909-16.23,16.909h-9.564
		V172.431z M1301.867,200.583c6.256,0,10.154-3.354,10.154-11.515c0-8.206-3.898-11.288-10.154-11.288h-2.086v22.803H1301.867z"/>
	<path fill="#FF2839" d="M1323.308,202.26c0-2.447,1.768-4.352,4.125-4.352s4.17,1.904,4.17,4.352c0,2.448-1.813,4.353-4.17,4.353
		S1323.308,204.708,1323.308,202.26z M1324.304,177.825l-0.227-6.302h6.709l-0.227,6.302l-0.951,16.729h-4.352L1324.304,177.825z"/>
</g>
<g>
	<path fill="#FF2839" d="M1681.075,114.784h6.71v13.192h12.693v-13.192h6.664v33.547h-6.664v-14.507h-12.693v14.507h-6.71V114.784z"
		/>
	<path fill="#FF2839" d="M1713.125,114.784h20.581v5.576h-13.872v7.752h11.787v5.621h-11.787v8.977h14.371v5.621h-21.08V114.784z"/>
	<path fill="#FF2839" d="M1738.736,114.784h6.709v27.926h13.6v5.621h-20.309V114.784z"/>
	<path fill="#FF2839" d="M1762.625,114.784h6.711v27.926h13.6v5.621h-20.311V114.784z"/>
	<path fill="#FF2839" d="M1783.117,131.422c0-10.926,6.119-17.272,15.004-17.272c8.887,0,15.006,6.392,15.006,17.272
		c0,10.88-6.119,17.544-15.006,17.544C1789.236,148.966,1783.117,142.302,1783.117,131.422z M1806.281,131.422
		c0-7.208-3.172-11.516-8.16-11.516c-4.986,0-8.16,4.308-8.16,11.516c0,7.162,3.174,11.741,8.16,11.741
		C1803.109,143.163,1806.281,138.584,1806.281,131.422z"/>
	<path fill="#FF2839" d="M1665.525,172.431h6.846l2.675,16.365c0.499,3.536,1.043,7.117,1.542,10.699h0.181
		c0.681-3.582,1.405-7.208,2.131-10.699l3.899-16.365h5.711l3.899,16.365c0.726,3.445,1.405,7.072,2.13,10.699h0.227
		c0.5-3.627,0.998-7.208,1.496-10.699l2.63-16.365h6.392l-6.21,33.547h-8.342l-3.763-16.592c-0.544-2.63-1.043-5.214-1.451-7.753
		h-0.181c-0.454,2.539-0.907,5.123-1.45,7.753l-3.672,16.592h-8.206L1665.525,172.431z"/>
	<path fill="#FF2839" d="M1706.234,189.068c0-10.926,6.119-17.272,15.006-17.272c8.885,0,15.005,6.392,15.005,17.272
		c0,10.88-6.12,17.544-15.005,17.544C1712.353,206.612,1706.234,199.948,1706.234,189.068z M1729.4,189.068
		c0-7.208-3.174-11.516-8.16-11.516c-4.987,0-8.16,4.308-8.16,11.516c0,7.162,3.173,11.741,8.16,11.741
		C1726.226,200.81,1729.4,196.23,1729.4,189.068z"/>
	<path fill="#FF2839" d="M1758.82,205.978l-6.891-12.693h-4.67v12.693h-6.709v-33.547h11.695c7.027,0,12.604,2.448,12.604,10.154
		c0,5.032-2.539,8.16-6.393,9.656l7.844,13.736H1758.82z M1747.26,187.98h4.352c4.307,0,6.664-1.813,6.664-5.396
		c0-3.626-2.357-4.851-6.664-4.851h-4.352V187.98z"/>
	<path fill="#FF2839" d="M1769.199,172.431h6.709v27.926h13.6v5.621h-20.309V172.431z"/>
	<path fill="#FF2839" d="M1793.09,172.431h9.203c10.244,0,16.592,5.304,16.592,16.638c0,11.288-6.348,16.909-16.23,16.909h-9.564
		V172.431z M1801.885,200.583c6.256,0,10.154-3.354,10.154-11.515c0-8.206-3.898-11.288-10.154-11.288h-2.086v22.803H1801.885z"/>
	<path fill="#FF2839" d="M1823.326,202.26c0-2.447,1.768-4.352,4.125-4.352s4.17,1.904,4.17,4.352c0,2.448-1.813,4.353-4.17,4.353
		S1823.326,204.708,1823.326,202.26z M1824.322,177.825l-0.227-6.302h6.709l-0.227,6.302l-0.951,16.729h-4.352L1824.322,177.825z"/>
</g>
<text transform="matrix(1 0 0 1 1673.2556 -226.8716)"><tspan x="0" y="0" fill="#FF2839" font-family="'NotoSansKR-Bold-KSCpc-EUC-H'" font-size="45.332" letter-spacing="-1">hello </tspan><tspan x="-11.447" y="57.646" fill="#FF2839" font-family="'NotoSansKR-Bold-KSCpc-EUC-H'" font-size="45.332" letter-spacing="-1">world!</tspan></text>
</svg>
