<?xml version="1.0" encoding="utf-8"?>
<!-- Generator: Adobe Illustrator 16.0.0, SVG Export Plug-In . SVG Version: 6.00 Build 0)  -->
<!DOCTYPE svg PUBLIC "-//W3C//DTD SVG 1.1//EN" "http://www.w3.org/Graphics/SVG/1.1/DTD/svg11.dtd">
<svg version="1.1" id="Layer_1" xmlns="http://www.w3.org/2000/svg" xmlns:xlink="http://www.w3.org/1999/xlink" x="0px" y="0px"
	 width="5400px" height="110px" viewBox="-1200 0 5400 110" enable-background="new -1200 0 5400 110" xml:space="preserve">
<g>
	<rect x="3600" fill="none" width="600" height="110"/>
	<g>
		<g>
			<path fill="#FF2839" d="M3620.933,110h-8.035c-13.338,0-12.758-10.197-3.754-18.365c8.65-7.846,25.904-25.674,33.146-33.515
				c4.205-4.559,4.588-9.242-2.334-12.212l8.414-8.904c10.854-0.106,11.311,0.749,29.278-16.584
				c15.654-15.099,21.709-12.911,29.843-12.911h9.442l-6.164,5.244h-3.729c-5.166,0-8.356-1.58-21.129,11.609
				c-18.772,19.391-20.324,19.236-29.053,20.615l0,0c5.059,2.4,5.043,5.723-2.394,13.778c-7.236,7.843-20.637,22.104-26.994,28.996
				c-6.848,7.42-7.143,10.067,1.033,10.067h3.734L3620.933,110z"/>
			<path fill="#FF2839" d="M4167.763,97.82h3.731c8.176,0,7.881-2.648,1.033-10.068c-6.356-6.891-19.76-21.154-26.996-28.997
				c-7.436-8.057-7.449-11.377-2.393-13.779l0,0c-8.727-1.377-10.277-1.223-29.051-20.613
				c-12.77-13.189-15.959-11.609-21.125-11.609h-3.732l-6.164-5.244h9.443c8.131,0,14.186-2.188,29.842,12.911
				c17.97,17.333,18.424,16.478,29.279,16.583l8.416,8.904c-6.926,2.971-6.543,7.654-2.336,12.212
				c7.236,7.842,24.492,25.67,33.143,33.516c9.006,8.166,9.586,18.365-3.754,18.365h-8.035L4167.763,97.82z"/>
		</g>
		<g>
			<polygon fill="#1E1D2E" points="4125.611,110 3674.388,110 3743.386,7.508 4056.298,7.508 			"/>
		</g>
		<rect x="3743.545" y="7.754" fill="#2B2A42" width="312.912" height="102.246"/>
	</g>
</g>
<g>
	<rect x="3000" fill="none" width="600" height="110"/>
	<g>
		<g>
			<path fill="#FF2839" d="M3511.041,97.82h2.941c6.443,0,6.211-2.648,0.814-10.068c-5.013-6.891-15.574-21.154-21.277-28.997
				c-5.861-8.057-5.871-11.377-1.887-13.779l0,0c-6.877-1.377-8.101-1.223-22.896-20.613c-10.064-13.189-12.578-11.609-16.65-11.609
				h-2.94l-4.856-5.244h9.143c6.408,0,14.012-2.188,26.352,12.911c14.162,17.333,14.521,16.478,23.076,16.583l6.633,8.904
				c-5.457,2.971-5.155,7.654-1.84,12.212c5.703,7.842,19.303,25.67,26.121,33.516c7.098,8.166,7.555,18.365-2.959,18.365h-10.863
				L3511.041,97.82z"/>
			<path fill="#FF2839" d="M3080.052,110h-10.865c-10.514,0-10.057-10.199-2.959-18.365c6.818-7.846,20.42-25.674,26.123-33.516
				c3.314-4.558,3.617-9.241-1.842-12.212l6.633-8.904c8.557-0.105,8.914,0.75,23.078-16.583
				c12.338-15.099,19.947-12.911,26.354-12.911h9.14l-4.859,5.244h-2.941c-4.071,0-6.586-1.58-16.649,11.609
				c-14.797,19.391-16.019,19.236-22.896,20.613l0,0c3.985,2.402,3.975,5.723-1.886,13.779
				c-5.702,7.844-16.268,22.105-21.276,28.997c-5.398,7.42-5.632,10.067,0.813,10.067h2.94L3080.052,110z"/>
		</g>
		<g>
			<polygon fill="#1E1D2E" points="3477.818,110 3122.181,110 3176.562,7.508 3423.187,7.508 			"/>
		</g>
		<rect x="3176.687" y="7.754" fill="#2B2A42" width="246.625" height="102.246"/>
	</g>
</g>
<g>
	<rect x="2400" fill="none" width="600" height="110"/>
	<g>
		<g>
			<path fill="#FF2839" d="M2848.033,97.82h2.063c4.521,0,4.356-2.648,0.571-10.068c-3.516-6.891-10.926-21.154-14.926-28.997
				c-4.109-8.057-4.117-11.377-1.322-13.779l0,0c-4.824-1.377-5.682-1.223-16.062-20.613c-7.06-13.189-8.822-11.609-11.679-11.609
				h-2.063l-3.407-5.244h8.683c4.495,0,12.374-2.188,21.029,12.911c9.935,17.333,10.187,16.478,16.188,16.583l4.652,8.904
				c-3.828,2.971-3.616,7.654-1.291,12.212c4,7.842,13.54,25.67,18.323,33.516c4.979,8.166,5.299,18.365-2.075,18.365h-12.437
				L2848.033,97.82z"/>
			<path fill="#FF2839" d="M2545.719,110h-12.437c-7.374,0-7.054-10.199-2.075-18.365c4.783-7.846,14.323-25.674,18.323-33.516
				c2.325-4.558,2.537-9.241-1.291-12.212l4.652-8.904c6.001-0.105,6.253,0.75,16.188-16.583
				c8.654-15.099,16.541-12.911,21.037-12.911h8.675l-3.408,5.244h-2.063c-2.855,0-4.618-1.58-11.679,11.609
				c-10.38,19.391-11.235,19.236-16.061,20.613l0,0c2.795,2.402,2.787,5.723-1.323,13.779c-4,7.844-11.41,22.105-14.925,28.997
				c-3.786,7.42-3.949,10.067,0.571,10.067h2.063L2545.719,110z"/>
		</g>
		<g>
			<polygon fill="#1E1D2E" points="2824.73,110 2575.269,110 2613.416,7.508 2786.409,7.508 			"/>
		</g>
		<rect x="2613.502" y="7.754" fill="#2B2A42" width="172.996" height="102.246"/>
	</g>
</g>
<g>
	<rect x="1800" fill="none" width="600" height="110"/>
	<g>
		<g>
			<path fill="#FF2839" d="M2185.677,97.82h1.193c2.616,0,2.521-2.648,0.332-10.068c-2.034-6.891-6.323-21.154-8.64-28.997
				c-2.379-8.057-2.384-11.377-0.766-13.779l0,0c-2.792-1.377-3.288-1.223-9.296-20.613c-3.784-11.705-5.105-11.609-6.76-11.609
				h-1.193l-1.973-5.244h7.646c2.602,0,8.859-1.311,13.514,12.911c5.75,17.333,7.313,16.478,10.785,16.583l3.825,8.904
				c-2.216,2.971-2.093,7.654-0.747,12.212c2.314,7.842,7.837,25.67,10.604,33.516c2.882,8.166,3.293,18.365-4.032,18.365h-10.879
				L2185.677,97.82z"/>
			<path fill="#FF2839" d="M2010.705,110h-10.879c-7.326,0-6.914-10.199-4.033-18.365c2.77-7.846,8.291-25.674,10.605-33.516
				c1.346-4.558,1.469-9.241-0.747-12.212l3.825-8.904c3.474-0.105,5.035,0.75,10.785-16.583
				c4.863-13.638,10.912-12.911,13.514-12.911h7.647l-1.974,5.244h-1.193c-1.653,0-2.881-0.408-6.76,11.609
				c-6.008,19.391-6.504,19.236-9.296,20.613l0,0c1.618,2.402,1.613,5.723-0.766,13.779c-2.315,7.844-6.604,22.105-8.64,28.997
				c-2.189,7.42-2.284,10.067,0.332,10.067h1.193L2010.705,110z"/>
		</g>
		<g>
			<polygon fill="#1E1D2E" points="2172.191,110 2027.808,110 2049.886,7.508 2150.011,7.508 			"/>
		</g>
		<rect x="2049.937" y="7.754" fill="#2B2A42" width="100.125" height="102.246"/>
	</g>
</g>
<g>
	<rect x="600" fill="none" width="600" height="110"/>
	<g>
		<g>
			<path fill="#FF2839" d="M930.156,97.775h0.361c0.793,0,3.522-0.121,2.138-10.068c-0.771-6.891-2.394-21.154-3.271-28.997
				c-0.903-8.057-0.979-11.377-0.544-13.779l0,0c-0.877-1.377-1.023-1.223-3.281-20.613c-1.104-9.704-1.773-11.609-2.877-11.609
				h-2.062l-0.716-5.244h4.017c0.787,0,9.004-0.68,10.896,12.911c2.134,17.333,3.72,16.478,4.773,16.583l1.928,8.904
				c-0.102,0.492-1.415,1.862-1.172,3.842c1.225,9.96,8.517,41.572,9.363,48.117c1.058,8.166-3.965,12.134-12.342,12.134h-5.843
				L930.156,97.775z"/>
			<path fill="#FF2839" d="M868.318,110l-5.842-0.089c-8.375-0.127-13.336-4.171-12.156-12.319
				c0.947-6.531,8.719-38.029,10.094-47.97c0.273-1.977-1.02-3.365-1.112-3.859l2.063-8.874c1.055-0.089,2.627,0.79,5.023-16.508
				c2.1-13.562,10.305-12.757,11.092-12.745l4.016,0.062l-0.795,5.233l-2.061-0.031c-1.104-0.017-1.802,1.878-3.054,11.564
				c-2.553,19.354-2.694,19.197-3.594,20.561l0,0c0.398,2.408,0.271,5.728-0.754,13.77c-0.996,7.828-2.834,22.065-3.711,28.944
				c-1.537,9.926,1.19,10.088,1.983,10.1l0.361,0.006L868.318,110z"/>
		</g>
		<g>
			<polygon fill="#1E1D2E" points="921.861,110 878.138,110 884.824,7.508 915.144,7.508 			"/>
		</g>
		<rect x="884.841" y="7.754" fill="#2B2A42" width="30.319" height="102.246"/>
	</g>
</g>
<rect x="1200" fill="none" width="600" height="110"/>
<g>
	<g>
		<path fill="#FF2839" d="M1448.757,110l-5.096-0.089c-9.37,0-14.615-4.171-12.944-12.319c1.342-6.531,8.044-38.029,9.965-47.97
			c0.382-1.977-2.938-3.365-3.14-3.859l3.256-8.874c1.938-0.089,3.47,0.79,6.818-16.508c3.031-13.562,10.256-12.757,11.707-12.745
			l7.403,0.062l-1.143,5.233l-2.38-0.031c-2.036-0.017-3.203,1.878-4.913,11.564c-3.509,19.354-3.78,19.197-5.353,20.561l0,0
			c0.883,2.408,0.853,5.728-0.54,13.77c-1.353,7.828-3.86,22.065-5.052,28.944c-2.22,9.926,1.397,10.088,2.859,10.1l0.665,0.006
			L1448.757,110z"/>
		<path fill="#FF2839" d="M1549.127,97.844l0.665-0.006c1.462-0.012,5.079-0.174,2.859-10.1c-1.191-6.879-3.699-21.116-5.052-28.944
			c-1.393-8.042-1.423-11.362-0.54-13.77l0,0c-1.572-1.364-1.844-1.207-5.353-20.561c-1.71-9.686-2.877-11.581-4.913-11.564
			l-2.38,0.031l-1.143-5.233l7.403-0.062c1.451-0.012,8.676-0.817,11.707,12.745c3.349,17.298,4.881,16.419,6.818,16.508
			l3.256,8.874c-0.202,0.494-3.521,1.882-3.14,3.859c1.921,9.94,8.623,41.438,9.965,47.97c1.671,8.148-3.574,12.319-12.944,12.319
			l-5.096,0.089L1549.127,97.844z"/>
	</g>
	<g>
		<polygon fill="#1E1D2E" points="1540.28,110 1459.72,110 1472.039,7.508 1527.904,7.508 		"/>
	</g>
	<rect x="1472.07" y="7.754" fill="#2B2A42" width="55.863" height="102.246"/>
</g>
<g>
	<rect x="0" fill="none" width="600" height="110"/>
	<g>
		<g>
			<path fill="#FF2839" d="M310.571,97.82h0.361c0.793,0,3.529-0.121,2.678-10.068c-0.401-6.891-1.26-21.154-1.718-28.997
				c-0.472-8.057-0.37-11.377,0.193-13.779l0,0c-0.803-1.377-0.956-1.223-2.176-20.613c-0.584-9.704-1.15-11.609-2.255-11.609
				h-2.061l-0.436-5.244h4.017c0.787,0,9.04-0.68,10.205,12.911c1.205,17.333,2.836,16.478,3.885,16.583l1.45,8.904
				c-0.127,0.492-1.516,1.862-1.378,3.842c0.69,9.96,6.289,41.572,6.784,48.117c0.619,8.166-4.614,12.134-12.991,12.134h-5.844
				L310.571,97.82z"/>
			<path fill="#FF2839" d="M288.712,110h-5.844c-8.377,0-13.61-3.968-12.991-12.134c0.495-6.546,6.094-38.157,6.784-48.117
				c0.138-1.979-1.251-3.35-1.378-3.842l1.45-8.904c1.049-0.105,2.68,0.75,3.885-16.583c1.165-13.591,9.418-12.911,10.205-12.911
				h4.017l-0.436,5.244h-2.061c-1.104,0-1.671,1.905-2.255,11.609c-1.22,19.391-1.373,19.236-2.177,20.613l0,0
				c0.564,2.402,0.666,5.723,0.194,13.779c-0.458,7.844-1.315,22.105-1.718,28.997c-0.853,9.947,1.885,10.067,2.678,10.067h0.361
				L288.712,110z"/>
		</g>
		<g>
			<g>
				<polygon fill="#1E1D2E" points="298.971,110 301.028,110 300.714,7.508 299.287,7.508 				"/>
			</g>
			<rect x="299.286" y="7.754" fill="#2B2A42" width="1.428" height="102.246"/>
		</g>
	</g>
</g>
<g>
	<rect x="-600" fill="none" width="600" height="110"/>
	<g>
		<path fill="#FF2839" d="M-297.059,97.82h0.361c0.793,0,3.532-0.121,2.993-10.068c-0.188-6.891-0.596-21.154-0.809-28.997
			c-0.219-8.057-0.014-11.377,0.627-13.779l0,0c-0.76-1.377-0.918-1.223-1.529-20.613c-0.278-9.704-0.787-11.609-1.891-11.609
			h-2.062l-0.269-5.244h4.015c0.787,0,9.062-0.68,9.802,12.911c0.659,17.333,2.317,16.478,3.362,16.583l1.172,8.904
			c-0.143,0.492-1.573,1.862-1.5,3.842c0.38,9.96,4.984,41.572,5.275,48.117c0.363,8.166-4.996,12.134-13.373,12.134h-5.842
			L-297.059,97.82z"/>
		<path fill="#FF2839" d="M-303.277,110h-5.844c-8.377,0-13.735-3.968-13.373-12.134c0.291-6.546,4.896-38.157,5.275-48.117
			c0.074-1.979-1.355-3.35-1.499-3.842l1.171-8.904c1.045-0.105,2.703,0.75,3.364-16.583c0.739-13.591,9.013-12.911,9.8-12.911
			h4.016l-0.27,5.244h-2.061c-1.104,0-1.611,1.905-1.892,11.609c-0.609,19.391-0.77,19.236-1.529,20.613l0,0
			c0.642,2.402,0.847,5.723,0.628,13.779c-0.213,7.844-0.621,22.105-0.809,28.997c-0.539,9.947,2.2,10.067,2.993,10.067h0.361
			L-303.277,110z"/>
	</g>
</g>
<rect x="-1200" fill="none" width="600" height="110"/>
</svg>
