<?xml version="1.0" encoding="utf-8"?>
<!-- Generator: Adobe Illustrator 16.0.0, SVG Export Plug-In . SVG Version: 6.00 Build 0)  -->
<!DOCTYPE svg PUBLIC "-//W3C//DTD SVG 1.1//EN" "http://www.w3.org/Graphics/SVG/1.1/DTD/svg11.dtd">
<svg version="1.1" id="Layer_1" xmlns="http://www.w3.org/2000/svg" xmlns:xlink="http://www.w3.org/1999/xlink" x="0px" y="0px"
	 width="350px" height="350px" viewBox="11.492 -12.008 350 350" enable-background="new 11.492 -12.008 350 350"
	 xml:space="preserve">
<g>
	<path fill="#FFFFFF" d="M211.4,358.927c0,0-38.332-33.515-69.016-74.611c-30.683-41.098-66.769-62.194-80.713-71.51
		c-13.945-9.316-18.865-25.62,11.22-44.729c30.084-19.108,31.911-47.2,63.108-50.023c31.198-2.822,38.229,11.126,22.645,16.903
		c-15.584,5.777-28.404,25.289-32.674,41.42c-4.271,16.133-1.218,32.974,29.556,56.271c30.771,23.296,54.117,44.863,54.117,44.863
		l72.102,90.118L211.4,358.927z"/>
	<path d="M211.4,358.927c-9.205-8.148-18.023-16.728-26.625-25.508l-6.428-6.608c-2.124-2.223-4.174-4.514-6.264-6.769l-6.236-6.793
		l-6.007-6.997l-6.001-7.003l-5.713-7.243c-3.82-4.825-7.606-9.657-11.374-14.512c-7.701-9.554-16.119-18.546-25.148-26.864
		c-9.033-8.316-18.587-16.066-28.619-23.149c-4.998-3.567-10.107-6.976-15.264-10.315c-2.569-1.689-5.178-3.302-7.698-5.097
		c-2.495-1.855-4.785-4.013-6.544-6.606c-1.786-2.56-2.927-5.611-3.123-8.753c-0.188-3.147,0.595-6.294,1.95-9.095
		c2.754-5.641,7.279-10.11,12.067-13.962c2.419-1.919,4.919-3.737,7.52-5.395c1.273-0.842,2.569-1.686,3.828-2.555
		c1.237-0.892,2.479-1.775,3.671-2.737c4.829-3.759,9.167-8.114,13.198-12.723c4.031-4.619,7.729-9.526,11.685-14.252
		c3.949-4.708,8.285-9.258,13.584-12.553c5.269-3.324,11.382-5.191,17.546-5.785c6.134-0.58,12.382-0.712,18.509,0.368
		c3.051,0.552,6.105,1.399,8.844,3.017c1.353,0.813,2.636,1.855,3.512,3.269c0.896,1.382,1.135,3.299,0.472,4.846
		c-0.621,1.566-1.785,2.789-3.062,3.729c-1.279,0.957-2.704,1.658-4.153,2.249l-1.057,0.436l-1.06,0.454
		c-0.697,0.313-1.437,0.574-2.076,0.962l-1.98,1.08c-0.646,0.39-1.271,0.829-1.906,1.241l-0.951,0.627l-0.902,0.7l-1.795,1.403
		c-1.119,1.032-2.313,1.984-3.352,3.102c-2.197,2.115-4.111,4.505-5.99,6.905c-3.617,4.917-6.71,10.238-9.079,15.868
		c-1.205,2.803-2.174,5.722-2.991,8.632c-0.768,2.998-1.276,5.964-1.475,9.007c-0.093,3.033,0.099,6.077,0.754,9.046
		c0.706,2.946,1.669,5.85,3.071,8.555c2.702,5.463,6.496,10.338,10.686,14.779c4.199,4.451,8.803,8.524,13.642,12.288l14.486,11.406
		c4.817,3.815,9.711,7.535,14.377,11.548c4.703,3.963,9.471,7.853,14.12,11.876c4.612,4.066,9.286,8.06,13.815,12.226l0.018,0.016
		l0.015,0.021l71.985,90.209l0.275,0.345l-0.437-0.055L211.4,358.927z M211.4,358.927l70.367,8.524l-0.162,0.288l-72.217-90.025
		l0.033,0.036c-4.525-4.149-9.205-8.134-13.818-12.187c-4.653-4.013-9.419-7.889-14.121-11.839
		c-4.665-3.995-9.566-7.71-14.391-11.518l-14.507-11.38c-4.866-3.772-9.505-7.862-13.75-12.343
		c-4.234-4.475-8.088-9.399-10.853-14.966c-1.432-2.753-2.427-5.724-3.152-8.741c-0.677-3.043-0.881-6.167-0.789-9.274
		c0.19-3.096,0.725-6.207,1.48-9.165c0.835-3.008,1.806-5.932,3.022-8.782c2.387-5.706,5.506-11.091,9.163-16.077
		c1.899-2.44,3.837-4.864,6.067-7.021c1.055-1.137,2.269-2.111,3.406-3.164l1.833-1.437l0.919-0.714l0.971-0.645
		c0.653-0.423,1.287-0.873,1.955-1.275l2.064-1.128c0.682-0.409,1.398-0.661,2.102-0.978l1.059-0.456l1.073-0.445
		c1.39-0.567,2.747-1.242,3.931-2.131c1.185-0.873,2.209-1.985,2.726-3.289c0.259-0.648,0.378-1.343,0.289-2.026
		c-0.048-0.686-0.313-1.347-0.677-1.951c-0.745-1.209-1.904-2.178-3.173-2.94c-2.563-1.524-5.531-2.367-8.509-2.908
		c-5.996-1.067-12.16-0.954-18.243-0.388c-6.059,0.574-12.012,2.385-17.164,5.621c-5.181,3.208-9.46,7.672-13.396,12.349
		c-3.941,4.692-7.656,9.604-11.717,14.243c-4.064,4.629-8.451,9.017-13.332,12.806c-1.203,0.967-2.465,1.864-3.724,2.766
		c-1.271,0.875-2.553,1.706-3.843,2.557c-2.586,1.641-5.068,3.439-7.466,5.335c-4.746,3.8-9.205,8.213-11.881,13.678
		c-1.319,2.715-2.067,5.729-1.894,8.73c0.182,2.999,1.26,5.919,2.984,8.399c1.69,2.507,3.936,4.628,6.36,6.438
		c2.481,1.778,5.102,3.404,7.666,5.095c5.154,3.351,10.268,6.773,15.269,10.357c10.038,7.115,19.602,14.901,28.639,23.249
		c9.038,8.355,17.452,17.372,25.164,26.973l11.327,14.546l5.67,7.263l5.961,7.029l5.969,7.021l6.199,6.819
		c2.078,2.265,4.115,4.563,6.226,6.798l6.394,6.638C193.462,342.111,202.236,350.732,211.4,358.927z"/>
</g>
<g>
	<path fill="#FFFFFF" d="M258.051,359.903c0,0-47.98-48.606-59.632-131.122c-8.429-59.698-33.849-90.032-44.797-97.868
		c-10.948-7.834-25.79-18.685,5.12-50.227c30.908-31.542,23.791-50.793,45.096-59.979c21.304-9.188,35.089-19.191,42.282-9.702
		c7.193,9.488-16.136,26.93-19.489,36.404c-3.355,9.474-18.782,50.306-10.171,79.191c8.612,28.884,20.626,64.903,34.067,89.849
		c13.439,24.948,36.348,78.45,45.252,90.418c8.904,11.967,37.736,32.943,43.312,60.568L258.051,359.903z"/>
	<path d="M258.051,359.903c-11.873-12.801-21.611-27.432-30.151-42.621c-8.453-15.265-15.304-31.407-20.553-48.05l-1.849-6.28
		l-0.925-3.139l-0.462-1.57l-0.379-1.592l-2.978-12.751c-1.494-8.605-2.979-17.196-4.362-25.804
		c-1.736-8.522-3.589-17.049-6.281-25.337c-2.597-8.305-5.635-16.49-9.433-24.324c-3.755-7.846-8.114-15.418-13.256-22.433
		c-2.607-3.472-5.334-6.873-8.425-9.919c-0.74-0.794-1.552-1.512-2.357-2.236c-0.404-0.356-0.792-0.74-1.213-1.077l-1.275-0.996
		c-1.707-1.323-3.545-2.541-5.236-3.937c-1.701-1.383-3.348-2.864-4.756-4.576c-1.406-1.705-2.586-3.63-3.334-5.735
		c-0.728-2.111-1.002-4.368-0.859-6.583c0.139-2.222,0.662-4.392,1.389-6.473c1.52-4.154,3.792-7.958,6.357-11.504
		c2.564-3.555,5.415-6.884,8.394-10.084c3.021-3.174,6.056-6.27,8.865-9.589c2.826-3.302,5.49-6.743,7.948-10.326
		c2.455-3.582,4.712-7.302,6.758-11.136c2.055-3.832,3.899-7.773,5.793-11.707c1.908-3.917,3.908-7.87,6.699-11.315
		c1.393-1.718,2.986-3.283,4.746-4.628c1.755-1.355,3.693-2.453,5.687-3.393c4.009-1.784,7.948-3.562,11.888-5.448
		c3.941-1.863,7.861-3.781,11.9-5.479c2.021-0.844,4.076-1.629,6.199-2.241c2.124-0.583,4.339-1.041,6.612-0.884
		c1.129,0.081,2.266,0.319,3.326,0.769c1.066,0.447,2.018,1.133,2.833,1.925c0.82,0.798,1.532,1.678,1.998,2.77
		c0.489,1.103,0.675,2.271,0.593,3.425c-0.121,2.314-1.047,4.42-2.063,6.376c-1.062,1.948-2.313,3.767-3.624,5.524
		c-2.634,3.514-5.538,6.78-8.338,10.112c-1.399,1.667-2.779,3.344-4.051,5.087c-1.255,1.763-2.415,3.544-3.057,5.595
		c-1.479,4.1-2.898,8.213-4.206,12.364c-2.585,8.307-4.813,16.738-6.302,25.308c-1.476,8.561-2.299,17.269-1.801,25.934l0.203,3.244
		l0.455,3.217c0.179,1.067,0.248,2.157,0.519,3.204l0.761,3.155l0.381,1.577c0.136,0.521,0.311,1.042,0.463,1.564l0.949,3.129
		l1.898,6.257c5.159,16.644,10.729,33.182,17.188,49.366l2.478,6.046l1.237,3.023l1.341,2.979c1.8,3.962,3.508,7.974,5.543,11.824
		l2.942,5.832c1.008,1.933,2.04,3.854,3.024,5.798c1.982,3.893,3.911,7.805,5.818,11.727c7.604,15.701,14.857,31.563,22.468,47.251
		c1.907,3.919,3.831,7.829,5.831,11.7c1.983,3.878,4.06,7.709,6.33,11.411c0.612,0.889,1.196,1.816,1.826,2.676
		c0.693,0.839,1.349,1.72,2.071,2.526c0.728,0.804,1.437,1.619,2.18,2.412l2.252,2.363l9.167,9.332
		c6.052,6.275,11.891,12.818,16.822,20.043c4.859,7.244,8.802,15.23,10.604,23.818l0.047,0.23l-0.232-0.022L258.051,359.903z
		 M258.051,359.903l81.055,7.359l-0.186,0.207c-1.825-8.52-5.775-16.441-10.641-23.628c-4.949-7.163-10.769-13.68-16.822-19.938
		l-9.181-9.317l-2.264-2.368c-0.746-0.797-1.47-1.624-2.207-2.437c-0.731-0.817-1.382-1.688-2.077-2.528
		c-0.66-0.896-1.24-1.816-1.864-2.722c-2.296-3.726-4.379-7.566-6.372-11.447c-2.01-3.875-3.941-7.784-5.855-11.704
		c-7.638-15.686-14.914-31.537-22.538-47.215c-1.909-3.919-3.844-7.826-5.824-11.702c-0.989-1.939-2.023-3.861-3.032-5.792
		l-2.957-5.842c-2.046-3.861-3.767-7.876-5.576-11.849l-1.347-2.983l-1.244-3.028l-2.493-6.053
		c-6.493-16.204-12.09-32.744-17.28-49.404l-1.908-6.255l-0.952-3.129c-0.155-0.524-0.327-1.037-0.47-1.569l-0.389-1.602
		l-0.777-3.202c-0.275-1.063-0.349-2.165-0.532-3.245l-0.465-3.259l-0.211-3.28c-0.515-8.757,0.307-17.529,1.775-26.142
		c1.486-8.621,3.71-17.091,6.293-25.434c1.306-4.168,2.727-8.302,4.198-12.407c0.666-2.133,1.91-4.066,3.177-5.842
		c1.295-1.782,2.685-3.474,4.087-5.149c2.807-3.344,5.688-6.612,8.294-10.075c1.297-1.732,2.524-3.516,3.553-5.397
		c0.987-1.881,1.851-3.892,1.954-5.957c0.085-1.02-0.101-2.067-0.492-2.954c-0.374-0.922-1.057-1.785-1.797-2.499
		c-0.742-0.72-1.588-1.333-2.539-1.733c-0.947-0.403-1.971-0.623-3.012-0.698c-2.092-0.15-4.224,0.275-6.287,0.842
		c-2.067,0.592-4.095,1.362-6.097,2.195c-4.003,1.677-7.923,3.585-11.869,5.442c-3.926,1.875-7.938,3.678-11.898,5.434
		c-3.918,1.781-7.439,4.404-10.131,7.762c-2.716,3.341-4.7,7.232-6.606,11.135c-1.894,3.919-3.752,7.876-5.827,11.727
		c-2.063,3.857-4.341,7.601-6.822,11.207c-2.479,3.604-5.168,7.066-8.014,10.382c-2.832,3.335-5.91,6.465-8.904,9.603
		c-2.965,3.178-5.801,6.479-8.344,9.996c-1.283,1.749-2.445,3.58-3.539,5.446c-1.041,1.893-2.005,3.832-2.737,5.86
		c-0.712,2.029-1.223,4.134-1.354,6.268c-0.141,2.132,0.117,4.282,0.811,6.298c0.711,2.011,1.839,3.861,3.199,5.518
		c1.363,1.661,2.972,3.116,4.648,4.482c1.672,1.383,3.477,2.581,5.213,3.93l1.298,1.02c0.431,0.342,0.82,0.73,1.231,1.093
		c0.814,0.736,1.637,1.463,2.382,2.267c3.122,3.083,5.86,6.511,8.479,10.01c5.16,7.064,9.525,14.677,13.285,22.558
		c3.801,7.872,6.836,16.088,9.432,24.421c2.686,8.314,4.531,16.865,6.261,25.424c1.371,8.615,2.845,17.211,4.32,25.791l2.952,12.729
		l0.369,1.59l0.455,1.568l0.912,3.14l1.82,6.274c5.167,16.637,11.939,32.788,20.321,48.077
		C236.564,332.389,246.232,347.055,258.051,359.903z"/>
</g>
</svg>
