<?xml version="1.0" encoding="utf-8"?>
<!-- Generator: Adobe Illustrator 16.0.0, SVG Export Plug-In . SVG Version: 6.00 Build 0)  -->
<!DOCTYPE svg PUBLIC "-//W3C//DTD SVG 1.1//EN" "http://www.w3.org/Graphics/SVG/1.1/DTD/svg11.dtd">
<svg version="1.1" id="Layer_1" xmlns="http://www.w3.org/2000/svg" xmlns:xlink="http://www.w3.org/1999/xlink" x="0px" y="0px"
	 width="1000px" height="25px" viewBox="0 0 1000 25" enable-background="new 0 0 1000 25" xml:space="preserve">
<g>
	<path d="M0,12.45c0,0,15.625-0.058,42.969-0.157c27.344-0.044,66.406-0.106,113.281-0.181c23.438-0.039,48.828-0.084,75.684-0.017
		c26.855,0.039,55.176,0.08,84.473,0.123c29.297,0.04,59.57,0.081,90.332,0.123C437.5,12.304,468.75,12.265,500,12.227
		c62.5-0.067,125-0.135,183.594-0.197c29.297-0.008,57.617-0.015,84.473-0.021c26.855,0.025,52.246,0.05,75.684,0.072
		C937.5,12.302,1000,12.45,1000,12.45v0.1c0,0-62.5,0.148-156.25,0.37c-23.438,0.022-48.828,0.047-75.684,0.072
		c-26.855-0.007-55.176-0.014-84.473-0.021C625,12.908,562.5,12.841,500,12.773c-31.25-0.038-62.5-0.077-93.262-0.115
		c-30.762,0.042-61.035,0.083-90.332,0.123c-29.297,0.043-57.617,0.084-84.473,0.123c-26.855,0.067-52.246,0.022-75.684-0.017
		c-46.875-0.074-85.938-0.137-113.281-0.181C15.625,12.607,0,12.55,0,12.55V12.45z"/>
</g>
</svg>
