<?xml version="1.0" encoding="utf-8"?>
<!-- Generator: Adobe Illustrator 16.0.0, SVG Export Plug-In . SVG Version: 6.00 Build 0)  -->
<!DOCTYPE svg PUBLIC "-//W3C//DTD SVG 1.1//EN" "http://www.w3.org/Graphics/SVG/1.1/DTD/svg11.dtd">
<svg version="1.1" id="Layer_1" xmlns="http://www.w3.org/2000/svg" xmlns:xlink="http://www.w3.org/1999/xlink" x="0px" y="0px"
	 width="46px" height="720.592px" viewBox="0 0 46 720.592" enable-background="new 0 0 46 720.592" xml:space="preserve">
<g>
	<g>
		
			<linearGradient id="SVGID_1_" gradientUnits="userSpaceOnUse" x1="22.2769" y1="1222.4766" x2="22.2768" y2="1511.781" gradientTransform="matrix(1 0 0 -1 -0.0151 1513.7598)">
			<stop  offset="0" style="stop-color:#FFFFFF"/>
			<stop  offset="1" style="stop-color:#FFFFFF;stop-opacity:0"/>
		</linearGradient>
		<path fill="url(#SVGID_1_)" d="M24.906,3.947c0,2.65-0.984,4.114-2.711,4.114c-1.523,0-2.555-1.428-2.578-4.007
			C19.617,1.441,20.744,0,22.328,0C23.971,0,24.906,1.463,24.906,3.947z M20.672,4.067c0,2.026,0.625,3.178,1.584,3.178
			c1.08,0,1.596-1.259,1.596-3.25c0-1.919-0.492-3.178-1.583-3.178C21.344,0.817,20.672,1.944,20.672,4.067z"/>
		
			<linearGradient id="SVGID_2_" gradientUnits="userSpaceOnUse" x1="21.7495" y1="1222.4775" x2="21.7494" y2="1511.7832" gradientTransform="matrix(1 0 0 -1 -0.0151 1513.7598)">
			<stop  offset="0" style="stop-color:#FFFFFF"/>
			<stop  offset="1" style="stop-color:#FFFFFF;stop-opacity:0"/>
		</linearGradient>
		<path fill="url(#SVGID_2_)" d="M22.016,13.117h-0.023l-1.355,0.73l-0.205-0.805l1.703-0.911h0.9v7.796h-1.02V13.117z"/>
		
			<linearGradient id="SVGID_3_" gradientUnits="userSpaceOnUse" x1="21.7495" y1="1222.4795" x2="21.7494" y2="1511.7852" gradientTransform="matrix(1 0 0 -1 -0.0151 1513.7598)">
			<stop  offset="0" style="stop-color:#FFFFFF"/>
			<stop  offset="1" style="stop-color:#FFFFFF;stop-opacity:0"/>
		</linearGradient>
		<path fill="url(#SVGID_3_)" d="M22.016,25.117h-0.023l-1.355,0.73l-0.205-0.805l1.703-0.911h0.9v7.796h-1.02V25.117z"/>
		
			<linearGradient id="SVGID_4_" gradientUnits="userSpaceOnUse" x1="22.2769" y1="1222.4814" x2="22.2768" y2="1511.7859" gradientTransform="matrix(1 0 0 -1 -0.0151 1513.7598)">
			<stop  offset="0" style="stop-color:#FFFFFF"/>
			<stop  offset="1" style="stop-color:#FFFFFF;stop-opacity:0"/>
		</linearGradient>
		<path fill="url(#SVGID_4_)" d="M24.906,39.947c0,2.65-0.984,4.114-2.711,4.114c-1.523,0-2.555-1.428-2.578-4.007
			c0-2.613,1.127-4.055,2.711-4.055C23.971,36,24.906,37.463,24.906,39.947z M20.672,40.067c0,2.026,0.625,3.178,1.584,3.178
			c1.08,0,1.596-1.259,1.596-3.25c0-1.919-0.492-3.178-1.583-3.178C21.344,36.817,20.672,37.944,20.672,40.067z"/>
		
			<linearGradient id="SVGID_5_" gradientUnits="userSpaceOnUse" x1="22.2769" y1="1222.4824" x2="22.2768" y2="1511.7869" gradientTransform="matrix(1 0 0 -1 -0.0151 1513.7598)">
			<stop  offset="0" style="stop-color:#FFFFFF"/>
			<stop  offset="1" style="stop-color:#FFFFFF;stop-opacity:0"/>
		</linearGradient>
		<path fill="url(#SVGID_5_)" d="M24.906,51.947c0,2.65-0.984,4.114-2.711,4.114c-1.523,0-2.555-1.428-2.578-4.007
			c0-2.613,1.127-4.055,2.711-4.055C23.971,48,24.906,49.463,24.906,51.947z M20.672,52.067c0,2.026,0.625,3.178,1.584,3.178
			c1.08,0,1.596-1.259,1.596-3.25c0-1.919-0.492-3.178-1.583-3.178C21.344,48.817,20.672,49.944,20.672,52.067z"/>
		
			<linearGradient id="SVGID_6_" gradientUnits="userSpaceOnUse" x1="21.7495" y1="1222.4834" x2="21.7494" y2="1511.7891" gradientTransform="matrix(1 0 0 -1 -0.0151 1513.7598)">
			<stop  offset="0" style="stop-color:#FFFFFF"/>
			<stop  offset="1" style="stop-color:#FFFFFF;stop-opacity:0"/>
		</linearGradient>
		<path fill="url(#SVGID_6_)" d="M22.016,61.117h-0.023l-1.355,0.73l-0.205-0.805l1.703-0.911h0.9v7.796h-1.02V61.117z"/>
		
			<linearGradient id="SVGID_7_" gradientUnits="userSpaceOnUse" x1="21.7495" y1="1222.4854" x2="21.7494" y2="1511.791" gradientTransform="matrix(1 0 0 -1 -0.0151 1513.7598)">
			<stop  offset="0" style="stop-color:#FFFFFF"/>
			<stop  offset="1" style="stop-color:#FFFFFF;stop-opacity:0"/>
		</linearGradient>
		<path fill="url(#SVGID_7_)" d="M22.016,73.117h-0.023l-1.355,0.73l-0.205-0.805l1.703-0.911h0.9v7.796h-1.02V73.117z"/>
		
			<linearGradient id="SVGID_8_" gradientUnits="userSpaceOnUse" x1="22.2769" y1="1222.4873" x2="22.2768" y2="1511.7917" gradientTransform="matrix(1 0 0 -1 -0.0151 1513.7598)">
			<stop  offset="0" style="stop-color:#FFFFFF"/>
			<stop  offset="1" style="stop-color:#FFFFFF;stop-opacity:0"/>
		</linearGradient>
		<path fill="url(#SVGID_8_)" d="M24.906,87.947c0,2.65-0.984,4.114-2.711,4.114c-1.523,0-2.555-1.428-2.578-4.007
			c0-2.613,1.127-4.055,2.711-4.055C23.971,84,24.906,85.463,24.906,87.947z M20.672,88.067c0,2.026,0.625,3.178,1.584,3.178
			c1.08,0,1.596-1.259,1.596-3.25c0-1.919-0.492-3.178-1.583-3.178C21.344,84.817,20.672,85.944,20.672,88.067z"/>
		
			<linearGradient id="SVGID_9_" gradientUnits="userSpaceOnUse" x1="22.2769" y1="1222.4883" x2="22.2768" y2="1511.7927" gradientTransform="matrix(1 0 0 -1 -0.0151 1513.7598)">
			<stop  offset="0" style="stop-color:#FFFFFF"/>
			<stop  offset="1" style="stop-color:#FFFFFF;stop-opacity:0"/>
		</linearGradient>
		<path fill="url(#SVGID_9_)" d="M24.906,99.947c0,2.65-0.984,4.114-2.711,4.114c-1.523,0-2.555-1.428-2.578-4.007
			c0-2.613,1.127-4.055,2.711-4.055C23.971,96,24.906,97.463,24.906,99.947z M20.672,100.067c0,2.026,0.625,3.178,1.584,3.178
			c1.08,0,1.596-1.259,1.596-3.25c0-1.919-0.492-3.178-1.583-3.178C21.344,96.817,20.672,97.944,20.672,100.067z"/>
		
			<linearGradient id="SVGID_10_" gradientUnits="userSpaceOnUse" x1="21.7495" y1="1222.4902" x2="21.7494" y2="1511.7959" gradientTransform="matrix(1 0 0 -1 -0.0151 1513.7598)">
			<stop  offset="0" style="stop-color:#FFFFFF"/>
			<stop  offset="1" style="stop-color:#FFFFFF;stop-opacity:0"/>
		</linearGradient>
		<path fill="url(#SVGID_10_)" d="M22.016,109.117h-0.023l-1.355,0.73l-0.205-0.805l1.703-0.911h0.9v7.796h-1.02V109.117z"/>
		
			<linearGradient id="SVGID_11_" gradientUnits="userSpaceOnUse" x1="21.7495" y1="1222.4912" x2="21.7494" y2="1511.7969" gradientTransform="matrix(1 0 0 -1 -0.0151 1513.7598)">
			<stop  offset="0" style="stop-color:#FFFFFF"/>
			<stop  offset="1" style="stop-color:#FFFFFF;stop-opacity:0"/>
		</linearGradient>
		<path fill="url(#SVGID_11_)" d="M22.016,121.117h-0.023l-1.355,0.73l-0.205-0.805l1.703-0.911h0.9v7.796h-1.02V121.117z"/>
		
			<linearGradient id="SVGID_12_" gradientUnits="userSpaceOnUse" x1="21.7495" y1="1222.4932" x2="21.7494" y2="1511.7988" gradientTransform="matrix(1 0 0 -1 -0.0151 1513.7598)">
			<stop  offset="0" style="stop-color:#FFFFFF"/>
			<stop  offset="1" style="stop-color:#FFFFFF;stop-opacity:0"/>
		</linearGradient>
		<path fill="url(#SVGID_12_)" d="M22.016,133.117h-0.023l-1.355,0.73l-0.205-0.805l1.703-0.911h0.9v7.796h-1.02V133.117z"/>
		
			<linearGradient id="SVGID_13_" gradientUnits="userSpaceOnUse" x1="22.2769" y1="1222.4941" x2="22.2768" y2="1511.7986" gradientTransform="matrix(1 0 0 -1 -0.0151 1513.7598)">
			<stop  offset="0" style="stop-color:#FFFFFF"/>
			<stop  offset="1" style="stop-color:#FFFFFF;stop-opacity:0"/>
		</linearGradient>
		<path fill="url(#SVGID_13_)" d="M24.906,147.947c0,2.65-0.984,4.114-2.711,4.114c-1.523,0-2.555-1.428-2.578-4.007
			c0-2.613,1.127-4.055,2.711-4.055C23.971,144,24.906,145.463,24.906,147.947z M20.672,148.067c0,2.026,0.625,3.178,1.584,3.178
			c1.08,0,1.596-1.259,1.596-3.25c0-1.919-0.492-3.178-1.583-3.178C21.344,144.817,20.672,145.944,20.672,148.067z"/>
		
			<linearGradient id="SVGID_14_" gradientUnits="userSpaceOnUse" x1="21.7495" y1="1222.4961" x2="21.7494" y2="1511.8018" gradientTransform="matrix(1 0 0 -1 -0.0151 1513.7598)">
			<stop  offset="0" style="stop-color:#FFFFFF"/>
			<stop  offset="1" style="stop-color:#FFFFFF;stop-opacity:0"/>
		</linearGradient>
		<path fill="url(#SVGID_14_)" d="M22.016,157.117h-0.023l-1.355,0.73l-0.205-0.805l1.703-0.911h0.9v7.796h-1.02V157.117z"/>
		
			<linearGradient id="SVGID_15_" gradientUnits="userSpaceOnUse" x1="22.2769" y1="1222.5117" x2="22.2768" y2="1511.7811" gradientTransform="matrix(1 0 0 -1 -0.0151 1513.7598)">
			<stop  offset="0" style="stop-color:#FFFFFF"/>
			<stop  offset="1" style="stop-color:#FFFFFF;stop-opacity:0"/>
		</linearGradient>
		<path fill="url(#SVGID_15_)" d="M24.906,171.946c0,2.65-0.984,4.113-2.711,4.113c-1.523,0-2.555-1.427-2.578-4.006
			c0-2.613,1.127-4.055,2.711-4.055C23.971,168,24.906,169.463,24.906,171.946z M20.672,172.067c0,2.026,0.625,3.178,1.584,3.178
			c1.08,0,1.596-1.26,1.596-3.25c0-1.919-0.492-3.179-1.583-3.179C21.344,168.816,20.672,169.943,20.672,172.067z"/>
		
			<linearGradient id="SVGID_16_" gradientUnits="userSpaceOnUse" x1="21.7495" y1="1222.499" x2="21.7494" y2="1511.8047" gradientTransform="matrix(1 0 0 -1 -0.0151 1513.7598)">
			<stop  offset="0" style="stop-color:#FFFFFF"/>
			<stop  offset="1" style="stop-color:#FFFFFF;stop-opacity:0"/>
		</linearGradient>
		<path fill="url(#SVGID_16_)" d="M22.016,181.116h-0.023l-1.355,0.73l-0.205-0.804l1.703-0.911h0.9v7.796h-1.02V181.116z"/>
		
			<linearGradient id="SVGID_17_" gradientUnits="userSpaceOnUse" x1="22.2769" y1="1222.5117" x2="22.2768" y2="1511.7811" gradientTransform="matrix(1 0 0 -1 -0.0151 1513.7598)">
			<stop  offset="0" style="stop-color:#FFFFFF"/>
			<stop  offset="1" style="stop-color:#FFFFFF;stop-opacity:0"/>
		</linearGradient>
		<path fill="url(#SVGID_17_)" d="M24.906,195.947c0,2.649-0.984,4.112-2.711,4.112c-1.523,0-2.555-1.427-2.578-4.006
			c0-2.613,1.127-4.055,2.711-4.055C23.971,192,24.906,193.463,24.906,195.947z M20.672,196.066c0,2.026,0.625,3.179,1.584,3.179
			c1.08,0,1.596-1.26,1.596-3.25c0-1.919-0.492-3.179-1.583-3.179C21.344,192.816,20.672,193.944,20.672,196.066z"/>
		
			<linearGradient id="SVGID_18_" gradientUnits="userSpaceOnUse" x1="21.7495" y1="1222.502" x2="21.7494" y2="1511.8076" gradientTransform="matrix(1 0 0 -1 -0.0151 1513.7598)">
			<stop  offset="0" style="stop-color:#FFFFFF"/>
			<stop  offset="1" style="stop-color:#FFFFFF;stop-opacity:0"/>
		</linearGradient>
		<path fill="url(#SVGID_18_)" d="M22.016,205.116h-0.023l-1.355,0.73l-0.205-0.804l1.703-0.911h0.9v7.796h-1.02V205.116z"/>
		
			<linearGradient id="SVGID_19_" gradientUnits="userSpaceOnUse" x1="22.2769" y1="1222.5156" x2="22.2768" y2="1511.75" gradientTransform="matrix(1 0 0 -1 -0.0151 1513.7598)">
			<stop  offset="0" style="stop-color:#FFFFFF"/>
			<stop  offset="1" style="stop-color:#FFFFFF;stop-opacity:0"/>
		</linearGradient>
		<path fill="url(#SVGID_19_)" d="M24.906,257.424c0,2.65-0.984,4.113-2.711,4.113c-1.523,0-2.555-1.427-2.578-4.006
			c0-2.614,1.127-4.056,2.711-4.056C23.971,253.478,24.906,254.94,24.906,257.424z M20.672,257.543c0,2.027,0.625,3.179,1.584,3.179
			c1.08,0,1.596-1.26,1.596-3.25c0-1.919-0.492-3.179-1.583-3.179C21.344,254.293,20.672,255.421,20.672,257.543z"/>
		
			<linearGradient id="SVGID_20_" gradientUnits="userSpaceOnUse" x1="22.2769" y1="1222.5117" x2="22.2768" y2="1511.8162" gradientTransform="matrix(1 0 0 -1 -0.0151 1513.7598)">
			<stop  offset="0" style="stop-color:#FFFFFF"/>
			<stop  offset="1" style="stop-color:#FFFFFF;stop-opacity:0"/>
		</linearGradient>
		<path fill="url(#SVGID_20_)" d="M24.906,294.712c0,2.65-0.984,4.113-2.711,4.113c-1.523,0-2.555-1.427-2.578-4.006
			c0-2.614,1.127-4.056,2.711-4.056C23.971,290.766,24.906,292.229,24.906,294.712z M20.672,294.831
			c0,2.027,0.625,3.179,1.584,3.179c1.08,0,1.596-1.26,1.596-3.25c0-1.919-0.492-3.179-1.583-3.179
			C21.344,291.581,20.672,292.709,20.672,294.831z"/>
		
			<linearGradient id="SVGID_21_" gradientUnits="userSpaceOnUse" x1="21.7495" y1="1222.5146" x2="21.7494" y2="1511.7478" gradientTransform="matrix(1 0 0 -1 -0.0151 1513.7598)">
			<stop  offset="0" style="stop-color:#FFFFFF"/>
			<stop  offset="1" style="stop-color:#FFFFFF;stop-opacity:0"/>
		</linearGradient>
		<path fill="url(#SVGID_21_)" d="M22.016,268.105h-0.023l-1.355,0.73l-0.205-0.804l1.703-0.911h0.9v7.796h-1.02V268.105z"/>
		
			<linearGradient id="SVGID_22_" gradientUnits="userSpaceOnUse" x1="21.7495" y1="1222.5137" x2="21.7494" y2="1511.7468" gradientTransform="matrix(1 0 0 -1 -0.0151 1513.7598)">
			<stop  offset="0" style="stop-color:#FFFFFF"/>
			<stop  offset="1" style="stop-color:#FFFFFF;stop-opacity:0"/>
		</linearGradient>
		<path fill="url(#SVGID_22_)" d="M22.016,280.105h-0.023l-1.355,0.73l-0.205-0.804l1.703-0.911h0.9v7.796h-1.02V280.105z"/>
		
			<linearGradient id="SVGID_23_" gradientUnits="userSpaceOnUse" x1="21.7495" y1="1222.5205" x2="21.7494" y2="1511.7537" gradientTransform="matrix(1 0 0 -1 -0.0151 1513.7598)">
			<stop  offset="0" style="stop-color:#FFFFFF"/>
			<stop  offset="1" style="stop-color:#FFFFFF;stop-opacity:0"/>
		</linearGradient>
		<path fill="url(#SVGID_23_)" d="M22.016,218.146h-0.023l-1.355,0.73l-0.205-0.804l1.703-0.911h0.9v7.796h-1.02V218.146z"/>
		
			<linearGradient id="SVGID_24_" gradientUnits="userSpaceOnUse" x1="21.7495" y1="1222.5127" x2="21.7494" y2="1511.7821" gradientTransform="matrix(1 0 0 -1 -0.0151 1513.7598)">
			<stop  offset="0" style="stop-color:#FFFFFF"/>
			<stop  offset="1" style="stop-color:#FFFFFF;stop-opacity:0"/>
		</linearGradient>
		<path fill="url(#SVGID_24_)" d="M22.016,230.146h-0.023l-1.355,0.73l-0.205-0.804l1.703-0.912h0.9v7.797h-1.02V230.146z"/>
		
			<linearGradient id="SVGID_25_" gradientUnits="userSpaceOnUse" x1="22.2769" y1="1222.5059" x2="22.2768" y2="1511.8103" gradientTransform="matrix(1 0 0 -1 -0.0151 1513.7598)">
			<stop  offset="0" style="stop-color:#FFFFFF"/>
			<stop  offset="1" style="stop-color:#FFFFFF;stop-opacity:0"/>
		</linearGradient>
		<path fill="url(#SVGID_25_)" d="M24.906,244.978c0,2.65-0.984,4.113-2.711,4.113c-1.523,0-2.555-1.428-2.578-4.006
			c0-2.614,1.127-4.054,2.711-4.054C23.971,241.031,24.906,242.494,24.906,244.978z M20.672,245.096
			c0,2.028,0.625,3.179,1.584,3.179c1.08,0,1.596-1.261,1.596-3.25c0-1.919-0.492-3.18-1.583-3.18
			C21.344,241.846,20.672,242.974,20.672,245.096z"/>
	</g>
	<g>
		
			<linearGradient id="SVGID_26_" gradientUnits="userSpaceOnUse" x1="23.8389" y1="-551.7749" x2="23.8389" y2="-240.074" gradientTransform="matrix(1 0 0 1 -0.0303 918.5195)">
			<stop  offset="0" style="stop-color:#FFFFFF;stop-opacity:0"/>
			<stop  offset="1" style="stop-color:#FFFFFF"/>
		</linearGradient>
		<path fill="url(#SVGID_26_)" d="M23.742,373.343c1.684,0,2.641-1.424,2.641-4.004c0-2.422-0.908-3.846-2.508-3.846
			c-1.545,0-2.641,1.4-2.641,3.947C21.254,371.954,22.264,373.343,23.742,373.343z M23.814,366.29c1.063,0,1.539,1.225,1.539,3.094
			c0,1.939-0.498,3.168-1.553,3.168c-0.936,0-1.539-1.123-1.539-3.098C22.264,367.388,22.914,366.29,23.814,366.29z"/>
		
			<linearGradient id="SVGID_27_" gradientUnits="userSpaceOnUse" x1="23.8389" y1="-551.7764" x2="23.8389" y2="-239.9979" gradientTransform="matrix(1 0 0 1 -0.0303 918.5195)">
			<stop  offset="0" style="stop-color:#FFFFFF;stop-opacity:0"/>
			<stop  offset="1" style="stop-color:#FFFFFF"/>
		</linearGradient>
		<path fill="url(#SVGID_27_)" d="M23.875,377.181c-1.545,0-2.641,1.404-2.641,3.947c0.02,2.512,1.029,3.902,2.508,3.902
			c1.684,0,2.641-1.428,2.641-4.008C26.383,378.606,25.475,377.181,23.875,377.181z M23.803,384.235
			c-0.936,0-1.539-1.119-1.539-3.097c0-2.065,0.65-3.164,1.55-3.164c1.063,0,1.539,1.226,1.539,3.097
			C25.354,383.009,24.855,384.235,23.803,384.235z"/>
		
			<linearGradient id="SVGID_28_" gradientUnits="userSpaceOnUse" x1="23.3247" y1="-551.7715" x2="23.3246" y2="-240.0732" gradientTransform="matrix(1 0 0 1 -0.0303 918.5195)">
			<stop  offset="0" style="stop-color:#FFFFFF;stop-opacity:0"/>
			<stop  offset="1" style="stop-color:#FFFFFF"/>
		</linearGradient>
		<polygon fill="url(#SVGID_28_)" points="24.563,396.589 24.563,388.997 23.686,388.997 22.027,389.884 22.227,390.665 
			23.547,389.954 23.57,389.954 23.57,396.589 		"/>
		
			<linearGradient id="SVGID_29_" gradientUnits="userSpaceOnUse" x1="23.8389" y1="-551.7539" x2="23.8389" y2="-240.2081" gradientTransform="matrix(1 0 0 1 -0.0303 918.5195)">
			<stop  offset="0" style="stop-color:#FFFFFF;stop-opacity:0"/>
			<stop  offset="1" style="stop-color:#FFFFFF"/>
		</linearGradient>
		<path fill="url(#SVGID_29_)" d="M23.875,400.556c-1.545,0-2.641,1.398-2.641,3.947c0.02,2.512,1.029,3.896,2.508,3.896
			c1.684,0,2.641-1.422,2.641-4.006C26.383,401.979,25.475,400.556,23.875,400.556z M23.803,407.608
			c-0.936,0-1.539-1.121-1.539-3.095c0-2.067,0.65-3.168,1.55-3.168c1.063,0,1.539,1.229,1.539,3.097
			C25.354,406.382,24.855,407.608,23.803,407.608z"/>
		
			<linearGradient id="SVGID_30_" gradientUnits="userSpaceOnUse" x1="23.3247" y1="-551.7715" x2="23.3246" y2="-240.0732" gradientTransform="matrix(1 0 0 1 -0.0303 918.5195)">
			<stop  offset="0" style="stop-color:#FFFFFF;stop-opacity:0"/>
			<stop  offset="1" style="stop-color:#FFFFFF"/>
		</linearGradient>
		<polygon fill="url(#SVGID_30_)" points="24.563,419.96 24.563,412.368 23.686,412.368 22.027,413.257 22.227,414.04 
			23.547,413.325 23.57,413.325 23.57,419.96 		"/>
		
			<linearGradient id="SVGID_31_" gradientUnits="userSpaceOnUse" x1="23.3247" y1="-551.7715" x2="23.3246" y2="-240.0732" gradientTransform="matrix(1 0 0 1 -0.0303 918.5195)">
			<stop  offset="0" style="stop-color:#FFFFFF;stop-opacity:0"/>
			<stop  offset="1" style="stop-color:#FFFFFF"/>
		</linearGradient>
		<polygon fill="url(#SVGID_31_)" points="22.227,425.726 23.547,425.013 23.57,425.013 23.57,431.646 24.563,431.646 
			24.563,424.054 23.686,424.054 22.027,424.942 		"/>
		
			<linearGradient id="SVGID_32_" gradientUnits="userSpaceOnUse" x1="23.8389" y1="-551.7993" x2="23.8389" y2="-239.9821" gradientTransform="matrix(1 0 0 1 -0.0303 918.5195)">
			<stop  offset="0" style="stop-color:#FFFFFF;stop-opacity:0"/>
			<stop  offset="1" style="stop-color:#FFFFFF"/>
		</linearGradient>
		<path fill="url(#SVGID_32_)" d="M23.875,435.61c-1.545,0-2.641,1.403-2.641,3.946c0.02,2.513,1.029,3.904,2.508,3.904
			c1.684,0,2.641-1.428,2.641-4.01C26.383,437.038,25.475,435.61,23.875,435.61z M23.803,442.665c-0.936,0-1.539-1.119-1.539-3.094
			c0-2.068,0.65-3.164,1.55-3.164c1.063,0,1.539,1.227,1.539,3.096C25.354,441.442,24.855,442.665,23.803,442.665z"/>
		
			<linearGradient id="SVGID_33_" gradientUnits="userSpaceOnUse" x1="23.3247" y1="-551.7705" x2="23.3246" y2="-240.0723" gradientTransform="matrix(1 0 0 1 -0.0303 918.5195)">
			<stop  offset="0" style="stop-color:#FFFFFF;stop-opacity:0"/>
			<stop  offset="1" style="stop-color:#FFFFFF"/>
		</linearGradient>
		<polygon fill="url(#SVGID_33_)" points="24.563,455.019 24.563,447.427 23.686,447.427 22.027,448.315 22.227,449.097 
			23.547,448.384 23.57,448.384 23.57,455.019 		"/>
		
			<linearGradient id="SVGID_34_" gradientUnits="userSpaceOnUse" x1="23.8389" y1="-551.7476" x2="23.8389" y2="-240.1243" gradientTransform="matrix(1 0 0 1 -0.0303 918.5195)">
			<stop  offset="0" style="stop-color:#FFFFFF;stop-opacity:0"/>
			<stop  offset="1" style="stop-color:#FFFFFF"/>
		</linearGradient>
		<path fill="url(#SVGID_34_)" d="M23.875,458.985c-1.545,0-2.641,1.399-2.641,3.946c0.02,2.513,1.029,3.898,2.508,3.898
			c1.684,0,2.641-1.424,2.641-4.006C26.383,460.409,25.475,458.985,23.875,458.985z M23.803,466.04
			c-0.936,0-1.539-1.123-1.539-3.096c0-2.068,0.65-3.168,1.55-3.168c1.063,0,1.539,1.229,1.539,3.096
			C25.354,464.812,24.855,466.04,23.803,466.04z"/>
		
			<linearGradient id="SVGID_35_" gradientUnits="userSpaceOnUse" x1="23.8389" y1="-551.7319" x2="23.8389" y2="-240.1473" gradientTransform="matrix(1 0 0 1 -0.0303 918.5195)">
			<stop  offset="0" style="stop-color:#FFFFFF;stop-opacity:0"/>
			<stop  offset="1" style="stop-color:#FFFFFF"/>
		</linearGradient>
		<path fill="url(#SVGID_35_)" d="M23.875,470.671c-1.545,0-2.641,1.398-2.641,3.947c0.02,2.512,1.029,3.898,2.508,3.898
			c1.684,0,2.641-1.425,2.641-4.005C26.383,472.095,25.475,470.671,23.875,470.671z M23.803,477.726
			c-0.936,0-1.539-1.12-1.539-3.096c0-2.067,0.65-3.164,1.55-3.164c1.063,0,1.539,1.226,1.539,3.092
			C25.354,476.497,24.855,477.726,23.803,477.726z"/>
		
			<linearGradient id="SVGID_36_" gradientUnits="userSpaceOnUse" x1="23.8389" y1="-551.8027" x2="23.8389" y2="-240.0242" gradientTransform="matrix(1 0 0 1 -0.0303 918.5195)">
			<stop  offset="0" style="stop-color:#FFFFFF;stop-opacity:0"/>
			<stop  offset="1" style="stop-color:#FFFFFF"/>
		</linearGradient>
		<path fill="url(#SVGID_36_)" d="M23.875,482.354c-1.545,0-2.641,1.403-2.641,3.948c0.02,2.513,1.029,3.9,2.508,3.9
			c1.684,0,2.641-1.428,2.641-4.008C26.383,483.78,25.475,482.354,23.875,482.354z M23.803,489.411
			c-0.936,0-1.539-1.121-1.539-3.096c0-2.068,0.65-3.164,1.55-3.164c1.063,0,1.539,1.225,1.539,3.096
			C25.354,488.183,24.855,489.411,23.803,489.411z"/>
		
			<linearGradient id="SVGID_37_" gradientUnits="userSpaceOnUse" x1="23.3252" y1="-551.7354" x2="23.3251" y2="-240.1172" gradientTransform="matrix(1 0 0 1 -0.0303 918.5195)">
			<stop  offset="0" style="stop-color:#FFFFFF;stop-opacity:0"/>
			<stop  offset="1" style="stop-color:#FFFFFF"/>
		</linearGradient>
		<polygon fill="url(#SVGID_37_)" points="24.563,501.763 24.563,494.173 23.686,494.173 22.027,495.06 22.227,495.841 
			23.547,495.128 23.57,495.128 23.57,501.763 		"/>
		
			<linearGradient id="SVGID_38_" gradientUnits="userSpaceOnUse" x1="23.8389" y1="-551.8779" x2="23.8389" y2="-239.9443" gradientTransform="matrix(1 0 0 1 -0.0303 918.5195)">
			<stop  offset="0" style="stop-color:#FFFFFF;stop-opacity:0"/>
			<stop  offset="1" style="stop-color:#FFFFFF"/>
		</linearGradient>
		<path fill="url(#SVGID_38_)" d="M23.875,505.726c-1.545,0-2.641,1.408-2.641,3.951c0.02,2.508,1.029,3.902,2.508,3.902
			c1.684,0,2.641-1.432,2.641-4.012C26.383,507.151,25.475,505.726,23.875,505.726z M23.803,512.78
			c-0.936,0-1.539-1.119-1.539-3.092c0-2.066,0.65-3.162,1.55-3.162c1.063,0,1.539,1.219,1.539,3.09
			C25.354,511.554,24.855,512.78,23.803,512.78z"/>
		
			<linearGradient id="SVGID_39_" gradientUnits="userSpaceOnUse" x1="23.3252" y1="-551.7295" x2="23.3251" y2="-240.1115" gradientTransform="matrix(1 0 0 1 -0.0303 918.5195)">
			<stop  offset="0" style="stop-color:#FFFFFF;stop-opacity:0"/>
			<stop  offset="1" style="stop-color:#FFFFFF"/>
		</linearGradient>
		<polygon fill="url(#SVGID_39_)" points="24.563,525.134 24.563,517.544 23.686,517.544 22.027,518.431 22.227,519.21 
			23.547,518.503 23.57,518.503 23.57,525.134 		"/>
		
			<linearGradient id="SVGID_40_" gradientUnits="userSpaceOnUse" x1="23.8389" y1="-551.7285" x2="23.8389" y2="-240.1053" gradientTransform="matrix(1 0 0 1 -0.0303 918.5195)">
			<stop  offset="0" style="stop-color:#FFFFFF;stop-opacity:0"/>
			<stop  offset="1" style="stop-color:#FFFFFF"/>
		</linearGradient>
		<path fill="url(#SVGID_40_)" d="M23.875,529.103c-1.545,0-2.641,1.399-2.641,3.942c0.02,2.519,1.029,3.902,2.508,3.902
			c1.684,0,2.641-1.424,2.641-4.013C26.383,530.526,25.475,529.103,23.875,529.103z M23.803,536.153
			c-0.936,0-1.539-1.123-1.539-3.094c0-2.068,0.65-3.164,1.55-3.164c1.063,0,1.539,1.229,1.539,3.092
			C25.354,534.931,24.855,536.153,23.803,536.153z"/>
		
			<linearGradient id="SVGID_41_" gradientUnits="userSpaceOnUse" x1="23.3252" y1="-551.7256" x2="23.3251" y2="-240.1075" gradientTransform="matrix(1 0 0 1 -0.0303 918.5195)">
			<stop  offset="0" style="stop-color:#FFFFFF;stop-opacity:0"/>
			<stop  offset="1" style="stop-color:#FFFFFF"/>
		</linearGradient>
		<polygon fill="url(#SVGID_41_)" points="24.563,548.503 24.563,540.913 23.686,540.913 22.027,541.802 22.227,542.589 
			23.547,541.872 23.57,541.872 23.57,548.503 		"/>
		
			<linearGradient id="SVGID_42_" gradientUnits="userSpaceOnUse" x1="23.8389" y1="-551.7236" x2="23.8389" y2="-240.1003" gradientTransform="matrix(1 0 0 1 -0.0303 918.5195)">
			<stop  offset="0" style="stop-color:#FFFFFF;stop-opacity:0"/>
			<stop  offset="1" style="stop-color:#FFFFFF"/>
		</linearGradient>
		<path fill="url(#SVGID_42_)" d="M23.875,552.474c-1.545,0-2.641,1.398-2.641,3.941c0.02,2.518,1.029,3.904,2.508,3.904
			c1.684,0,2.641-1.424,2.641-4.004C26.383,553.897,25.475,552.474,23.875,552.474z M23.803,559.528
			c-0.936,0-1.539-1.119-1.539-3.101c0-2.065,0.65-3.164,1.55-3.164c1.063,0,1.539,1.229,1.539,3.097
			C25.354,558.3,24.855,559.528,23.803,559.528z"/>
		
			<linearGradient id="SVGID_43_" gradientUnits="userSpaceOnUse" x1="23.3252" y1="-551.9766" x2="23.3251" y2="-239.9574" gradientTransform="matrix(1 0 0 1 -0.0303 918.5195)">
			<stop  offset="0" style="stop-color:#FFFFFF;stop-opacity:0"/>
			<stop  offset="1" style="stop-color:#FFFFFF"/>
		</linearGradient>
		<polygon fill="url(#SVGID_43_)" points="24.563,571.882 24.563,564.282 23.686,564.282 22.027,565.171 22.227,565.958 
			23.547,565.243 23.57,565.243 23.57,571.882 		"/>
		
			<linearGradient id="SVGID_44_" gradientUnits="userSpaceOnUse" x1="23.8389" y1="-551.667" x2="23.8389" y2="-240.1212" gradientTransform="matrix(1 0 0 1 -0.0303 918.5195)">
			<stop  offset="0" style="stop-color:#FFFFFF;stop-opacity:0"/>
			<stop  offset="1" style="stop-color:#FFFFFF"/>
		</linearGradient>
		<path fill="url(#SVGID_44_)" d="M23.875,575.845c-1.545,0-2.641,1.398-2.641,3.947c0.02,2.512,1.029,3.896,2.508,3.896
			c1.684,0,2.641-1.422,2.641-4.002C26.383,577.269,25.475,575.845,23.875,575.845z M23.803,582.899
			c-0.936,0-1.539-1.119-1.539-3.101c0-2.063,0.65-3.164,1.55-3.164c1.063,0,1.539,1.229,1.539,3.101
			C25.354,581.671,24.855,582.899,23.803,582.899z"/>
		
			<linearGradient id="SVGID_45_" gradientUnits="userSpaceOnUse" x1="23.8389" y1="-551.7456" x2="23.8389" y2="-240.0835" gradientTransform="matrix(1 0 0 1 -0.0303 918.5195)">
			<stop  offset="0" style="stop-color:#FFFFFF;stop-opacity:0"/>
			<stop  offset="1" style="stop-color:#FFFFFF"/>
		</linearGradient>
		<path fill="url(#SVGID_45_)" d="M23.875,587.528c-1.545,0-2.641,1.399-2.641,3.953c0.02,2.508,1.029,3.895,2.508,3.895
			c1.684,0,2.641-1.424,2.641-4.002C26.383,588.952,25.475,587.528,23.875,587.528z M23.803,594.585
			c-0.936,0-1.539-1.121-1.539-3.092c0-2.068,0.65-3.172,1.55-3.172c1.063,0,1.539,1.229,1.539,3.1
			C25.354,593.356,24.855,594.585,23.803,594.585z"/>
		
			<linearGradient id="SVGID_46_" gradientUnits="userSpaceOnUse" x1="23.3252" y1="-551.7666" x2="23.3251" y2="-240.0684" gradientTransform="matrix(1 0 0 1 -0.0303 918.5195)">
			<stop  offset="0" style="stop-color:#FFFFFF;stop-opacity:0"/>
			<stop  offset="1" style="stop-color:#FFFFFF"/>
		</linearGradient>
		<polygon fill="url(#SVGID_46_)" points="24.563,606.938 24.563,599.347 23.686,599.347 22.027,600.235 22.227,601.015 
			23.547,600.304 23.57,600.304 23.57,606.938 		"/>
		
			<linearGradient id="SVGID_47_" gradientUnits="userSpaceOnUse" x1="23.8389" y1="-551.9858" x2="23.8389" y2="-240.0133" gradientTransform="matrix(1 0 0 1 -0.0303 918.5195)">
			<stop  offset="0" style="stop-color:#FFFFFF;stop-opacity:0"/>
			<stop  offset="1" style="stop-color:#FFFFFF"/>
		</linearGradient>
		<path fill="url(#SVGID_47_)" d="M23.875,610.899c-1.545,0-2.641,1.407-2.641,3.951c0.02,2.508,1.029,3.903,2.508,3.903
			c1.684,0,2.641-1.434,2.641-4.014C26.383,612.325,25.475,610.899,23.875,610.899z M23.803,617.954
			c-0.936,0-1.539-1.119-1.539-3.092c0-2.066,0.65-3.162,1.55-3.162c1.063,0,1.539,1.219,1.539,3.092
			C25.354,616.728,24.855,617.954,23.803,617.954z"/>
		
			<linearGradient id="SVGID_48_" gradientUnits="userSpaceOnUse" x1="23.3252" y1="-551.7686" x2="23.3251" y2="-240.0702" gradientTransform="matrix(1 0 0 1 -0.0303 918.5195)">
			<stop  offset="0" style="stop-color:#FFFFFF;stop-opacity:0"/>
			<stop  offset="1" style="stop-color:#FFFFFF"/>
		</linearGradient>
		<polygon fill="url(#SVGID_48_)" points="24.563,630.308 24.563,622.716 23.686,622.716 22.027,623.604 22.227,624.384 
			23.547,623.677 23.57,623.677 23.57,630.308 		"/>
		
			<linearGradient id="SVGID_49_" gradientUnits="userSpaceOnUse" x1="23.8389" y1="-551.6333" x2="23.8389" y2="-240.0875" gradientTransform="matrix(1 0 0 1 -0.0303 918.5195)">
			<stop  offset="0" style="stop-color:#FFFFFF;stop-opacity:0"/>
			<stop  offset="1" style="stop-color:#FFFFFF"/>
		</linearGradient>
		<path fill="url(#SVGID_49_)" d="M23.875,634.278c-1.545,0-2.641,1.399-2.641,3.942c0.02,2.515,1.029,3.9,2.508,3.9
			c1.684,0,2.641-1.422,2.641-4.01C26.383,635.702,25.475,634.278,23.875,634.278z M23.803,641.327
			c-0.936,0-1.539-1.121-1.539-3.094c0-2.066,0.65-3.164,1.55-3.164c1.063,0,1.539,1.229,1.539,3.092
			C25.354,640.104,24.855,641.327,23.803,641.327z"/>
		
			<linearGradient id="SVGID_50_" gradientUnits="userSpaceOnUse" x1="23.3252" y1="-551.7695" x2="23.3251" y2="-240.0714" gradientTransform="matrix(1 0 0 1 -0.0303 918.5195)">
			<stop  offset="0" style="stop-color:#FFFFFF;stop-opacity:0"/>
			<stop  offset="1" style="stop-color:#FFFFFF"/>
		</linearGradient>
		<polygon fill="url(#SVGID_50_)" points="24.563,653.679 24.563,646.087 23.686,646.087 22.027,646.976 22.227,647.763 
			23.547,647.046 23.57,647.046 23.57,653.679 		"/>
		
			<linearGradient id="SVGID_51_" gradientUnits="userSpaceOnUse" x1="23.8389" y1="-551.6968" x2="23.8389" y2="-240.0735" gradientTransform="matrix(1 0 0 1 -0.0303 918.5195)">
			<stop  offset="0" style="stop-color:#FFFFFF;stop-opacity:0"/>
			<stop  offset="1" style="stop-color:#FFFFFF"/>
		</linearGradient>
		<path fill="url(#SVGID_51_)" d="M23.875,657.647c-1.545,0-2.641,1.399-2.641,3.944c0.02,2.517,1.029,3.9,2.508,3.9
			c1.684,0,2.641-1.424,2.641-4.002C26.383,659.071,25.475,657.647,23.875,657.647z M23.803,664.704c-0.936,0-1.539-1.121-1.539-3.1
			c0-2.068,0.65-3.164,1.55-3.164c1.063,0,1.539,1.229,1.539,3.1C25.354,663.476,24.855,664.704,23.803,664.704z"/>
	</g>
</g>
</svg>
