<?xml version="1.0" encoding="utf-8"?>
<!-- Generator: Adobe Illustrator 16.0.0, SVG Export Plug-In . SVG Version: 6.00 Build 0)  -->
<!DOCTYPE svg PUBLIC "-//W3C//DTD SVG 1.1//EN" "http://www.w3.org/Graphics/SVG/1.1/DTD/svg11.dtd">
<svg version="1.1" id="Layer_1" xmlns="http://www.w3.org/2000/svg" xmlns:xlink="http://www.w3.org/1999/xlink" x="0px" y="0px"
	 width="46px" height="1226.066px" viewBox="0 0 46 1226.066" enable-background="new 0 0 46 1226.066" xml:space="preserve">
<g>
	
		<linearGradient id="SVGID_1_" gradientUnits="userSpaceOnUse" x1="23.0308" y1="-518.2295" x2="23.0307" y2="-171.3805" gradientTransform="matrix(1 0 0 1 -0.0303 918.5195)">
		<stop  offset="0" style="stop-color:#FFFFFF;stop-opacity:0"/>
		<stop  offset="1" style="stop-color:#FFFFFF"/>
	</linearGradient>
	<path fill="url(#SVGID_1_)" d="M25.645,407.576c0,2.649-0.982,4.112-2.709,4.112c-1.522,0-2.555-1.427-2.578-4.006
		c0-2.612,1.127-4.054,2.71-4.054C24.709,403.629,25.645,405.093,25.645,407.576z M21.411,407.696c0,2.025,0.623,3.178,1.583,3.178
		c1.079,0,1.595-1.259,1.595-3.25c0-1.919-0.491-3.178-1.583-3.178C22.082,404.446,21.411,405.573,21.411,407.696z"/>
	
		<linearGradient id="SVGID_2_" gradientUnits="userSpaceOnUse" x1="22.502" y1="-518.2251" x2="22.5018" y2="-171.4616" gradientTransform="matrix(1 0 0 1 -0.0303 918.5195)">
		<stop  offset="0" style="stop-color:#FFFFFF;stop-opacity:0"/>
		<stop  offset="1" style="stop-color:#FFFFFF"/>
	</linearGradient>
	<path fill="url(#SVGID_2_)" d="M22.754,416.746H22.73l-1.355,0.729l-0.204-0.804l1.702-0.912h0.9v7.796h-1.021L22.754,416.746
		L22.754,416.746z"/>
	
		<linearGradient id="SVGID_3_" gradientUnits="userSpaceOnUse" x1="23.0308" y1="-518.2324" x2="23.0307" y2="-171.3834" gradientTransform="matrix(1 0 0 1 -0.0303 918.5195)">
		<stop  offset="0" style="stop-color:#FFFFFF;stop-opacity:0"/>
		<stop  offset="1" style="stop-color:#FFFFFF"/>
	</linearGradient>
	<path fill="url(#SVGID_3_)" d="M25.645,431.576c0,2.649-0.982,4.112-2.709,4.112c-1.522,0-2.555-1.427-2.578-4.006
		c0-2.612,1.127-4.054,2.71-4.054C24.709,427.629,25.645,429.093,25.645,431.576z M21.411,431.696c0,2.025,0.623,3.178,1.583,3.178
		c1.079,0,1.595-1.259,1.595-3.25c0-1.919-0.491-3.178-1.583-3.178C22.082,428.446,21.411,429.573,21.411,431.696z"/>
	
		<linearGradient id="SVGID_4_" gradientUnits="userSpaceOnUse" x1="22.502" y1="-518.2222" x2="22.5018" y2="-171.4587" gradientTransform="matrix(1 0 0 1 -0.0303 918.5195)">
		<stop  offset="0" style="stop-color:#FFFFFF;stop-opacity:0"/>
		<stop  offset="1" style="stop-color:#FFFFFF"/>
	</linearGradient>
	<path fill="url(#SVGID_4_)" d="M22.754,440.746H22.73l-1.355,0.729l-0.204-0.804l1.702-0.912h0.9v7.796h-1.021L22.754,440.746
		L22.754,440.746z"/>
	
		<linearGradient id="SVGID_5_" gradientUnits="userSpaceOnUse" x1="23.0308" y1="-518.2354" x2="23.0307" y2="-171.3864" gradientTransform="matrix(1 0 0 1 -0.0303 918.5195)">
		<stop  offset="0" style="stop-color:#FFFFFF;stop-opacity:0"/>
		<stop  offset="1" style="stop-color:#FFFFFF"/>
	</linearGradient>
	<path fill="url(#SVGID_5_)" d="M25.645,455.576c0,2.649-0.982,4.112-2.709,4.112c-1.522,0-2.555-1.427-2.578-4.006
		c0-2.612,1.127-4.054,2.71-4.054C24.709,451.629,25.645,453.093,25.645,455.576z M21.411,455.696c0,2.025,0.623,3.178,1.583,3.178
		c1.079,0,1.595-1.259,1.595-3.25c0-1.919-0.491-3.178-1.583-3.178C22.082,452.446,21.411,453.573,21.411,455.696z"/>
	
		<linearGradient id="SVGID_6_" gradientUnits="userSpaceOnUse" x1="22.502" y1="-518.2192" x2="22.5018" y2="-171.4557" gradientTransform="matrix(1 0 0 1 -0.0303 918.5195)">
		<stop  offset="0" style="stop-color:#FFFFFF;stop-opacity:0"/>
		<stop  offset="1" style="stop-color:#FFFFFF"/>
	</linearGradient>
	<path fill="url(#SVGID_6_)" d="M22.754,464.746H22.73l-1.355,0.729l-0.204-0.804l1.702-0.912h0.9v7.796h-1.021L22.754,464.746
		L22.754,464.746z"/>
	
		<linearGradient id="SVGID_7_" gradientUnits="userSpaceOnUse" x1="23.0308" y1="-518.2383" x2="23.0307" y2="-171.3893" gradientTransform="matrix(1 0 0 1 -0.0303 918.5195)">
		<stop  offset="0" style="stop-color:#FFFFFF;stop-opacity:0"/>
		<stop  offset="1" style="stop-color:#FFFFFF"/>
	</linearGradient>
	<path fill="url(#SVGID_7_)" d="M25.645,479.576c0,2.649-0.982,4.112-2.709,4.112c-1.522,0-2.555-1.427-2.578-4.006
		c0-2.612,1.127-4.054,2.71-4.054C24.709,475.629,25.645,477.093,25.645,479.576z M21.411,479.696c0,2.025,0.623,3.178,1.583,3.178
		c1.079,0,1.595-1.259,1.595-3.25c0-1.919-0.491-3.178-1.583-3.178C22.082,476.446,21.411,477.573,21.411,479.696z"/>
	
		<linearGradient id="SVGID_8_" gradientUnits="userSpaceOnUse" x1="22.5024" y1="-518.2163" x2="22.5023" y2="-171.4528" gradientTransform="matrix(1 0 0 1 -0.0303 918.5195)">
		<stop  offset="0" style="stop-color:#FFFFFF;stop-opacity:0"/>
		<stop  offset="1" style="stop-color:#FFFFFF"/>
	</linearGradient>
	<path fill="url(#SVGID_8_)" d="M22.754,488.746H22.73l-1.355,0.729l-0.204-0.804l1.702-0.912h0.9v7.796h-1.021L22.754,488.746
		L22.754,488.746z"/>
	
		<linearGradient id="SVGID_9_" gradientUnits="userSpaceOnUse" x1="23.0308" y1="-518.2412" x2="23.0307" y2="-171.3922" gradientTransform="matrix(1 0 0 1 -0.0303 918.5195)">
		<stop  offset="0" style="stop-color:#FFFFFF;stop-opacity:0"/>
		<stop  offset="1" style="stop-color:#FFFFFF"/>
	</linearGradient>
	<path fill="url(#SVGID_9_)" d="M25.645,503.576c0,2.649-0.982,4.112-2.709,4.112c-1.522,0-2.555-1.427-2.578-4.006
		c0-2.612,1.127-4.054,2.71-4.054C24.709,499.629,25.645,501.093,25.645,503.576z M21.411,503.696c0,2.025,0.623,3.178,1.583,3.178
		c1.079,0,1.595-1.259,1.595-3.25c0-1.919-0.491-3.178-1.583-3.178C22.082,500.446,21.411,501.573,21.411,503.696z"/>
	
		<linearGradient id="SVGID_10_" gradientUnits="userSpaceOnUse" x1="22.5024" y1="-518.2134" x2="22.5023" y2="-171.4498" gradientTransform="matrix(1 0 0 1 -0.0303 918.5195)">
		<stop  offset="0" style="stop-color:#FFFFFF;stop-opacity:0"/>
		<stop  offset="1" style="stop-color:#FFFFFF"/>
	</linearGradient>
	<path fill="url(#SVGID_10_)" d="M22.754,512.746H22.73l-1.355,0.729l-0.204-0.804l1.702-0.912h0.9v7.796h-1.021L22.754,512.746
		L22.754,512.746z"/>
	
		<linearGradient id="SVGID_11_" gradientUnits="userSpaceOnUse" x1="23.0308" y1="-518.2441" x2="23.0307" y2="-171.3951" gradientTransform="matrix(1 0 0 1 -0.0303 918.5195)">
		<stop  offset="0" style="stop-color:#FFFFFF;stop-opacity:0"/>
		<stop  offset="1" style="stop-color:#FFFFFF"/>
	</linearGradient>
	<path fill="url(#SVGID_11_)" d="M25.645,527.576c0,2.649-0.982,4.112-2.709,4.112c-1.522,0-2.555-1.427-2.578-4.006
		c0-2.612,1.127-4.054,2.71-4.054C24.709,523.629,25.645,525.093,25.645,527.576z M21.411,527.696c0,2.025,0.623,3.178,1.583,3.178
		c1.079,0,1.595-1.259,1.595-3.25c0-1.919-0.491-3.178-1.583-3.178C22.082,524.446,21.411,525.573,21.411,527.696z"/>
	
		<linearGradient id="SVGID_12_" gradientUnits="userSpaceOnUse" x1="22.5024" y1="-518.2104" x2="22.5023" y2="-171.447" gradientTransform="matrix(1 0 0 1 -0.0303 918.5195)">
		<stop  offset="0" style="stop-color:#FFFFFF;stop-opacity:0"/>
		<stop  offset="1" style="stop-color:#FFFFFF"/>
	</linearGradient>
	<path fill="url(#SVGID_12_)" d="M22.754,536.746H22.73l-1.355,0.729l-0.204-0.804l1.702-0.912h0.9v7.796h-1.021L22.754,536.746
		L22.754,536.746z"/>
	
		<linearGradient id="SVGID_13_" gradientUnits="userSpaceOnUse" x1="23.0308" y1="-518.2471" x2="23.0307" y2="-171.3981" gradientTransform="matrix(1 0 0 1 -0.0303 918.5195)">
		<stop  offset="0" style="stop-color:#FFFFFF;stop-opacity:0"/>
		<stop  offset="1" style="stop-color:#FFFFFF"/>
	</linearGradient>
	<path fill="url(#SVGID_13_)" d="M25.645,551.576c0,2.649-0.982,4.112-2.709,4.112c-1.522,0-2.555-1.427-2.578-4.006
		c0-2.612,1.127-4.054,2.71-4.054C24.709,547.629,25.645,549.093,25.645,551.576z M21.411,551.696c0,2.025,0.623,3.178,1.583,3.178
		c1.079,0,1.595-1.259,1.595-3.25c0-1.919-0.491-3.178-1.583-3.178C22.082,548.446,21.411,549.573,21.411,551.696z"/>
	
		<linearGradient id="SVGID_14_" gradientUnits="userSpaceOnUse" x1="22.5024" y1="-518.2075" x2="22.5023" y2="-171.444" gradientTransform="matrix(1 0 0 1 -0.0303 918.5195)">
		<stop  offset="0" style="stop-color:#FFFFFF;stop-opacity:0"/>
		<stop  offset="1" style="stop-color:#FFFFFF"/>
	</linearGradient>
	<path fill="url(#SVGID_14_)" d="M22.754,560.746H22.73l-1.355,0.729l-0.204-0.804l1.702-0.912h0.9v7.796h-1.021L22.754,560.746
		L22.754,560.746z"/>
	
		<linearGradient id="SVGID_15_" gradientUnits="userSpaceOnUse" x1="23.0308" y1="-518.25" x2="23.0307" y2="-171.401" gradientTransform="matrix(1 0 0 1 -0.0303 918.5195)">
		<stop  offset="0" style="stop-color:#FFFFFF;stop-opacity:0"/>
		<stop  offset="1" style="stop-color:#FFFFFF"/>
	</linearGradient>
	<path fill="url(#SVGID_15_)" d="M25.645,575.576c0,2.649-0.982,4.112-2.709,4.112c-1.522,0-2.555-1.427-2.578-4.006
		c0-2.612,1.127-4.054,2.71-4.054C24.709,571.629,25.645,573.092,25.645,575.576z M21.411,575.696c0,2.025,0.623,3.178,1.583,3.178
		c1.079,0,1.595-1.26,1.595-3.25c0-1.919-0.491-3.179-1.583-3.179C22.082,572.445,21.411,573.573,21.411,575.696z"/>
	
		<linearGradient id="SVGID_16_" gradientUnits="userSpaceOnUse" x1="22.5024" y1="-518.2036" x2="22.5023" y2="-171.4401" gradientTransform="matrix(1 0 0 1 -0.0303 918.5195)">
		<stop  offset="0" style="stop-color:#FFFFFF;stop-opacity:0"/>
		<stop  offset="1" style="stop-color:#FFFFFF"/>
	</linearGradient>
	<path fill="url(#SVGID_16_)" d="M22.754,584.745H22.73l-1.355,0.729l-0.204-0.803l1.702-0.912h0.9v7.796h-1.021L22.754,584.745
		L22.754,584.745z"/>
	
		<linearGradient id="SVGID_17_" gradientUnits="userSpaceOnUse" x1="23.0308" y1="-518.2041" x2="23.0307" y2="-171.4392" gradientTransform="matrix(1 0 0 1 -0.0303 918.5195)">
		<stop  offset="0" style="stop-color:#FFFFFF;stop-opacity:0"/>
		<stop  offset="1" style="stop-color:#FFFFFF"/>
	</linearGradient>
	<path fill="url(#SVGID_17_)" d="M25.645,599.576c0,2.648-0.982,4.111-2.709,4.111c-1.522,0-2.555-1.427-2.578-4.006
		c0-2.612,1.127-4.054,2.71-4.054C24.709,595.629,25.645,597.092,25.645,599.576z M21.411,599.695c0,2.025,0.623,3.179,1.583,3.179
		c1.079,0,1.595-1.26,1.595-3.25c0-1.919-0.491-3.179-1.583-3.179C22.082,596.445,21.411,597.573,21.411,599.695z"/>
	
		<linearGradient id="SVGID_18_" gradientUnits="userSpaceOnUse" x1="22.5024" y1="-518.2271" x2="22.5023" y2="-171.4202" gradientTransform="matrix(1 0 0 1 -0.0303 918.5195)">
		<stop  offset="0" style="stop-color:#FFFFFF;stop-opacity:0"/>
		<stop  offset="1" style="stop-color:#FFFFFF"/>
	</linearGradient>
	<path fill="url(#SVGID_18_)" d="M22.754,608.745H22.73l-1.355,0.729l-0.204-0.803l1.702-0.912h0.9v7.796h-1.021L22.754,608.745
		L22.754,608.745z"/>
	
		<linearGradient id="SVGID_19_" gradientUnits="userSpaceOnUse" x1="22.5024" y1="-518.2271" x2="22.5023" y2="-171.4202" gradientTransform="matrix(1 0 0 1 -0.0303 918.5195)">
		<stop  offset="0" style="stop-color:#FFFFFF;stop-opacity:0"/>
		<stop  offset="1" style="stop-color:#FFFFFF"/>
	</linearGradient>
	<path fill="url(#SVGID_19_)" d="M22.754,620.745H22.73l-1.355,0.729l-0.204-0.803l1.702-0.912h0.9v7.796h-1.021L22.754,620.745
		L22.754,620.745z"/>
	
		<linearGradient id="SVGID_20_" gradientUnits="userSpaceOnUse" x1="23.0308" y1="-518.2275" x2="23.0307" y2="-171.4207" gradientTransform="matrix(1 0 0 1 -0.0303 918.5195)">
		<stop  offset="0" style="stop-color:#FFFFFF;stop-opacity:0"/>
		<stop  offset="1" style="stop-color:#FFFFFF"/>
	</linearGradient>
	<path fill="url(#SVGID_20_)" d="M25.645,635.576c0,2.648-0.982,4.111-2.709,4.111c-1.522,0-2.555-1.427-2.578-4.006
		c0-2.612,1.127-4.054,2.71-4.054C24.709,631.629,25.645,633.092,25.645,635.576z M21.411,635.695c0,2.025,0.623,3.179,1.583,3.179
		c1.079,0,1.595-1.26,1.595-3.25c0-1.919-0.491-3.179-1.583-3.179C22.082,632.445,21.411,633.573,21.411,635.695z"/>
	
		<linearGradient id="SVGID_21_" gradientUnits="userSpaceOnUse" x1="23.0308" y1="-518.2139" x2="23.0307" y2="-171.4279" gradientTransform="matrix(1 0 0 1 -0.0303 918.5195)">
		<stop  offset="0" style="stop-color:#FFFFFF;stop-opacity:0"/>
		<stop  offset="1" style="stop-color:#FFFFFF"/>
	</linearGradient>
	<path fill="url(#SVGID_21_)" d="M25.645,647.576c0,2.648-0.982,4.111-2.709,4.111c-1.522,0-2.555-1.427-2.578-4.006
		c0-2.612,1.127-4.054,2.71-4.054C24.709,643.629,25.645,645.092,25.645,647.576z M21.411,647.695c0,2.025,0.623,3.179,1.583,3.179
		c1.079,0,1.595-1.26,1.595-3.25c0-1.919-0.491-3.179-1.583-3.179C22.082,644.445,21.411,645.573,21.411,647.695z"/>
	
		<linearGradient id="SVGID_22_" gradientUnits="userSpaceOnUse" x1="23.0308" y1="-518.2285" x2="23.0307" y2="-171.4216" gradientTransform="matrix(1 0 0 1 -0.0303 918.5195)">
		<stop  offset="0" style="stop-color:#FFFFFF;stop-opacity:0"/>
		<stop  offset="1" style="stop-color:#FFFFFF"/>
	</linearGradient>
	<path fill="url(#SVGID_22_)" d="M25.645,659.576c0,2.648-0.982,4.111-2.709,4.111c-1.522,0-2.555-1.427-2.578-4.006
		c0-2.612,1.127-4.054,2.71-4.054C24.709,655.629,25.645,657.092,25.645,659.576z M21.411,659.695c0,2.025,0.623,3.179,1.583,3.179
		c1.079,0,1.595-1.26,1.595-3.25c0-1.919-0.491-3.179-1.583-3.179C22.082,656.445,21.411,657.573,21.411,659.695z"/>
	
		<linearGradient id="SVGID_23_" gradientUnits="userSpaceOnUse" x1="22.5024" y1="-518.228" x2="22.5023" y2="-171.4211" gradientTransform="matrix(1 0 0 1 -0.0303 918.5195)">
		<stop  offset="0" style="stop-color:#FFFFFF;stop-opacity:0"/>
		<stop  offset="1" style="stop-color:#FFFFFF"/>
	</linearGradient>
	<path fill="url(#SVGID_23_)" d="M22.754,668.745H22.73l-1.355,0.729l-0.204-0.803l1.702-0.912h0.9v7.796h-1.021L22.754,668.745
		L22.754,668.745z"/>
	
		<linearGradient id="SVGID_24_" gradientUnits="userSpaceOnUse" x1="23.0308" y1="-518.2285" x2="23.0307" y2="-171.4216" gradientTransform="matrix(1 0 0 1 -0.0303 918.5195)">
		<stop  offset="0" style="stop-color:#FFFFFF;stop-opacity:0"/>
		<stop  offset="1" style="stop-color:#FFFFFF"/>
	</linearGradient>
	<path fill="url(#SVGID_24_)" d="M25.645,683.576c0,2.648-0.982,4.111-2.709,4.111c-1.522,0-2.555-1.427-2.578-4.006
		c0-2.612,1.127-4.054,2.71-4.054C24.709,679.629,25.645,681.092,25.645,683.576z M21.411,683.695c0,2.025,0.623,3.179,1.583,3.179
		c1.079,0,1.595-1.26,1.595-3.25c0-1.919-0.491-3.179-1.583-3.179C22.082,680.445,21.411,681.573,21.411,683.695z"/>
	
		<linearGradient id="SVGID_25_" gradientUnits="userSpaceOnUse" x1="22.5024" y1="-518.228" x2="22.5023" y2="-171.4211" gradientTransform="matrix(1 0 0 1 -0.0303 918.5195)">
		<stop  offset="0" style="stop-color:#FFFFFF;stop-opacity:0"/>
		<stop  offset="1" style="stop-color:#FFFFFF"/>
	</linearGradient>
	<path fill="url(#SVGID_25_)" d="M22.754,692.745H22.73l-1.355,0.729l-0.204-0.803l1.702-0.912h0.9v7.796h-1.021L22.754,692.745
		L22.754,692.745z"/>
	
		<linearGradient id="SVGID_26_" gradientUnits="userSpaceOnUse" x1="23.0308" y1="-518.2285" x2="23.0307" y2="-171.4216" gradientTransform="matrix(1 0 0 1 -0.0303 918.5195)">
		<stop  offset="0" style="stop-color:#FFFFFF;stop-opacity:0"/>
		<stop  offset="1" style="stop-color:#FFFFFF"/>
	</linearGradient>
	<path fill="url(#SVGID_26_)" d="M25.645,707.576c0,2.648-0.982,4.111-2.709,4.111c-1.522,0-2.555-1.427-2.578-4.006
		c0-2.612,1.127-4.054,2.71-4.054C24.709,703.629,25.645,705.092,25.645,707.576z M21.411,707.695c0,2.025,0.623,3.179,1.583,3.179
		c1.079,0,1.595-1.26,1.595-3.25c0-1.919-0.491-3.179-1.583-3.179C22.082,704.445,21.411,705.573,21.411,707.695z"/>
	
		<linearGradient id="SVGID_27_" gradientUnits="userSpaceOnUse" x1="23.0308" y1="-518.2285" x2="23.0307" y2="-171.4216" gradientTransform="matrix(1 0 0 1 -0.0303 918.5195)">
		<stop  offset="0" style="stop-color:#FFFFFF;stop-opacity:0"/>
		<stop  offset="1" style="stop-color:#FFFFFF"/>
	</linearGradient>
	<path fill="url(#SVGID_27_)" d="M25.645,719.576c0,2.648-0.982,4.111-2.709,4.111c-1.522,0-2.555-1.427-2.578-4.006
		c0-2.612,1.127-4.054,2.71-4.054C24.709,715.629,25.645,717.092,25.645,719.576z M21.411,719.695c0,2.025,0.623,3.179,1.583,3.179
		c1.079,0,1.595-1.26,1.595-3.25c0-1.919-0.491-3.179-1.583-3.179C22.082,716.445,21.411,717.573,21.411,719.695z"/>
	
		<linearGradient id="SVGID_28_" gradientUnits="userSpaceOnUse" x1="22.5024" y1="-518.228" x2="22.5023" y2="-171.4211" gradientTransform="matrix(1 0 0 1 -0.0303 918.5195)">
		<stop  offset="0" style="stop-color:#FFFFFF;stop-opacity:0"/>
		<stop  offset="1" style="stop-color:#FFFFFF"/>
	</linearGradient>
	<path fill="url(#SVGID_28_)" d="M22.754,728.745H22.73l-1.355,0.729l-0.204-0.803l1.702-0.912h0.9v7.796h-1.021L22.754,728.745
		L22.754,728.745z"/>
	
		<linearGradient id="SVGID_29_" gradientUnits="userSpaceOnUse" x1="22.5024" y1="-518.228" x2="22.5023" y2="-171.4211" gradientTransform="matrix(1 0 0 1 -0.0303 918.5195)">
		<stop  offset="0" style="stop-color:#FFFFFF;stop-opacity:0"/>
		<stop  offset="1" style="stop-color:#FFFFFF"/>
	</linearGradient>
	<path fill="url(#SVGID_29_)" d="M22.754,740.745H22.73l-1.355,0.729l-0.204-0.803l1.702-0.912h0.9v7.796h-1.021L22.754,740.745
		L22.754,740.745z"/>
</g>
<g>
	
		<linearGradient id="SVGID_30_" gradientUnits="userSpaceOnUse" x1="23.0308" y1="-118.2432" x2="23.0307" y2="228.5217" gradientTransform="matrix(1 0 0 1 -0.0303 918.5195)">
		<stop  offset="0" style="stop-color:#FFFFFF;stop-opacity:0"/>
		<stop  offset="1" style="stop-color:#FFFFFF"/>
	</linearGradient>
	<path fill="url(#SVGID_30_)" d="M25.645,807.559c0,2.65-0.982,4.113-2.709,4.113c-1.522,0-2.555-1.428-2.578-4.006
		c0-2.613,1.127-4.053,2.71-4.053C24.709,803.613,25.645,805.076,25.645,807.559z M21.411,807.678c0,2.027,0.623,3.182,1.583,3.182
		c1.079,0,1.595-1.262,1.595-3.252c0-1.92-0.491-3.18-1.583-3.18C22.082,804.428,21.411,805.555,21.411,807.678z"/>
	
		<linearGradient id="SVGID_31_" gradientUnits="userSpaceOnUse" x1="22.5024" y1="-118.2451" x2="22.5023" y2="228.6053" gradientTransform="matrix(1 0 0 1 -0.0303 918.5195)">
		<stop  offset="0" style="stop-color:#FFFFFF;stop-opacity:0"/>
		<stop  offset="1" style="stop-color:#FFFFFF"/>
	</linearGradient>
	<path fill="url(#SVGID_31_)" d="M22.754,816.729H22.73l-1.355,0.73l-0.204-0.803l1.702-0.912h0.9v7.797h-1.021L22.754,816.729
		L22.754,816.729z"/>
	
		<linearGradient id="SVGID_32_" gradientUnits="userSpaceOnUse" x1="22.5024" y1="-118.2471" x2="22.5023" y2="228.6034" gradientTransform="matrix(1 0 0 1 -0.0303 918.5195)">
		<stop  offset="0" style="stop-color:#FFFFFF;stop-opacity:0"/>
		<stop  offset="1" style="stop-color:#FFFFFF"/>
	</linearGradient>
	<path fill="url(#SVGID_32_)" d="M22.754,828.729H22.73l-1.355,0.73l-0.204-0.803l1.702-0.912h0.9v7.797h-1.021L22.754,828.729
		L22.754,828.729z"/>
	
		<linearGradient id="SVGID_33_" gradientUnits="userSpaceOnUse" x1="23.0308" y1="-118.2393" x2="23.0307" y2="228.5257" gradientTransform="matrix(1 0 0 1 -0.0303 918.5195)">
		<stop  offset="0" style="stop-color:#FFFFFF;stop-opacity:0"/>
		<stop  offset="1" style="stop-color:#FFFFFF"/>
	</linearGradient>
	<path fill="url(#SVGID_33_)" d="M25.645,843.559c0,2.65-0.982,4.113-2.709,4.113c-1.522,0-2.555-1.428-2.578-4.006
		c0-2.613,1.127-4.053,2.71-4.053C24.709,839.613,25.645,841.076,25.645,843.559z M21.411,843.678c0,2.027,0.623,3.182,1.583,3.182
		c1.079,0,1.595-1.262,1.595-3.252c0-1.92-0.491-3.18-1.583-3.18C22.082,840.428,21.411,841.555,21.411,843.678z"/>
	
		<linearGradient id="SVGID_34_" gradientUnits="userSpaceOnUse" x1="23.0308" y1="-118.2373" x2="23.0307" y2="228.5276" gradientTransform="matrix(1 0 0 1 -0.0303 918.5195)">
		<stop  offset="0" style="stop-color:#FFFFFF;stop-opacity:0"/>
		<stop  offset="1" style="stop-color:#FFFFFF"/>
	</linearGradient>
	<path fill="url(#SVGID_34_)" d="M25.645,855.559c0,2.65-0.982,4.113-2.709,4.113c-1.522,0-2.555-1.428-2.578-4.006
		c0-2.613,1.127-4.053,2.71-4.053C24.709,851.613,25.645,853.076,25.645,855.559z M21.411,855.678c0,2.027,0.623,3.182,1.583,3.182
		c1.079,0,1.595-1.262,1.595-3.252c0-1.92-0.491-3.18-1.583-3.18C22.082,852.428,21.411,853.555,21.411,855.678z"/>
	
		<linearGradient id="SVGID_35_" gradientUnits="userSpaceOnUse" x1="23.0308" y1="-118.2363" x2="23.0307" y2="228.5285" gradientTransform="matrix(1 0 0 1 -0.0303 918.5195)">
		<stop  offset="0" style="stop-color:#FFFFFF;stop-opacity:0"/>
		<stop  offset="1" style="stop-color:#FFFFFF"/>
	</linearGradient>
	<path fill="url(#SVGID_35_)" d="M25.645,867.559c0,2.65-0.982,4.113-2.709,4.113c-1.522,0-2.555-1.428-2.578-4.006
		c0-2.613,1.127-4.053,2.71-4.053C24.709,863.613,25.645,865.076,25.645,867.559z M21.411,867.678c0,2.027,0.623,3.182,1.583,3.182
		c1.079,0,1.595-1.262,1.595-3.252c0-1.92-0.491-3.18-1.583-3.18C22.082,864.428,21.411,865.555,21.411,867.678z"/>
	
		<linearGradient id="SVGID_36_" gradientUnits="userSpaceOnUse" x1="22.5024" y1="-118.2529" x2="22.5023" y2="228.5975" gradientTransform="matrix(1 0 0 1 -0.0303 918.5195)">
		<stop  offset="0" style="stop-color:#FFFFFF;stop-opacity:0"/>
		<stop  offset="1" style="stop-color:#FFFFFF"/>
	</linearGradient>
	<path fill="url(#SVGID_36_)" d="M22.754,876.729H22.73l-1.355,0.73l-0.204-0.803l1.702-0.912h0.9v7.797h-1.021L22.754,876.729
		L22.754,876.729z"/>
	
		<linearGradient id="SVGID_37_" gradientUnits="userSpaceOnUse" x1="23.0308" y1="-118.2334" x2="23.0307" y2="228.5315" gradientTransform="matrix(1 0 0 1 -0.0303 918.5195)">
		<stop  offset="0" style="stop-color:#FFFFFF;stop-opacity:0"/>
		<stop  offset="1" style="stop-color:#FFFFFF"/>
	</linearGradient>
	<path fill="url(#SVGID_37_)" d="M25.645,891.559c0,2.65-0.982,4.113-2.709,4.113c-1.522,0-2.555-1.428-2.578-4.006
		c0-2.613,1.127-4.053,2.71-4.053C24.709,887.613,25.645,889.076,25.645,891.559z M21.411,891.678c0,2.027,0.623,3.18,1.583,3.18
		c1.079,0,1.595-1.26,1.595-3.25c0-1.92-0.491-3.18-1.583-3.18C22.082,888.428,21.411,889.555,21.411,891.678z"/>
	
		<linearGradient id="SVGID_38_" gradientUnits="userSpaceOnUse" x1="22.5024" y1="-118.2559" x2="22.5023" y2="228.5945" gradientTransform="matrix(1 0 0 1 -0.0303 918.5195)">
		<stop  offset="0" style="stop-color:#FFFFFF;stop-opacity:0"/>
		<stop  offset="1" style="stop-color:#FFFFFF"/>
	</linearGradient>
	<path fill="url(#SVGID_38_)" d="M22.754,900.729H22.73l-1.355,0.73l-0.204-0.803l1.702-0.912h0.9v7.797h-1.021L22.754,900.729
		L22.754,900.729z"/>
	
		<linearGradient id="SVGID_39_" gradientUnits="userSpaceOnUse" x1="22.5024" y1="-118.2578" x2="22.5023" y2="228.5926" gradientTransform="matrix(1 0 0 1 -0.0303 918.5195)">
		<stop  offset="0" style="stop-color:#FFFFFF;stop-opacity:0"/>
		<stop  offset="1" style="stop-color:#FFFFFF"/>
	</linearGradient>
	<path fill="url(#SVGID_39_)" d="M22.754,912.729H22.73l-1.355,0.73l-0.204-0.803l1.702-0.912h0.9v7.797h-1.021L22.754,912.729
		L22.754,912.729z"/>
	
		<linearGradient id="SVGID_40_" gradientUnits="userSpaceOnUse" x1="23.0308" y1="-118.2285" x2="23.0307" y2="228.5364" gradientTransform="matrix(1 0 0 1 -0.0303 918.5195)">
		<stop  offset="0" style="stop-color:#FFFFFF;stop-opacity:0"/>
		<stop  offset="1" style="stop-color:#FFFFFF"/>
	</linearGradient>
	<path fill="url(#SVGID_40_)" d="M25.645,927.559c0,2.65-0.982,4.113-2.709,4.113c-1.522,0-2.555-1.428-2.578-4.006
		c0-2.613,1.127-4.053,2.71-4.053C24.709,923.613,25.645,925.076,25.645,927.559z M21.411,927.678c0,2.027,0.623,3.18,1.583,3.18
		c1.079,0,1.595-1.26,1.595-3.25c0-1.92-0.491-3.18-1.583-3.18C22.082,924.428,21.411,925.555,21.411,927.678z"/>
	
		<linearGradient id="SVGID_41_" gradientUnits="userSpaceOnUse" x1="23.0308" y1="-118.2275" x2="23.0307" y2="228.5373" gradientTransform="matrix(1 0 0 1 -0.0303 918.5195)">
		<stop  offset="0" style="stop-color:#FFFFFF;stop-opacity:0"/>
		<stop  offset="1" style="stop-color:#FFFFFF"/>
	</linearGradient>
	<path fill="url(#SVGID_41_)" d="M25.645,939.559c0,2.65-0.982,4.113-2.709,4.113c-1.522,0-2.555-1.428-2.578-4.006
		c0-2.613,1.127-4.053,2.71-4.053C24.709,935.613,25.645,937.076,25.645,939.559z M21.411,939.678c0,2.027,0.623,3.18,1.583,3.18
		c1.079,0,1.595-1.26,1.595-3.25c0-1.92-0.491-3.18-1.583-3.18C22.082,936.428,21.411,937.555,21.411,939.678z"/>
	
		<linearGradient id="SVGID_42_" gradientUnits="userSpaceOnUse" x1="23.0308" y1="-118.2256" x2="23.0307" y2="228.5393" gradientTransform="matrix(1 0 0 1 -0.0303 918.5195)">
		<stop  offset="0" style="stop-color:#FFFFFF;stop-opacity:0"/>
		<stop  offset="1" style="stop-color:#FFFFFF"/>
	</linearGradient>
	<path fill="url(#SVGID_42_)" d="M25.645,951.559c0,2.65-0.982,4.113-2.709,4.113c-1.522,0-2.555-1.428-2.578-4.006
		c0-2.613,1.127-4.053,2.71-4.053C24.709,947.613,25.645,949.076,25.645,951.559z M21.411,951.678c0,2.027,0.623,3.18,1.583,3.18
		c1.079,0,1.595-1.26,1.595-3.25c0-1.92-0.491-3.18-1.583-3.18C22.082,948.428,21.411,949.555,21.411,951.678z"/>
	
		<linearGradient id="SVGID_43_" gradientUnits="userSpaceOnUse" x1="22.5024" y1="-118.2637" x2="22.5023" y2="228.5867" gradientTransform="matrix(1 0 0 1 -0.0303 918.5195)">
		<stop  offset="0" style="stop-color:#FFFFFF;stop-opacity:0"/>
		<stop  offset="1" style="stop-color:#FFFFFF"/>
	</linearGradient>
	<path fill="url(#SVGID_43_)" d="M22.754,960.729H22.73l-1.355,0.73l-0.204-0.803l1.702-0.912h0.9v7.797h-1.021L22.754,960.729
		L22.754,960.729z"/>
	
		<linearGradient id="SVGID_44_" gradientUnits="userSpaceOnUse" x1="23.0308" y1="-118.2661" x2="23.0307" y2="228.5827" gradientTransform="matrix(1 0 0 1 -0.0303 918.5195)">
		<stop  offset="0" style="stop-color:#FFFFFF;stop-opacity:0"/>
		<stop  offset="1" style="stop-color:#FFFFFF"/>
	</linearGradient>
	<path fill="url(#SVGID_44_)" d="M25.645,975.559c0,2.65-0.982,4.113-2.709,4.113c-1.522,0-2.555-1.428-2.578-4.006
		c0-2.615,1.127-4.055,2.71-4.055C24.709,971.611,25.645,973.076,25.645,975.559z M21.411,975.678c0,2.027,0.623,3.18,1.583,3.18
		c1.079,0,1.595-1.262,1.595-3.25c0-1.92-0.491-3.18-1.583-3.18C22.082,972.428,21.411,973.555,21.411,975.678z"/>
	
		<linearGradient id="SVGID_45_" gradientUnits="userSpaceOnUse" x1="23.0308" y1="-118.2671" x2="23.0307" y2="228.5818" gradientTransform="matrix(1 0 0 1 -0.0303 918.5195)">
		<stop  offset="0" style="stop-color:#FFFFFF;stop-opacity:0"/>
		<stop  offset="1" style="stop-color:#FFFFFF"/>
	</linearGradient>
	<path fill="url(#SVGID_45_)" d="M25.645,987.559c0,2.65-0.982,4.113-2.709,4.113c-1.522,0-2.555-1.428-2.578-4.006
		c0-2.615,1.127-4.055,2.71-4.055C24.709,983.611,25.645,985.074,25.645,987.559z M21.411,987.678c0,2.027,0.623,3.18,1.583,3.18
		c1.079,0,1.595-1.262,1.595-3.25c0-1.92-0.491-3.18-1.583-3.18C22.082,984.428,21.411,985.555,21.411,987.678z"/>
	
		<linearGradient id="SVGID_46_" gradientUnits="userSpaceOnUse" x1="22.5024" y1="-118.2188" x2="22.5023" y2="228.5446" gradientTransform="matrix(1 0 0 1 -0.0303 918.5195)">
		<stop  offset="0" style="stop-color:#FFFFFF;stop-opacity:0"/>
		<stop  offset="1" style="stop-color:#FFFFFF"/>
	</linearGradient>
	<path fill="url(#SVGID_46_)" d="M22.754,996.727H22.73l-1.355,0.732l-0.204-0.803l1.702-0.912h0.9v7.795h-1.021L22.754,996.727
		L22.754,996.727z"/>
	
		<linearGradient id="SVGID_47_" gradientUnits="userSpaceOnUse" x1="22.5024" y1="-118.2173" x2="22.5023" y2="228.5461" gradientTransform="matrix(1 0 0 1 -0.0303 918.5195)">
		<stop  offset="0" style="stop-color:#FFFFFF;stop-opacity:0"/>
		<stop  offset="1" style="stop-color:#FFFFFF"/>
	</linearGradient>
	<path fill="url(#SVGID_47_)" d="M22.754,1008.727H22.73l-1.355,0.732l-0.204-0.803l1.702-0.912h0.9v7.795h-1.021L22.754,1008.727
		L22.754,1008.727z"/>
	
		<linearGradient id="SVGID_48_" gradientUnits="userSpaceOnUse" x1="22.5024" y1="-118.2158" x2="22.5023" y2="228.5475" gradientTransform="matrix(1 0 0 1 -0.0303 918.5195)">
		<stop  offset="0" style="stop-color:#FFFFFF;stop-opacity:0"/>
		<stop  offset="1" style="stop-color:#FFFFFF"/>
	</linearGradient>
	<path fill="url(#SVGID_48_)" d="M22.754,1020.727H22.73l-1.355,0.732l-0.204-0.803l1.702-0.912h0.9v7.795h-1.021L22.754,1020.727
		L22.754,1020.727z"/>
	
		<linearGradient id="SVGID_49_" gradientUnits="userSpaceOnUse" x1="23.0308" y1="-118.2729" x2="23.0307" y2="228.5759" gradientTransform="matrix(1 0 0 1 -0.0303 918.5195)">
		<stop  offset="0" style="stop-color:#FFFFFF;stop-opacity:0"/>
		<stop  offset="1" style="stop-color:#FFFFFF"/>
	</linearGradient>
	<path fill="url(#SVGID_49_)" d="M25.645,1035.559c0,2.65-0.982,4.113-2.709,4.113c-1.522,0-2.555-1.428-2.578-4.006
		c0-2.615,1.127-4.055,2.71-4.055C24.709,1031.611,25.645,1033.074,25.645,1035.559z M21.411,1035.678
		c0,2.027,0.623,3.18,1.583,3.18c1.079,0,1.595-1.262,1.595-3.25c0-1.92-0.491-3.18-1.583-3.18
		C22.082,1032.428,21.411,1033.555,21.411,1035.678z"/>
	
		<linearGradient id="SVGID_50_" gradientUnits="userSpaceOnUse" x1="22.5024" y1="-118.1973" x2="22.5023" y2="228.5445" gradientTransform="matrix(1 0 0 1 -0.0303 918.5195)">
		<stop  offset="0" style="stop-color:#FFFFFF;stop-opacity:0"/>
		<stop  offset="1" style="stop-color:#FFFFFF"/>
	</linearGradient>
	<path fill="url(#SVGID_50_)" d="M22.754,1044.727H22.73l-1.355,0.732l-0.204-0.803l1.702-0.912h0.9v7.795h-1.021L22.754,1044.727
		L22.754,1044.727z"/>
	
		<linearGradient id="SVGID_51_" gradientUnits="userSpaceOnUse" x1="23.0308" y1="-118.2759" x2="23.0307" y2="228.573" gradientTransform="matrix(1 0 0 1 -0.0303 918.5195)">
		<stop  offset="0" style="stop-color:#FFFFFF;stop-opacity:0"/>
		<stop  offset="1" style="stop-color:#FFFFFF"/>
	</linearGradient>
	<path fill="url(#SVGID_51_)" d="M25.645,1059.559c0,2.65-0.982,4.113-2.709,4.113c-1.522,0-2.555-1.428-2.578-4.006
		c0-2.615,1.127-4.055,2.71-4.055C24.709,1055.611,25.645,1057.074,25.645,1059.559z M21.411,1059.678
		c0,2.027,0.623,3.18,1.583,3.18c1.079,0,1.595-1.262,1.595-3.25c0-1.92-0.491-3.18-1.583-3.18
		C22.082,1056.428,21.411,1057.555,21.411,1059.678z"/>
	
		<linearGradient id="SVGID_52_" gradientUnits="userSpaceOnUse" x1="22.5024" y1="-118.2095" x2="22.5023" y2="228.5539" gradientTransform="matrix(1 0 0 1 -0.0303 918.5195)">
		<stop  offset="0" style="stop-color:#FFFFFF;stop-opacity:0"/>
		<stop  offset="1" style="stop-color:#FFFFFF"/>
	</linearGradient>
	<path fill="url(#SVGID_52_)" d="M22.754,1068.727H22.73l-1.355,0.732l-0.204-0.803l1.702-0.912h0.9v7.795h-1.021L22.754,1068.727
		L22.754,1068.727z"/>
	
		<linearGradient id="SVGID_53_" gradientUnits="userSpaceOnUse" x1="23.0308" y1="-118.2788" x2="23.0307" y2="228.57" gradientTransform="matrix(1 0 0 1 -0.0303 918.5195)">
		<stop  offset="0" style="stop-color:#FFFFFF;stop-opacity:0"/>
		<stop  offset="1" style="stop-color:#FFFFFF"/>
	</linearGradient>
	<path fill="url(#SVGID_53_)" d="M25.645,1083.559c0,2.65-0.982,4.113-2.709,4.113c-1.522,0-2.555-1.428-2.578-4.006
		c0-2.615,1.127-4.055,2.71-4.055C24.709,1079.611,25.645,1081.074,25.645,1083.559z M21.411,1083.678
		c0,2.027,0.623,3.18,1.583,3.18c1.079,0,1.595-1.262,1.595-3.25c0-1.92-0.491-3.18-1.583-3.18
		C22.082,1080.428,21.411,1081.555,21.411,1083.678z"/>
	
		<linearGradient id="SVGID_54_" gradientUnits="userSpaceOnUse" x1="22.5029" y1="-118.2065" x2="22.5028" y2="228.5568" gradientTransform="matrix(1 0 0 1 -0.0303 918.5195)">
		<stop  offset="0" style="stop-color:#FFFFFF;stop-opacity:0"/>
		<stop  offset="1" style="stop-color:#FFFFFF"/>
	</linearGradient>
	<path fill="url(#SVGID_54_)" d="M22.754,1092.727H22.73l-1.355,0.732l-0.204-0.803l1.702-0.912h0.9v7.795h-1.021L22.754,1092.727
		L22.754,1092.727z"/>
	
		<linearGradient id="SVGID_55_" gradientUnits="userSpaceOnUse" x1="23.0308" y1="-118.2817" x2="23.0307" y2="228.5671" gradientTransform="matrix(1 0 0 1 -0.0303 918.5195)">
		<stop  offset="0" style="stop-color:#FFFFFF;stop-opacity:0"/>
		<stop  offset="1" style="stop-color:#FFFFFF"/>
	</linearGradient>
	<path fill="url(#SVGID_55_)" d="M25.645,1107.559c0,2.65-0.982,4.113-2.709,4.113c-1.522,0-2.555-1.428-2.578-4.006
		c0-2.615,1.127-4.055,2.71-4.055C24.709,1103.611,25.645,1105.074,25.645,1107.559z M21.411,1107.678
		c0,2.027,0.623,3.18,1.583,3.18c1.079,0,1.595-1.262,1.595-3.25c0-1.92-0.491-3.18-1.583-3.18
		C22.082,1104.428,21.411,1105.555,21.411,1107.678z"/>
	
		<linearGradient id="SVGID_56_" gradientUnits="userSpaceOnUse" x1="22.5029" y1="-118.2036" x2="22.5028" y2="228.5598" gradientTransform="matrix(1 0 0 1 -0.0303 918.5195)">
		<stop  offset="0" style="stop-color:#FFFFFF;stop-opacity:0"/>
		<stop  offset="1" style="stop-color:#FFFFFF"/>
	</linearGradient>
	<path fill="url(#SVGID_56_)" d="M22.754,1116.727H22.73l-1.355,0.732l-0.204-0.803l1.702-0.912h0.9v7.795h-1.021L22.754,1116.727
		L22.754,1116.727z"/>
	
		<linearGradient id="SVGID_57_" gradientUnits="userSpaceOnUse" x1="22.5029" y1="-118.2021" x2="22.5028" y2="228.5612" gradientTransform="matrix(1 0 0 1 -0.0303 918.5195)">
		<stop  offset="0" style="stop-color:#FFFFFF;stop-opacity:0"/>
		<stop  offset="1" style="stop-color:#FFFFFF"/>
	</linearGradient>
	<path fill="url(#SVGID_57_)" d="M22.754,1128.727H22.73l-1.355,0.732l-0.204-0.803l1.702-0.912h0.9v7.795h-1.021L22.754,1128.727
		L22.754,1128.727z"/>
	
		<linearGradient id="SVGID_58_" gradientUnits="userSpaceOnUse" x1="23.0308" y1="-118.2861" x2="23.0307" y2="228.5627" gradientTransform="matrix(1 0 0 1 -0.0303 918.5195)">
		<stop  offset="0" style="stop-color:#FFFFFF;stop-opacity:0"/>
		<stop  offset="1" style="stop-color:#FFFFFF"/>
	</linearGradient>
	<path fill="url(#SVGID_58_)" d="M25.645,1143.559c0,2.65-0.982,4.113-2.709,4.113c-1.522,0-2.555-1.428-2.578-4.006
		c0-2.615,1.127-4.055,2.71-4.055C24.709,1139.611,25.645,1141.074,25.645,1143.559z M21.411,1143.678
		c0,2.027,0.623,3.18,1.583,3.18c1.079,0,1.595-1.262,1.595-3.25c0-1.92-0.491-3.18-1.583-3.18
		C22.082,1140.428,21.411,1141.555,21.411,1143.678z"/>
</g>
<g>
	
		<linearGradient id="SVGID_59_" gradientUnits="userSpaceOnUse" x1="22.5024" y1="-918.3423" x2="22.5023" y2="-571.4919" gradientTransform="matrix(1 0 0 1 -0.0303 918.5195)">
		<stop  offset="0" style="stop-color:#FFFFFF;stop-opacity:0"/>
		<stop  offset="1" style="stop-color:#FFFFFF"/>
	</linearGradient>
	<path fill="url(#SVGID_59_)" d="M22.754,4.631H22.73l-1.355,0.731l-0.204-0.804l1.702-0.912h0.9v7.796h-1.021L22.754,4.631
		L22.754,4.631z"/>
	
		<linearGradient id="SVGID_60_" gradientUnits="userSpaceOnUse" x1="23.0308" y1="-918.3413" x2="23.0307" y2="-571.5344" gradientTransform="matrix(1 0 0 1 -0.0303 918.5195)">
		<stop  offset="0" style="stop-color:#FFFFFF;stop-opacity:0"/>
		<stop  offset="1" style="stop-color:#FFFFFF"/>
	</linearGradient>
	<path fill="url(#SVGID_60_)" d="M25.645,19.461c0,2.651-0.982,4.114-2.709,4.114c-1.522,0-2.555-1.427-2.578-4.006
		c0-2.614,1.127-4.054,2.71-4.054C24.709,15.516,25.645,16.979,25.645,19.461z M21.411,19.582c0,2.027,0.623,3.178,1.583,3.178
		c1.079,0,1.595-1.259,1.595-3.25c0-1.919-0.491-3.178-1.583-3.178C22.082,16.332,21.411,17.458,21.411,19.582z"/>
	
		<linearGradient id="SVGID_61_" gradientUnits="userSpaceOnUse" x1="22.5024" y1="-918.3462" x2="22.5023" y2="-571.4958" gradientTransform="matrix(1 0 0 1 -0.0303 918.5195)">
		<stop  offset="0" style="stop-color:#FFFFFF;stop-opacity:0"/>
		<stop  offset="1" style="stop-color:#FFFFFF"/>
	</linearGradient>
	<path fill="url(#SVGID_61_)" d="M22.754,28.631H22.73l-1.355,0.731l-0.204-0.804l1.702-0.912h0.9v7.796h-1.021L22.754,28.631
		L22.754,28.631z"/>
	
		<linearGradient id="SVGID_62_" gradientUnits="userSpaceOnUse" x1="22.5024" y1="-918.3472" x2="22.5023" y2="-571.4968" gradientTransform="matrix(1 0 0 1 -0.0303 918.5195)">
		<stop  offset="0" style="stop-color:#FFFFFF;stop-opacity:0"/>
		<stop  offset="1" style="stop-color:#FFFFFF"/>
	</linearGradient>
	<path fill="url(#SVGID_62_)" d="M22.754,40.631H22.73l-1.355,0.731l-0.204-0.804l1.702-0.912h0.9v7.796h-1.021L22.754,40.631
		L22.754,40.631z"/>
	
		<linearGradient id="SVGID_63_" gradientUnits="userSpaceOnUse" x1="22.5024" y1="-918.3491" x2="22.5023" y2="-571.4988" gradientTransform="matrix(1 0 0 1 -0.0303 918.5195)">
		<stop  offset="0" style="stop-color:#FFFFFF;stop-opacity:0"/>
		<stop  offset="1" style="stop-color:#FFFFFF"/>
	</linearGradient>
	<path fill="url(#SVGID_63_)" d="M22.754,52.631H22.73l-1.355,0.731l-0.204-0.804l1.702-0.912h0.9v7.796h-1.021L22.754,52.631
		L22.754,52.631z"/>
	
		<linearGradient id="SVGID_64_" gradientUnits="userSpaceOnUse" x1="23.0308" y1="-918.3413" x2="23.0307" y2="-571.5344" gradientTransform="matrix(1 0 0 1 -0.0303 918.5195)">
		<stop  offset="0" style="stop-color:#FFFFFF;stop-opacity:0"/>
		<stop  offset="1" style="stop-color:#FFFFFF"/>
	</linearGradient>
	<path fill="url(#SVGID_64_)" d="M25.645,67.461c0,2.651-0.982,4.114-2.709,4.114c-1.522,0-2.555-1.427-2.578-4.006
		c0-2.614,1.127-4.054,2.71-4.054C24.709,63.516,25.645,64.979,25.645,67.461z M21.411,67.582c0,2.027,0.623,3.178,1.583,3.178
		c1.079,0,1.595-1.259,1.595-3.25c0-1.919-0.491-3.178-1.583-3.178C22.082,64.332,21.411,65.458,21.411,67.582z"/>
	
		<linearGradient id="SVGID_65_" gradientUnits="userSpaceOnUse" x1="22.5024" y1="-918.3521" x2="22.5023" y2="-571.5017" gradientTransform="matrix(1 0 0 1 -0.0303 918.5195)">
		<stop  offset="0" style="stop-color:#FFFFFF;stop-opacity:0"/>
		<stop  offset="1" style="stop-color:#FFFFFF"/>
	</linearGradient>
	<path fill="url(#SVGID_65_)" d="M22.754,76.631H22.73l-1.355,0.731l-0.204-0.804l1.702-0.912h0.9v7.796h-1.021L22.754,76.631
		L22.754,76.631z"/>
	
		<linearGradient id="SVGID_66_" gradientUnits="userSpaceOnUse" x1="23.0308" y1="-918.3413" x2="23.0307" y2="-571.5344" gradientTransform="matrix(1 0 0 1 -0.0303 918.5195)">
		<stop  offset="0" style="stop-color:#FFFFFF;stop-opacity:0"/>
		<stop  offset="1" style="stop-color:#FFFFFF"/>
	</linearGradient>
	<path fill="url(#SVGID_66_)" d="M25.645,91.461c0,2.651-0.982,4.114-2.709,4.114c-1.522,0-2.555-1.427-2.578-4.006
		c0-2.614,1.127-4.054,2.71-4.054C24.709,87.516,25.645,88.979,25.645,91.461z M21.411,91.582c0,2.027,0.623,3.178,1.583,3.178
		c1.079,0,1.595-1.259,1.595-3.25c0-1.919-0.491-3.178-1.583-3.178C22.082,88.332,21.411,89.458,21.411,91.582z"/>
	
		<linearGradient id="SVGID_67_" gradientUnits="userSpaceOnUse" x1="22.5024" y1="-918.355" x2="22.5023" y2="-571.5046" gradientTransform="matrix(1 0 0 1 -0.0303 918.5195)">
		<stop  offset="0" style="stop-color:#FFFFFF;stop-opacity:0"/>
		<stop  offset="1" style="stop-color:#FFFFFF"/>
	</linearGradient>
	<path fill="url(#SVGID_67_)" d="M22.754,100.631H22.73l-1.355,0.731l-0.204-0.804l1.702-0.912h0.9v7.796h-1.021L22.754,100.631
		L22.754,100.631z"/>
	
		<linearGradient id="SVGID_68_" gradientUnits="userSpaceOnUse" x1="22.5024" y1="-918.356" x2="22.5023" y2="-571.5056" gradientTransform="matrix(1 0 0 1 -0.0303 918.5195)">
		<stop  offset="0" style="stop-color:#FFFFFF;stop-opacity:0"/>
		<stop  offset="1" style="stop-color:#FFFFFF"/>
	</linearGradient>
	<path fill="url(#SVGID_68_)" d="M22.754,112.631H22.73l-1.355,0.731l-0.204-0.804l1.702-0.912h0.9v7.796h-1.021L22.754,112.631
		L22.754,112.631z"/>
	
		<linearGradient id="SVGID_69_" gradientUnits="userSpaceOnUse" x1="23.0308" y1="-918.3413" x2="23.0307" y2="-571.5344" gradientTransform="matrix(1 0 0 1 -0.0303 918.5195)">
		<stop  offset="0" style="stop-color:#FFFFFF;stop-opacity:0"/>
		<stop  offset="1" style="stop-color:#FFFFFF"/>
	</linearGradient>
	<path fill="url(#SVGID_69_)" d="M25.645,127.461c0,2.651-0.982,4.114-2.709,4.114c-1.522,0-2.555-1.427-2.578-4.006
		c0-2.614,1.127-4.054,2.71-4.054C24.709,123.516,25.645,124.979,25.645,127.461z M21.411,127.582c0,2.027,0.623,3.178,1.583,3.178
		c1.079,0,1.595-1.259,1.595-3.25c0-1.919-0.491-3.178-1.583-3.178C22.082,124.332,21.411,125.458,21.411,127.582z"/>
	
		<linearGradient id="SVGID_70_" gradientUnits="userSpaceOnUse" x1="23.0308" y1="-918.3413" x2="23.0307" y2="-571.5344" gradientTransform="matrix(1 0 0 1 -0.0303 918.5195)">
		<stop  offset="0" style="stop-color:#FFFFFF;stop-opacity:0"/>
		<stop  offset="1" style="stop-color:#FFFFFF"/>
	</linearGradient>
	<path fill="url(#SVGID_70_)" d="M25.645,139.461c0,2.651-0.982,4.114-2.709,4.114c-1.522,0-2.555-1.427-2.578-4.006
		c0-2.614,1.127-4.054,2.71-4.054C24.709,135.516,25.645,136.979,25.645,139.461z M21.411,139.582c0,2.027,0.623,3.178,1.583,3.178
		c1.079,0,1.595-1.259,1.595-3.25c0-1.919-0.491-3.178-1.583-3.178C22.082,136.332,21.411,137.458,21.411,139.582z"/>
	
		<linearGradient id="SVGID_71_" gradientUnits="userSpaceOnUse" x1="23.0308" y1="-918.3325" x2="23.0307" y2="-571.5466" gradientTransform="matrix(1 0 0 1 -0.0303 918.5195)">
		<stop  offset="0" style="stop-color:#FFFFFF;stop-opacity:0"/>
		<stop  offset="1" style="stop-color:#FFFFFF"/>
	</linearGradient>
	<path fill="url(#SVGID_71_)" d="M25.645,151.461c0,2.651-0.982,4.114-2.709,4.114c-1.522,0-2.555-1.427-2.578-4.006
		c0-2.614,1.127-4.054,2.71-4.054C24.709,147.516,25.645,148.979,25.645,151.461z M21.411,151.582c0,2.027,0.623,3.178,1.583,3.178
		c1.079,0,1.595-1.259,1.595-3.25c0-1.919-0.491-3.178-1.583-3.178C22.082,148.332,21.411,149.458,21.411,151.582z"/>
	
		<linearGradient id="SVGID_72_" gradientUnits="userSpaceOnUse" x1="22.5024" y1="-918.3423" x2="22.5023" y2="-571.5354" gradientTransform="matrix(1 0 0 1 -0.0303 918.5195)">
		<stop  offset="0" style="stop-color:#FFFFFF;stop-opacity:0"/>
		<stop  offset="1" style="stop-color:#FFFFFF"/>
	</linearGradient>
	<path fill="url(#SVGID_72_)" d="M22.754,160.631H22.73l-1.355,0.731l-0.204-0.806l1.702-0.912h0.9v7.798h-1.021L22.754,160.631
		L22.754,160.631z"/>
	
		<linearGradient id="SVGID_73_" gradientUnits="userSpaceOnUse" x1="23.0308" y1="-918.3428" x2="23.0307" y2="-571.5359" gradientTransform="matrix(1 0 0 1 -0.0303 918.5195)">
		<stop  offset="0" style="stop-color:#FFFFFF;stop-opacity:0"/>
		<stop  offset="1" style="stop-color:#FFFFFF"/>
	</linearGradient>
	<path fill="url(#SVGID_73_)" d="M25.645,175.46c0,2.651-0.982,4.114-2.709,4.114c-1.522,0-2.555-1.427-2.578-4.006
		c0-2.614,1.127-4.056,2.71-4.056C24.709,171.515,25.645,172.978,25.645,175.46z M21.411,175.582c0,2.027,0.623,3.178,1.583,3.178
		c1.079,0,1.595-1.26,1.595-3.25c0-1.919-0.491-3.179-1.583-3.179C22.082,172.331,21.411,173.458,21.411,175.582z"/>
	
		<linearGradient id="SVGID_74_" gradientUnits="userSpaceOnUse" x1="22.5024" y1="-918.3423" x2="22.5023" y2="-571.5354" gradientTransform="matrix(1 0 0 1 -0.0303 918.5195)">
		<stop  offset="0" style="stop-color:#FFFFFF;stop-opacity:0"/>
		<stop  offset="1" style="stop-color:#FFFFFF"/>
	</linearGradient>
	<path fill="url(#SVGID_74_)" d="M22.754,184.63H22.73l-1.355,0.731l-0.204-0.805l1.702-0.912h0.9v7.798h-1.021L22.754,184.63
		L22.754,184.63z"/>
	
		<linearGradient id="SVGID_75_" gradientUnits="userSpaceOnUse" x1="22.5024" y1="-918.3423" x2="22.5023" y2="-571.5354" gradientTransform="matrix(1 0 0 1 -0.0303 918.5195)">
		<stop  offset="0" style="stop-color:#FFFFFF;stop-opacity:0"/>
		<stop  offset="1" style="stop-color:#FFFFFF"/>
	</linearGradient>
	<path fill="url(#SVGID_75_)" d="M22.754,196.63H22.73l-1.355,0.731l-0.204-0.805l1.702-0.912h0.9v7.798h-1.021L22.754,196.63
		L22.754,196.63z"/>
	
		<linearGradient id="SVGID_76_" gradientUnits="userSpaceOnUse" x1="23.0308" y1="-918.3428" x2="23.0307" y2="-571.5359" gradientTransform="matrix(1 0 0 1 -0.0303 918.5195)">
		<stop  offset="0" style="stop-color:#FFFFFF;stop-opacity:0"/>
		<stop  offset="1" style="stop-color:#FFFFFF"/>
	</linearGradient>
	<path fill="url(#SVGID_76_)" d="M25.645,211.461c0,2.65-0.982,4.113-2.709,4.113c-1.522,0-2.555-1.427-2.578-4.006
		c0-2.614,1.127-4.056,2.71-4.056C24.709,207.515,25.645,208.978,25.645,211.461z M21.411,211.581c0,2.027,0.623,3.179,1.583,3.179
		c1.079,0,1.595-1.26,1.595-3.25c0-1.919-0.491-3.179-1.583-3.179C22.082,208.331,21.411,209.458,21.411,211.581z"/>
	
		<linearGradient id="SVGID_77_" gradientUnits="userSpaceOnUse" x1="23.0308" y1="-918.3428" x2="23.0307" y2="-571.5359" gradientTransform="matrix(1 0 0 1 -0.0303 918.5195)">
		<stop  offset="0" style="stop-color:#FFFFFF;stop-opacity:0"/>
		<stop  offset="1" style="stop-color:#FFFFFF"/>
	</linearGradient>
	<path fill="url(#SVGID_77_)" d="M25.645,223.461c0,2.65-0.982,4.113-2.709,4.113c-1.522,0-2.555-1.427-2.578-4.006
		c0-2.614,1.127-4.056,2.71-4.056C24.709,219.515,25.645,220.978,25.645,223.461z M21.411,223.581c0,2.027,0.623,3.179,1.583,3.179
		c1.079,0,1.595-1.26,1.595-3.25c0-1.919-0.491-3.179-1.583-3.179C22.082,220.331,21.411,221.458,21.411,223.581z"/>
	
		<linearGradient id="SVGID_78_" gradientUnits="userSpaceOnUse" x1="22.5024" y1="-918.3423" x2="22.5023" y2="-571.5354" gradientTransform="matrix(1 0 0 1 -0.0303 918.5195)">
		<stop  offset="0" style="stop-color:#FFFFFF;stop-opacity:0"/>
		<stop  offset="1" style="stop-color:#FFFFFF"/>
	</linearGradient>
	<path fill="url(#SVGID_78_)" d="M22.754,232.63H22.73l-1.355,0.731l-0.204-0.805l1.702-0.912h0.9v7.798h-1.021L22.754,232.63
		L22.754,232.63z"/>
	
		<linearGradient id="SVGID_79_" gradientUnits="userSpaceOnUse" x1="22.5024" y1="-918.3276" x2="22.5023" y2="-571.5424" gradientTransform="matrix(1 0 0 1 -0.0303 918.5195)">
		<stop  offset="0" style="stop-color:#FFFFFF;stop-opacity:0"/>
		<stop  offset="1" style="stop-color:#FFFFFF"/>
	</linearGradient>
	<path fill="url(#SVGID_79_)" d="M22.754,244.63H22.73l-1.355,0.731l-0.204-0.805l1.702-0.912h0.9v7.798h-1.021L22.754,244.63
		L22.754,244.63z"/>
	
		<linearGradient id="SVGID_80_" gradientUnits="userSpaceOnUse" x1="23.0308" y1="-918.3428" x2="23.0307" y2="-571.5359" gradientTransform="matrix(1 0 0 1 -0.0303 918.5195)">
		<stop  offset="0" style="stop-color:#FFFFFF;stop-opacity:0"/>
		<stop  offset="1" style="stop-color:#FFFFFF"/>
	</linearGradient>
	<path fill="url(#SVGID_80_)" d="M25.645,259.461c0,2.65-0.982,4.113-2.709,4.113c-1.522,0-2.555-1.427-2.578-4.006
		c0-2.614,1.127-4.056,2.71-4.056C24.709,255.515,25.645,256.978,25.645,259.461z M21.411,259.581c0,2.027,0.623,3.179,1.583,3.179
		c1.079,0,1.595-1.26,1.595-3.25c0-1.919-0.491-3.179-1.583-3.179C22.082,256.331,21.411,257.458,21.411,259.581z"/>
	
		<linearGradient id="SVGID_81_" gradientUnits="userSpaceOnUse" x1="22.5024" y1="-918.3423" x2="22.5023" y2="-571.5354" gradientTransform="matrix(1 0 0 1 -0.0303 918.5195)">
		<stop  offset="0" style="stop-color:#FFFFFF;stop-opacity:0"/>
		<stop  offset="1" style="stop-color:#FFFFFF"/>
	</linearGradient>
	<path fill="url(#SVGID_81_)" d="M22.754,268.63H22.73l-1.355,0.731l-0.204-0.805l1.702-0.912h0.9v7.798h-1.021L22.754,268.63
		L22.754,268.63z"/>
	
		<linearGradient id="SVGID_82_" gradientUnits="userSpaceOnUse" x1="23.0308" y1="-918.3428" x2="23.0307" y2="-571.5359" gradientTransform="matrix(1 0 0 1 -0.0303 918.5195)">
		<stop  offset="0" style="stop-color:#FFFFFF;stop-opacity:0"/>
		<stop  offset="1" style="stop-color:#FFFFFF"/>
	</linearGradient>
	<path fill="url(#SVGID_82_)" d="M25.645,283.461c0,2.65-0.982,4.113-2.709,4.113c-1.522,0-2.555-1.427-2.578-4.006
		c0-2.614,1.127-4.056,2.71-4.056C24.709,279.515,25.645,280.978,25.645,283.461z M21.411,283.581c0,2.027,0.623,3.179,1.583,3.179
		c1.079,0,1.595-1.26,1.595-3.25c0-1.919-0.491-3.179-1.583-3.179C22.082,280.331,21.411,281.458,21.411,283.581z"/>
	
		<linearGradient id="SVGID_83_" gradientUnits="userSpaceOnUse" x1="22.5024" y1="-918.3423" x2="22.5023" y2="-571.5354" gradientTransform="matrix(1 0 0 1 -0.0303 918.5195)">
		<stop  offset="0" style="stop-color:#FFFFFF;stop-opacity:0"/>
		<stop  offset="1" style="stop-color:#FFFFFF"/>
	</linearGradient>
	<path fill="url(#SVGID_83_)" d="M22.754,292.63H22.73l-1.355,0.731l-0.204-0.805l1.702-0.912h0.9v7.798h-1.021L22.754,292.63
		L22.754,292.63z"/>
	
		<linearGradient id="SVGID_84_" gradientUnits="userSpaceOnUse" x1="23.0308" y1="-918.3428" x2="23.0307" y2="-571.5359" gradientTransform="matrix(1 0 0 1 -0.0303 918.5195)">
		<stop  offset="0" style="stop-color:#FFFFFF;stop-opacity:0"/>
		<stop  offset="1" style="stop-color:#FFFFFF"/>
	</linearGradient>
	<path fill="url(#SVGID_84_)" d="M25.645,307.461c0,2.65-0.982,4.113-2.709,4.113c-1.522,0-2.555-1.427-2.578-4.006
		c0-2.614,1.127-4.056,2.71-4.056C24.709,303.515,25.645,304.978,25.645,307.461z M21.411,307.581c0,2.027,0.623,3.179,1.583,3.179
		c1.079,0,1.595-1.26,1.595-3.25c0-1.919-0.491-3.179-1.583-3.179C22.082,304.331,21.411,305.458,21.411,307.581z"/>
	
		<linearGradient id="SVGID_85_" gradientUnits="userSpaceOnUse" x1="23.0308" y1="-918.3428" x2="23.0307" y2="-571.5359" gradientTransform="matrix(1 0 0 1 -0.0303 918.5195)">
		<stop  offset="0" style="stop-color:#FFFFFF;stop-opacity:0"/>
		<stop  offset="1" style="stop-color:#FFFFFF"/>
	</linearGradient>
	<path fill="url(#SVGID_85_)" d="M25.645,319.461c0,2.65-0.982,4.113-2.709,4.113c-1.522,0-2.555-1.427-2.578-4.006
		c0-2.614,1.127-4.056,2.71-4.056C24.709,315.515,25.645,316.978,25.645,319.461z M21.411,319.581c0,2.027,0.623,3.179,1.583,3.179
		c1.079,0,1.595-1.26,1.595-3.25c0-1.919-0.491-3.179-1.583-3.179C22.082,316.331,21.411,317.458,21.411,319.581z"/>
	
		<linearGradient id="SVGID_86_" gradientUnits="userSpaceOnUse" x1="23.0308" y1="-918.3428" x2="23.0307" y2="-571.5359" gradientTransform="matrix(1 0 0 1 -0.0303 918.5195)">
		<stop  offset="0" style="stop-color:#FFFFFF;stop-opacity:0"/>
		<stop  offset="1" style="stop-color:#FFFFFF"/>
	</linearGradient>
	<path fill="url(#SVGID_86_)" d="M25.645,331.461c0,2.65-0.982,4.113-2.709,4.113c-1.522,0-2.555-1.427-2.578-4.006
		c0-2.614,1.127-4.056,2.71-4.056C24.709,327.515,25.645,328.978,25.645,331.461z M21.411,331.581c0,2.027,0.623,3.179,1.583,3.179
		c1.079,0,1.595-1.26,1.595-3.25c0-1.919-0.491-3.179-1.583-3.179C22.082,328.331,21.411,329.458,21.411,331.581z"/>
	
		<linearGradient id="SVGID_87_" gradientUnits="userSpaceOnUse" x1="22.5024" y1="-918.3423" x2="22.5023" y2="-571.5354" gradientTransform="matrix(1 0 0 1 -0.0303 918.5195)">
		<stop  offset="0" style="stop-color:#FFFFFF;stop-opacity:0"/>
		<stop  offset="1" style="stop-color:#FFFFFF"/>
	</linearGradient>
	<path fill="url(#SVGID_87_)" d="M22.754,340.63H22.73l-1.355,0.731l-0.204-0.805l1.702-0.912h0.9v7.798h-1.021L22.754,340.63
		L22.754,340.63z"/>
</g>
</svg>
