<?xml version="1.0" encoding="utf-8"?>
<!-- Generator: Adobe Illustrator 16.0.0, SVG Export Plug-In . SVG Version: 6.00 Build 0)  -->
<!DOCTYPE svg PUBLIC "-//W3C//DTD SVG 1.1//EN" "http://www.w3.org/Graphics/SVG/1.1/DTD/svg11.dtd">
<svg version="1.1" id="Layer_1" xmlns="http://www.w3.org/2000/svg" xmlns:xlink="http://www.w3.org/1999/xlink" x="0px" y="0px"
	 width="2847.285px" height="1274px" viewBox="0 0 2847.285 1274" enable-background="new 0 0 2847.285 1274" xml:space="preserve">
<text transform="matrix(1 0 0 1 603.989 653.3613)" opacity="0.8" fill="#FFFFFF" enable-background="new    " font-family="'TTHaneuleuikkumL'" font-size="24">0</text>
<text transform="matrix(1 0 0 1 824.9485 749.3555)" opacity="0.8" fill="#FFFFFF" enable-background="new    " font-family="'TTHaneuleuikkumL'" font-size="24">0</text>
<text transform="matrix(1 0 0 1 1294.3435 365.1797)" opacity="0.8" fill="#FFFFFF" enable-background="new    " font-family="'TTHaneuleuikkumL'" font-size="24">0</text>
<text transform="matrix(1 0 0 1 1390.115 569.6689)" opacity="0.8" fill="#FFFFFF" enable-background="new    " font-family="'TTHaneuleuikkumL'" font-size="24">0</text>
<text transform="matrix(1 0 0 1 1673.5154 574.3379)" opacity="0.8" fill="#FFFFFF" enable-background="new    " font-family="'TTHaneuleuikkumL'" font-size="24">0</text>
<text transform="matrix(1 0 0 1 1490.6091 176.5908)" opacity="0.8" fill="#FFFFFF" enable-background="new    " font-family="'TTHaneuleuikkumL'" font-size="24">0</text>
<text transform="matrix(1 0 0 1 1585.1052 25.5)" opacity="0.8" fill="#FFFFFF" enable-background="new    " font-family="'TTHaneuleuikkumL'" font-size="24">0</text>
<text transform="matrix(1 0 0 1 557.5491 47.5273)" opacity="0.8" fill="#FFFFFF" enable-background="new    " font-family="'TTHaneuleuikkumL'" font-size="24">0</text>
<text transform="matrix(1 0 0 1 710.6487 89.6055)" opacity="0.8" fill="#FFFFFF" enable-background="new    " font-family="'TTHaneuleuikkumL'" font-size="24">0</text>
<text transform="matrix(1 0 0 1 296.5427 730.2734)" opacity="0.8" fill="#FFFFFF" enable-background="new    " font-family="'TTHaneuleuikkumL'" font-size="24">0</text>
<text transform="matrix(1 0 0 1 449.5984 592.1367)" opacity="0.8" fill="#FFFFFF" enable-background="new    " font-family="'TTHaneuleuikkumL'" font-size="24">0</text>
<text transform="matrix(1 0 0 1 497.5984 467.29)" opacity="0.8" fill="#FFFFFF" enable-background="new    " font-family="'TTHaneuleuikkumL'" font-size="24">0</text>
<text transform="matrix(1 0 0 1 485.6599 884.7656)" opacity="0.8" fill="#FFFFFF" enable-background="new    " font-family="'TTHaneuleuikkumL'" font-size="24">0</text>
<text transform="matrix(1 0 0 1 148.9871 950.7617)" opacity="0.8" fill="#FFFFFF" enable-background="new    " font-family="'TTHaneuleuikkumL'" font-size="24">0</text>
<text transform="matrix(1 0 0 1 1325.6179 985.2617)" opacity="0.8" fill="#FFFFFF" enable-background="new    " font-family="'TTHaneuleuikkumL'" font-size="24">0</text>
<text transform="matrix(1 0 0 1 1325.6179 1229.748)" opacity="0.8" fill="#FFFFFF" enable-background="new    " font-family="'TTHaneuleuikkumL'" font-size="24">0</text>
<text transform="matrix(1 0 0 1 1095.6179 1116.5391)" opacity="0.8" fill="#FFFFFF" enable-background="new    " font-family="'TTHaneuleuikkumL'" font-size="24">0</text>
<text transform="matrix(1 0 0 1 941.6003 1215.8535)" opacity="0.8" fill="#FFFFFF" enable-background="new    " font-family="'TTHaneuleuikkumL'" font-size="24">0</text>
<text transform="matrix(1 0 0 1 526.7253 1240.248)" opacity="0.8" fill="#FFFFFF" enable-background="new    " font-family="'TTHaneuleuikkumL'" font-size="24">0</text>
<text transform="matrix(1 0 0 1 661.4465 1141.2539)" opacity="0.8" fill="#FFFFFF" enable-background="new    " font-family="'TTHaneuleuikkumL'" font-size="24">0</text>
<text transform="matrix(1 0 0 1 122.5916 1229.748)" opacity="0.8" fill="#FFFFFF" enable-background="new    " font-family="'TTHaneuleuikkumL'" font-size="24">0</text>
<text transform="matrix(1 0 0 1 10.4949 1099.2539)" opacity="0.8" fill="#FFFFFF" enable-background="new    " font-family="'TTHaneuleuikkumL'" font-size="24">0</text>
<text transform="matrix(1 0 0 1 1675.0632 899.7656)" opacity="0.8" fill="#FFFFFF" enable-background="new    " font-family="'TTHaneuleuikkumL'" font-size="24">0</text>
<text transform="matrix(1 0 0 1 1543.8699 655.2207)" opacity="0.8" fill="#FFFFFF" enable-background="new    " font-family="'TTHaneuleuikkumL'" font-size="24">0</text>
<text transform="matrix(1 0 0 1 1013.8689 786)" opacity="0.8" fill="#FFFFFF" enable-background="new    " font-family="'TTHaneuleuikkumL'" font-size="24">0</text>
<text transform="matrix(1 0 0 1 873.8689 884.7656)" opacity="0.8" fill="#FFFFFF" enable-background="new    " font-family="'TTHaneuleuikkumL'" font-size="24">0</text>
<text transform="matrix(1 0 0 1 57.3767 655.2207)" opacity="0.8" fill="#FFFFFF" enable-background="new    " font-family="'TTHaneuleuikkumL'" font-size="24">0</text>
<text transform="matrix(1 0 0 1 1294.3425 40.7148)" opacity="0.8" fill="#FFFFFF" enable-background="new    " font-family="'TTHaneuleuikkumL'" font-size="24">0</text>
<text transform="matrix(1 0 0 1 1728.1052 209.5068)" opacity="0.8" fill="#FFFFFF" enable-background="new    " font-family="'TTHaneuleuikkumL'" font-size="24">0</text>
<text transform="matrix(1 0 0 1 1623.8689 306.5908)" opacity="0.8" fill="#FFFFFF" enable-background="new    " font-family="'TTHaneuleuikkumL'" font-size="24">0</text>
<text transform="matrix(1 0 0 1 218.6853 80.3809)" opacity="0.8" fill="#FFFFFF" enable-background="new    " font-family="'TTHaneuleuikkumL'" font-size="24">0</text>
<text transform="matrix(1 0 0 1 422.1472 1001.2109)" opacity="0.8" fill="#FFFFFF" enable-background="new    " font-family="'TTHaneuleuikkumL'" font-size="24">0</text>
<text transform="matrix(1 0 0 1 1585.1052 1013.7598)" opacity="0.8" fill="#FFFFFF" enable-background="new    " font-family="'TTHaneuleuikkumL'" font-size="24">0</text>
<text transform="matrix(1 0 0 1 1167.8699 1001.2109)" opacity="0.8" fill="#FFFFFF" enable-background="new    " font-family="'TTHaneuleuikkumL'" font-size="24">0</text>
<text transform="matrix(1 0 0 1 1516.9597 1259.748)" opacity="0.8" fill="#FFFFFF" enable-background="new    " font-family="'TTHaneuleuikkumL'" font-size="24">0</text>
<text transform="matrix(1 0 0 1 1369.8699 858)" opacity="0.8" fill="#FFFFFF" enable-background="new    " font-family="'TTHaneuleuikkumL'" font-size="24">0</text>
<text transform="matrix(1 0 0 1 1772.6843 749.3555)" opacity="0.8" fill="#FFFFFF" enable-background="new    " font-family="'TTHaneuleuikkumL'" font-size="24">0</text>
<text transform="matrix(1 0 0 1 367.8694 1116.5391)" opacity="0.8" fill="#FFFFFF" enable-background="new    " font-family="'TTHaneuleuikkumL'" font-size="24">0</text>
<text transform="matrix(1 0 0 1 713.6248 884.7656)" opacity="0.8" fill="#FFFFFF" enable-background="new    " font-family="'TTHaneuleuikkumL'" font-size="24">1</text>
<text transform="matrix(1 0 0 1 238.031 823.2695)" opacity="0.8" fill="#FFFFFF" enable-background="new    " font-family="'TTHaneuleuikkumL'" font-size="24">1</text>
<text transform="matrix(1 0 0 1 319.0266 539.625)" opacity="0.8" fill="#FFFFFF" enable-background="new    " font-family="'TTHaneuleuikkumL'" font-size="24">1</text>
<text transform="matrix(1 0 0 1 93.76 776.4961)" opacity="0.8" fill="#FFFFFF" enable-background="new    " font-family="'TTHaneuleuikkumL'" font-size="24">1</text>
<text transform="matrix(1 0 0 1 1025.7947 439.5996)" opacity="0.8" fill="#FFFFFF" enable-background="new    " font-family="'TTHaneuleuikkumL'" font-size="24">1</text>
<text transform="matrix(1 0 0 1 703.7019 446.3633)" opacity="0.8" fill="#FFFFFF" enable-background="new    " font-family="'TTHaneuleuikkumL'" font-size="24">1</text>
<text transform="matrix(1 0 0 1 868.6936 40.7148)" opacity="0.8" fill="#FFFFFF" enable-background="new    " font-family="'TTHaneuleuikkumL'" font-size="24">1</text>
<text transform="matrix(1 0 0 1 378.8455 47.5273)" opacity="0.8" fill="#FFFFFF" enable-background="new    " font-family="'TTHaneuleuikkumL'" font-size="24">1</text>
<text transform="matrix(1 0 0 1 1588.0818 469.1904)" opacity="0.8" fill="#FFFFFF" enable-background="new    " font-family="'TTHaneuleuikkumL'" font-size="24">1</text>
<text transform="matrix(1 0 0 1 1493.5857 298)" opacity="0.8" fill="#FFFFFF" enable-background="new    " font-family="'TTHaneuleuikkumL'" font-size="24">1</text>
<text transform="matrix(1 0 0 1 1684.1716 758.0703)" opacity="0.8" fill="#FFFFFF" enable-background="new    " font-family="'TTHaneuleuikkumL'" font-size="24">1</text>
<text transform="matrix(1 0 0 1 1799.3904 1013.7598)" opacity="0.8" fill="#FFFFFF" enable-background="new    " font-family="'TTHaneuleuikkumL'" font-size="24">1</text>
<text transform="matrix(1 0 0 1 1493.5857 884.7656)" opacity="0.8" fill="#FFFFFF" enable-background="new    " font-family="'TTHaneuleuikkumL'" font-size="24">1</text>
<text transform="matrix(1 0 0 1 941.6003 264.4102)" opacity="0.8" fill="#FFFFFF" enable-background="new    " font-family="'TTHaneuleuikkumL'" font-size="24">0</text>
<text transform="matrix(1 0 0 1 851.6423 378.4043)" opacity="0.8" fill="#FFFFFF" enable-background="new    " font-family="'TTHaneuleuikkumL'" font-size="24">0</text>
<text transform="matrix(1 0 0 1 873.8694 539.625)" opacity="0.8" fill="#FFFFFF" enable-background="new    " font-family="'TTHaneuleuikkumL'" font-size="24">0</text>
<text transform="matrix(1 0 0 1 1213.5193 637)" opacity="0.8" fill="#FFFFFF" enable-background="new    " font-family="'TTHaneuleuikkumL'" font-size="24">0</text>
<text transform="matrix(1 0 0 1 1085.6179 134)" opacity="0.8" fill="#FFFFFF" enable-background="new    " font-family="'TTHaneuleuikkumL'" font-size="24">0</text>
<text transform="matrix(1 0 0 1 950.7087 122.7148)" opacity="0.8" fill="#FFFFFF" enable-background="new    " font-family="'TTHaneuleuikkumL'" font-size="24">1</text>
<text transform="matrix(1 0 0 1 1216.4958 495.7607)" opacity="0.8" fill="#FFFFFF" enable-background="new    " font-family="'TTHaneuleuikkumL'" font-size="24">1</text>
<text transform="matrix(1 0 0 1 760.1228 249.4102)" opacity="0.8" fill="#FFFFFF" enable-background="new    " font-family="'TTHaneuleuikkumL'" font-size="24">1</text>
<text transform="matrix(1 0 0 1 93.76 47.5273)" opacity="0.8" fill="#FFFFFF" enable-background="new    " font-family="'TTHaneuleuikkumL'" font-size="24">1</text>
<text transform="matrix(1 0 0 1 1144.363 890.7656)" opacity="0.8" fill="#FFFFFF" enable-background="new    " font-family="'TTHaneuleuikkumL'" font-size="24">1</text>
<text transform="matrix(1 0 0 1 1025.7937 632.4893)" opacity="0.8" fill="#FFFFFF" enable-background="new    " font-family="'TTHaneuleuikkumL'" font-size="24">1</text>
<text transform="matrix(1 0 0 1 620.8132 776.4961)" opacity="0.8" fill="#FFFFFF" enable-background="new    " font-family="'TTHaneuleuikkumL'" font-size="24">1</text>
<text transform="matrix(1 0 0 1 1819.2537 89.6055)" opacity="0.8" fill="#FFFFFF" enable-background="new    " font-family="'TTHaneuleuikkumL'" font-size="24">1</text>
<text transform="matrix(1 0 0 1 1579.0808 104.8486)" opacity="0.8" fill="#FFFFFF" enable-background="new    " font-family="'TTHaneuleuikkumL'" font-size="24">1</text>
<text transform="matrix(1 0 0 1 340.1433 274.5215)" opacity="0.8" fill="#FFFFFF" enable-background="new    " font-family="'TTHaneuleuikkumL'" font-size="24">1</text>
<text transform="matrix(1 0 0 1 28.0178 917.9883)" opacity="0.8" fill="#FFFFFF" enable-background="new    " font-family="'TTHaneuleuikkumL'" font-size="24">1</text>
<text transform="matrix(1 0 0 1 990.8455 942)" opacity="0.8" fill="#FFFFFF" enable-background="new    " font-family="'TTHaneuleuikkumL'" font-size="24">1</text>
<text transform="matrix(1 0 0 1 972.8455 1099.2539)" opacity="0.8" fill="#FFFFFF" enable-background="new    " font-family="'TTHaneuleuikkumL'" font-size="24">1</text>
<text transform="matrix(1 0 0 1 1444.0876 1109.0391)" opacity="0.8" fill="#FFFFFF" enable-background="new    " font-family="'TTHaneuleuikkumL'" font-size="24">1</text>
<text transform="matrix(1 0 0 1 166.8455 1099.2539)" opacity="0.8" fill="#FFFFFF" enable-background="new    " font-family="'TTHaneuleuikkumL'" font-size="24">1</text>
<text transform="matrix(1 0 0 1 299.5188 1215.8535)" opacity="0.8" fill="#FFFFFF" enable-background="new    " font-family="'TTHaneuleuikkumL'" font-size="24">1</text>
<text transform="matrix(1 0 0 1 775.1277 1247.7559)" opacity="0.8" fill="#FFFFFF" enable-background="new    " font-family="'TTHaneuleuikkumL'" font-size="24">1</text>
<text transform="matrix(1 0 0 1 790.8455 1049.7578)" opacity="0.8" fill="#FFFFFF" enable-background="new    " font-family="'TTHaneuleuikkumL'" font-size="24">1</text>
<text transform="matrix(1 0 0 1 1216.4958 1240.248)" opacity="0.8" fill="#FFFFFF" enable-background="new    " font-family="'TTHaneuleuikkumL'" font-size="24">1</text>
<text transform="matrix(1 0 0 1 1747.9451 1240.248)" opacity="0.8" fill="#FFFFFF" enable-background="new    " font-family="'TTHaneuleuikkumL'" font-size="24">1</text>
<text transform="matrix(1 0 0 1 1538.5896 1195.2578)" opacity="0.8" fill="#FFFFFF" enable-background="new    " font-family="'TTHaneuleuikkumL'" font-size="24">1</text>
<text transform="matrix(1 0 0 1 274.8455 1013.7598)" opacity="0.8" fill="#FFFFFF" enable-background="new    " font-family="'TTHaneuleuikkumL'" font-size="24">1</text>
<text transform="matrix(1 0 0 1 500.5745 1116.5391)" opacity="0.8" fill="#FFFFFF" enable-background="new    " font-family="'TTHaneuleuikkumL'" font-size="24">1</text>
<text transform="matrix(1 0 0 1 488.636 736.2734)" opacity="0.8" fill="#FFFFFF" enable-background="new    " font-family="'TTHaneuleuikkumL'" font-size="24">1</text>
<text transform="matrix(1 0 0 1 760.1228 592.1367)" opacity="0.8" fill="#FFFFFF" enable-background="new    " font-family="'TTHaneuleuikkumL'" font-size="24">1</text>
<text transform="matrix(1 0 0 1 1309.3396 176.5908)" opacity="0.8" fill="#FFFFFF" enable-background="new    " font-family="'TTHaneuleuikkumL'" font-size="24">1</text>
<text transform="matrix(1 0 0 1 1799.3904 467.29)" opacity="0.8" fill="#FFFFFF" enable-background="new    " font-family="'TTHaneuleuikkumL'" font-size="24">1</text>
<text transform="matrix(1 0 0 1 1393.0916 467.29)" opacity="0.8" fill="#FFFFFF" enable-background="new    " font-family="'TTHaneuleuikkumL'" font-size="24">1</text>
<text transform="matrix(1 0 0 1 1393.0916 707.5957)" opacity="0.8" fill="#FFFFFF" enable-background="new    " font-family="'TTHaneuleuikkumL'" font-size="24">1</text>
<text transform="matrix(1 0 0 1 367.8694 400.2646)" opacity="0.8" fill="#FFFFFF" enable-background="new    " font-family="'TTHaneuleuikkumL'" font-size="24">0</text>
<text transform="matrix(1 0 0 1 190.6101 306.5908)" opacity="0.8" fill="#FFFFFF" enable-background="new    " font-family="'TTHaneuleuikkumL'" font-size="24">0</text>
<text transform="matrix(1 0 0 1 388.6101 176.5908)" opacity="0.8" fill="#FFFFFF" enable-background="new    " font-family="'TTHaneuleuikkumL'" font-size="24">0</text>
<text transform="matrix(1 0 0 1 90.116 416.2646)" opacity="0.8" fill="#FFFFFF" enable-background="new    " font-family="'TTHaneuleuikkumL'" font-size="24">0</text>
<text transform="matrix(1 0 0 1 584.4226 378.4043)" opacity="0.8" fill="#FFFFFF" enable-background="new    " font-family="'TTHaneuleuikkumL'" font-size="24">1</text>
<text transform="matrix(1 0 0 1 193.5857 495.7607)" opacity="0.8" fill="#FFFFFF" enable-background="new    " font-family="'TTHaneuleuikkumL'" font-size="24">1</text>
<text transform="matrix(1 0 0 1 89.4583 234.0938)" opacity="0.8" fill="#FFFFFF" enable-background="new    " font-family="'TTHaneuleuikkumL'" font-size="24">1</text>
<text transform="matrix(1 0 0 1 1252.8455 768)" opacity="0.8" fill="#FFFFFF" enable-background="new    " font-family="'TTHaneuleuikkumL'" font-size="24">1</text>
<text transform="matrix(1 0 0 1 584.4226 1013.7598)" opacity="0.8" fill="#FFFFFF" enable-background="new    " font-family="'TTHaneuleuikkumL'" font-size="24">1</text>
<text transform="matrix(1 0 0 1 1699.3181 1108.041)" opacity="0.8" fill="#FFFFFF" enable-background="new    " font-family="'TTHaneuleuikkumL'" font-size="24">1</text>
<text transform="matrix(1 0 0 1 1170.8455 298)" opacity="0.8" fill="#FFFFFF" enable-background="new    " font-family="'TTHaneuleuikkumL'" font-size="24">1</text>
<text transform="matrix(1 0 0 1 1121.8093 54.8105)" opacity="0.8" fill="#FFFFFF" enable-background="new    " font-family="'TTHaneuleuikkumL'" font-size="24">1</text>
<text transform="matrix(1 0 0 1 672.8455 160.3525)" opacity="0.8" fill="#FFFFFF" enable-background="new    " font-family="'TTHaneuleuikkumL'" font-size="24">1</text>
<text transform="matrix(1 0 0 1 542.8381 234.0938)" opacity="0.8" fill="#FFFFFF" enable-background="new    " font-family="'TTHaneuleuikkumL'" font-size="24">1</text>
<text transform="matrix(1 0 0 1 2389.908 653.3613)" opacity="0.8" fill="#FFFFFF" enable-background="new    " font-family="'TTHaneuleuikkumL'" font-size="24">0</text>
<text transform="matrix(1 0 0 1 2610.8679 749.3555)" opacity="0.8" fill="#FFFFFF" enable-background="new    " font-family="'TTHaneuleuikkumL'" font-size="24">0</text>
<text transform="matrix(1 0 0 1 2343.4685 47.5273)" opacity="0.8" fill="#FFFFFF" enable-background="new    " font-family="'TTHaneuleuikkumL'" font-size="24">0</text>
<text transform="matrix(1 0 0 1 2496.5681 89.6055)" opacity="0.8" fill="#FFFFFF" enable-background="new    " font-family="'TTHaneuleuikkumL'" font-size="24">0</text>
<text transform="matrix(1 0 0 1 2082.4626 730.2734)" opacity="0.8" fill="#FFFFFF" enable-background="new    " font-family="'TTHaneuleuikkumL'" font-size="24">0</text>
<text transform="matrix(1 0 0 1 2235.5173 592.1367)" opacity="0.8" fill="#FFFFFF" enable-background="new    " font-family="'TTHaneuleuikkumL'" font-size="24">0</text>
<text transform="matrix(1 0 0 1 2283.5173 467.29)" opacity="0.8" fill="#FFFFFF" enable-background="new    " font-family="'TTHaneuleuikkumL'" font-size="24">0</text>
<text transform="matrix(1 0 0 1 2271.5798 884.7656)" opacity="0.8" fill="#FFFFFF" enable-background="new    " font-family="'TTHaneuleuikkumL'" font-size="24">0</text>
<text transform="matrix(1 0 0 1 1934.906 950.7617)" opacity="0.8" fill="#FFFFFF" enable-background="new    " font-family="'TTHaneuleuikkumL'" font-size="24">0</text>
<text transform="matrix(1 0 0 1 2727.5193 1215.8535)" opacity="0.8" fill="#FFFFFF" enable-background="new    " font-family="'TTHaneuleuikkumL'" font-size="24">0</text>
<text transform="matrix(1 0 0 1 2312.6443 1240.248)" opacity="0.8" fill="#FFFFFF" enable-background="new    " font-family="'TTHaneuleuikkumL'" font-size="24">0</text>
<text transform="matrix(1 0 0 1 2447.366 1141.2539)" opacity="0.8" fill="#FFFFFF" enable-background="new    " font-family="'TTHaneuleuikkumL'" font-size="24">0</text>
<text transform="matrix(1 0 0 1 1908.5115 1229.748)" opacity="0.8" fill="#FFFFFF" enable-background="new    " font-family="'TTHaneuleuikkumL'" font-size="24">0</text>
<text transform="matrix(1 0 0 1 1796.4138 1099.2539)" opacity="0.8" fill="#FFFFFF" enable-background="new    " font-family="'TTHaneuleuikkumL'" font-size="24">0</text>
<text transform="matrix(1 0 0 1 2799.7888 786)" opacity="0.8" fill="#FFFFFF" enable-background="new    " font-family="'TTHaneuleuikkumL'" font-size="24">0</text>
<text transform="matrix(1 0 0 1 2659.7888 884.7656)" opacity="0.8" fill="#FFFFFF" enable-background="new    " font-family="'TTHaneuleuikkumL'" font-size="24">0</text>
<text transform="matrix(1 0 0 1 1843.2966 655.2207)" opacity="0.8" fill="#FFFFFF" enable-background="new    " font-family="'TTHaneuleuikkumL'" font-size="24">0</text>
<text transform="matrix(1 0 0 1 2004.6052 80.3809)" opacity="0.8" fill="#FFFFFF" enable-background="new    " font-family="'TTHaneuleuikkumL'" font-size="24">0</text>
<text transform="matrix(1 0 0 1 2208.0662 1001.2109)" opacity="0.8" fill="#FFFFFF" enable-background="new    " font-family="'TTHaneuleuikkumL'" font-size="24">0</text>
<text transform="matrix(1 0 0 1 2153.7888 1116.5391)" opacity="0.8" fill="#FFFFFF" enable-background="new    " font-family="'TTHaneuleuikkumL'" font-size="24">0</text>
<text transform="matrix(1 0 0 1 2499.5447 884.7656)" opacity="0.8" fill="#FFFFFF" enable-background="new    " font-family="'TTHaneuleuikkumL'" font-size="24">1</text>
<text transform="matrix(1 0 0 1 2023.9509 823.2695)" opacity="0.8" fill="#FFFFFF" enable-background="new    " font-family="'TTHaneuleuikkumL'" font-size="24">1</text>
<text transform="matrix(1 0 0 1 2104.946 539.625)" opacity="0.8" fill="#FFFFFF" enable-background="new    " font-family="'TTHaneuleuikkumL'" font-size="24">1</text>
<text transform="matrix(1 0 0 1 1879.6794 776.4961)" opacity="0.8" fill="#FFFFFF" enable-background="new    " font-family="'TTHaneuleuikkumL'" font-size="24">1</text>
<text transform="matrix(1 0 0 1 2811.7146 439.5996)" opacity="0.8" fill="#FFFFFF" enable-background="new    " font-family="'TTHaneuleuikkumL'" font-size="24">1</text>
<text transform="matrix(1 0 0 1 2489.6208 446.3633)" opacity="0.8" fill="#FFFFFF" enable-background="new    " font-family="'TTHaneuleuikkumL'" font-size="24">1</text>
<text transform="matrix(1 0 0 1 2654.613 40.7148)" opacity="0.8" fill="#FFFFFF" enable-background="new    " font-family="'TTHaneuleuikkumL'" font-size="24">1</text>
<text transform="matrix(1 0 0 1 2164.7654 47.5273)" opacity="0.8" fill="#FFFFFF" enable-background="new    " font-family="'TTHaneuleuikkumL'" font-size="24">1</text>
<text transform="matrix(1 0 0 1 2727.5193 264.4102)" opacity="0.8" fill="#FFFFFF" enable-background="new    " font-family="'TTHaneuleuikkumL'" font-size="24">0</text>
<text transform="matrix(1 0 0 1 2637.5623 378.4043)" opacity="0.8" fill="#FFFFFF" enable-background="new    " font-family="'TTHaneuleuikkumL'" font-size="24">0</text>
<text transform="matrix(1 0 0 1 2659.7888 539.625)" opacity="0.8" fill="#FFFFFF" enable-background="new    " font-family="'TTHaneuleuikkumL'" font-size="24">0</text>
<text transform="matrix(1 0 0 1 2736.6287 122.7148)" opacity="0.8" fill="#FFFFFF" enable-background="new    " font-family="'TTHaneuleuikkumL'" font-size="24">1</text>
<text transform="matrix(1 0 0 1 2546.0427 249.4102)" opacity="0.8" fill="#FFFFFF" enable-background="new    " font-family="'TTHaneuleuikkumL'" font-size="24">1</text>
<text transform="matrix(1 0 0 1 1879.6794 47.5273)" opacity="0.8" fill="#FFFFFF" enable-background="new    " font-family="'TTHaneuleuikkumL'" font-size="24">1</text>
<text transform="matrix(1 0 0 1 2811.7126 632.4893)" opacity="0.8" fill="#FFFFFF" enable-background="new    " font-family="'TTHaneuleuikkumL'" font-size="24">1</text>
<text transform="matrix(1 0 0 1 2406.7322 776.4961)" opacity="0.8" fill="#FFFFFF" enable-background="new    " font-family="'TTHaneuleuikkumL'" font-size="24">1</text>
<text transform="matrix(1 0 0 1 2126.0623 274.5215)" opacity="0.8" fill="#FFFFFF" enable-background="new    " font-family="'TTHaneuleuikkumL'" font-size="24">1</text>
<text transform="matrix(1 0 0 1 1813.9373 917.9883)" opacity="0.8" fill="#FFFFFF" enable-background="new    " font-family="'TTHaneuleuikkumL'" font-size="24">1</text>
<text transform="matrix(1 0 0 1 2776.7644 942)" opacity="0.8" fill="#FFFFFF" enable-background="new    " font-family="'TTHaneuleuikkumL'" font-size="24">1</text>
<text transform="matrix(1 0 0 1 2758.7644 1099.2539)" opacity="0.8" fill="#FFFFFF" enable-background="new    " font-family="'TTHaneuleuikkumL'" font-size="24">1</text>
<text transform="matrix(1 0 0 1 1952.7654 1099.2539)" opacity="0.8" fill="#FFFFFF" enable-background="new    " font-family="'TTHaneuleuikkumL'" font-size="24">1</text>
<text transform="matrix(1 0 0 1 2085.4382 1215.8535)" opacity="0.8" fill="#FFFFFF" enable-background="new    " font-family="'TTHaneuleuikkumL'" font-size="24">1</text>
<text transform="matrix(1 0 0 1 2561.0466 1247.7559)" opacity="0.8" fill="#FFFFFF" enable-background="new    " font-family="'TTHaneuleuikkumL'" font-size="24">1</text>
<text transform="matrix(1 0 0 1 2576.7654 1049.7578)" opacity="0.8" fill="#FFFFFF" enable-background="new    " font-family="'TTHaneuleuikkumL'" font-size="24">1</text>
<text transform="matrix(1 0 0 1 2060.7654 1013.7598)" opacity="0.8" fill="#FFFFFF" enable-background="new    " font-family="'TTHaneuleuikkumL'" font-size="24">1</text>
<text transform="matrix(1 0 0 1 2286.4939 1116.5391)" opacity="0.8" fill="#FFFFFF" enable-background="new    " font-family="'TTHaneuleuikkumL'" font-size="24">1</text>
<text transform="matrix(1 0 0 1 2274.5554 736.2734)" opacity="0.8" fill="#FFFFFF" enable-background="new    " font-family="'TTHaneuleuikkumL'" font-size="24">1</text>
<text transform="matrix(1 0 0 1 2546.0427 592.1367)" opacity="0.8" fill="#FFFFFF" enable-background="new    " font-family="'TTHaneuleuikkumL'" font-size="24">1</text>
<text transform="matrix(1 0 0 1 2153.7888 400.2646)" opacity="0.8" fill="#FFFFFF" enable-background="new    " font-family="'TTHaneuleuikkumL'" font-size="24">0</text>
<text transform="matrix(1 0 0 1 1976.5291 306.5908)" opacity="0.8" fill="#FFFFFF" enable-background="new    " font-family="'TTHaneuleuikkumL'" font-size="24">0</text>
<text transform="matrix(1 0 0 1 2174.5291 176.5908)" opacity="0.8" fill="#FFFFFF" enable-background="new    " font-family="'TTHaneuleuikkumL'" font-size="24">0</text>
<text transform="matrix(1 0 0 1 1876.0349 416.2646)" opacity="0.8" fill="#FFFFFF" enable-background="new    " font-family="'TTHaneuleuikkumL'" font-size="24">0</text>
<text transform="matrix(1 0 0 1 2370.3416 378.4043)" opacity="0.8" fill="#FFFFFF" enable-background="new    " font-family="'TTHaneuleuikkumL'" font-size="24">1</text>
<text transform="matrix(1 0 0 1 1979.5056 495.7607)" opacity="0.8" fill="#FFFFFF" enable-background="new    " font-family="'TTHaneuleuikkumL'" font-size="24">1</text>
<text transform="matrix(1 0 0 1 1875.3777 234.0938)" opacity="0.8" fill="#FFFFFF" enable-background="new    " font-family="'TTHaneuleuikkumL'" font-size="24">1</text>
<text transform="matrix(1 0 0 1 2370.3416 1013.7598)" opacity="0.8" fill="#FFFFFF" enable-background="new    " font-family="'TTHaneuleuikkumL'" font-size="24">1</text>
<text transform="matrix(1 0 0 1 2458.7654 160.3525)" opacity="0.8" fill="#FFFFFF" enable-background="new    " font-family="'TTHaneuleuikkumL'" font-size="24">1</text>
<text transform="matrix(1 0 0 1 2328.7576 234.0938)" opacity="0.8" fill="#FFFFFF" enable-background="new    " font-family="'TTHaneuleuikkumL'" font-size="24">1</text>
<text transform="matrix(1 0 0 1 1707.0173 424.3936)" opacity="0.8" fill="#FFFFFF" enable-background="new    " font-family="'TTHaneuleuikkumL'" font-size="24">1</text>
</svg>
