<?xml version="1.0" encoding="utf-8"?>
<!-- Generator: Adobe Illustrator 16.0.0, SVG Export Plug-In . SVG Version: 6.00 Build 0)  -->
<!DOCTYPE svg PUBLIC "-//W3C//DTD SVG 1.1//EN" "http://www.w3.org/Graphics/SVG/1.1/DTD/svg11.dtd">
<svg version="1.1" id="Layer_1" xmlns="http://www.w3.org/2000/svg" xmlns:xlink="http://www.w3.org/1999/xlink" x="0px" y="0px"
	 width="1872.188px" height="1274px" viewBox="0 0 1872.188 1274" enable-background="new 0 0 1872.188 1274" xml:space="preserve">
<text transform="matrix(1 0 0 1 606.9651 653.3613)" opacity="0.8" fill="#FFFFFF" enable-background="new    " font-family="'TTHaneuleuikkumL'" font-size="24">1</text>
<text transform="matrix(1 0 0 1 827.9246 749.3555)" opacity="0.8" fill="#FFFFFF" enable-background="new    " font-family="'TTHaneuleuikkumL'" font-size="24">1</text>
<text transform="matrix(1 0 0 1 1297.3191 365.1797)" opacity="0.8" fill="#FFFFFF" enable-background="new    " font-family="'TTHaneuleuikkumL'" font-size="24">1</text>
<text transform="matrix(1 0 0 1 1393.0916 569.6689)" opacity="0.8" fill="#FFFFFF" enable-background="new    " font-family="'TTHaneuleuikkumL'" font-size="24">1</text>
<text transform="matrix(1 0 0 1 1676.4919 574.3379)" opacity="0.8" fill="#FFFFFF" enable-background="new    " font-family="'TTHaneuleuikkumL'" font-size="24">1</text>
<text transform="matrix(1 0 0 1 1493.5857 176.5908)" opacity="0.8" fill="#FFFFFF" enable-background="new    " font-family="'TTHaneuleuikkumL'" font-size="24">1</text>
<text transform="matrix(1 0 0 1 1588.0808 25.5)" opacity="0.8" fill="#FFFFFF" enable-background="new    " font-family="'TTHaneuleuikkumL'" font-size="24">1</text>
<text transform="matrix(1 0 0 1 560.5251 47.5273)" opacity="0.8" fill="#FFFFFF" enable-background="new    " font-family="'TTHaneuleuikkumL'" font-size="24">1</text>
<text transform="matrix(1 0 0 1 713.6248 89.6055)" opacity="0.8" fill="#FFFFFF" enable-background="new    " font-family="'TTHaneuleuikkumL'" font-size="24">1</text>
<text transform="matrix(1 0 0 1 299.5188 730.2734)" opacity="0.8" fill="#FFFFFF" enable-background="new    " font-family="'TTHaneuleuikkumL'" font-size="24">1</text>
<text transform="matrix(1 0 0 1 452.5745 592.1367)" opacity="0.8" fill="#FFFFFF" enable-background="new    " font-family="'TTHaneuleuikkumL'" font-size="24">1</text>
<text transform="matrix(1 0 0 1 500.5745 467.29)" opacity="0.8" fill="#FFFFFF" enable-background="new    " font-family="'TTHaneuleuikkumL'" font-size="24">1</text>
<text transform="matrix(1 0 0 1 488.636 884.7656)" opacity="0.8" fill="#FFFFFF" enable-background="new    " font-family="'TTHaneuleuikkumL'" font-size="24">1</text>
<text transform="matrix(1 0 0 1 151.9631 950.7617)" opacity="0.8" fill="#FFFFFF" enable-background="new    " font-family="'TTHaneuleuikkumL'" font-size="24">1</text>
<text transform="matrix(1 0 0 1 1328.5935 985.2617)" opacity="0.8" fill="#FFFFFF" enable-background="new    " font-family="'TTHaneuleuikkumL'" font-size="24">1</text>
<text transform="matrix(1 0 0 1 1328.5935 1229.748)" opacity="0.8" fill="#FFFFFF" enable-background="new    " font-family="'TTHaneuleuikkumL'" font-size="24">1</text>
<text transform="matrix(1 0 0 1 1098.5935 1116.5391)" opacity="0.8" fill="#FFFFFF" enable-background="new    " font-family="'TTHaneuleuikkumL'" font-size="24">1</text>
<text transform="matrix(1 0 0 1 944.5759 1215.8535)" opacity="0.8" fill="#FFFFFF" enable-background="new    " font-family="'TTHaneuleuikkumL'" font-size="24">1</text>
<text transform="matrix(1 0 0 1 529.7014 1240.248)" opacity="0.8" fill="#FFFFFF" enable-background="new    " font-family="'TTHaneuleuikkumL'" font-size="24">1</text>
<text transform="matrix(1 0 0 1 664.4226 1141.2539)" opacity="0.8" fill="#FFFFFF" enable-background="new    " font-family="'TTHaneuleuikkumL'" font-size="24">1</text>
<text transform="matrix(1 0 0 1 125.5676 1229.748)" opacity="0.8" fill="#FFFFFF" enable-background="new    " font-family="'TTHaneuleuikkumL'" font-size="24">1</text>
<text transform="matrix(1 0 0 1 13.4709 1099.2539)" opacity="0.8" fill="#FFFFFF" enable-background="new    " font-family="'TTHaneuleuikkumL'" font-size="24">1</text>
<text transform="matrix(1 0 0 1 1678.0388 899.7656)" opacity="0.8" fill="#FFFFFF" enable-background="new    " font-family="'TTHaneuleuikkumL'" font-size="24">1</text>
<text transform="matrix(1 0 0 1 1546.8455 655.2207)" opacity="0.8" fill="#FFFFFF" enable-background="new    " font-family="'TTHaneuleuikkumL'" font-size="24">1</text>
<text transform="matrix(1 0 0 1 1016.8455 786)" opacity="0.8" fill="#FFFFFF" enable-background="new    " font-family="'TTHaneuleuikkumL'" font-size="24">1</text>
<text transform="matrix(1 0 0 1 876.845 884.7656)" opacity="0.8" fill="#FFFFFF" enable-background="new    " font-family="'TTHaneuleuikkumL'" font-size="24">1</text>
<text transform="matrix(1 0 0 1 60.3528 655.2207)" opacity="0.8" fill="#FFFFFF" enable-background="new    " font-family="'TTHaneuleuikkumL'" font-size="24">1</text>
<text transform="matrix(1 0 0 1 1297.3181 40.7148)" opacity="0.8" fill="#FFFFFF" enable-background="new    " font-family="'TTHaneuleuikkumL'" font-size="24">1</text>
<text transform="matrix(1 0 0 1 1731.0818 209.5068)" opacity="0.8" fill="#FFFFFF" enable-background="new    " font-family="'TTHaneuleuikkumL'" font-size="24">1</text>
<text transform="matrix(1 0 0 1 1626.8455 306.5908)" opacity="0.8" fill="#FFFFFF" enable-background="new    " font-family="'TTHaneuleuikkumL'" font-size="24">1</text>
<text transform="matrix(1 0 0 1 221.6614 80.3809)" opacity="0.8" fill="#FFFFFF" enable-background="new    " font-family="'TTHaneuleuikkumL'" font-size="24">1</text>
<text transform="matrix(1 0 0 1 425.1233 1001.2109)" opacity="0.8" fill="#FFFFFF" enable-background="new    " font-family="'TTHaneuleuikkumL'" font-size="24">1</text>
<text transform="matrix(1 0 0 1 1588.0818 1013.7598)" opacity="0.8" fill="#FFFFFF" enable-background="new    " font-family="'TTHaneuleuikkumL'" font-size="24">1</text>
<text transform="matrix(1 0 0 1 1170.8455 1001.2109)" opacity="0.8" fill="#FFFFFF" enable-background="new    " font-family="'TTHaneuleuikkumL'" font-size="24">1</text>
<text transform="matrix(1 0 0 1 1519.9353 1259.748)" opacity="0.8" fill="#FFFFFF" enable-background="new    " font-family="'TTHaneuleuikkumL'" font-size="24">1</text>
<text transform="matrix(1 0 0 1 1372.8455 858)" opacity="0.8" fill="#FFFFFF" enable-background="new    " font-family="'TTHaneuleuikkumL'" font-size="24">1</text>
<text transform="matrix(1 0 0 1 1775.6599 749.3555)" opacity="0.8" fill="#FFFFFF" enable-background="new    " font-family="'TTHaneuleuikkumL'" font-size="24">1</text>
<text transform="matrix(1 0 0 1 370.8455 1116.5391)" opacity="0.8" fill="#FFFFFF" enable-background="new    " font-family="'TTHaneuleuikkumL'" font-size="24">1</text>
<text transform="matrix(1 0 0 1 710.6487 884.7656)" opacity="0.8" fill="#FFFFFF" enable-background="new    " font-family="'TTHaneuleuikkumL'" font-size="24">0</text>
<text transform="matrix(1 0 0 1 235.0549 823.2695)" opacity="0.8" fill="#FFFFFF" enable-background="new    " font-family="'TTHaneuleuikkumL'" font-size="24">0</text>
<text transform="matrix(1 0 0 1 316.0505 539.625)" opacity="0.8" fill="#FFFFFF" enable-background="new    " font-family="'TTHaneuleuikkumL'" font-size="24">0</text>
<text transform="matrix(1 0 0 1 90.7839 776.4961)" opacity="0.8" fill="#FFFFFF" enable-background="new    " font-family="'TTHaneuleuikkumL'" font-size="24">0</text>
<text transform="matrix(1 0 0 1 1022.8181 439.5996)" opacity="0.8" fill="#FFFFFF" enable-background="new    " font-family="'TTHaneuleuikkumL'" font-size="24">0</text>
<text transform="matrix(1 0 0 1 700.7258 446.3633)" opacity="0.8" fill="#FFFFFF" enable-background="new    " font-family="'TTHaneuleuikkumL'" font-size="24">0</text>
<text transform="matrix(1 0 0 1 865.7175 40.7148)" opacity="0.8" fill="#FFFFFF" enable-background="new    " font-family="'TTHaneuleuikkumL'" font-size="24">0</text>
<text transform="matrix(1 0 0 1 375.8694 47.5273)" opacity="0.8" fill="#FFFFFF" enable-background="new    " font-family="'TTHaneuleuikkumL'" font-size="24">0</text>
<text transform="matrix(1 0 0 1 1585.1052 469.1904)" opacity="0.8" fill="#FFFFFF" enable-background="new    " font-family="'TTHaneuleuikkumL'" font-size="24">0</text>
<text transform="matrix(1 0 0 1 1490.6091 298)" opacity="0.8" fill="#FFFFFF" enable-background="new    " font-family="'TTHaneuleuikkumL'" font-size="24">0</text>
<text transform="matrix(1 0 0 1 1681.1951 758.0703)" opacity="0.8" fill="#FFFFFF" enable-background="new    " font-family="'TTHaneuleuikkumL'" font-size="24">0</text>
<text transform="matrix(1 0 0 1 1796.4138 1013.7598)" opacity="0.8" fill="#FFFFFF" enable-background="new    " font-family="'TTHaneuleuikkumL'" font-size="24">0</text>
<text transform="matrix(1 0 0 1 1490.6091 884.7656)" opacity="0.8" fill="#FFFFFF" enable-background="new    " font-family="'TTHaneuleuikkumL'" font-size="24">0</text>
<text transform="matrix(1 0 0 1 944.5759 264.4102)" opacity="0.8" fill="#FFFFFF" enable-background="new    " font-family="'TTHaneuleuikkumL'" font-size="24">1</text>
<text transform="matrix(1 0 0 1 854.6184 378.4043)" opacity="0.8" fill="#FFFFFF" enable-background="new    " font-family="'TTHaneuleuikkumL'" font-size="24">1</text>
<text transform="matrix(1 0 0 1 876.8455 539.625)" opacity="0.8" fill="#FFFFFF" enable-background="new    " font-family="'TTHaneuleuikkumL'" font-size="24">1</text>
<text transform="matrix(1 0 0 1 1216.4958 637)" opacity="0.8" fill="#FFFFFF" enable-background="new    " font-family="'TTHaneuleuikkumL'" font-size="24">1</text>
<text transform="matrix(1 0 0 1 1088.5935 134)" opacity="0.8" fill="#FFFFFF" enable-background="new    " font-family="'TTHaneuleuikkumL'" font-size="24">1</text>
<text transform="matrix(1 0 0 1 947.7322 122.7148)" opacity="0.8" fill="#FFFFFF" enable-background="new    " font-family="'TTHaneuleuikkumL'" font-size="24">0</text>
<text transform="matrix(1 0 0 1 1213.5193 495.7607)" opacity="0.8" fill="#FFFFFF" enable-background="new    " font-family="'TTHaneuleuikkumL'" font-size="24">0</text>
<text transform="matrix(1 0 0 1 757.1467 249.4102)" opacity="0.8" fill="#FFFFFF" enable-background="new    " font-family="'TTHaneuleuikkumL'" font-size="24">0</text>
<text transform="matrix(1 0 0 1 90.7839 47.5273)" opacity="0.8" fill="#FFFFFF" enable-background="new    " font-family="'TTHaneuleuikkumL'" font-size="24">0</text>
<text transform="matrix(1 0 0 1 1141.3865 890.7656)" opacity="0.8" fill="#FFFFFF" enable-background="new    " font-family="'TTHaneuleuikkumL'" font-size="24">0</text>
<text transform="matrix(1 0 0 1 1022.8181 632.4893)" opacity="0.8" fill="#FFFFFF" enable-background="new    " font-family="'TTHaneuleuikkumL'" font-size="24">0</text>
<text transform="matrix(1 0 0 1 617.8372 776.4961)" opacity="0.8" fill="#FFFFFF" enable-background="new    " font-family="'TTHaneuleuikkumL'" font-size="24">0</text>
<text transform="matrix(1 0 0 1 1816.2771 89.6055)" opacity="0.8" fill="#FFFFFF" enable-background="new    " font-family="'TTHaneuleuikkumL'" font-size="24">0</text>
<text transform="matrix(1 0 0 1 1576.1052 104.8486)" opacity="0.8" fill="#FFFFFF" enable-background="new    " font-family="'TTHaneuleuikkumL'" font-size="24">0</text>
<text transform="matrix(1 0 0 1 337.1672 274.5215)" opacity="0.8" fill="#FFFFFF" enable-background="new    " font-family="'TTHaneuleuikkumL'" font-size="24">0</text>
<text transform="matrix(1 0 0 1 25.0417 917.9883)" opacity="0.8" fill="#FFFFFF" enable-background="new    " font-family="'TTHaneuleuikkumL'" font-size="24">0</text>
<text transform="matrix(1 0 0 1 987.8689 942)" opacity="0.8" fill="#FFFFFF" enable-background="new    " font-family="'TTHaneuleuikkumL'" font-size="24">0</text>
<text transform="matrix(1 0 0 1 969.8689 1099.2539)" opacity="0.8" fill="#FFFFFF" enable-background="new    " font-family="'TTHaneuleuikkumL'" font-size="24">0</text>
<text transform="matrix(1 0 0 1 1441.1121 1109.0391)" opacity="0.8" fill="#FFFFFF" enable-background="new    " font-family="'TTHaneuleuikkumL'" font-size="24">0</text>
<text transform="matrix(1 0 0 1 163.8694 1099.2539)" opacity="0.8" fill="#FFFFFF" enable-background="new    " font-family="'TTHaneuleuikkumL'" font-size="24">0</text>
<text transform="matrix(1 0 0 1 296.5427 1215.8535)" opacity="0.8" fill="#FFFFFF" enable-background="new    " font-family="'TTHaneuleuikkumL'" font-size="24">0</text>
<text transform="matrix(1 0 0 1 772.1516 1247.7559)" opacity="0.8" fill="#FFFFFF" enable-background="new    " font-family="'TTHaneuleuikkumL'" font-size="24">0</text>
<text transform="matrix(1 0 0 1 787.8694 1049.7578)" opacity="0.8" fill="#FFFFFF" enable-background="new    " font-family="'TTHaneuleuikkumL'" font-size="24">0</text>
<text transform="matrix(1 0 0 1 1213.5193 1240.248)" opacity="0.8" fill="#FFFFFF" enable-background="new    " font-family="'TTHaneuleuikkumL'" font-size="24">0</text>
<text transform="matrix(1 0 0 1 1744.9685 1240.248)" opacity="0.8" fill="#FFFFFF" enable-background="new    " font-family="'TTHaneuleuikkumL'" font-size="24">0</text>
<text transform="matrix(1 0 0 1 1535.613 1195.2578)" opacity="0.8" fill="#FFFFFF" enable-background="new    " font-family="'TTHaneuleuikkumL'" font-size="24">0</text>
<text transform="matrix(1 0 0 1 271.8694 1013.7598)" opacity="0.8" fill="#FFFFFF" enable-background="new    " font-family="'TTHaneuleuikkumL'" font-size="24">0</text>
<text transform="matrix(1 0 0 1 497.5984 1116.5391)" opacity="0.8" fill="#FFFFFF" enable-background="new    " font-family="'TTHaneuleuikkumL'" font-size="24">0</text>
<text transform="matrix(1 0 0 1 485.6599 736.2734)" opacity="0.8" fill="#FFFFFF" enable-background="new    " font-family="'TTHaneuleuikkumL'" font-size="24">0</text>
<text transform="matrix(1 0 0 1 757.1467 592.1367)" opacity="0.8" fill="#FFFFFF" enable-background="new    " font-family="'TTHaneuleuikkumL'" font-size="24">0</text>
<text transform="matrix(1 0 0 1 1306.363 176.5908)" opacity="0.8" fill="#FFFFFF" enable-background="new    " font-family="'TTHaneuleuikkumL'" font-size="24">0</text>
<text transform="matrix(1 0 0 1 1796.4148 467.29)" opacity="0.8" fill="#FFFFFF" enable-background="new    " font-family="'TTHaneuleuikkumL'" font-size="24">0</text>
<text transform="matrix(1 0 0 1 1390.116 467.29)" opacity="0.8" fill="#FFFFFF" enable-background="new    " font-family="'TTHaneuleuikkumL'" font-size="24">0</text>
<text transform="matrix(1 0 0 1 1390.116 707.5957)" opacity="0.8" fill="#FFFFFF" enable-background="new    " font-family="'TTHaneuleuikkumL'" font-size="24">0</text>
<text transform="matrix(1 0 0 1 370.8455 400.2646)" opacity="0.8" fill="#FFFFFF" enable-background="new    " font-family="'TTHaneuleuikkumL'" font-size="24">1</text>
<text transform="matrix(1 0 0 1 193.5862 306.5908)" opacity="0.8" fill="#FFFFFF" enable-background="new    " font-family="'TTHaneuleuikkumL'" font-size="24">1</text>
<text transform="matrix(1 0 0 1 391.5862 176.5908)" opacity="0.8" fill="#FFFFFF" enable-background="new    " font-family="'TTHaneuleuikkumL'" font-size="24">1</text>
<text transform="matrix(1 0 0 1 93.092 416.2646)" opacity="0.8" fill="#FFFFFF" enable-background="new    " font-family="'TTHaneuleuikkumL'" font-size="24">1</text>
<text transform="matrix(1 0 0 1 581.4465 378.4043)" opacity="0.8" fill="#FFFFFF" enable-background="new    " font-family="'TTHaneuleuikkumL'" font-size="24">0</text>
<text transform="matrix(1 0 0 1 190.6096 495.7607)" opacity="0.8" fill="#FFFFFF" enable-background="new    " font-family="'TTHaneuleuikkumL'" font-size="24">0</text>
<text transform="matrix(1 0 0 1 86.4822 234.0938)" opacity="0.8" fill="#FFFFFF" enable-background="new    " font-family="'TTHaneuleuikkumL'" font-size="24">0</text>
<text transform="matrix(1 0 0 1 1249.8699 768)" opacity="0.8" fill="#FFFFFF" enable-background="new    " font-family="'TTHaneuleuikkumL'" font-size="24">0</text>
<text transform="matrix(1 0 0 1 581.4465 1013.7598)" opacity="0.8" fill="#FFFFFF" enable-background="new    " font-family="'TTHaneuleuikkumL'" font-size="24">0</text>
<text transform="matrix(1 0 0 1 1696.3416 1108.041)" opacity="0.8" fill="#FFFFFF" enable-background="new    " font-family="'TTHaneuleuikkumL'" font-size="24">0</text>
<text transform="matrix(1 0 0 1 1167.8689 298)" opacity="0.8" fill="#FFFFFF" enable-background="new    " font-family="'TTHaneuleuikkumL'" font-size="24">0</text>
<text transform="matrix(1 0 0 1 1118.8337 54.8105)" opacity="0.8" fill="#FFFFFF" enable-background="new    " font-family="'TTHaneuleuikkumL'" font-size="24">0</text>
<text transform="matrix(1 0 0 1 669.8694 160.3525)" opacity="0.8" fill="#FFFFFF" enable-background="new    " font-family="'TTHaneuleuikkumL'" font-size="24">0</text>
<text transform="matrix(1 0 0 1 539.8621 234.0938)" opacity="0.8" fill="#FFFFFF" enable-background="new    " font-family="'TTHaneuleuikkumL'" font-size="24">0</text>
<text transform="matrix(1 0 0 1 1704.0408 424.3936)" opacity="0.8" fill="#FFFFFF" enable-background="new    " font-family="'TTHaneuleuikkumL'" font-size="24">0</text>
</svg>
