<?xml version="1.0" encoding="utf-8"?>
<!-- Generator: Adobe Illustrator 16.0.0, SVG Export Plug-In . SVG Version: 6.00 Build 0)  -->
<!DOCTYPE svg PUBLIC "-//W3C//DTD SVG 1.1//EN" "http://www.w3.org/Graphics/SVG/1.1/DTD/svg11.dtd">
<svg version="1.1" id="Layer_1" xmlns="http://www.w3.org/2000/svg" xmlns:xlink="http://www.w3.org/1999/xlink" x="0px" y="0px"
	 width="1965.385px" height="1370px" viewBox="0 0 1965.385 1370" enable-background="new 0 0 1965.385 1370" xml:space="preserve">
<g>
	<polygon fill="none" points="0,468.498 577.05,469.372 577.948,511.099 658.52,511.099 660.86,552.807 740.297,554.365 
		740.918,596.301 821.752,597.148 822.843,638.902 904.765,638.902 904.765,680.977 985.815,680.977 985.815,723.317 
		1066.781,723.317 1066.781,766.706 1149.029,766.706 1149.029,810.097 1230.484,810.097 1230.484,851.383 1312.394,851.383 
		1312.394,894.508 1393.62,894.508 1393.62,937.106 1476.479,937.106 1476.479,978.921 1556.555,978.921 1556.555,1021.521 
		1638.786,1021.521 1638.786,1064.886 1720.238,1064.886 1720.238,1107.516 1801.638,1107.516 1801.638,1148.79 1885.268,1148.79 
		1885.268,1192.713 1965.385,1192.713 1965.385,1277.971 0,1277.971 	"/>
	<g>
		<g>
			<path fill="#231F20" d="M0,511.149l133.141-0.507l133.143-0.271l133.141-0.104l133.144,0.067h0.91l-0.007,0.813l-0.034,5.325
				l-0.045,5.324l-0.203,10.651l-0.101,5.323c-0.025,1.775-0.11,3.551-0.163,5.326l-0.36,10.65l-0.359-10.65
				c-0.053-1.774-0.138-3.55-0.163-5.326l-0.102-5.323l-0.202-10.651l-0.046-5.324l-0.031-5.325l0.905,0.813l-133.143,0.067
				l-133.141-0.103l-133.142-0.271L0,511.149z"/>
		</g>
		<g>
			<path fill="#231F20" d="M532.565,553.75c6.826-0.125,13.653-0.208,20.479-0.289c6.823-0.084,13.65-0.18,20.479-0.217l20.48-0.154
				c6.823-0.052,13.65-0.113,20.479-0.116h0.862l0.002,0.777l0.132,42.602l0.004,0.894l-1,0.002l-0.877,0.002v-1.796l40.962,0.103
				c6.827,0.026,13.653,0.014,20.479,0.081l20.479,0.157l0.626,0.004l-0.005,0.553l-0.102,10.65l-0.15,10.65
				c-0.112,7.1-0.207,14.201-0.369,21.301c-0.164-7.1-0.258-14.201-0.369-21.301l-0.147-10.65l-0.104-10.65l0.621,0.558
				l-20.48,0.157c-6.824,0.067-13.651,0.055-20.479,0.08l-40.961,0.104v-1.796l0.877,0.001l-0.998,0.896l0.132-42.602l0.864,0.777
				c-6.826-0.002-13.653-0.064-20.479-0.116l-20.479-0.155c-6.826-0.038-13.653-0.133-20.479-0.217
				C546.219,553.957,539.391,553.875,532.565,553.75z"/>
		</g>
		<g>
			<path fill="#231F20" d="M695.533,638.952c3.414-0.126,6.827-0.208,10.24-0.291c3.413-0.085,6.826-0.176,10.24-0.229
				c6.827-0.13,13.653-0.212,20.479-0.27c6.827-0.066,13.653-0.089,20.48-0.102l10.24,0.01l10.237,0.039l0.946,0.003l-0.01,0.839
				l-0.109,10.649l-0.184,10.65c-0.078,3.55-0.152,7.1-0.273,10.65c-0.111,3.551-0.206,7.1-0.369,10.649
				c-0.164-3.55-0.26-7.099-0.37-10.649c-0.123-3.551-0.194-7.101-0.271-10.65l-0.186-10.65l-0.107-10.649l0.938,0.842
				l-10.239,0.039l-10.239,0.009c-6.826-0.012-13.653-0.034-20.48-0.101c-6.826-0.059-13.65-0.142-20.479-0.271
				c-3.414-0.052-6.827-0.143-10.241-0.228C702.36,639.16,698.948,639.078,695.533,638.952z"/>
		</g>
		<g>
			<polygon fill="#231F20" points="777.458,681.553 859.383,681.185 859.788,681.183 859.789,681.553 859.966,724.153 
				859.968,724.675 859.383,724.678 858.507,724.68 858.507,723.628 940.428,723.422 941.241,723.418 941.242,724.153 
				941.306,766.756 941.308,767.544 940.428,767.544 940.427,767.544 940.427,765.968 1022.351,765.898 1023.306,765.896 
				1023.307,766.756 1023.35,809.357 1022.351,808.46 1104.273,808.527 1105.199,808.527 1105.198,809.357 1105.154,851.958 
				1105.153,852.75 1104.273,852.748 1103.397,852.747 1103.397,851.168 1185.319,851.313 1186.042,851.313 1186.038,851.958 
				1185.905,894.559 1185.319,894.034 1267.243,894.344 1267.483,894.345 1267.482,894.559 1267.243,937.16 1267.008,894.559 
				1267.243,894.773 1185.319,895.084 1184.737,895.086 1184.735,894.559 1184.601,851.958 1185.319,852.604 1103.397,852.747 
				1103.397,851.168 1104.273,851.168 1103.394,851.958 1103.349,809.357 1104.273,810.188 1022.351,810.254 1021.351,810.255 
				1021.352,809.357 1021.395,766.756 1022.351,767.613 940.427,767.544 940.427,765.968 940.428,765.968 939.552,766.756 
				939.612,724.153 940.428,724.887 858.507,724.68 858.507,723.628 859.383,723.631 858.801,724.153 858.971,681.553 
				859.383,681.921 			"/>
		</g>
		<g>
			<path fill="#231F20" d="M1267.242,937.159c3.412-0.128,6.826-0.208,10.239-0.29c3.414-0.085,6.827-0.177,10.241-0.229
				c6.826-0.131,13.653-0.214,20.479-0.271c6.827-0.066,13.653-0.092,20.479-0.102l10.241,0.01l10.236,0.039l0.945,0.004
				l-0.009,0.842l-0.109,10.646l-0.184,10.65c-0.078,3.55-0.15,7.101-0.273,10.649c-0.109,3.549-0.206,7.097-0.37,10.646
				c-0.161-3.551-0.258-7.097-0.366-10.646c-0.123-3.55-0.196-7.101-0.274-10.649l-0.183-10.65l-0.11-10.646l0.938,0.842
				l-10.237,0.038l-10.241,0.011c-6.826-0.013-13.652-0.031-20.479-0.099c-6.826-0.06-13.651-0.142-20.479-0.271
				c-3.414-0.056-6.827-0.144-10.24-0.229C1274.071,937.368,1270.656,937.285,1267.242,937.159z"/>
		</g>
		<g>
			<polygon fill="#231F20" points="1348.292,979.761 1389.251,979.386 1430.216,979.149 1430.89,979.146 1430.893,979.761 
				1431.026,1001.063 1431.094,1022.361 1430.216,1021.573 1471.177,1021.504 1491.655,1021.47 1512.137,1021.491 
				1513.107,1021.492 1513.105,1022.361 1513.016,1064.961 1512.137,1064.172 1532.617,1064.209 1553.099,1064.314 
				1594.062,1064.53 1594.55,1064.532 1594.542,1064.961 1594.062,1107.564 1593.581,1064.961 1594.062,1065.393 1553.099,1065.608 
				1532.617,1065.713 1512.137,1065.751 1511.26,1065.753 1511.26,1064.961 1511.167,1022.361 1512.137,1023.231 1491.655,1023.253 
				1471.177,1023.219 1430.216,1023.149 1429.331,1023.148 1429.338,1022.361 1429.397,1001.063 1429.531,979.761 1430.216,980.372 
				1389.251,980.137 			"/>
		</g>
		<g>
			<path fill="#231F20" d="M1593.183,1107.564c3.413-0.125,6.827-0.207,10.24-0.288c3.414-0.089,6.826-0.177,10.236-0.229
				c6.827-0.132,13.654-0.213,20.481-0.272c6.826-0.065,13.651-0.087,20.479-0.098l10.241,0.011l10.24,0.037l0.943,0.004
				l-0.011,0.84l-0.106,10.649l-0.187,10.65c-0.077,3.551-0.149,7.102-0.271,10.649c-0.111,3.548-0.205,7.099-0.369,10.648
				c-0.164-3.551-0.26-7.102-0.37-10.648c-0.123-3.549-0.196-7.1-0.274-10.649l-0.183-10.65l-0.11-10.649l0.938,0.842l-10.24,0.039
				l-10.241,0.009c-6.826-0.011-13.649-0.034-20.479-0.097c-6.827-0.06-13.654-0.143-20.481-0.274
				c-3.411-0.052-6.823-0.142-10.237-0.229C1600.01,1107.771,1596.596,1107.689,1593.183,1107.564z"/>
		</g>
		<g>
			<path fill="#231F20" d="M1675.106,1150.168c3.413-0.125,6.826-0.205,10.239-0.291c3.414-0.085,6.827-0.172,10.238-0.229
				c6.825-0.13,13.652-0.214,20.479-0.271c6.826-0.067,13.653-0.088,20.479-0.101l10.239,0.01l10.24,0.041l0.945,0.004l-0.013,0.838
				l-0.105,10.649l-0.188,10.646c-0.076,3.551-0.147,7.101-0.271,10.649c-0.112,3.55-0.206,7.101-0.37,10.649
				c-0.164-3.55-0.258-7.101-0.37-10.649c-0.122-3.55-0.196-7.101-0.271-10.649l-0.186-10.646l-0.108-10.649l0.938,0.843
				l-10.24,0.039l-10.239,0.009c-6.824-0.011-13.65-0.032-20.479-0.101c-6.827-0.056-13.654-0.139-20.479-0.271
				c-3.411-0.053-6.824-0.145-10.238-0.229S1678.52,1150.294,1675.106,1150.168z"/>
		</g>
		<g>
			<path fill="#231F20" d="M1757.029,1192.766c3.413-0.128,6.827-0.207,10.24-0.29c3.412-0.085,6.826-0.176,10.239-0.228
				c6.827-0.132,13.649-0.214,20.479-0.272c6.827-0.064,13.652-0.09,20.479-0.099l10.24,0.009l10.236,0.038l0.946,0.004l-0.01,0.842
				l-0.109,10.647l-0.184,10.65c-0.078,3.549-0.15,7.1-0.273,10.648c-0.11,3.55-0.206,7.099-0.37,10.646
				c-0.162-3.549-0.258-7.098-0.367-10.646c-0.123-3.55-0.195-7.101-0.273-10.648l-0.184-10.65l-0.109-10.647l0.938,0.843
				l-10.237,0.039l-10.239,0.011c-6.826-0.013-13.652-0.032-20.479-0.1c-6.826-0.059-13.651-0.142-20.479-0.271
				c-3.413-0.055-6.827-0.143-10.239-0.229C1763.857,1192.975,1760.443,1192.893,1757.029,1192.766z"/>
		</g>
		<g>
			<path fill="#231F20" d="M1838.079,1235.367c3.413-0.125,6.827-0.205,10.24-0.288c3.413-0.087,6.827-0.175,10.24-0.229
				c6.826-0.131,13.65-0.211,20.479-0.271c6.827-0.065,13.653-0.088,20.48-0.097l10.239,0.009l10.236,0.038l0.946,0.004l-0.009,0.84
				l-0.11,10.648l-0.183,10.651c-0.078,3.549-0.151,7.099-0.274,10.646c-0.109,3.551-0.206,7.101-0.37,10.649
				c-0.161-3.55-0.258-7.1-0.368-10.649c-0.123-3.55-0.195-7.099-0.272-10.646l-0.187-10.649l-0.108-10.65l0.938,0.842
				l-10.236,0.039l-10.239,0.009c-6.827-0.011-13.653-0.032-20.48-0.098c-6.824-0.058-13.649-0.14-20.479-0.273
				c-3.413-0.052-6.827-0.141-10.24-0.228C1844.905,1235.576,1841.49,1235.493,1838.079,1235.367z"/>
		</g>
	</g>
	<g>
		<g>
			<path fill="#231F20" d="M0,470.725l178.523-0.506l133.143-0.27l133.141-0.104l133.143,0.068h0.91l-0.006,0.812l-0.034,5.326
				l-0.045,5.324l-0.203,10.65l-0.101,5.323c-0.025,1.775-0.11,3.552-0.163,5.326l-0.36,10.65l-0.357-10.65
				c-0.055-1.774-0.14-3.55-0.163-5.326l-0.104-5.323l-0.202-10.65l-0.046-5.324l-0.031-5.326l0.905,0.813l-133.143,0.068
				l-133.141-0.104l-133.143-0.271L0,470.725z"/>
		</g>
		<g>
			<path fill="#231F20" d="M577.948,513.325c6.826-0.125,13.653-0.207,20.479-0.289c6.825-0.085,13.65-0.18,20.479-0.218
				l20.48-0.154c6.825-0.052,13.65-0.113,20.479-0.116h0.862l0.002,0.777l0.132,42.602l0.004,0.895l-1,0.001l-0.877,0.002v-1.796
				l40.962,0.103c6.827,0.026,13.653,0.013,20.479,0.081l20.479,0.156l0.626,0.004l-0.005,0.553l-0.099,10.65l-0.15,10.649
				c-0.112,7.101-0.207,14.201-0.369,21.301c-0.164-7.101-0.258-14.201-0.369-21.301l-0.147-10.649l-0.104-10.65l0.621,0.558
				l-20.479,0.156c-6.826,0.068-13.653,0.056-20.479,0.081l-40.961,0.104v-1.796l0.877,0.002l-0.998,0.896l0.13-42.602l0.864,0.776
				c-6.826-0.003-13.651-0.063-20.479-0.116l-20.479-0.153c-6.826-0.038-13.651-0.133-20.479-0.217
				C591.603,513.533,584.775,513.45,577.948,513.325z"/>
		</g>
		<g>
			<path fill="#231F20" d="M740.918,598.528c3.413-0.126,6.825-0.208,10.238-0.29c3.413-0.086,6.826-0.176,10.24-0.229
				c6.827-0.13,13.653-0.213,20.479-0.27c6.825-0.067,13.651-0.089,20.479-0.102l10.24,0.009l10.239,0.039l0.944,0.004l-0.01,0.839
				l-0.109,10.649l-0.184,10.65c-0.078,3.551-0.152,7.1-0.273,10.65c-0.109,3.55-0.206,7.1-0.369,10.649
				c-0.163-3.55-0.26-7.1-0.368-10.649c-0.123-3.552-0.196-7.101-0.273-10.65l-0.184-10.65l-0.109-10.649l0.938,0.842l-10.239,0.039
				l-10.24,0.009c-6.826-0.012-13.653-0.034-20.479-0.102c-6.825-0.057-13.651-0.141-20.479-0.27
				c-3.414-0.052-6.827-0.143-10.241-0.229C747.742,598.736,744.33,598.654,740.918,598.528z"/>
		</g>
		<g>
			<polygon fill="#231F20" points="822.843,641.128 904.765,640.761 905.173,640.759 905.174,641.128 905.348,683.729 
				905.35,684.251 904.765,684.253 903.889,684.255 903.889,683.204 985.815,682.997 986.629,682.995 986.631,683.729 
				986.692,726.331 986.694,727.12 985.815,727.12 985.813,727.12 985.813,725.544 1067.737,725.474 1068.692,725.474 
				1068.694,726.331 1068.737,768.933 1067.737,768.035 1149.658,768.104 1150.588,768.104 1150.586,768.933 1150.54,811.534 
				1150.54,812.325 1149.658,812.324 1148.783,812.323 1148.783,810.744 1230.706,810.888 1231.428,810.89 1231.426,811.534 
				1231.292,854.135 1230.706,853.609 1312.631,853.92 1312.869,853.921 1312.867,854.135 1312.631,896.735 1312.393,854.135 
				1312.631,854.35 1230.706,854.66 1230.124,854.662 1230.121,854.135 1229.987,811.534 1230.706,812.18 1148.783,812.323 
				1148.783,810.744 1149.658,810.744 1148.78,811.534 1148.735,768.933 1149.658,769.763 1067.737,769.829 1066.737,769.83 
				1066.739,768.933 1066.781,726.331 1067.737,727.188 985.813,727.12 985.813,725.544 985.815,725.544 984.936,726.331 
				984.999,683.729 985.815,684.462 903.889,684.255 903.889,683.204 904.765,683.207 904.183,683.729 904.355,641.128 
				904.765,641.497 			"/>
		</g>
		<g>
			<path fill="#231F20" d="M1312.631,896.735c3.411-0.128,6.825-0.208,10.236-0.291c3.414-0.084,6.828-0.176,10.242-0.229
				c6.826-0.13,13.652-0.213,20.479-0.27c6.826-0.066,13.65-0.092,20.479-0.101l10.242,0.009l10.238,0.039l0.943,0.004l-0.01,0.841
				l-0.109,10.647l-0.184,10.65c-0.078,3.549-0.15,7.099-0.271,10.646c-0.111,3.551-0.205,7.099-0.369,10.649
				c-0.164-3.552-0.26-7.098-0.369-10.649c-0.123-3.549-0.195-7.099-0.273-10.646l-0.184-10.65l-0.109-10.647l0.938,0.843
				l-10.238,0.038l-10.242,0.011c-6.826-0.013-13.65-0.031-20.479-0.099c-6.828-0.06-13.652-0.142-20.479-0.271
				c-3.414-0.055-6.828-0.142-10.24-0.229C1319.458,896.944,1316.045,896.861,1312.631,896.735z"/>
		</g>
		<g>
			<polygon fill="#231F20" points="1393.678,939.337 1434.637,938.962 1475.6,938.726 1476.276,938.722 1476.28,939.337 
				1476.412,960.637 1476.479,981.938 1475.6,981.148 1516.563,981.08 1537.042,981.045 1557.524,981.067 1558.492,981.067 
				1558.49,981.938 1558.403,1024.537 1557.524,1023.748 1578.006,1023.785 1598.485,1023.891 1639.448,1024.105 1639.934,1024.107 
				1639.928,1024.537 1639.448,1067.142 1638.969,1024.537 1639.448,1024.969 1598.485,1025.186 1578.006,1025.288 
				1557.524,1025.327 1556.647,1025.328 1556.645,1024.537 1556.553,981.938 1557.524,982.808 1537.042,982.828 1516.563,982.795 
				1475.6,982.725 1474.719,982.725 1474.723,981.938 1474.783,960.637 1474.92,939.337 1475.6,939.947 1434.637,939.713 			"/>
		</g>
		<g>
			<path fill="#231F20" d="M1638.569,1067.14c3.414-0.125,6.828-0.206,10.24-0.288c3.414-0.088,6.826-0.175,10.238-0.229
				c6.827-0.13,13.652-0.212,20.48-0.271c6.826-0.066,13.652-0.089,20.479-0.099l10.238,0.011l10.24,0.038l0.945,0.005l-0.01,0.838
				l-0.109,10.65l-0.184,10.65c-0.078,3.551-0.15,7.101-0.273,10.647c-0.111,3.55-0.205,7.102-0.369,10.65
				c-0.164-3.55-0.258-7.101-0.369-10.65c-0.123-3.548-0.195-7.098-0.273-10.647l-0.184-10.65l-0.109-10.65l0.938,0.844
				l-10.24,0.039l-10.24,0.009c-6.826-0.011-13.65-0.033-20.479-0.097c-6.826-0.06-13.654-0.144-20.479-0.273
				c-3.412-0.053-6.826-0.143-10.238-0.229C1645.397,1067.348,1641.983,1067.266,1638.569,1067.14z"/>
		</g>
		<g>
			<path fill="#231F20" d="M1720.492,1109.743c3.412-0.126,6.826-0.206,10.238-0.289c3.414-0.086,6.828-0.174,10.238-0.229
				c6.828-0.131,13.654-0.214,20.48-0.271c6.826-0.064,13.652-0.088,20.479-0.1l10.24,0.011l10.238,0.04l0.945,0.004l-0.01,0.839
				l-0.107,10.648l-0.186,10.646c-0.078,3.55-0.15,7.103-0.271,10.65c-0.113,3.549-0.207,7.099-0.371,10.647
				c-0.164-3.55-0.258-7.1-0.369-10.647c-0.123-3.549-0.195-7.102-0.271-10.65l-0.184-10.646l-0.109-10.648l0.938,0.842
				l-10.239,0.039l-10.24,0.011c-6.824-0.013-13.65-0.033-20.479-0.102c-6.826-0.057-13.653-0.138-20.479-0.27
				c-3.412-0.055-6.824-0.145-10.238-0.229C1727.321,1109.952,1723.906,1109.869,1720.492,1109.743z"/>
		</g>
		<g>
			<path fill="#231F20" d="M1802.415,1152.342c3.413-0.127,6.827-0.206,10.239-0.29c3.412-0.086,6.826-0.176,10.24-0.228
				c6.826-0.131,13.65-0.213,20.479-0.271c6.824-0.066,13.65-0.09,20.479-0.101l10.24,0.01l10.238,0.039l0.945,0.003l-0.01,0.842
				l-0.109,10.647l-0.184,10.649c-0.078,3.55-0.15,7.101-0.271,10.649c-0.113,3.55-0.207,7.099-0.371,10.646
				c-0.164-3.55-0.26-7.098-0.369-10.646c-0.123-3.55-0.195-7.101-0.273-10.649l-0.184-10.649l-0.109-10.647l0.938,0.844
				l-10.238,0.039l-10.24,0.01c-6.826-0.012-13.65-0.033-20.479-0.101c-6.826-0.057-13.652-0.14-20.479-0.271
				c-3.414-0.054-6.828-0.145-10.24-0.229C1809.242,1152.55,1805.828,1152.468,1802.415,1152.342z"/>
		</g>
		<g>
			<path fill="#231F20" d="M1883.467,1194.943c3.414-0.125,6.828-0.206,10.239-0.289c3.413-0.086,6.827-0.176,10.239-0.23
				c6.826-0.13,13.65-0.21,20.479-0.27c6.828-0.066,13.652-0.089,20.479-0.1l10.24,0.01l10.238,0.039l0.943,0.003l-0.008,0.841
				l-0.111,10.65l-0.182,10.649c-0.078,3.549-0.152,7.099-0.275,10.646c-0.109,3.551-0.204,7.101-0.368,10.65
				c-0.163-3.551-0.259-7.101-0.37-10.652c-0.123-3.548-0.195-7.097-0.271-10.646l-0.188-10.649l-0.107-10.649l0.938,0.843
				l-10.238,0.039l-10.24,0.009c-6.826-0.012-13.651-0.033-20.479-0.099c-6.825-0.058-13.649-0.141-20.479-0.273
				c-3.412-0.052-6.826-0.14-10.24-0.228C1890.292,1195.152,1886.879,1195.069,1883.467,1194.943z"/>
		</g>
	</g>
	<g>
		<g>
			<path fill="#231F20" d="M532.563,553.75c0,0,0.679-0.654,1.866-1.798c1.202-1.13,2.892-2.772,4.97-4.695
				c2.081-1.921,4.479-4.189,7.104-6.571c2.622-2.382,5.421-4.922,8.219-7.464c2.83-2.512,5.659-5.024,8.312-7.38
				c2.649-2.357,5.181-4.508,7.318-6.377c2.142-1.867,3.971-3.382,5.229-4.463c1.275-1.066,2.004-1.675,2.004-1.675
				s-0.679,0.654-1.865,1.798c-1.203,1.131-2.893,2.773-4.972,4.696c-2.081,1.92-4.477,4.19-7.103,6.57
				c-2.623,2.383-5.421,4.923-8.219,7.464c-2.83,2.513-5.66,5.023-8.313,7.38c-2.65,2.356-5.179,4.508-7.316,6.377
				c-2.144,1.866-3.972,3.383-5.229,4.463C533.293,553.14,532.563,553.75,532.563,553.75z"/>
		</g>
		<g>
			<path fill="#231F20" d="M532.563,511.542c0,0,0.679-0.655,1.866-1.799c1.202-1.131,2.892-2.771,4.97-4.695
				c2.081-1.922,4.479-4.19,7.104-6.571c2.622-2.383,5.421-4.922,8.219-7.464c2.83-2.513,5.659-5.024,8.312-7.38
				c2.649-2.357,5.181-4.508,7.318-6.378c2.142-1.867,3.971-3.383,5.229-4.462c1.275-1.067,2.004-1.676,2.004-1.676
				s-0.679,0.654-1.865,1.798c-1.203,1.131-2.893,2.772-4.972,4.696c-2.081,1.921-4.477,4.19-7.103,6.57
				c-2.623,2.383-5.421,4.924-8.219,7.465c-2.83,2.511-5.66,5.022-8.313,7.379c-2.65,2.356-5.179,4.508-7.316,6.378
				c-2.144,1.865-3.972,3.383-5.229,4.462C533.293,510.933,532.563,511.542,532.563,511.542z"/>
		</g>
		<g>
			<path fill="#231F20" d="M614.359,553.75c0,0,0.679-0.654,1.866-1.798c1.202-1.13,2.892-2.772,4.97-4.695
				c2.081-1.921,4.479-4.189,7.104-6.571c2.623-2.382,5.421-4.922,8.219-7.464c2.83-2.512,5.659-5.024,8.312-7.38
				c2.649-2.357,5.181-4.508,7.318-6.377c2.142-1.867,3.971-3.382,5.23-4.463c1.273-1.066,2.003-1.675,2.003-1.675
				s-0.68,0.654-1.866,1.798c-1.203,1.131-2.893,2.773-4.972,4.696c-2.08,1.92-4.477,4.19-7.103,6.57
				c-2.623,2.383-5.421,4.923-8.219,7.464c-2.83,2.513-5.66,5.023-8.313,7.38c-2.649,2.356-5.179,4.508-7.316,6.377
				c-2.144,1.866-3.972,3.383-5.229,4.463C615.089,553.14,614.359,553.75,614.359,553.75z"/>
		</g>
	</g>
	<g>
		<g>
			<path fill="#231F20" d="M614.194,596.375c0,0,0.679-0.654,1.866-1.798c1.202-1.131,2.892-2.772,4.97-4.695
				c2.081-1.921,4.479-4.189,7.104-6.571c2.623-2.382,5.421-4.923,8.219-7.465c2.83-2.512,5.659-5.023,8.312-7.379
				c2.649-2.357,5.181-4.509,7.318-6.378c2.143-1.867,3.971-3.383,5.229-4.463c1.274-1.066,2.004-1.675,2.004-1.675
				s-0.68,0.654-1.866,1.798c-1.203,1.131-2.893,2.771-4.97,4.696c-2.082,1.92-4.479,4.19-7.104,6.57
				c-2.623,2.383-5.421,4.922-8.219,7.463c-2.83,2.514-5.66,5.024-8.313,7.38c-2.649,2.356-5.179,4.508-7.316,6.377
				c-2.145,1.866-3.972,3.383-5.23,4.463C614.923,595.766,614.194,596.375,614.194,596.375z"/>
		</g>
		<g>
			<path fill="#231F20" d="M695.99,596.375c0,0,0.681-0.654,1.866-1.798c1.202-1.131,2.892-2.772,4.97-4.695
				c2.081-1.921,4.479-4.189,7.104-6.571c2.623-2.382,5.421-4.923,8.219-7.465c2.83-2.512,5.659-5.023,8.313-7.379
				c2.648-2.357,5.18-4.509,7.317-6.378c2.144-1.867,3.972-3.383,5.23-4.463c1.273-1.066,2.003-1.675,2.003-1.675
				s-0.68,0.654-1.866,1.798c-1.203,1.131-2.891,2.771-4.97,4.696c-2.082,1.92-4.479,4.19-7.104,6.57
				c-2.623,2.383-5.421,4.922-8.219,7.463c-2.83,2.514-5.66,5.024-8.313,7.38c-2.649,2.356-5.179,4.508-7.316,6.377
				c-2.145,1.866-3.97,3.383-5.23,4.463C696.719,595.766,695.99,596.375,695.99,596.375z"/>
		</g>
	</g>
	<g>
		<g>
			<path fill="#231F20" d="M695.823,639.001c0,0,0.681-0.654,1.866-1.799c1.202-1.131,2.893-2.772,4.97-4.695
				c2.081-1.921,4.479-4.19,7.104-6.571c2.623-2.382,5.421-4.922,8.219-7.464c2.83-2.512,5.659-5.023,8.313-7.379
				c2.647-2.357,5.179-4.509,7.316-6.378c2.144-1.867,3.971-3.384,5.23-4.463c1.273-1.067,2.003-1.675,2.003-1.675
				s-0.68,0.653-1.866,1.798c-1.203,1.13-2.893,2.771-4.97,4.696c-2.082,1.92-4.479,4.19-7.104,6.57
				c-2.623,2.382-5.421,4.922-8.219,7.463c-2.83,2.512-5.66,5.024-8.313,7.38c-2.649,2.356-5.179,4.508-7.316,6.377
				c-2.145,1.865-3.972,3.383-5.23,4.463C696.552,638.392,695.823,639.001,695.823,639.001z"/>
		</g>
		<g>
			<path fill="#231F20" d="M777.618,639.001c0,0,0.681-0.654,1.866-1.799c1.202-1.131,2.894-2.772,4.97-4.695
				c2.081-1.921,4.479-4.19,7.104-6.571c2.623-2.382,5.421-4.922,8.219-7.464c2.83-2.512,5.659-5.023,8.313-7.379
				c2.647-2.357,5.179-4.509,7.316-6.378c2.144-1.867,3.973-3.384,5.23-4.463c1.273-1.067,2.003-1.675,2.003-1.675
				s-0.678,0.653-1.866,1.798c-1.203,1.13-2.891,2.771-4.97,4.696c-2.082,1.92-4.479,4.19-7.104,6.57
				c-2.623,2.382-5.421,4.922-8.219,7.463c-2.83,2.512-5.66,5.024-8.313,7.38c-2.65,2.356-5.18,4.508-7.317,6.377
				c-2.145,1.865-3.97,3.383-5.23,4.463C778.348,638.392,777.618,639.001,777.618,639.001z"/>
		</g>
	</g>
	<g>
		<g>
			<path fill="#231F20" d="M777.453,681.627c0,0,0.681-0.655,1.866-1.8c1.202-1.131,2.894-2.771,4.97-4.694
				c2.081-1.922,4.479-4.19,7.104-6.57c2.623-2.383,5.421-4.923,8.219-7.465c2.83-2.513,5.659-5.024,8.313-7.38
				c2.647-2.357,5.179-4.508,7.316-6.378c2.144-1.867,3.973-3.383,5.23-4.462c1.273-1.066,2.003-1.676,2.003-1.676
				s-0.678,0.655-1.866,1.798c-1.203,1.131-2.891,2.773-4.97,4.696c-2.082,1.921-4.479,4.191-7.104,6.57
				c-2.623,2.383-5.421,4.923-8.219,7.464c-2.83,2.511-5.659,5.022-8.313,7.379c-2.651,2.356-5.181,4.508-7.318,6.377
				c-2.143,1.866-3.97,3.384-5.229,4.463C778.182,681.018,777.453,681.627,777.453,681.627z"/>
		</g>
		<g>
			<path fill="#231F20" d="M859.249,681.627c0,0,0.681-0.655,1.866-1.8c1.202-1.131,2.894-2.771,4.972-4.694
				c2.081-1.922,4.478-4.19,7.102-6.57c2.623-2.383,5.421-4.923,8.219-7.465c2.83-2.513,5.659-5.024,8.313-7.38
				c2.647-2.357,5.179-4.508,7.316-6.378c2.144-1.867,3.973-3.383,5.23-4.462c1.275-1.066,2.003-1.676,2.003-1.676
				s-0.678,0.655-1.866,1.798c-1.203,1.131-2.891,2.773-4.97,4.696c-2.082,1.921-4.479,4.191-7.104,6.57
				c-2.622,2.383-5.421,4.923-8.219,7.464c-2.83,2.511-5.659,5.022-8.313,7.379c-2.651,2.356-5.181,4.508-7.318,6.377
				c-2.142,1.866-3.97,3.384-5.229,4.463C859.978,681.018,859.249,681.627,859.249,681.627z"/>
		</g>
	</g>
	<g>
		<g>
			<path fill="#231F20" d="M859.083,724.252c0,0,0.681-0.654,1.866-1.798c1.202-1.132,2.894-2.772,4.972-4.695
				c2.081-1.922,4.478-4.19,7.102-6.57c2.623-2.383,5.421-4.924,8.219-7.466c2.83-2.512,5.659-5.023,8.313-7.379
				c2.647-2.357,5.179-4.509,7.316-6.378c2.144-1.868,3.973-3.384,5.23-4.463c1.275-1.067,2.003-1.675,2.003-1.675
				s-0.678,0.654-1.866,1.797c-1.203,1.132-2.891,2.771-4.97,4.697c-2.082,1.92-4.479,4.19-7.104,6.569
				c-2.622,2.383-5.421,4.923-8.219,7.465c-2.83,2.512-5.659,5.022-8.313,7.379c-2.651,2.355-5.181,4.509-7.318,6.378
				c-2.142,1.866-3.97,3.383-5.229,4.463C859.812,723.643,859.083,724.252,859.083,724.252z"/>
		</g>
		<g>
			<path fill="#231F20" d="M940.881,724.252c0,0,0.679-0.654,1.864-1.798c1.202-1.132,2.894-2.772,4.972-4.695
				c2.081-1.922,4.478-4.19,7.102-6.57c2.623-2.383,5.421-4.924,8.219-7.466c2.829-2.512,5.659-5.023,8.313-7.379
				c2.65-2.357,5.179-4.509,7.318-6.378c2.142-1.868,3.971-3.384,5.229-4.463c1.274-1.067,2.003-1.675,2.003-1.675
				s-0.679,0.654-1.865,1.797c-1.203,1.132-2.892,2.771-4.971,4.697c-2.081,1.92-4.476,4.19-7.104,6.569
				c-2.621,2.383-5.421,4.923-8.219,7.465c-2.83,2.512-5.659,5.022-8.313,7.379c-2.651,2.355-5.181,4.509-7.318,6.378
				c-2.142,1.866-3.97,3.383-5.229,4.463C941.608,723.643,940.881,724.252,940.881,724.252z"/>
		</g>
	</g>
	<g>
		<g>
			<path fill="#231F20" d="M940.715,766.878c0,0,0.679-0.654,1.864-1.799c1.202-1.13,2.894-2.771,4.972-4.695
				c2.081-1.92,4.478-4.188,7.103-6.569c2.623-2.384,5.42-4.923,8.219-7.466c2.829-2.512,5.659-5.023,8.313-7.38
				c2.649-2.356,5.179-4.508,7.318-6.377c2.142-1.867,3.971-3.383,5.229-4.463c1.274-1.067,2.003-1.676,2.003-1.676
				s-0.679,0.654-1.865,1.799c-1.201,1.13-2.892,2.771-4.971,4.696c-2.081,1.92-4.476,4.19-7.103,6.569
				c-2.623,2.383-5.423,4.922-8.221,7.463c-2.83,2.515-5.658,5.024-8.313,7.381c-2.652,2.356-5.179,4.508-7.318,6.378
				c-2.143,1.864-3.97,3.384-5.229,4.462C941.443,766.27,940.715,766.878,940.715,766.878z"/>
		</g>
		<g>
			<path fill="#231F20" d="M1022.51,766.878c0,0,0.679-0.654,1.866-1.799c1.2-1.13,2.892-2.771,4.97-4.695
				c2.081-1.92,4.479-4.188,7.103-6.569c2.623-2.384,5.421-4.923,8.219-7.466c2.829-2.512,5.659-5.023,8.313-7.38
				c2.65-2.356,5.179-4.508,7.318-6.377c2.142-1.867,3.971-3.383,5.229-4.463c1.274-1.067,2.003-1.676,2.003-1.676
				s-0.679,0.654-1.865,1.799c-1.201,1.13-2.892,2.771-4.971,4.696c-2.081,1.92-4.476,4.19-7.103,6.569
				c-2.623,2.383-5.421,4.922-8.22,7.463c-2.829,2.515-5.658,5.024-8.313,7.381c-2.651,2.356-5.179,4.508-7.318,6.378
				c-2.143,1.864-3.97,3.384-5.229,4.462C1023.239,766.27,1022.51,766.878,1022.51,766.878z"/>
		</g>
	</g>
	<g>
		<g>
			<path fill="#231F20" d="M1022.344,809.504c0,0,0.679-0.654,1.866-1.798c1.2-1.132,2.892-2.772,4.97-4.696
				c2.081-1.921,4.479-4.189,7.103-6.57c2.623-2.381,5.421-4.922,8.219-7.465c2.829-2.512,5.659-5.023,8.313-7.379
				c2.65-2.357,5.179-4.51,7.318-6.379c2.142-1.866,3.971-3.382,5.229-4.462c1.274-1.066,2.003-1.676,2.003-1.676
				s-0.679,0.654-1.865,1.798c-1.201,1.131-2.892,2.773-4.971,4.697c-2.081,1.92-4.476,4.19-7.103,6.57
				c-2.623,2.382-5.421,4.923-8.22,7.464c-2.829,2.512-5.658,5.022-8.313,7.379c-2.651,2.355-5.179,4.509-7.318,6.378
				c-2.143,1.865-3.97,3.383-5.229,4.463C1023.073,808.894,1022.344,809.504,1022.344,809.504z"/>
		</g>
		<g>
			<path fill="#231F20" d="M1104.14,809.504c0,0,0.679-0.654,1.866-1.798c1.202-1.132,2.892-2.772,4.97-4.696
				c2.081-1.921,4.479-4.189,7.103-6.57c2.623-2.381,5.421-4.922,8.221-7.465c2.827-2.512,5.657-5.023,8.312-7.379
				c2.65-2.357,5.179-4.51,7.318-6.379c2.142-1.866,3.971-3.382,5.229-4.462c1.274-1.066,2.003-1.676,2.003-1.676
				s-0.679,0.654-1.863,1.798c-1.203,1.131-2.894,2.773-4.972,4.697c-2.082,1.92-4.477,4.19-7.104,6.57
				c-2.623,2.382-5.421,4.923-8.219,7.464c-2.83,2.512-5.659,5.022-8.313,7.379c-2.651,2.355-5.179,4.509-7.317,6.378
				c-2.144,1.865-3.971,3.383-5.229,4.463C1104.868,808.894,1104.14,809.504,1104.14,809.504z"/>
		</g>
	</g>
	<g>
		<g>
			<path fill="#231F20" d="M1103.974,852.13c0,0,0.679-0.655,1.866-1.799c1.202-1.13,2.892-2.771,4.97-4.695
				c2.081-1.921,4.479-4.189,7.103-6.569c2.623-2.384,5.421-4.924,8.221-7.466c2.827-2.513,5.657-5.023,8.312-7.38
				c2.65-2.356,5.179-4.508,7.318-6.377c2.142-1.867,3.971-3.384,5.229-4.464c1.274-1.065,2.003-1.676,2.003-1.676
				s-0.679,0.655-1.863,1.8c-1.203,1.13-2.894,2.771-4.972,4.695c-2.082,1.921-4.477,4.19-7.104,6.57
				c-2.623,2.383-5.421,4.922-8.219,7.463c-2.83,2.514-5.659,5.023-8.313,7.38c-2.651,2.356-5.179,4.509-7.317,6.379
				c-2.144,1.864-3.971,3.383-5.229,4.462C1104.702,851.521,1103.974,852.13,1103.974,852.13z"/>
		</g>
		<g>
			<path fill="#231F20" d="M1185.77,852.13c0,0,0.679-0.655,1.866-1.799c1.202-1.13,2.892-2.771,4.97-4.695
				c2.081-1.921,4.479-4.189,7.103-6.569c2.623-2.384,5.423-4.924,8.221-7.466c2.829-2.513,5.659-5.023,8.312-7.38
				c2.65-2.356,5.181-4.508,7.318-6.377c2.142-1.867,3.971-3.384,5.229-4.464c1.274-1.065,2.003-1.676,2.003-1.676
				s-0.679,0.655-1.863,1.8c-1.203,1.13-2.894,2.771-4.973,4.695c-2.08,1.921-4.476,4.19-7.103,6.57
				c-2.623,2.383-5.421,4.922-8.219,7.463c-2.83,2.514-5.659,5.023-8.313,7.38c-2.65,2.356-5.179,4.509-7.316,6.379
				c-2.145,1.864-3.972,3.383-5.229,4.462C1186.499,851.521,1185.77,852.13,1185.77,852.13z"/>
		</g>
	</g>
	<g>
		<g>
			<path fill="#231F20" d="M1185.605,894.756c0,0,0.679-0.654,1.866-1.799c1.202-1.131,2.892-2.771,4.97-4.695
				c2.081-1.922,4.479-4.189,7.104-6.569c2.623-2.384,5.422-4.923,8.219-7.466c2.83-2.513,5.659-5.024,8.313-7.38
				c2.649-2.357,5.18-4.509,7.317-6.378c2.142-1.867,3.971-3.383,5.229-4.462c1.274-1.067,2.003-1.676,2.003-1.676
				s-0.679,0.654-1.863,1.798c-1.203,1.131-2.894,2.773-4.971,4.696c-2.082,1.921-4.478,4.19-7.104,6.57
				c-2.623,2.383-5.421,4.923-8.219,7.464c-2.83,2.513-5.66,5.023-8.313,7.38c-2.649,2.355-5.179,4.508-7.316,6.377
				c-2.145,1.866-3.972,3.384-5.229,4.463C1186.333,894.146,1185.605,894.756,1185.605,894.756z"/>
		</g>
		<g>
			<path fill="#231F20" d="M1267.4,894.756c0,0,0.679-0.654,1.866-1.799c1.202-1.131,2.892-2.771,4.97-4.695
				c2.082-1.922,4.479-4.189,7.104-6.569c2.623-2.384,5.421-4.923,8.219-7.466c2.83-2.513,5.659-5.024,8.313-7.38
				c2.649-2.357,5.181-4.509,7.318-6.378c2.142-1.867,3.971-3.384,5.229-4.462c1.273-1.067,2.004-1.676,2.004-1.676
				s-0.681,0.654-1.865,1.798c-1.203,1.131-2.893,2.773-4.971,4.696c-2.081,1.921-4.479,4.19-7.104,6.57
				c-2.623,2.383-5.421,4.923-8.219,7.464c-2.83,2.513-5.66,5.023-8.313,7.38c-2.649,2.355-5.179,4.508-7.316,6.377
				c-2.144,1.866-3.971,3.384-5.229,4.463C1268.13,894.146,1267.4,894.756,1267.4,894.756z"/>
		</g>
	</g>
	<g>
		<g>
			<path fill="#231F20" d="M1267.235,937.381c0,0,0.679-0.655,1.866-1.799c1.202-1.132,2.892-2.772,4.97-4.695
				c2.081-1.921,4.479-4.189,7.104-6.57c2.623-2.383,5.421-4.923,8.219-7.465c2.829-2.512,5.659-5.023,8.312-7.38
				c2.65-2.357,5.181-4.509,7.318-6.378c2.142-1.867,3.971-3.383,5.229-4.464c1.273-1.064,2.004-1.675,2.004-1.675
				s-0.681,0.655-1.865,1.799c-1.203,1.131-2.893,2.773-4.971,4.696c-2.081,1.922-4.478,4.19-7.104,6.569
				c-2.623,2.383-5.421,4.924-8.219,7.465c-2.83,2.513-5.659,5.023-8.313,7.38c-2.649,2.355-5.179,4.509-7.316,6.379
				c-2.145,1.865-3.971,3.383-5.229,4.462C1267.965,936.771,1267.235,937.381,1267.235,937.381z"/>
		</g>
		<g>
			<path fill="#231F20" d="M1349.031,937.381c0,0,0.681-0.655,1.866-1.799c1.202-1.132,2.892-2.772,4.97-4.695
				c2.081-1.921,4.479-4.189,7.104-6.57c2.623-2.383,5.421-4.923,8.219-7.465c2.829-2.512,5.659-5.023,8.313-7.38
				c2.648-2.357,5.179-4.509,7.316-6.378c2.143-1.867,3.971-3.383,5.23-4.464c1.272-1.064,2.003-1.675,2.003-1.675
				s-0.681,0.655-1.865,1.799c-1.203,1.131-2.892,2.773-4.97,4.696c-2.082,1.922-4.479,4.19-7.104,6.569
				c-2.623,2.383-5.421,4.924-8.219,7.465c-2.83,2.513-5.659,5.023-8.313,7.38c-2.65,2.355-5.18,4.509-7.317,6.379
				c-2.144,1.865-3.97,3.383-5.229,4.462C1349.76,936.771,1349.031,937.381,1349.031,937.381z"/>
		</g>
	</g>
	<g>
		<g>
			<path fill="#231F20" d="M1348.865,980.008c0,0,0.681-0.655,1.866-1.799c1.202-1.131,2.892-2.771,4.97-4.695
				c2.081-1.922,4.479-4.19,7.104-6.569c2.623-2.384,5.421-4.925,8.219-7.466c2.829-2.513,5.659-5.023,8.313-7.38
				c2.648-2.357,5.179-4.508,7.316-6.378c2.143-1.866,3.971-3.384,5.23-4.464c1.272-1.064,2.003-1.675,2.003-1.675
				s-0.681,0.655-1.865,1.799c-1.203,1.132-2.892,2.774-4.97,4.696c-2.082,1.921-4.479,4.191-7.104,6.571
				c-2.623,2.381-5.421,4.922-8.219,7.464c-2.83,2.512-5.659,5.023-8.313,7.38c-2.65,2.354-5.18,4.509-7.317,6.378
				c-2.144,1.866-3.97,3.383-5.229,4.463C1349.594,979.398,1348.865,980.008,1348.865,980.008z"/>
		</g>
		<g>
			<path fill="#231F20" d="M1430.66,980.008c0,0,0.681-0.655,1.866-1.799c1.202-1.131,2.893-2.771,4.97-4.695
				c2.081-1.922,4.479-4.19,7.104-6.569c2.623-2.384,5.421-4.925,8.219-7.466c2.829-2.513,5.659-5.023,8.313-7.38
				c2.648-2.357,5.179-4.508,7.316-6.378c2.144-1.866,3.972-3.384,5.23-4.464c1.272-1.064,2.003-1.675,2.003-1.675
				s-0.679,0.655-1.865,1.799c-1.203,1.132-2.892,2.774-4.971,4.696c-2.081,1.921-4.477,4.191-7.104,6.571
				c-2.623,2.381-5.421,4.922-8.219,7.464c-2.83,2.512-5.659,5.023-8.313,7.38c-2.651,2.354-5.181,4.509-7.318,6.378
				c-2.143,1.866-3.97,3.383-5.229,4.463C1431.389,979.398,1430.66,980.008,1430.66,980.008z"/>
		</g>
	</g>
	<g>
		<g>
			<path fill="#231F20" d="M1430.494,1022.633c0,0,0.681-0.654,1.866-1.798c1.202-1.132,2.893-2.772,4.97-4.695
				c2.081-1.922,4.479-4.189,7.104-6.57c2.623-2.384,5.421-4.925,8.219-7.464c2.829-2.514,5.659-5.025,8.313-7.382
				c2.648-2.356,5.179-4.508,7.316-6.377c2.144-1.866,3.972-3.384,5.23-4.465c1.272-1.063,2.003-1.674,2.003-1.674
				s-0.679,0.654-1.865,1.799c-1.203,1.131-2.892,2.773-4.971,4.695c-2.081,1.923-4.477,4.192-7.104,6.571
				c-2.623,2.382-5.421,4.922-8.219,7.464c-2.83,2.514-5.659,5.024-8.313,7.381c-2.651,2.355-5.181,4.508-7.318,6.378
				c-2.143,1.865-3.97,3.384-5.229,4.462C1431.223,1022.023,1430.494,1022.633,1430.494,1022.633z"/>
		</g>
		<g>
			<path fill="#231F20" d="M1512.29,1022.633c0,0,0.681-0.654,1.866-1.798c1.202-1.132,2.894-2.772,4.97-4.695
				c2.082-1.922,4.479-4.189,7.104-6.57c2.623-2.384,5.421-4.925,8.219-7.464c2.829-2.514,5.659-5.025,8.313-7.382
				c2.648-2.356,5.179-4.508,7.316-6.377c2.144-1.866,3.973-3.384,5.23-4.465c1.273-1.063,2.003-1.674,2.003-1.674
				s-0.679,0.654-1.865,1.799c-1.203,1.131-2.892,2.773-4.97,4.695c-2.082,1.923-4.479,4.192-7.104,6.571
				c-2.623,2.382-5.422,4.922-8.22,7.464c-2.83,2.514-5.659,5.024-8.313,7.381c-2.651,2.355-5.181,4.508-7.318,6.378
				c-2.143,1.865-3.97,3.384-5.229,4.462C1513.019,1022.023,1512.29,1022.633,1512.29,1022.633z"/>
		</g>
	</g>
	<g>
		<g>
			<path fill="#231F20" d="M1512.126,1065.259c0,0,0.68-0.655,1.865-1.799c1.202-1.132,2.894-2.772,4.971-4.694
				c2.08-1.923,4.479-4.19,7.104-6.571c2.623-2.382,5.421-4.923,8.219-7.464c2.829-2.514,5.659-5.024,8.313-7.381
				c2.648-2.357,5.179-4.509,7.316-6.379c2.144-1.865,3.973-3.383,5.23-4.463c1.272-1.065,2.003-1.675,2.003-1.675
				s-0.679,0.655-1.865,1.799c-1.203,1.131-2.892,2.773-4.971,4.696c-2.081,1.921-4.476,4.191-7.104,6.57
				c-2.623,2.382-5.422,4.923-8.22,7.465c-2.83,2.512-5.659,5.023-8.313,7.38c-2.651,2.354-5.179,4.509-7.318,6.378
				c-2.143,1.865-3.97,3.383-5.229,4.463C1512.854,1064.649,1512.126,1065.259,1512.126,1065.259z"/>
		</g>
		<g>
			<path fill="#231F20" d="M1593.923,1065.259c0,0,0.679-0.655,1.864-1.799c1.202-1.132,2.894-2.772,4.972-4.694
				c2.081-1.923,4.479-4.19,7.103-6.571c2.623-2.382,5.421-4.923,8.219-7.464c2.829-2.514,5.659-5.024,8.313-7.381
				c2.65-2.357,5.179-4.509,7.318-6.379c2.142-1.865,3.971-3.383,5.229-4.463c1.274-1.065,2.003-1.675,2.003-1.675
				s-0.679,0.655-1.866,1.799c-1.201,1.131-2.891,2.773-4.969,4.696c-2.082,1.921-4.477,4.191-7.104,6.57
				c-2.623,2.382-5.422,4.923-8.221,7.465c-2.83,2.512-5.657,5.023-8.313,7.38c-2.651,2.354-5.179,4.509-7.318,6.378
				c-2.143,1.865-3.97,3.383-5.229,4.463C1594.65,1064.649,1593.923,1065.259,1593.923,1065.259z"/>
		</g>
	</g>
	<g>
		<g>
			<path fill="#231F20" d="M1593.757,1107.884c0,0,0.679-0.653,1.864-1.798c1.202-1.132,2.894-2.772,4.972-4.696
				c2.081-1.921,4.479-4.189,7.103-6.569c2.623-2.382,5.421-4.924,8.219-7.465c2.829-2.513,5.659-5.024,8.313-7.381
				c2.65-2.356,5.179-4.509,7.318-6.378c2.142-1.865,3.971-3.383,5.229-4.463c1.274-1.064,2.003-1.675,2.003-1.675
				s-0.679,0.654-1.866,1.798c-1.201,1.132-2.891,2.774-4.969,4.696c-2.082,1.922-4.477,4.191-7.104,6.571
				c-2.623,2.381-5.422,4.922-8.221,7.465c-2.83,2.512-5.657,5.023-8.313,7.379c-2.651,2.355-5.179,4.509-7.318,6.379
				c-2.143,1.866-3.97,3.383-5.229,4.462C1594.484,1107.274,1593.757,1107.884,1593.757,1107.884z"/>
		</g>
		<g>
			<path fill="#231F20" d="M1675.552,1107.884c0,0,0.679-0.653,1.865-1.798c1.201-1.132,2.893-2.772,4.971-4.696
				c2.081-1.921,4.479-4.189,7.103-6.569c2.623-2.382,5.421-4.924,8.22-7.465c2.828-2.513,5.658-5.024,8.313-7.381
				c2.649-2.356,5.179-4.509,7.318-6.378c2.142-1.865,3.971-3.383,5.229-4.463c1.274-1.064,2.003-1.675,2.003-1.675
				s-0.679,0.654-1.864,1.798c-1.202,1.132-2.893,2.774-4.972,4.696c-2.081,1.922-4.476,4.191-7.103,6.571
				c-2.623,2.381-5.422,4.922-8.22,7.465c-2.829,2.512-5.659,5.023-8.313,7.379c-2.651,2.355-5.179,4.509-7.318,6.379
				c-2.143,1.866-3.97,3.383-5.229,4.462C1676.28,1107.274,1675.552,1107.884,1675.552,1107.884z"/>
		</g>
	</g>
	<g>
		<g>
			<path fill="#231F20" d="M1675.385,1150.511c0,0,0.679-0.653,1.866-1.799c1.2-1.131,2.892-2.771,4.97-4.694
				c2.081-1.922,4.479-4.189,7.103-6.57c2.623-2.383,5.421-4.924,8.219-7.464c2.829-2.515,5.659-5.025,8.313-7.382
				c2.649-2.357,5.179-4.508,7.318-6.378c2.142-1.865,3.971-3.384,5.229-4.464c1.274-1.064,2.003-1.674,2.003-1.674
				s-0.679,0.654-1.865,1.799c-1.201,1.131-2.892,2.773-4.971,4.695c-2.081,1.922-4.476,4.191-7.103,6.571
				c-2.623,2.382-5.421,4.922-8.22,7.464c-2.829,2.513-5.658,5.024-8.313,7.381c-2.651,2.354-5.179,4.508-7.318,6.377
				c-2.143,1.866-3.97,3.384-5.229,4.463C1676.114,1149.901,1675.385,1150.511,1675.385,1150.511z"/>
		</g>
		<g>
			<path fill="#231F20" d="M1757.181,1150.511c0,0,0.679-0.653,1.866-1.799c1.202-1.131,2.892-2.771,4.97-4.694
				c2.081-1.922,4.479-4.189,7.103-6.57c2.623-2.383,5.421-4.924,8.221-7.464c2.827-2.515,5.657-5.025,8.312-7.382
				c2.65-2.357,5.179-4.508,7.318-6.378c2.142-1.865,3.971-3.384,5.229-4.464c1.274-1.064,2.003-1.674,2.003-1.674
				s-0.679,0.654-1.864,1.799c-1.202,1.131-2.893,2.773-4.971,4.695c-2.082,1.922-4.477,4.191-7.104,6.571
				c-2.623,2.382-5.421,4.922-8.219,7.464c-2.83,2.513-5.659,5.024-8.313,7.381c-2.651,2.354-5.179,4.508-7.317,6.377
				c-2.144,1.866-3.971,3.384-5.229,4.463C1757.909,1149.901,1757.181,1150.511,1757.181,1150.511z"/>
		</g>
	</g>
	<g>
		<g>
			<path fill="#231F20" d="M1757.016,1193.135c0,0,0.679-0.652,1.866-1.798c1.201-1.131,2.892-2.771,4.97-4.694
				c2.081-1.922,4.479-4.19,7.103-6.571c2.623-2.381,5.422-4.922,8.221-7.464c2.828-2.513,5.658-5.025,8.312-7.381
				c2.649-2.356,5.179-4.509,7.318-6.378c2.142-1.866,3.971-3.383,5.229-4.463c1.274-1.065,2.003-1.675,2.003-1.675
				s-0.679,0.654-1.863,1.798c-1.203,1.132-2.894,2.773-4.973,4.697c-2.081,1.921-4.476,4.19-7.103,6.569
				c-2.623,2.382-5.421,4.924-8.22,7.466c-2.829,2.512-5.658,5.023-8.313,7.379c-2.65,2.355-5.179,4.509-7.318,6.378
				c-2.143,1.866-3.97,3.384-5.229,4.463C1757.744,1192.526,1757.016,1193.135,1757.016,1193.135z"/>
		</g>
		<g>
			<path fill="#231F20" d="M1838.812,1193.135c0,0,0.679-0.652,1.866-1.798c1.202-1.131,2.892-2.771,4.97-4.694
				c2.081-1.922,4.479-4.19,7.104-6.571c2.623-2.381,5.422-4.922,8.22-7.464c2.829-2.513,5.659-5.025,8.312-7.381
				c2.65-2.356,5.18-4.509,7.318-6.378c2.142-1.866,3.971-3.383,5.229-4.463c1.274-1.065,2.004-1.675,2.004-1.675
				s-0.68,0.654-1.865,1.798c-1.202,1.132-2.893,2.773-4.971,4.697c-2.082,1.921-4.477,4.19-7.104,6.569
				c-2.623,2.382-5.421,4.924-8.219,7.466c-2.83,2.512-5.659,5.023-8.313,7.379c-2.649,2.355-5.179,4.509-7.316,6.378
				c-2.145,1.866-3.972,3.384-5.229,4.463C1839.54,1192.526,1838.812,1193.135,1838.812,1193.135z"/>
		</g>
	</g>
	<g>
		<g>
			<path fill="#231F20" d="M1838.646,1235.762c0,0,0.679-0.654,1.866-1.799c1.202-1.131,2.892-2.771,4.97-4.695
				c2.081-1.921,4.479-4.189,7.104-6.569c2.623-2.383,5.422-4.924,8.22-7.465c2.829-2.513,5.659-5.024,8.312-7.38
				c2.65-2.357,5.18-4.51,7.318-6.379c2.142-1.865,3.971-3.383,5.229-4.464c1.274-1.064,2.004-1.675,2.004-1.675
				s-0.68,0.655-1.865,1.799c-1.202,1.132-2.893,2.774-4.971,4.696c-2.082,1.921-4.477,4.192-7.104,6.571
				c-2.623,2.381-5.421,4.922-8.219,7.464c-2.83,2.513-5.659,5.024-8.313,7.38c-2.649,2.355-5.179,4.509-7.316,6.378
				c-2.145,1.866-3.972,3.384-5.229,4.463C1839.374,1235.152,1838.646,1235.762,1838.646,1235.762z"/>
		</g>
		<g>
			<path fill="#231F20" d="M1920.442,1235.762c0,0,0.679-0.654,1.866-1.799c1.202-1.131,2.892-2.771,4.97-4.695
				c2.081-1.921,4.479-4.189,7.104-6.569c2.623-2.383,5.421-4.924,8.219-7.465c2.829-2.513,5.659-5.024,8.312-7.38
				c2.649-2.357,5.181-4.51,7.318-6.379c2.142-1.865,3.971-3.383,5.229-4.464c1.273-1.064,2.004-1.675,2.004-1.675
				s-0.681,0.655-1.865,1.799c-1.203,1.132-2.893,2.774-4.971,4.696c-2.081,1.921-4.478,4.192-7.104,6.571
				c-2.623,2.381-5.421,4.922-8.219,7.464c-2.83,2.513-5.659,5.024-8.313,7.38c-2.649,2.355-5.179,4.509-7.316,6.378
				c-2.145,1.866-3.971,3.384-5.229,4.463C1921.172,1235.152,1920.442,1235.762,1920.442,1235.762z"/>
		</g>
		<g>
			<path fill="#231F20" d="M1920.442,1277.971c0,0,0.679-0.654,1.866-1.799c1.202-1.131,2.892-2.771,4.97-4.695
				c2.081-1.921,4.479-4.188,7.104-6.569c2.623-2.383,5.421-4.924,8.219-7.465c2.829-2.513,5.659-5.024,8.312-7.38
				c2.649-2.357,5.181-4.509,7.318-6.377c2.142-1.867,3.971-3.385,5.229-4.465c1.273-1.065,2.004-1.675,2.004-1.675
				s-0.681,0.654-1.865,1.8c-1.203,1.131-2.893,2.772-4.971,4.694c-2.081,1.921-4.478,4.192-7.104,6.571
				c-2.623,2.381-5.421,4.922-8.219,7.464c-2.83,2.513-5.659,5.025-8.313,7.381c-2.649,2.355-5.179,4.508-7.316,6.378
				c-2.145,1.865-3.971,3.383-5.229,4.462C1921.172,1277.361,1920.442,1277.971,1920.442,1277.971z"/>
		</g>
	</g>
	<g>
		<path fill="#231F20" d="M517.119,153.603c-1.731-2.617-2.809-5.615-3.54-8.654c-0.716-3.048-1.063-6.195-0.909-9.33
			c0.08-1.566,0.294-3.13,0.694-4.65c0.404-1.516,0.987-3.001,1.864-4.316c0.867-1.315,2.011-2.461,3.373-3.272
			c1.39-0.776,2.866-1.311,4.429-1.615c1.548-0.295,3.183-0.266,4.701,0.209c1.522,0.466,2.891,1.353,4.03,2.446
			c1.145,1.096,2.083,2.385,2.882,3.742c0.803,1.358,1.458,2.795,2.021,4.264c1.133,2.938,1.912,5.994,2.502,9.077
			c0.588,3.085,0.97,6.207,1.167,9.344l-0.479,0.02c-0.042-3.224,0.438-6.387,0.983-9.53c0.589-3.136,1.313-6.249,2.272-9.295
			c0.475-1.525,1.009-3.032,1.605-4.516c0.612-1.476,1.265-2.943,2.063-4.336c0.784-1.398,1.666-2.759,2.771-3.948
			c1.09-1.186,2.398-2.25,3.977-2.789c1.57-0.557,3.334-0.429,4.858,0.176c1.551,0.589,2.823,1.635,4.049,2.679
			c0.563,0.585,1.137,1.117,1.684,1.757l0.729,0.944c0.22,0.343,0.417,0.712,0.625,1.067c0.746,1.455,1.293,2.996,1.553,4.594
			c0.294,1.587,0.416,3.204,0.363,4.812c-0.014,1.611-0.235,3.21-0.527,4.791c-0.646,3.143-1.767,6.242-3.736,8.857l-0.521-0.407
			c1.608-2.033,3.517-3.795,5.553-5.366c2.042-1.567,4.217-2.954,6.481-4.167c2.265-1.212,4.611-2.268,7.016-3.171
			c2.405-0.899,4.863-1.667,7.373-2.224c2.507-0.563,5.057-0.956,7.625-1.127c2.567-0.167,5.16-0.127,7.718,0.251
			c2.557,0.376,5.081,1.07,7.431,2.185c2.347,1.109,4.503,2.658,6.256,4.588c0.871,0.965,1.667,2.006,2.327,3.127
			c0.167,0.291,0.355,0.519,0.506,0.861l0.411,0.865c0.308,0.544,0.458,1.237,0.661,1.876c0.271,1.301,0.355,2.718-0.161,3.997
			l-0.16,0.485l-0.247,0.443c-0.174,0.289-0.313,0.605-0.521,0.868c-0.426,0.516-0.826,1.059-1.346,1.474
			c-1.975,1.777-4.369,2.897-6.771,3.811c-2.418,0.903-4.902,1.578-7.398,2.164c-4.996,1.166-10.056,1.95-15.102,2.726
			c-2.523,0.39-5.046,0.769-7.548,1.219c-1.25,0.227-2.498,0.468-3.723,0.77c-1.208,0.314-2.458,0.63-3.496,1.196l0.104-0.732
			c2.358,2.458,3.933,5.538,4.897,8.736c0.991,3.202,1.414,6.559,1.375,9.899c-0.004,1.673-0.191,3.341-0.46,4.994
			c-0.277,1.653-0.734,3.275-1.316,4.854c-0.582,1.58-1.392,3.081-2.363,4.467c-0.97,1.388-2.171,2.639-3.584,3.604
			c-1.403,0.974-2.988,1.69-4.652,2.083c-1.67,0.35-3.382,0.45-5.065,0.293c-0.845-0.09-1.659-0.219-2.512-0.394
			c-0.78-0.159-1.67-0.503-2.424-0.878c-1.545-0.807-2.823-2.07-3.727-3.527c-0.91-1.458-1.496-3.063-1.932-4.681
			c-0.424-1.624-0.705-3.27-0.92-4.914c-0.448-3.281-0.581-6.599-1.27-9.756l0.881-0.153l0.057,1.472l0.027,0.736l-0.078,0.731
			l-0.163,1.461l-0.354,1.423l-0.183,0.71l-0.262,0.682l-0.525,1.364c-0.464,0.851-0.835,1.759-1.382,2.559l-0.78,1.224
			c-0.27,0.402-0.577,0.774-0.864,1.163c-0.563,0.788-1.216,1.497-1.854,2.221c-0.632,0.728-1.346,1.375-2.016,2.067
			c-0.722,0.634-1.417,1.301-2.164,1.904c-1.484,1.219-3.021,2.375-4.637,3.413c-1.604,1.054-3.27,2.019-4.995,2.864
			c-1.721,0.87-3.501,1.581-5.333,2.189c-1.826,0.604-3.701,1.07-5.607,1.365c-1.903,0.294-3.849,0.428-5.789,0.245
			c-1.931-0.167-3.885-0.668-5.582-1.706c-1.704-1.027-3.016-2.679-3.695-4.534c-0.677-1.863-0.841-3.848-0.735-5.778
			c0.128-1.932,0.419-3.845,1.025-5.699c0.604-1.862,1.583-3.581,2.813-5.086c1.219-1.515,2.671-2.814,4.207-3.968
			c1.535-1.16,3.149-2.194,4.773-3.195l0.362,0.591c-5.902,3.613-12.132,6.687-18.595,9.16c-6.458,2.47-13.173,4.352-20.055,5.211
			c-6.856,0.868-13.959,0.673-20.605-1.448c-3.313-1.047-6.476-2.604-9.269-4.689c-2.705-2.309-4.478-5.533-5.132-8.98
			c-0.316-1.724-0.32-3.524,0.116-5.236c0.425-1.717,1.347-3.294,2.56-4.563c2.408-2.549,5.499-4.315,8.684-5.649
			c3.198-1.345,6.551-2.265,9.928-2.989c3.38-0.727,6.802-1.228,10.229-1.626c6.862-0.798,13.758-1.1,20.64-1.584l10.339-0.468
			l10.35-0.108l-10.345,0.175l-10.334,0.534c-6.875,0.529-13.772,0.875-20.616,1.716c-3.419,0.419-6.83,0.941-10.19,1.688
			c-3.356,0.742-6.686,1.679-9.842,3.031c-3.146,1.341-6.172,3.101-8.503,5.604c-1.158,1.23-2.017,2.724-2.412,4.364
			c-0.41,1.633-0.406,3.359-0.097,5.021c0.627,3.316,2.395,6.477,4.951,8.647c2.73,2.032,5.855,3.565,9.115,4.585
			c6.548,2.074,13.567,2.256,20.36,1.381c6.818-0.867,13.484-2.75,19.896-5.219c6.419-2.472,12.606-5.544,18.464-9.146l0.362,0.591
			c-3.206,2.005-6.437,4.097-8.784,7.024c-1.177,1.445-2.105,3.095-2.677,4.858c-0.574,1.767-0.857,3.652-0.978,5.514
			c-0.099,1.862,0.07,3.748,0.7,5.474c0.639,1.716,1.824,3.201,3.392,4.145c1.563,0.951,3.398,1.427,5.25,1.582
			c1.854,0.172,3.741,0.04,5.595-0.251c1.856-0.292,3.689-0.751,5.479-1.347c1.779-0.595,3.545-1.304,5.221-2.157
			c1.691-0.833,3.327-1.786,4.903-2.826c1.586-1.025,3.096-2.165,4.551-3.365c0.733-0.594,1.412-1.25,2.119-1.873
			c0.651-0.678,1.352-1.314,1.967-2.026c0.618-0.708,1.256-1.402,1.799-2.168c0.278-0.378,0.579-0.74,0.837-1.13l0.753-1.185
			c0.529-0.775,0.878-1.647,1.326-2.465l0.498-1.303l0.25-0.651l0.168-0.674l0.335-1.349l0.149-1.377l0.073-0.689l-0.028-0.691
			l-0.054-1.382l0.881-0.153c0.72,3.292,0.852,6.594,1.307,9.837c0.213,1.623,0.495,3.23,0.906,4.796
			c0.423,1.558,0.986,3.079,1.83,4.42c0.837,1.342,1.984,2.462,3.371,3.185c0.725,0.345,1.378,0.618,2.214,0.793
			c0.758,0.152,1.578,0.282,2.368,0.364c1.6,0.146,3.204,0.044,4.76-0.283c1.546-0.37,3.007-1.036,4.307-1.941
			c1.311-0.896,2.429-2.064,3.339-3.376c0.913-1.31,1.683-2.734,2.244-4.246c0.562-1.51,1.005-3.071,1.278-4.668
			c0.262-1.597,0.45-3.213,0.457-4.838c0.045-3.242-0.36-6.509-1.313-9.605c-0.925-3.096-2.438-6.048-4.65-8.361l-0.428-0.447
			l0.53-0.285c1.219-0.654,2.479-0.952,3.73-1.28c1.256-0.307,2.517-0.547,3.776-0.773c2.523-0.449,5.052-0.822,7.575-1.207
			c5.045-0.764,10.087-1.536,15.041-2.68c2.474-0.575,4.929-1.237,7.297-2.116c2.354-0.885,4.675-1.982,6.509-3.63
			c1.901-1.573,2.844-4.095,2.203-6.461c-0.188-0.574-0.282-1.15-0.604-1.728l-0.409-0.866c-0.099-0.248-0.313-0.525-0.464-0.787
			c-0.632-1.08-1.395-2.079-2.228-3.007c-1.678-1.854-3.74-3.344-6.003-4.42c-2.265-1.081-4.714-1.762-7.205-2.135
			c-2.495-0.374-5.036-0.42-7.562-0.261c-2.524,0.163-5.037,0.544-7.511,1.095c-2.478,0.544-4.907,1.297-7.284,2.179
			c-2.376,0.888-4.697,1.925-6.937,3.117c-2.237,1.193-4.387,2.556-6.396,4.093c-2.006,1.54-3.879,3.265-5.445,5.236l-0.521-0.407
			c0.941-1.235,1.676-2.626,2.287-4.068c0.58-1.457,1.025-2.968,1.343-4.508c0.288-1.543,0.51-3.108,0.524-4.68
			c0.057-1.57-0.061-3.145-0.342-4.684c-0.245-1.546-0.779-3.042-1.477-4.41c-0.193-0.33-0.368-0.667-0.574-0.994l-0.728-0.946
			c-0.483-0.567-1.076-1.128-1.613-1.688c-1.183-1.012-2.41-2.021-3.856-2.571c-1.427-0.565-3.018-0.681-4.459-0.176
			c-1.446,0.489-2.691,1.484-3.744,2.625c-1.065,1.141-1.933,2.468-2.703,3.839c-0.788,1.365-1.434,2.812-2.043,4.269
			c-0.594,1.466-1.129,2.958-1.602,4.47c-0.959,3.02-1.687,6.114-2.278,9.228c-0.279,1.56-0.528,3.126-0.716,4.699
			c-0.175,1.572-0.316,3.155-0.295,4.724l-0.479,0.021c-0.177-3.114-0.536-6.223-1.103-9.293c-0.563-3.068-1.321-6.109-2.426-9.025
			c-0.548-1.458-1.188-2.883-1.971-4.227c-0.779-1.342-1.693-2.614-2.806-3.691c-1.105-1.076-2.431-1.944-3.902-2.405
			c-1.472-0.47-3.059-0.511-4.578-0.231c-1.507,0.279-3.02,0.817-4.365,1.561c-1.337,0.786-2.466,1.901-3.328,3.191
			c-0.873,1.289-1.459,2.754-1.87,4.256c-0.408,1.505-0.63,3.059-0.722,4.617c-0.173,3.121,0.155,6.263,0.851,9.312
			C514.349,147.975,515.404,150.976,517.119,153.603z"/>
	</g>
	<path fill="none" stroke="#231F20" stroke-miterlimit="10" d="M1551.289,458.637c1.685-10.395-16.671-19.122-24.742-16.13
		c-8.762,3.248-11.708,10.47-5.085,17.413c-9.854,0.521-28.526,1.157-31.109,13.677c-2.896,14.043,16.621,22.603,27.77,20.68
		c10.753-1.854,28.85-7.491,28.85-7.491c12.629,6.044,21.843,18.411,37.354,11.494c12.467-5.559,17.45-18.624,1.105-20.873
		c6.756-0.042,45.39-1.084,38.256-15.671c-6.845-13.992-38.923-5.373-49.276-1.759c4.474-1.562-1.029-8.628-3.213-9.604
		c-7.544-3.372-15.059,3.002-19.299,8.458"/>
	<path fill="none" stroke="#231F20" stroke-miterlimit="10" d="M294.96,337.452c-19.876-8.063-5.519-29.434,13.477-14.896
		c-2.837-7.802,2.701-25.082,13.911-23.239c8.753,1.438,9.006,13.35,9.896,20.303c10.11-2.87,26.506-10.294,35.938-2.255
		c12.833,10.938-15.476,17.262-24.282,16.541c10.64,5.674,11.624,19.984,1.68,22.957c-10.319,3.081-17.594-7.15-23.535-13.581
		C313.812,357.609,282.857,360.775,294.96,337.452"/>
</g>
</svg>
