<?xml version="1.0" encoding="utf-8"?>
<!-- Generator: Adobe Illustrator 16.0.0, SVG Export Plug-In . SVG Version: 6.00 Build 0)  -->
<!DOCTYPE svg PUBLIC "-//W3C//DTD SVG 1.1//EN" "http://www.w3.org/Graphics/SVG/1.1/DTD/svg11.dtd">
<svg version="1.1" id="Layer_1" xmlns="http://www.w3.org/2000/svg" xmlns:xlink="http://www.w3.org/1999/xlink" x="0px" y="0px"
	 width="790px" height="350px" viewBox="0 0 790 350" enable-background="new 0 0 790 350" xml:space="preserve">
<g>
	<g>
		<path fill="#FF2839" d="M60.816,121.632C27.282,121.632,0,94.351,0,60.815C0,27.282,27.282,0,60.816,0
			s60.816,27.282,60.816,60.815C121.632,94.351,94.35,121.632,60.816,121.632z M60.816,5.078c-30.734,0-55.738,25.004-55.738,55.737
			c0,30.734,25.004,55.738,55.738,55.738s55.738-25.004,55.738-55.738C116.554,30.082,91.55,5.078,60.816,5.078z"/>
		<g>
			<path fill="#FF2839" d="M47.516,44.074c5.005,0,8.658,1.08,10.962,3.237c2.302,2.158,3.454,5.123,3.454,8.895
				c0,2.285-0.472,4.406-1.414,6.365c-0.944,1.958-2.512,3.536-4.706,4.732c-2.195,1.197-5.177,1.795-8.949,1.795h-3.536v13.818
				h-8.215V44.074H47.516z M47.08,50.82h-3.753v11.533h2.72c2.321,0,4.162-0.463,5.522-1.388s2.04-2.421,2.04-4.488
				C53.608,52.706,51.432,50.82,47.08,50.82z"/>
			<path fill="#FF2839" d="M89.35,74.104c0,3.012-1.061,5.323-3.183,6.937c-2.122,1.614-5.286,2.421-9.493,2.421
				c-2.067,0-3.845-0.136-5.332-0.408c-1.487-0.271-2.974-0.716-4.461-1.333v-6.691c1.596,0.727,3.318,1.325,5.168,1.796
				c1.85,0.472,3.482,0.707,4.896,0.707c1.559,0,2.683-0.235,3.373-0.707c0.688-0.471,1.034-1.088,1.034-1.85
				c0-0.508-0.136-0.961-0.408-1.36c-0.272-0.398-0.862-0.852-1.768-1.36c-0.907-0.507-2.322-1.16-4.244-1.958
				c-1.886-0.797-3.418-1.586-4.597-2.366c-1.179-0.779-2.059-1.723-2.639-2.829c-0.581-1.105-0.87-2.493-0.87-4.162
				c0-2.756,1.069-4.822,3.209-6.201c2.14-1.378,4.986-2.067,8.541-2.067c1.85,0,3.608,0.182,5.277,0.544
				c1.668,0.363,3.391,0.961,5.168,1.795l-2.448,5.821c-1.451-0.616-2.829-1.133-4.135-1.551c-1.306-0.416-2.63-0.625-3.971-0.625
				c-2.394,0-3.59,0.652-3.59,1.958c0,0.472,0.154,0.897,0.462,1.278c0.308,0.381,0.906,0.789,1.795,1.225
				c0.888,0.435,2.203,1.016,3.944,1.74c1.704,0.689,3.173,1.406,4.407,2.149c1.232,0.743,2.185,1.678,2.856,2.802
				C89.014,70.931,89.35,72.363,89.35,74.104z"/>
		</g>
		<g>
			<path fill="#FF2839" d="M21.49,135.55c1.288,0,2.228,0.278,2.821,0.833c0.593,0.556,0.889,1.318,0.889,2.289
				c0,0.588-0.122,1.134-0.364,1.638s-0.646,0.91-1.211,1.219c-0.565,0.308-1.333,0.462-2.303,0.462h-0.91v3.556h-2.114v-9.996
				H21.49z M21.378,137.286h-0.966v2.968h0.7c0.597,0,1.071-0.119,1.421-0.357c0.35-0.237,0.525-0.623,0.525-1.154
				C23.058,137.771,22.498,137.286,21.378,137.286z"/>
			<path fill="#FF2839" d="M35.28,145.546h-2.114v-4.312h-3.962v4.312H27.09v-9.996h2.114v3.92h3.962v-3.92h2.114V145.546z"/>
			<path fill="#FF2839" d="M46.872,140.534c0,1.036-0.17,1.938-0.511,2.709c-0.341,0.77-0.863,1.369-1.568,1.799
				s-1.598,0.644-2.681,0.644c-1.083,0-1.976-0.214-2.681-0.644c-0.705-0.43-1.228-1.031-1.568-1.806
				c-0.341-0.775-0.511-1.681-0.511-2.717c0-1.035,0.17-1.937,0.511-2.701c0.34-0.766,0.863-1.36,1.568-1.785
				c0.705-0.425,1.603-0.638,2.695-0.638c1.083,0,1.974,0.213,2.674,0.638c0.7,0.425,1.22,1.021,1.561,1.792
				C46.702,138.595,46.872,139.498,46.872,140.534z M39.578,140.534c0,1.045,0.201,1.869,0.602,2.471
				c0.401,0.602,1.045,0.903,1.932,0.903c0.905,0,1.554-0.302,1.946-0.903s0.588-1.426,0.588-2.471c0-1.046-0.196-1.869-0.588-2.472
				c-0.392-0.602-1.036-0.902-1.932-0.902s-1.545,0.301-1.946,0.902C39.779,138.665,39.578,139.488,39.578,140.534z"/>
			<path fill="#FF2839" d="M52.374,145.546H50.26v-8.232h-2.716v-1.764h7.546v1.764h-2.716V145.546z"/>
			<path fill="#FF2839" d="M65.422,140.534c0,1.036-0.17,1.938-0.511,2.709c-0.341,0.77-0.863,1.369-1.568,1.799
				s-1.598,0.644-2.681,0.644c-1.083,0-1.976-0.214-2.681-0.644c-0.705-0.43-1.228-1.031-1.568-1.806
				c-0.341-0.775-0.511-1.681-0.511-2.717c0-1.035,0.17-1.937,0.511-2.701c0.34-0.766,0.863-1.36,1.568-1.785
				c0.705-0.425,1.603-0.638,2.695-0.638c1.083,0,1.974,0.213,2.674,0.638c0.7,0.425,1.22,1.021,1.561,1.792
				C65.251,138.595,65.422,139.498,65.422,140.534z M58.128,140.534c0,1.045,0.201,1.869,0.602,2.471
				c0.401,0.602,1.045,0.903,1.932,0.903c0.905,0,1.554-0.302,1.946-0.903s0.588-1.426,0.588-2.471c0-1.046-0.196-1.869-0.588-2.472
				c-0.392-0.602-1.036-0.902-1.932-0.902s-1.545,0.301-1.946,0.902C58.329,138.665,58.128,139.488,58.128,140.534z"/>
			<path fill="#FF2839" d="M73.388,142.773c0,0.888-0.32,1.595-0.959,2.121c-0.639,0.527-1.547,0.791-2.723,0.791
				c-1.055,0-1.998-0.2-2.828-0.602v-1.974c0.476,0.205,0.968,0.394,1.477,0.566c0.508,0.173,1.015,0.259,1.519,0.259
				c0.522,0,0.894-0.1,1.113-0.301c0.219-0.2,0.329-0.455,0.329-0.763c0-0.252-0.086-0.467-0.259-0.645
				c-0.173-0.177-0.404-0.343-0.693-0.497c-0.289-0.153-0.621-0.319-0.994-0.496c-0.233-0.112-0.486-0.245-0.756-0.399
				s-0.53-0.346-0.777-0.574c-0.248-0.229-0.45-0.506-0.609-0.833c-0.159-0.326-0.238-0.719-0.238-1.176
				c0-0.896,0.303-1.594,0.91-2.093c0.606-0.499,1.433-0.749,2.478-0.749c0.522,0,1.017,0.061,1.484,0.182s0.961,0.294,1.484,0.519
				l-0.686,1.651c-0.457-0.187-0.868-0.331-1.232-0.434c-0.364-0.103-0.737-0.154-1.12-0.154c-0.402,0-0.709,0.094-0.924,0.28
				s-0.322,0.43-0.322,0.728c0,0.355,0.159,0.635,0.476,0.84c0.317,0.206,0.789,0.458,1.414,0.757
				c0.513,0.242,0.95,0.494,1.309,0.756c0.359,0.261,0.637,0.569,0.833,0.924C73.29,141.813,73.388,142.251,73.388,142.773z"/>
			<path fill="#FF2839" d="M83.398,145.546h-2.114v-4.312h-3.962v4.312h-2.114v-9.996h2.114v3.92h3.962v-3.92h2.114V145.546z"/>
			<path fill="#FF2839" d="M94.99,140.534c0,1.036-0.17,1.938-0.511,2.709c-0.341,0.77-0.863,1.369-1.568,1.799
				s-1.598,0.644-2.681,0.644c-1.083,0-1.976-0.214-2.681-0.644c-0.705-0.43-1.228-1.031-1.568-1.806
				c-0.341-0.775-0.511-1.681-0.511-2.717c0-1.035,0.17-1.937,0.511-2.701c0.34-0.766,0.863-1.36,1.568-1.785
				c0.705-0.425,1.603-0.638,2.695-0.638c1.083,0,1.974,0.213,2.674,0.638c0.7,0.425,1.22,1.021,1.561,1.792
				C94.819,138.595,94.99,139.498,94.99,140.534z M87.696,140.534c0,1.045,0.201,1.869,0.602,2.471
				c0.401,0.602,1.045,0.903,1.932,0.903c0.905,0,1.554-0.302,1.946-0.903s0.588-1.426,0.588-2.471c0-1.046-0.196-1.869-0.588-2.472
				c-0.392-0.602-1.036-0.902-1.932-0.902s-1.545,0.301-1.946,0.902C87.896,138.665,87.696,139.488,87.696,140.534z"/>
			<path fill="#FF2839" d="M100.254,135.55c1.288,0,2.228,0.278,2.821,0.833c0.593,0.556,0.889,1.318,0.889,2.289
				c0,0.588-0.122,1.134-0.364,1.638s-0.646,0.91-1.211,1.219c-0.565,0.308-1.333,0.462-2.303,0.462h-0.91v3.556h-2.114v-9.996
				H100.254z M100.142,137.286h-0.966v2.968h0.7c0.597,0,1.071-0.119,1.421-0.357c0.35-0.237,0.525-0.623,0.525-1.154
				C101.822,137.771,101.262,137.286,100.142,137.286z"/>
		</g>
	</g>
</g>
<g>
	<g>
		<path fill="#FF2839" d="M227.908,121.632c-33.534,0-60.815-27.281-60.815-60.816C167.092,27.282,194.374,0,227.908,0
			s60.816,27.282,60.816,60.815C288.724,94.351,261.442,121.632,227.908,121.632z M227.908,5.078
			c-30.733,0-55.737,25.004-55.737,55.737c0,30.734,25.004,55.738,55.737,55.738c30.734,0,55.738-25.004,55.738-55.738
			C283.646,30.082,258.642,5.078,227.908,5.078z"/>
		<g>
			<path fill="#FF2839" d="M229.513,82.917l-2.829-9.248H212.54l-2.829,9.248h-8.867l13.709-39.006h10.064l13.764,39.006H229.513z
				 M224.726,66.76l-2.829-9.03c-0.182-0.616-0.417-1.396-0.707-2.34c-0.291-0.942-0.581-1.903-0.871-2.883
				c-0.291-0.979-0.526-1.831-0.707-2.557c-0.182,0.726-0.427,1.623-0.734,2.692c-0.309,1.07-0.599,2.086-0.871,3.047
				s-0.481,1.641-0.625,2.04l-2.774,9.03H224.726z"/>
			<path fill="#FF2839" d="M246.703,41.572c1.197,0,2.23,0.281,3.101,0.843c0.871,0.563,1.306,1.605,1.306,3.128
				c0,1.488-0.435,2.521-1.306,3.102s-1.904,0.87-3.101,0.87c-1.233,0-2.276-0.29-3.128-0.87c-0.853-0.58-1.278-1.613-1.278-3.102
				c0-1.522,0.426-2.565,1.278-3.128C244.427,41.854,245.47,41.572,246.703,41.572z M250.729,53.214v29.703h-8.106V53.214H250.729z"
				/>
		</g>
		<g>
			<path fill="#FF2839" d="M186.076,145.546h-4.55v-1.204l1.218-0.56v-6.469l-1.218-0.56v-1.204h4.55v1.204l-1.218,0.56v6.469
				l1.218,0.56V145.546z"/>
			<path fill="#FF2839" d="M187.784,145.546v-9.996h2.114v8.246h4.06v1.75H187.784z"/>
			<path fill="#FF2839" d="M195.694,145.546v-9.996h2.114v8.246h4.06v1.75H195.694z"/>
			<path fill="#FF2839" d="M211.598,135.55v6.468c0,0.691-0.152,1.314-0.455,1.869c-0.303,0.556-0.763,0.994-1.379,1.316
				c-0.616,0.321-1.386,0.482-2.31,0.482c-1.325,0-2.333-0.338-3.024-1.015c-0.691-0.677-1.036-1.57-1.036-2.681v-6.44h2.114v6.118
				c0,0.831,0.168,1.412,0.504,1.743s0.835,0.497,1.498,0.497c0.69,0,1.192-0.183,1.505-0.546c0.313-0.364,0.469-0.934,0.469-1.708
				v-6.104H211.598z"/>
			<path fill="#FF2839" d="M219.941,142.773c0,0.888-0.32,1.595-0.959,2.121c-0.639,0.527-1.547,0.791-2.723,0.791
				c-1.055,0-1.998-0.2-2.828-0.602v-1.974c0.476,0.205,0.968,0.394,1.477,0.566c0.508,0.173,1.015,0.259,1.519,0.259
				c0.522,0,0.894-0.1,1.113-0.301c0.219-0.2,0.329-0.455,0.329-0.763c0-0.252-0.086-0.467-0.259-0.645
				c-0.173-0.177-0.404-0.343-0.693-0.497c-0.289-0.153-0.621-0.319-0.994-0.496c-0.233-0.112-0.486-0.245-0.756-0.399
				s-0.53-0.346-0.777-0.574c-0.248-0.229-0.45-0.506-0.609-0.833c-0.159-0.326-0.238-0.719-0.238-1.176
				c0-0.896,0.303-1.594,0.91-2.093c0.606-0.499,1.433-0.749,2.478-0.749c0.522,0,1.017,0.061,1.484,0.182s0.961,0.294,1.484,0.519
				l-0.686,1.651c-0.457-0.187-0.868-0.331-1.232-0.434c-0.364-0.103-0.737-0.154-1.12-0.154c-0.402,0-0.709,0.094-0.924,0.28
				s-0.322,0.43-0.322,0.728c0,0.355,0.159,0.635,0.476,0.84c0.317,0.206,0.789,0.458,1.414,0.757
				c0.513,0.242,0.95,0.494,1.309,0.756c0.359,0.261,0.637,0.569,0.833,0.924C219.844,141.813,219.941,142.251,219.941,142.773z"/>
			<path fill="#FF2839" d="M225.611,145.546h-2.114v-8.232h-2.716v-1.764h7.546v1.764h-2.716V145.546z"/>
			<path fill="#FF2839" d="M232.779,135.55c1.363,0,2.368,0.247,3.017,0.742c0.648,0.495,0.973,1.246,0.973,2.254
				c0,0.457-0.086,0.856-0.259,1.197s-0.401,0.63-0.686,0.868c-0.285,0.237-0.59,0.432-0.917,0.581l2.94,4.354h-2.352l-2.38-3.836
				h-1.134v3.836h-2.114v-9.996H232.779z M232.625,137.286h-0.644v2.702h0.686c0.7,0,1.202-0.117,1.505-0.351
				s0.455-0.578,0.455-1.036c0-0.476-0.164-0.813-0.49-1.015C233.811,137.387,233.307,137.286,232.625,137.286z"/>
			<path fill="#FF2839" d="M245.225,145.546l-0.728-2.38h-3.64l-0.728,2.38h-2.282l3.528-10.038h2.59l3.542,10.038H245.225z
				 M243.993,141.388l-0.728-2.324c-0.047-0.158-0.107-0.358-0.182-0.602c-0.075-0.242-0.149-0.49-0.224-0.742
				c-0.075-0.252-0.136-0.471-0.182-0.658c-0.047,0.188-0.11,0.418-0.189,0.693c-0.08,0.275-0.154,0.537-0.224,0.784
				s-0.124,0.422-0.161,0.524l-0.714,2.324H243.993z"/>
			<path fill="#FF2839" d="M251.637,145.546h-2.114v-8.232h-2.716v-1.764h7.546v1.764h-2.716V145.546z"/>
			<path fill="#FF2839" d="M264.686,140.534c0,1.036-0.17,1.938-0.511,2.709c-0.341,0.77-0.863,1.369-1.568,1.799
				s-1.598,0.644-2.681,0.644c-1.083,0-1.976-0.214-2.681-0.644c-0.705-0.43-1.228-1.031-1.568-1.806
				c-0.341-0.775-0.511-1.681-0.511-2.717c0-1.035,0.17-1.937,0.511-2.701c0.34-0.766,0.863-1.36,1.568-1.785
				c0.705-0.425,1.603-0.638,2.695-0.638c1.083,0,1.974,0.213,2.674,0.638c0.7,0.425,1.22,1.021,1.561,1.792
				C264.515,138.595,264.686,139.498,264.686,140.534z M257.392,140.534c0,1.045,0.201,1.869,0.602,2.471
				c0.401,0.602,1.045,0.903,1.932,0.903c0.905,0,1.554-0.302,1.946-0.903s0.588-1.426,0.588-2.471c0-1.046-0.196-1.869-0.588-2.472
				c-0.392-0.602-1.036-0.902-1.932-0.902s-1.545,0.301-1.946,0.902C257.592,138.665,257.392,139.488,257.392,140.534z"/>
			<path fill="#FF2839" d="M269.669,135.55c1.363,0,2.368,0.247,3.017,0.742c0.648,0.495,0.973,1.246,0.973,2.254
				c0,0.457-0.086,0.856-0.259,1.197s-0.401,0.63-0.686,0.868c-0.285,0.237-0.59,0.432-0.917,0.581l2.94,4.354h-2.352l-2.38-3.836
				h-1.134v3.836h-2.114v-9.996H269.669z M269.515,137.286h-0.644v2.702h0.686c0.7,0,1.202-0.117,1.505-0.351
				s0.455-0.578,0.455-1.036c0-0.476-0.164-0.813-0.49-1.015C270.7,137.387,270.196,137.286,269.515,137.286z"/>
		</g>
	</g>
</g>
<g>
	<g>
		<path fill="#FF2839" d="M395,121.632c-33.534,0-60.815-27.281-60.815-60.816C334.185,27.282,361.466,0,395,0
			s60.815,27.282,60.815,60.815C455.816,94.351,428.535,121.632,395,121.632z M395,5.078c-30.733,0-55.737,25.004-55.737,55.737
			c0,30.734,25.004,55.738,55.737,55.738s55.737-25.004,55.737-55.738C450.738,30.082,425.734,5.078,395,5.078z"/>
		<g>
			<path fill="#FF2839" d="M386.623,82.917h-17.681v-4.679l4.733-2.176V50.929l-4.733-2.176v-4.679h17.681v4.679l-4.733,2.176
				v25.134l4.733,2.176V82.917z"/>
			<path fill="#FF2839" d="M402.018,83.461c-3.301,0-5.994-1.296-8.079-3.89c-2.086-2.593-3.128-6.41-3.128-11.451
				c0-5.077,1.051-8.922,3.155-11.533c2.103-2.611,4.859-3.917,8.269-3.917c2.139,0,3.898,0.417,5.277,1.251
				c1.378,0.835,2.466,1.868,3.264,3.101h0.272c-0.109-0.579-0.236-1.423-0.381-2.529c-0.146-1.105-0.218-2.239-0.218-3.4v-9.52
				h8.106v41.345h-6.202l-1.578-3.862h-0.327c-0.798,1.233-1.868,2.276-3.209,3.128C405.898,83.034,404.158,83.461,402.018,83.461z
				 M404.847,76.987c2.212,0,3.772-0.661,4.679-1.985c0.906-1.324,1.396-3.31,1.469-5.957v-0.871c0-2.864-0.444-5.067-1.333-6.609
				c-0.889-1.541-2.53-2.313-4.923-2.313c-1.778,0-3.174,0.771-4.189,2.313c-1.016,1.542-1.523,3.763-1.523,6.664
				c0,2.902,0.507,5.087,1.523,6.556C401.564,76.253,402.997,76.987,404.847,76.987z"/>
		</g>
		<g>
			<path fill="#FF2839" d="M365.146,145.546h-4.55v-1.204l1.218-0.56v-6.469l-1.218-0.56v-1.204h4.55v1.204l-1.218,0.56v6.469
				l1.218,0.56V145.546z"/>
			<path fill="#FF2839" d="M375.716,145.546h-2.688l-4.354-7.56h-0.056c0.019,0.476,0.04,0.951,0.063,1.428
				c0.023,0.476,0.044,0.952,0.063,1.428v4.704h-1.89v-9.996h2.674l4.34,7.49h0.042c-0.019-0.457-0.037-0.915-0.056-1.372
				c-0.019-0.457-0.033-0.919-0.042-1.386v-4.732h1.904V145.546z"/>
			<path fill="#FF2839" d="M386.523,140.45c0,1.689-0.48,2.961-1.442,3.814c-0.961,0.854-2.301,1.281-4.018,1.281h-2.828v-9.996
				h3.136c1.045,0,1.953,0.187,2.723,0.561c0.77,0.373,1.367,0.924,1.792,1.651C386.311,138.49,386.523,139.386,386.523,140.45z
				 M384.326,140.506c0-1.102-0.243-1.913-0.728-2.436c-0.485-0.523-1.19-0.784-2.114-0.784h-1.134v6.51h0.91
				C383.304,143.796,384.326,142.699,384.326,140.506z"/>
			<path fill="#FF2839" d="M394.35,145.546h-5.754v-9.996h5.754v1.736h-3.64v2.198h3.388v1.735h-3.388v2.576h3.64V145.546z"/>
			<path fill="#FF2839" d="M402.329,142.773c0,0.888-0.32,1.595-0.959,2.121c-0.639,0.527-1.547,0.791-2.723,0.791
				c-1.055,0-1.998-0.2-2.828-0.602v-1.974c0.476,0.205,0.968,0.394,1.477,0.566c0.508,0.173,1.015,0.259,1.519,0.259
				c0.522,0,0.894-0.1,1.113-0.301c0.219-0.2,0.329-0.455,0.329-0.763c0-0.252-0.086-0.467-0.259-0.645
				c-0.173-0.177-0.404-0.343-0.693-0.497c-0.289-0.153-0.621-0.319-0.994-0.496c-0.233-0.112-0.486-0.245-0.756-0.399
				s-0.53-0.346-0.777-0.574c-0.248-0.229-0.45-0.506-0.609-0.833c-0.159-0.326-0.238-0.719-0.238-1.176
				c0-0.896,0.303-1.594,0.91-2.093c0.606-0.499,1.433-0.749,2.478-0.749c0.522,0,1.017,0.061,1.484,0.182s0.961,0.294,1.484,0.519
				l-0.686,1.651c-0.457-0.187-0.868-0.331-1.232-0.434c-0.364-0.103-0.737-0.154-1.12-0.154c-0.402,0-0.709,0.094-0.924,0.28
				s-0.322,0.43-0.322,0.728c0,0.355,0.159,0.635,0.476,0.84c0.317,0.206,0.789,0.458,1.414,0.757
				c0.513,0.242,0.95,0.494,1.309,0.756c0.359,0.261,0.637,0.569,0.833,0.924C402.231,141.813,402.329,142.251,402.329,142.773z"/>
			<path fill="#FF2839" d="M407.888,145.546h-4.55v-1.204l1.218-0.56v-6.469l-1.218-0.56v-1.204h4.55v1.204l-1.218,0.56v6.469
				l1.218,0.56V145.546z"/>
			<path fill="#FF2839" d="M413.39,139.932h3.962v5.181c-0.523,0.177-1.069,0.317-1.638,0.42s-1.209,0.153-1.918,0.153
				c-1.493,0-2.642-0.438-3.444-1.315c-0.803-0.877-1.204-2.156-1.204-3.836c0-1.046,0.201-1.951,0.602-2.716
				c0.401-0.766,0.992-1.358,1.771-1.778s1.729-0.63,2.849-0.63c0.532,0,1.054,0.056,1.568,0.168c0.513,0.111,0.98,0.261,1.4,0.448
				l-0.7,1.693c-0.308-0.158-0.658-0.289-1.05-0.392s-0.803-0.154-1.232-0.154c-0.616,0-1.15,0.14-1.603,0.42
				s-0.803,0.677-1.05,1.19c-0.248,0.513-0.371,1.11-0.371,1.792c0,0.653,0.088,1.231,0.266,1.735
				c0.177,0.504,0.457,0.898,0.84,1.184c0.382,0.284,0.882,0.427,1.498,0.427c0.298,0,0.55-0.014,0.756-0.042
				c0.205-0.028,0.401-0.061,0.588-0.098v-2.086h-1.89V139.932z"/>
			<path fill="#FF2839" d="M428.593,145.546h-2.688l-4.354-7.56h-0.056c0.019,0.476,0.04,0.951,0.063,1.428
				c0.023,0.476,0.044,0.952,0.063,1.428v4.704h-1.89v-9.996h2.674l4.339,7.49h0.043c-0.02-0.457-0.037-0.915-0.057-1.372
				c-0.019-0.457-0.033-0.919-0.042-1.386v-4.732h1.904V145.546z"/>
		</g>
	</g>
</g>
<g>
	<g>
		<path fill="#FF2839" d="M562.094,121.632c-33.535,0-60.816-27.281-60.816-60.816C501.278,27.282,528.559,0,562.094,0
			c33.533,0,60.814,27.282,60.814,60.815C622.909,94.351,595.627,121.632,562.094,121.632z M562.094,5.078
			c-30.734,0-55.738,25.004-55.738,55.737c0,30.734,25.004,55.738,55.738,55.738c30.732,0,55.736-25.004,55.736-55.738
			C617.831,30.082,592.827,5.078,562.094,5.078z"/>
		<g>
			<path fill="#FF2839" d="M549.961,44.074c5.006,0,8.658,1.08,10.963,3.237c2.302,2.158,3.453,5.123,3.453,8.895
				c0,2.285-0.471,4.406-1.414,6.365c-0.943,1.958-2.512,3.536-4.705,4.732c-2.195,1.197-5.178,1.795-8.949,1.795h-3.536v13.818
				h-8.215V44.074H549.961z M549.526,50.82h-3.753v11.533h2.72c2.32,0,4.162-0.463,5.521-1.388c1.36-0.925,2.041-2.421,2.041-4.488
				C556.055,52.706,553.878,50.82,549.526,50.82z"/>
			<path fill="#FF2839" d="M587.662,52.67c0.398,0,0.87,0.019,1.414,0.055s0.979,0.091,1.306,0.163l-0.598,7.616
				c-0.291-0.072-0.672-0.137-1.143-0.19c-0.473-0.055-0.89-0.082-1.252-0.082c-1.379,0-2.702,0.245-3.971,0.734
				c-1.271,0.49-2.295,1.278-3.074,2.366c-0.78,1.089-1.17,2.576-1.17,4.461v15.124h-8.105V53.214h6.147l1.196,5.005h0.381
				c0.871-1.523,2.068-2.829,3.591-3.917C583.908,53.214,585.667,52.67,587.662,52.67z"/>
		</g>
		<g>
			<path fill="#FF2839" d="M515.417,135.55c1.288,0,2.228,0.278,2.821,0.833c0.592,0.556,0.889,1.318,0.889,2.289
				c0,0.588-0.121,1.134-0.364,1.638s-0.646,0.91-1.211,1.219c-0.565,0.308-1.333,0.462-2.303,0.462h-0.91v3.556h-2.114v-9.996
				H515.417z M515.305,137.286h-0.966v2.968h0.7c0.598,0,1.07-0.119,1.421-0.357c0.351-0.237,0.524-0.623,0.524-1.154
				C516.985,137.771,516.425,137.286,515.305,137.286z"/>
			<path fill="#FF2839" d="M523.929,135.55c1.362,0,2.368,0.247,3.017,0.742s0.974,1.246,0.974,2.254
				c0,0.457-0.087,0.856-0.259,1.197c-0.174,0.341-0.402,0.63-0.687,0.868c-0.284,0.237-0.591,0.432-0.917,0.581l2.94,4.354h-2.353
				l-2.38-3.836h-1.134v3.836h-2.114v-9.996H523.929z M523.776,137.286h-0.645v2.702h0.686c0.7,0,1.202-0.117,1.506-0.351
				c0.303-0.233,0.455-0.578,0.455-1.036c0-0.476-0.164-0.813-0.49-1.015C524.96,137.387,524.457,137.286,523.776,137.286z"/>
			<path fill="#FF2839" d="M536.011,145.546h-5.755v-9.996h5.755v1.736h-3.64v2.198h3.388v1.735h-3.388v2.576h3.64V145.546z"/>
			<path fill="#FF2839" d="M542.325,145.546l-2.408-7.84h-0.056c0.009,0.187,0.023,0.467,0.042,0.84s0.037,0.774,0.057,1.204
				c0.018,0.43,0.027,0.812,0.027,1.147v4.648h-1.891v-9.996h2.885l2.365,7.645h0.043l2.506-7.645h2.884v9.996h-1.974v-4.732
				c0-0.316,0.007-0.681,0.021-1.092c0.015-0.41,0.028-0.8,0.042-1.169c0.014-0.368,0.025-0.646,0.035-0.833h-0.057l-2.575,7.826
				H542.325z"/>
			<path fill="#FF2839" d="M555.038,145.546h-4.551v-1.204l1.219-0.56v-6.469l-1.219-0.56v-1.204h4.551v1.204l-1.219,0.56v6.469
				l1.219,0.56V145.546z"/>
			<path fill="#FF2839" d="M562.499,145.546h-5.754v-9.996h5.754v1.736h-3.64v2.198h3.388v1.735h-3.388v2.576h3.64V145.546z"/>
			<path fill="#FF2839" d="M567.497,135.55c1.363,0,2.368,0.247,3.018,0.742c0.648,0.495,0.973,1.246,0.973,2.254
				c0,0.457-0.086,0.856-0.26,1.197c-0.172,0.341-0.4,0.63-0.686,0.868c-0.285,0.237-0.59,0.432-0.917,0.581l2.94,4.354h-2.352
				l-2.381-3.836h-1.134v3.836h-2.114v-9.996H567.497z M567.342,137.286h-0.644v2.702h0.687c0.699,0,1.201-0.117,1.504-0.351
				c0.304-0.233,0.455-0.578,0.455-1.036c0-0.476-0.163-0.813-0.49-1.015C568.528,137.387,568.024,137.286,567.342,137.286z"/>
			<path fill="#FF2839" d="M579.579,145.546h-5.754v-9.996h5.754v1.736h-3.641v2.198h3.389v1.735h-3.389v2.576h3.641V145.546z"/>
			<path fill="#FF2839" d="M588.497,135.55c1.288,0,2.229,0.278,2.82,0.833c0.594,0.556,0.89,1.318,0.89,2.289
				c0,0.588-0.122,1.134-0.364,1.638s-0.646,0.91-1.211,1.219c-0.564,0.308-1.332,0.462-2.303,0.462h-0.91v3.556h-2.114v-9.996
				H588.497z M588.384,137.286h-0.966v2.968h0.7c0.597,0,1.071-0.119,1.421-0.357c0.35-0.237,0.525-0.623,0.525-1.154
				C590.065,137.771,589.504,137.286,588.384,137.286z"/>
			<path fill="#FF2839" d="M597.008,135.55c1.363,0,2.368,0.247,3.018,0.742c0.648,0.495,0.973,1.246,0.973,2.254
				c0,0.457-0.086,0.856-0.26,1.197c-0.172,0.341-0.4,0.63-0.686,0.868c-0.285,0.237-0.59,0.432-0.917,0.581l2.94,4.354h-2.352
				l-2.381-3.836h-1.134v3.836h-2.114v-9.996H597.008z M596.854,137.286h-0.644v2.702h0.687c0.699,0,1.201-0.117,1.504-0.351
				c0.304-0.233,0.455-0.578,0.455-1.036c0-0.476-0.163-0.813-0.49-1.015C598.04,137.387,597.536,137.286,596.854,137.286z"/>
			<path fill="#FF2839" d="M612.409,140.534c0,1.036-0.171,1.938-0.512,2.709c-0.341,0.77-0.863,1.369-1.568,1.799
				c-0.704,0.43-1.598,0.644-2.681,0.644s-1.976-0.214-2.681-0.644s-1.228-1.031-1.568-1.806c-0.34-0.775-0.511-1.681-0.511-2.717
				c0-1.035,0.171-1.937,0.511-2.701c0.341-0.766,0.863-1.36,1.568-1.785s1.604-0.638,2.695-0.638c1.082,0,1.974,0.213,2.674,0.638
				c0.699,0.425,1.22,1.021,1.561,1.792C612.238,138.595,612.409,139.498,612.409,140.534z M605.114,140.534
				c0,1.045,0.201,1.869,0.603,2.471s1.045,0.903,1.932,0.903c0.905,0,1.554-0.302,1.946-0.903s0.588-1.426,0.588-2.471
				c0-1.046-0.195-1.869-0.588-2.472c-0.393-0.602-1.036-0.902-1.932-0.902c-0.896,0-1.545,0.301-1.946,0.902
				C605.315,138.665,605.114,139.488,605.114,140.534z"/>
		</g>
	</g>
</g>
<g>
	<g>
		<path fill="#FF2839" d="M60.816,314.064C27.282,314.064,0,286.783,0,253.248c0-33.533,27.282-60.815,60.816-60.815
			s60.816,27.282,60.816,60.815C121.632,286.783,94.35,314.064,60.816,314.064z M60.816,197.511
			c-30.734,0-55.738,25.004-55.738,55.737c0,30.734,25.004,55.738,55.738,55.738s55.738-25.004,55.738-55.738
			C116.554,222.515,91.55,197.511,60.816,197.511z"/>
		<g>
			<path fill="#FF2839" d="M61.741,275.35H52.33l-9.03-14.688l-9.031,14.688h-8.813l12.893-20.02l-12.077-18.823h9.085l8.378,13.981
				l8.215-13.981h8.867L48.63,255.765L61.741,275.35z"/>
			<path fill="#FF2839" d="M75.396,275.894c-3.301,0-5.994-1.296-8.079-3.89c-2.086-2.593-3.128-6.41-3.128-11.451
				c0-5.077,1.051-8.922,3.155-11.533c2.103-2.611,4.859-3.917,8.269-3.917c2.139,0,3.898,0.417,5.277,1.251
				c1.378,0.835,2.466,1.868,3.264,3.101h0.272c-0.109-0.579-0.236-1.423-0.381-2.529c-0.146-1.105-0.218-2.239-0.218-3.4v-9.52
				h8.106v41.345h-6.202l-1.578-3.862h-0.327c-0.798,1.233-1.868,2.276-3.209,3.128C79.276,275.467,77.535,275.894,75.396,275.894z
				 M78.224,269.42c2.212,0,3.772-0.661,4.679-1.985c0.906-1.324,1.396-3.31,1.469-5.957v-0.871c0-2.864-0.444-5.067-1.333-6.609
				c-0.889-1.541-2.53-2.313-4.923-2.313c-1.778,0-3.174,0.771-4.189,2.313c-1.016,1.542-1.523,3.763-1.523,6.664
				c0,2.902,0.507,5.087,1.523,6.556C74.941,268.686,76.375,269.42,78.224,269.42z"/>
		</g>
		<g>
			<path fill="#FF2839" d="M60.305,337.979h-2.422l-2.324-3.78l-2.324,3.78h-2.268l3.318-5.152l-3.108-4.844h2.338l2.156,3.598
				l2.114-3.598h2.282l-3.136,4.956L60.305,337.979z"/>
			<path fill="#FF2839" d="M69.853,332.883c0,1.689-0.48,2.961-1.442,3.814c-0.961,0.854-2.301,1.281-4.018,1.281h-2.828v-9.996
				h3.136c1.045,0,1.953,0.187,2.723,0.561c0.77,0.373,1.367,0.924,1.792,1.651C69.64,330.923,69.853,331.818,69.853,332.883z
				 M67.655,332.938c0-1.102-0.243-1.913-0.728-2.436c-0.485-0.523-1.19-0.784-2.114-0.784h-1.134v6.51h0.91
				C66.633,336.229,67.655,335.132,67.655,332.938z"/>
		</g>
	</g>
</g>
<g>
	<g>
		<path fill="#FF2839" d="M227.908,314.065c-33.534,0-60.815-27.281-60.815-60.816c0-33.533,27.281-60.815,60.815-60.815
			s60.816,27.282,60.816,60.815C288.724,286.784,261.442,314.065,227.908,314.065z M227.908,197.511
			c-30.733,0-55.737,25.004-55.737,55.738s25.004,55.738,55.737,55.738c30.734,0,55.738-25.004,55.738-55.738
			S258.642,197.511,227.908,197.511z"/>
		<g>
			<path fill="#FF2839" d="M232.342,236.508l-13.22,38.843h-8.976l-13.165-38.843h8.323l7.29,23.121
				c0.109,0.399,0.308,1.134,0.598,2.203c0.29,1.07,0.58,2.194,0.871,3.373c0.29,1.179,0.49,2.167,0.599,2.965
				c0.108-0.798,0.299-1.786,0.571-2.965s0.544-2.303,0.816-3.373c0.272-1.069,0.48-1.804,0.625-2.203l7.344-23.121H232.342z"/>
			<path fill="#FF2839" d="M256.769,266.537c0,3.012-1.061,5.323-3.183,6.937c-2.122,1.614-5.286,2.421-9.493,2.421
				c-2.067,0-3.845-0.136-5.332-0.408c-1.487-0.271-2.974-0.716-4.461-1.333v-6.691c1.596,0.727,3.318,1.325,5.168,1.796
				c1.85,0.472,3.482,0.707,4.896,0.707c1.559,0,2.683-0.235,3.373-0.707c0.688-0.471,1.034-1.088,1.034-1.85
				c0-0.508-0.136-0.961-0.408-1.36c-0.272-0.398-0.862-0.852-1.768-1.36c-0.907-0.507-2.322-1.16-4.244-1.958
				c-1.886-0.797-3.418-1.586-4.597-2.366c-1.179-0.779-2.059-1.723-2.639-2.829c-0.581-1.105-0.87-2.493-0.87-4.162
				c0-2.756,1.069-4.822,3.209-6.201c2.14-1.378,4.986-2.067,8.541-2.067c1.85,0,3.608,0.182,5.277,0.544
				c1.668,0.363,3.391,0.961,5.168,1.795l-2.448,5.821c-1.451-0.616-2.829-1.133-4.135-1.551c-1.306-0.416-2.63-0.625-3.971-0.625
				c-2.394,0-3.59,0.652-3.59,1.958c0,0.472,0.154,0.897,0.462,1.278c0.308,0.381,0.906,0.789,1.795,1.225
				c0.888,0.435,2.203,1.016,3.944,1.74c1.704,0.689,3.173,1.406,4.407,2.149c1.232,0.743,2.185,1.678,2.856,2.802
				C256.433,263.364,256.769,264.797,256.769,266.537z"/>
		</g>
		<g>
			<path fill="#FF2839" d="M185.195,327.982l-3.402,9.996h-2.31l-3.388-9.996h2.142l1.876,5.95c0.028,0.103,0.079,0.292,0.154,0.567
				s0.149,0.564,0.224,0.867c0.075,0.304,0.126,0.559,0.154,0.764c0.028-0.205,0.077-0.46,0.147-0.764
				c0.07-0.303,0.14-0.592,0.21-0.867c0.07-0.275,0.124-0.465,0.161-0.567l1.89-5.95H185.195z"/>
			<path fill="#FF2839" d="M190.193,337.979h-4.55v-1.204l1.218-0.56v-6.469l-1.218-0.56v-1.204h4.55v1.204l-1.218,0.56v6.469
				l1.218,0.56V337.979z"/>
			<path fill="#FF2839" d="M197.794,335.206c0,0.888-0.32,1.595-0.959,2.121c-0.639,0.527-1.547,0.791-2.723,0.791
				c-1.055,0-1.998-0.2-2.828-0.602v-1.974c0.476,0.205,0.968,0.394,1.477,0.566c0.508,0.173,1.015,0.259,1.519,0.259
				c0.522,0,0.894-0.1,1.113-0.301c0.219-0.2,0.329-0.455,0.329-0.763c0-0.252-0.086-0.467-0.259-0.645
				c-0.173-0.177-0.404-0.343-0.693-0.497c-0.289-0.153-0.621-0.319-0.994-0.496c-0.233-0.112-0.486-0.245-0.756-0.399
				s-0.53-0.346-0.777-0.574c-0.248-0.229-0.45-0.506-0.609-0.833c-0.159-0.326-0.238-0.719-0.238-1.176
				c0-0.896,0.303-1.594,0.91-2.093c0.606-0.499,1.433-0.749,2.478-0.749c0.522,0,1.017,0.061,1.484,0.182s0.961,0.294,1.484,0.519
				l-0.686,1.651c-0.457-0.187-0.868-0.331-1.232-0.434c-0.364-0.103-0.737-0.154-1.12-0.154c-0.402,0-0.709,0.094-0.924,0.28
				s-0.322,0.43-0.322,0.728c0,0.355,0.159,0.635,0.476,0.84c0.317,0.206,0.789,0.458,1.414,0.757
				c0.513,0.242,0.95,0.494,1.309,0.756c0.359,0.261,0.637,0.569,0.833,0.924C197.697,334.245,197.794,334.684,197.794,335.206z"/>
			<path fill="#FF2839" d="M207.749,327.982v6.468c0,0.691-0.152,1.314-0.455,1.869c-0.303,0.556-0.763,0.994-1.379,1.316
				c-0.616,0.321-1.386,0.482-2.31,0.482c-1.325,0-2.333-0.338-3.024-1.015c-0.691-0.677-1.036-1.57-1.036-2.681v-6.44h2.114v6.118
				c0,0.831,0.168,1.412,0.504,1.743s0.835,0.497,1.498,0.497c0.69,0,1.192-0.183,1.505-0.546c0.313-0.364,0.469-0.934,0.469-1.708
				v-6.104H207.749z"/>
			<path fill="#FF2839" d="M216.176,337.979l-0.728-2.38h-3.64l-0.728,2.38h-2.282l3.528-10.038h2.59l3.542,10.038H216.176z
				 M214.944,333.82l-0.728-2.324c-0.047-0.158-0.107-0.358-0.182-0.602c-0.075-0.242-0.149-0.49-0.224-0.742
				c-0.075-0.252-0.136-0.471-0.182-0.658c-0.047,0.188-0.11,0.418-0.189,0.693c-0.08,0.275-0.154,0.537-0.224,0.784
				s-0.124,0.422-0.161,0.524l-0.714,2.324H214.944z"/>
			<path fill="#FF2839" d="M219.718,337.979v-9.996h2.114v8.246h4.06v1.75H219.718z"/>
			<path fill="#FF2839" d="M233.522,335.206c0,0.888-0.32,1.595-0.959,2.121c-0.639,0.527-1.547,0.791-2.723,0.791
				c-1.055,0-1.998-0.2-2.828-0.602v-1.974c0.476,0.205,0.968,0.394,1.477,0.566c0.508,0.173,1.015,0.259,1.519,0.259
				c0.522,0,0.894-0.1,1.113-0.301c0.219-0.2,0.329-0.455,0.329-0.763c0-0.252-0.086-0.467-0.259-0.645
				c-0.173-0.177-0.404-0.343-0.693-0.497c-0.289-0.153-0.621-0.319-0.994-0.496c-0.233-0.112-0.486-0.245-0.756-0.399
				s-0.53-0.346-0.777-0.574c-0.248-0.229-0.45-0.506-0.609-0.833c-0.159-0.326-0.238-0.719-0.238-1.176
				c0-0.896,0.303-1.594,0.91-2.093c0.606-0.499,1.433-0.749,2.478-0.749c0.522,0,1.017,0.061,1.484,0.182s0.961,0.294,1.484,0.519
				l-0.686,1.651c-0.457-0.187-0.868-0.331-1.232-0.434c-0.364-0.103-0.737-0.154-1.12-0.154c-0.402,0-0.709,0.094-0.924,0.28
				s-0.322,0.43-0.322,0.728c0,0.355,0.159,0.635,0.476,0.84c0.317,0.206,0.789,0.458,1.414,0.757
				c0.513,0.242,0.95,0.494,1.309,0.756c0.359,0.261,0.637,0.569,0.833,0.924C233.424,334.245,233.522,334.684,233.522,335.206z"/>
			<path fill="#FF2839" d="M239.192,337.979h-2.114v-8.232h-2.716v-1.764h7.546v1.764h-2.716V337.979z"/>
			<path fill="#FF2839" d="M251.582,327.982v6.468c0,0.691-0.152,1.314-0.455,1.869c-0.303,0.556-0.763,0.994-1.379,1.316
				c-0.616,0.321-1.386,0.482-2.31,0.482c-1.325,0-2.333-0.338-3.024-1.015c-0.691-0.677-1.036-1.57-1.036-2.681v-6.44h2.114v6.118
				c0,0.831,0.168,1.412,0.504,1.743s0.835,0.497,1.498,0.497c0.69,0,1.192-0.183,1.505-0.546c0.313-0.364,0.469-0.934,0.469-1.708
				v-6.104H251.582z"/>
			<path fill="#FF2839" d="M262.32,332.883c0,1.689-0.48,2.961-1.442,3.814c-0.961,0.854-2.301,1.281-4.018,1.281h-2.828v-9.996
				h3.136c1.045,0,1.953,0.187,2.723,0.561c0.77,0.373,1.367,0.924,1.792,1.651C262.107,330.923,262.32,331.818,262.32,332.883z
				 M260.122,332.938c0-1.102-0.243-1.913-0.728-2.436c-0.485-0.523-1.19-0.784-2.114-0.784h-1.134v6.51h0.91
				C259.1,336.229,260.122,335.132,260.122,332.938z"/>
			<path fill="#FF2839" d="M268.13,337.979h-4.55v-1.204l1.218-0.56v-6.469l-1.218-0.56v-1.204h4.55v1.204l-1.218,0.56v6.469
				l1.218,0.56V337.979z"/>
			<path fill="#FF2839" d="M278.91,332.967c0,1.036-0.17,1.938-0.511,2.709c-0.341,0.77-0.863,1.369-1.568,1.799
				s-1.598,0.644-2.681,0.644c-1.083,0-1.976-0.214-2.681-0.644c-0.705-0.43-1.228-1.031-1.568-1.806
				c-0.341-0.775-0.511-1.681-0.511-2.717c0-1.035,0.17-1.937,0.511-2.701c0.34-0.766,0.863-1.36,1.568-1.785
				c0.705-0.425,1.603-0.638,2.695-0.638c1.083,0,1.974,0.213,2.674,0.638c0.7,0.425,1.22,1.021,1.561,1.792
				C278.739,331.027,278.91,331.931,278.91,332.967z M271.616,332.967c0,1.045,0.201,1.869,0.602,2.471
				c0.401,0.602,1.045,0.903,1.932,0.903c0.905,0,1.554-0.302,1.946-0.903s0.588-1.426,0.588-2.471c0-1.046-0.196-1.869-0.588-2.472
				c-0.392-0.602-1.036-0.902-1.932-0.902s-1.545,0.301-1.946,0.902C271.816,331.098,271.616,331.921,271.616,332.967z"/>
		</g>
	</g>
</g>
<g>
	<g>
		<path fill="#FF2839" d="M395,314.065c-33.534,0-60.815-27.281-60.815-60.816c0-33.533,27.281-60.815,60.815-60.815
			s60.815,27.282,60.815,60.815C455.816,286.784,428.535,314.065,395,314.065z M395,197.511c-30.734,0-55.738,25.004-55.738,55.738
			s25.004,55.738,55.738,55.738c30.735,0,55.739-25.004,55.739-55.738S425.736,197.511,395,197.511z"/>
		<g>
			<path fill="#FF2839" d="M388.69,255.549c0,6.564-1.868,11.506-5.603,14.824c-3.736,3.318-8.941,4.978-15.613,4.978h-10.989
				v-38.843h12.186c4.062,0,7.589,0.727,10.581,2.177s5.313,3.59,6.963,6.419C387.865,247.933,388.69,251.414,388.69,255.549z
				 M380.149,255.766c0-4.278-0.943-7.434-2.829-9.466c-1.886-2.03-4.624-3.046-8.215-3.046H364.7v25.297h3.536
				C376.178,268.551,380.149,264.289,380.149,255.766z"/>
			<path fill="#FF2839" d="M420.515,275.351l-2.285-10.391c-0.146-0.616-0.354-1.532-0.626-2.747
				c-0.272-1.215-0.571-2.521-0.897-3.917c-0.326-1.396-0.635-2.684-0.925-3.862c-0.291-1.179-0.49-2.04-0.598-2.584h-0.218
				c-0.109,0.544-0.299,1.405-0.571,2.584s-0.571,2.467-0.897,3.862c-0.327,1.396-0.635,2.712-0.925,3.944
				c-0.291,1.233-0.508,2.176-0.653,2.828l-2.394,10.282h-8.705l-8.432-29.703h8.051l3.427,13.165c0.253,0.943,0.48,2.04,0.68,3.291
				c0.199,1.252,0.381,2.467,0.544,3.646c0.164,1.179,0.299,2.113,0.408,2.802h0.218c0.036-0.508,0.108-1.188,0.217-2.04
				s0.245-1.731,0.408-2.639c0.163-0.906,0.308-1.723,0.435-2.448c0.127-0.725,0.226-1.232,0.299-1.523l3.645-14.253h8.922
				l3.481,14.253c0.109,0.509,0.272,1.324,0.49,2.448c0.217,1.125,0.398,2.267,0.544,3.428c0.145,1.161,0.235,2.086,0.272,2.774
				h0.217c0.072-0.616,0.199-1.515,0.381-2.693c0.182-1.178,0.39-2.411,0.626-3.699c0.235-1.287,0.479-2.402,0.734-3.346
				l3.536-13.165h7.942l-8.541,29.703H420.515z"/>
		</g>
		<g>
			<path fill="#FF2839" d="M351.069,332.883c0,1.689-0.48,2.961-1.442,3.814c-0.961,0.854-2.301,1.281-4.018,1.281h-2.828v-9.996
				h3.136c1.045,0,1.953,0.187,2.723,0.561c0.77,0.373,1.367,0.924,1.792,1.651C350.856,330.923,351.069,331.818,351.069,332.883z
				 M348.871,332.938c0-1.102-0.243-1.913-0.728-2.436c-0.485-0.523-1.19-0.784-2.114-0.784h-1.134v6.51h0.91
				C347.849,336.229,348.871,335.132,348.871,332.938z"/>
			<path fill="#FF2839" d="M356.053,327.982c1.363,0,2.368,0.247,3.017,0.742c0.648,0.495,0.973,1.246,0.973,2.254
				c0,0.457-0.086,0.856-0.259,1.197s-0.401,0.63-0.686,0.868c-0.285,0.237-0.59,0.432-0.917,0.581l2.94,4.354h-2.352l-2.38-3.836
				h-1.134v3.836h-2.114v-9.996H356.053z M355.899,329.719h-0.644v2.702h0.686c0.7,0,1.202-0.117,1.505-0.351
				s0.455-0.578,0.455-1.036c0-0.476-0.164-0.813-0.49-1.015C357.084,329.819,356.58,329.719,355.899,329.719z"/>
			<path fill="#FF2839" d="M368.135,337.979h-5.754v-9.996h5.754v1.736h-3.64v2.198h3.388v1.735h-3.388v2.576h3.64V337.979z"/>
			<path fill="#FF2839" d="M376.338,337.979l-0.728-2.38h-3.64l-0.728,2.38h-2.282l3.528-10.038h2.59l3.542,10.038H376.338z
				 M375.106,333.82l-0.728-2.324c-0.047-0.158-0.107-0.358-0.182-0.602c-0.075-0.242-0.149-0.49-0.224-0.742
				c-0.075-0.252-0.136-0.471-0.182-0.658c-0.047,0.188-0.11,0.418-0.189,0.693c-0.08,0.275-0.154,0.537-0.224,0.784
				s-0.124,0.422-0.161,0.524l-0.714,2.324H375.106z"/>
			<path fill="#FF2839" d="M384.108,337.979l-2.408-7.84h-0.056c0.009,0.187,0.023,0.467,0.042,0.84s0.037,0.774,0.056,1.204
				c0.019,0.43,0.028,0.812,0.028,1.147v4.648h-1.89v-9.996h2.884l2.366,7.645h0.042l2.506-7.645h2.884v9.996h-1.974v-4.732
				c0-0.316,0.007-0.681,0.021-1.092c0.014-0.41,0.028-0.8,0.042-1.169c0.014-0.368,0.026-0.646,0.035-0.833h-0.056l-2.576,7.826
				H384.108z"/>
			<path fill="#FF2839" d="M405.36,327.982l-2.548,9.996h-2.408l-1.358-5.25c-0.028-0.103-0.063-0.257-0.105-0.462
				s-0.089-0.43-0.14-0.672c-0.051-0.243-0.098-0.472-0.14-0.687c-0.042-0.214-0.068-0.387-0.077-0.518
				c-0.01,0.131-0.035,0.304-0.077,0.518c-0.042,0.215-0.086,0.441-0.133,0.68c-0.046,0.237-0.093,0.462-0.14,0.672
				c-0.047,0.21-0.084,0.371-0.112,0.482l-1.344,5.236h-2.408l-2.548-9.996h2.086l1.274,5.46c0.056,0.215,0.117,0.485,0.182,0.813
				c0.065,0.326,0.126,0.653,0.182,0.979c0.056,0.327,0.098,0.603,0.126,0.826c0.028-0.233,0.07-0.511,0.126-0.833
				s0.114-0.635,0.175-0.938c0.061-0.303,0.114-0.538,0.161-0.707l1.456-5.6h2.002l1.456,5.6c0.046,0.169,0.1,0.404,0.161,0.707
				c0.061,0.304,0.119,0.619,0.175,0.945c0.056,0.327,0.098,0.603,0.126,0.826c0.028-0.233,0.07-0.511,0.126-0.833
				s0.119-0.644,0.189-0.966c0.07-0.322,0.128-0.595,0.175-0.819l1.274-5.46H405.36z"/>
			<path fill="#FF2839" d="M412.375,337.979h-5.754v-9.996h5.754v1.736h-3.64v2.198h3.388v1.735h-3.388v2.576h3.64V337.979z"/>
			<path fill="#FF2839" d="M420.578,337.979l-0.728-2.38h-3.64l-0.728,2.38H413.2l3.528-10.038h2.59l3.542,10.038H420.578z
				 M419.346,333.82l-0.728-2.324c-0.047-0.158-0.107-0.358-0.182-0.602c-0.075-0.242-0.149-0.49-0.224-0.742
				c-0.075-0.252-0.136-0.471-0.182-0.658c-0.047,0.188-0.11,0.418-0.189,0.693c-0.08,0.275-0.154,0.537-0.224,0.784
				s-0.124,0.422-0.161,0.524l-0.714,2.324H419.346z"/>
			<path fill="#FF2839" d="M431.401,327.982l-3.402,9.996h-2.311l-3.388-9.996h2.142l1.877,5.95
				c0.027,0.103,0.078,0.292,0.153,0.567s0.149,0.564,0.224,0.867c0.075,0.304,0.127,0.559,0.154,0.764
				c0.028-0.205,0.077-0.46,0.146-0.764c0.07-0.303,0.141-0.592,0.211-0.867s0.123-0.465,0.16-0.567l1.891-5.95H431.401z"/>
			<path fill="#FF2839" d="M438.415,337.979h-5.755v-9.996h5.755v1.736h-3.641v2.198h3.389v1.735h-3.389v2.576h3.641V337.979z"/>
			<path fill="#FF2839" d="M443.413,327.982c1.362,0,2.367,0.247,3.017,0.742c0.648,0.495,0.974,1.246,0.974,2.254
				c0,0.457-0.087,0.856-0.26,1.197s-0.401,0.63-0.686,0.868c-0.285,0.237-0.591,0.432-0.918,0.581l2.941,4.354h-2.353l-2.38-3.836
				h-1.135v3.836H440.5v-9.996H443.413z M443.258,329.719h-0.645v2.702h0.687c0.7,0,1.202-0.117,1.505-0.351
				s0.455-0.578,0.455-1.036c0-0.476-0.164-0.813-0.49-1.015C444.444,329.819,443.94,329.719,443.258,329.719z"/>
		</g>
	</g>
</g>
<g>
	<g>
		<path fill="#FF2839" d="M562.094,314.065c-33.535,0-60.816-27.281-60.816-60.816c0-33.533,27.281-60.815,60.816-60.815
			c33.533,0,60.814,27.282,60.814,60.815C622.909,286.784,595.627,314.065,562.094,314.065z M562.094,197.511
			c-30.734,0-55.738,25.004-55.738,55.738s25.004,55.738,55.738,55.738c30.732,0,55.736-25.004,55.736-55.738
			S592.827,197.511,562.094,197.511z"/>
		<g>
			<path fill="#FF2839" d="M558.393,275.351h-22.358v-38.843h22.358v6.746H544.25v8.541h13.165v6.746H544.25v10.01h14.144V275.351z"
				/>
			<path fill="#FF2839" d="M571.94,260.173l-9.574-14.525h9.193l5.767,9.466l5.821-9.466h9.193l-9.684,14.525l10.119,15.178h-9.194
				l-6.256-10.173l-6.257,10.173h-9.193L571.94,260.173z"/>
		</g>
		<g>
			<path fill="#FF2839" d="M548.325,337.979h-5.755v-9.996h5.755v1.736h-3.641v2.198h3.389v1.735h-3.389v2.576h3.641V337.979z"/>
			<path fill="#FF2839" d="M558.488,337.979h-2.422l-2.324-3.78l-2.323,3.78h-2.269l3.317-5.152l-3.107-4.844h2.338l2.156,3.598
				l2.113-3.598h2.283l-3.137,4.956L558.488,337.979z"/>
			<path fill="#FF2839" d="M563.709,329.606c-0.812,0-1.432,0.304-1.861,0.91s-0.645,1.438-0.645,2.492
				c0,1.063,0.199,1.888,0.596,2.471s1.033,0.875,1.91,0.875c0.402,0,0.808-0.047,1.219-0.14c0.41-0.094,0.854-0.225,1.33-0.393
				v1.778c-0.439,0.178-0.873,0.308-1.303,0.392s-0.91,0.126-1.441,0.126c-1.036,0-1.886-0.212-2.549-0.637
				c-0.662-0.425-1.152-1.021-1.469-1.792c-0.318-0.77-0.477-1.668-0.477-2.695c0-1.008,0.182-1.898,0.546-2.674
				c0.364-0.774,0.894-1.381,1.589-1.819c0.695-0.439,1.547-0.658,2.555-0.658c0.495,0,0.992,0.063,1.492,0.188
				c0.498,0.126,0.977,0.297,1.435,0.512l-0.687,1.722c-0.373-0.178-0.748-0.331-1.127-0.462
				C564.445,329.672,564.075,329.606,563.709,329.606z"/>
			<path fill="#FF2839" d="M574.14,337.979h-5.755v-9.996h5.755v1.736h-3.64v2.198h3.388v1.735H570.5v2.576h3.64V337.979z"/>
			<path fill="#FF2839" d="M576.225,337.979v-9.996h2.115v8.246h4.06v1.75H576.225z"/>
		</g>
	</g>
</g>
<g>
	<g>
		<path fill="#FF2839" d="M729.186,121.632c-33.535,0-60.816-27.281-60.816-60.816C668.37,27.282,695.651,0,729.186,0
			C762.719,0,790,27.282,790,60.815C790,94.351,762.719,121.632,729.186,121.632z M729.186,5.077
			c-30.734,0-55.738,25.004-55.738,55.738s25.004,55.738,55.738,55.738s55.738-25.004,55.738-55.738S759.92,5.077,729.186,5.077z"/>
		<g>
			<path fill="#FF2839" d="M723.011,82.917l-2.829-9.248h-14.145l-2.828,9.248h-8.867l13.709-39.006h10.064l13.764,39.006H723.011z
				 M718.224,66.76l-2.829-9.03c-0.182-0.616-0.418-1.396-0.707-2.34c-0.291-0.942-0.58-1.903-0.871-2.883
				c-0.29-0.979-0.525-1.831-0.707-2.557c-0.182,0.726-0.426,1.623-0.734,2.692c-0.309,1.07-0.598,2.086-0.87,3.047
				s-0.481,1.641-0.626,2.04l-2.773,9.03H718.224z"/>
			<path fill="#FF2839" d="M748.362,52.67c4.098,0,7.344,1.17,9.738,3.509c2.393,2.339,3.59,5.667,3.59,9.982v3.917h-19.149
				c0.072,2.285,0.753,4.08,2.04,5.386s3.074,1.959,5.358,1.959c1.886,0,3.618-0.19,5.195-0.571s3.2-0.97,4.869-1.769v6.256
				c-1.487,0.727-3.028,1.261-4.624,1.605c-1.596,0.344-3.536,0.517-5.82,0.517c-2.975,0-5.604-0.553-7.889-1.659
				c-2.285-1.105-4.08-2.774-5.386-5.005s-1.958-5.067-1.958-8.514c0-3.445,0.588-6.328,1.768-8.65
				c1.178-2.32,2.819-4.061,4.924-5.222C743.12,53.25,745.569,52.67,748.362,52.67z M748.417,58.437
				c-1.597,0-2.902,0.508-3.918,1.523s-1.613,2.593-1.795,4.732h11.37c-0.036-1.776-0.517-3.264-1.442-4.461
				C751.708,59.035,750.301,58.437,748.417,58.437z"/>
		</g>
		<g>
			<path fill="#FF2839" d="M685.583,145.545l-0.729-2.38h-3.64l-0.728,2.38h-2.282l3.528-10.038h2.59l3.542,10.038H685.583z
				 M684.35,141.387l-0.728-2.324c-0.047-0.158-0.107-0.358-0.183-0.602c-0.074-0.242-0.148-0.49-0.223-0.742
				c-0.076-0.252-0.137-0.471-0.183-0.658c-0.047,0.188-0.11,0.418-0.188,0.693c-0.08,0.275-0.154,0.537-0.225,0.784
				s-0.124,0.422-0.161,0.524l-0.714,2.324H684.35z"/>
			<path fill="#FF2839" d="M691.21,145.545h-2.087v-9.996h5.727v1.736h-3.64v2.576h3.388v1.735h-3.388V145.545z"/>
			<path fill="#FF2839" d="M700.661,145.545h-2.114v-8.232h-2.716v-1.764h7.546v1.764h-2.716V145.545z"/>
			<path fill="#FF2839" d="M710.67,145.545h-5.754v-9.996h5.754v1.736h-3.641v2.198h3.389v1.735h-3.389v2.576h3.641V145.545z"/>
			<path fill="#FF2839" d="M715.668,135.549c1.362,0,2.367,0.247,3.017,0.742c0.648,0.495,0.974,1.246,0.974,2.254
				c0,0.457-0.087,0.856-0.26,1.197s-0.401,0.63-0.686,0.868c-0.285,0.237-0.591,0.432-0.918,0.581l2.941,4.354h-2.353l-2.38-3.836
				h-1.135v3.836h-2.113v-9.996H715.668z M715.514,137.285h-0.645v2.702h0.687c0.7,0,1.202-0.117,1.505-0.351
				s0.455-0.578,0.455-1.036c0-0.476-0.164-0.813-0.49-1.015C716.7,137.386,716.196,137.285,715.514,137.285z"/>
			<path fill="#FF2839" d="M731.39,145.545h-5.755v-9.996h5.755v1.736h-3.64v2.198h3.388v1.735h-3.388v2.576h3.64V145.545z"/>
			<path fill="#FF2839" d="M735.562,145.545h-2.087v-9.996h5.727v1.736h-3.64v2.576h3.388v1.735h-3.388V145.545z"/>
			<path fill="#FF2839" d="M743.249,145.545h-2.087v-9.996h5.726v1.736h-3.639v2.576h3.387v1.735h-3.387V145.545z"/>
			<path fill="#FF2839" d="M754.602,145.545h-5.754v-9.996h5.754v1.736h-3.641v2.198h3.389v1.735h-3.389v2.576h3.641V145.545z"/>
			<path fill="#FF2839" d="M760.93,137.173c-0.813,0-1.434,0.304-1.862,0.91c-0.43,0.606-0.644,1.438-0.644,2.492
				c0,1.063,0.197,1.888,0.594,2.471c0.397,0.583,1.034,0.875,1.912,0.875c0.4,0,0.807-0.047,1.218-0.14
				c0.41-0.094,0.854-0.225,1.329-0.393v1.778c-0.438,0.178-0.872,0.308-1.301,0.392c-0.43,0.084-0.91,0.126-1.442,0.126
				c-1.036,0-1.886-0.212-2.548-0.637c-0.663-0.425-1.153-1.021-1.471-1.792c-0.316-0.77-0.476-1.668-0.476-2.695
				c0-1.008,0.183-1.898,0.546-2.674c0.364-0.774,0.894-1.381,1.589-1.819c0.695-0.439,1.548-0.658,2.556-0.658
				c0.494,0,0.991,0.063,1.49,0.188c0.5,0.126,0.979,0.297,1.436,0.512l-0.686,1.722c-0.374-0.178-0.75-0.331-1.127-0.462
				C761.665,137.238,761.293,137.173,760.93,137.173z"/>
			<path fill="#FF2839" d="M769.456,145.545h-2.113v-8.232h-2.717v-1.764h7.547v1.764h-2.717V145.545z"/>
			<path fill="#FF2839" d="M779.606,142.772c0,0.888-0.32,1.595-0.959,2.121c-0.64,0.527-1.547,0.791-2.723,0.791
				c-1.056,0-1.998-0.2-2.828-0.602v-1.974c0.476,0.205,0.968,0.394,1.477,0.566c0.508,0.173,1.016,0.259,1.52,0.259
				c0.521,0,0.893-0.1,1.112-0.301c0.22-0.2,0.329-0.455,0.329-0.763c0-0.252-0.086-0.467-0.259-0.645
				c-0.173-0.177-0.404-0.343-0.693-0.497c-0.289-0.153-0.62-0.319-0.993-0.496c-0.234-0.112-0.486-0.245-0.757-0.399
				s-0.53-0.346-0.776-0.574c-0.248-0.229-0.451-0.506-0.609-0.833c-0.159-0.326-0.238-0.719-0.238-1.176
				c0-0.896,0.303-1.594,0.91-2.093c0.606-0.499,1.433-0.749,2.479-0.749c0.521,0,1.017,0.061,1.483,0.182s0.962,0.294,1.483,0.519
				l-0.686,1.651c-0.457-0.187-0.867-0.331-1.232-0.434c-0.363-0.103-0.736-0.154-1.119-0.154c-0.402,0-0.709,0.094-0.924,0.28
				s-0.322,0.43-0.322,0.728c0,0.355,0.158,0.635,0.477,0.84c0.316,0.206,0.788,0.458,1.413,0.757
				c0.513,0.242,0.95,0.494,1.31,0.756c0.359,0.261,0.637,0.569,0.832,0.924C779.508,141.812,779.606,142.25,779.606,142.772z"/>
		</g>
	</g>
</g>
<g>
	<g>
		<path fill="#FF2839" d="M729.184,314.065c-33.533,0-60.814-27.281-60.814-60.816c0-33.533,27.281-60.815,60.814-60.815
			c33.535,0,60.816,27.282,60.816,60.815C790,286.784,762.719,314.065,729.184,314.065z M729.184,197.511
			c-30.732,0-55.736,25.004-55.736,55.738s25.004,55.738,55.736,55.738c30.734,0,55.738-25.004,55.738-55.738
			S759.918,197.511,729.184,197.511z"/>
		<g>
			<path fill="#FF2839" d="M706.12,236.508c5.004,0,8.658,1.08,10.961,3.237c2.303,2.158,3.455,5.123,3.455,8.895
				c0,2.285-0.473,4.406-1.414,6.365c-0.944,1.958-2.513,3.536-4.707,4.732c-2.194,1.197-5.177,1.795-8.948,1.795h-3.536v13.818
				h-8.215v-38.843H706.12z M705.684,243.254h-3.754v11.533h2.72c2.321,0,4.162-0.463,5.522-1.388
				c1.359-0.925,2.039-2.421,2.039-4.488C712.211,245.14,710.036,243.254,705.684,243.254z"/>
			<path fill="#FF2839" d="M751.653,275.351l-2.285-10.391c-0.146-0.616-0.354-1.532-0.626-2.747s-0.571-2.521-0.897-3.917
				c-0.326-1.396-0.635-2.684-0.925-3.862s-0.489-2.04-0.599-2.584h-0.217c-0.109,0.544-0.3,1.405-0.572,2.584
				c-0.271,1.179-0.57,2.467-0.896,3.862c-0.327,1.396-0.636,2.712-0.926,3.944c-0.291,1.233-0.508,2.176-0.652,2.828l-2.394,10.282
				h-8.704l-8.433-29.703h8.052l3.427,13.165c0.253,0.943,0.48,2.04,0.681,3.291c0.199,1.252,0.381,2.467,0.543,3.646
				c0.164,1.179,0.3,2.113,0.408,2.802h0.219c0.035-0.508,0.107-1.188,0.217-2.04s0.245-1.731,0.408-2.639
				c0.163-0.906,0.308-1.723,0.436-2.448c0.127-0.725,0.226-1.232,0.299-1.523l3.645-14.253h8.922l3.482,14.253
				c0.108,0.509,0.271,1.324,0.489,2.448c0.218,1.125,0.398,2.267,0.544,3.428c0.145,1.161,0.235,2.086,0.271,2.774h0.219
				c0.072-0.616,0.198-1.515,0.38-2.693c0.181-1.178,0.39-2.411,0.626-3.699c0.235-1.287,0.48-2.402,0.734-3.346l3.536-13.165h7.942
				l-8.541,29.703H751.653z"/>
		</g>
		<g>
			<path fill="#FF2839" d="M685.995,327.982c1.289,0,2.229,0.278,2.821,0.833c0.593,0.556,0.89,1.318,0.89,2.289
				c0,0.588-0.122,1.134-0.365,1.638c-0.242,0.504-0.646,0.91-1.211,1.219c-0.564,0.308-1.332,0.462-2.303,0.462h-0.91v3.556h-2.113
				v-9.996H685.995z M685.883,329.719h-0.967v2.968h0.701c0.597,0,1.07-0.119,1.42-0.357c0.351-0.237,0.525-0.623,0.525-1.154
				C687.563,330.204,687.002,329.719,685.883,329.719z"/>
			<path fill="#FF2839" d="M700.667,332.967c0,1.036-0.17,1.938-0.511,2.709c-0.341,0.77-0.863,1.369-1.567,1.799
				c-0.705,0.43-1.599,0.644-2.682,0.644c-1.082,0-1.977-0.214-2.681-0.644c-0.705-0.43-1.228-1.031-1.567-1.806
				c-0.342-0.775-0.512-1.681-0.512-2.717c0-1.035,0.17-1.937,0.512-2.701c0.34-0.766,0.862-1.36,1.567-1.785
				c0.704-0.425,1.603-0.638,2.694-0.638c1.083,0,1.975,0.213,2.674,0.638c0.701,0.425,1.221,1.021,1.562,1.792
				C700.497,331.027,700.667,331.931,700.667,332.967z M693.374,332.967c0,1.045,0.2,1.869,0.602,2.471
				c0.4,0.602,1.045,0.903,1.932,0.903c0.905,0,1.555-0.302,1.946-0.903s0.588-1.426,0.588-2.471c0-1.046-0.196-1.869-0.588-2.472
				c-0.392-0.602-1.036-0.902-1.933-0.902c-0.896,0-1.545,0.301-1.945,0.902C693.574,331.098,693.374,331.921,693.374,332.967z"/>
			<path fill="#FF2839" d="M714.877,327.982l-2.549,9.996h-2.408l-1.357-5.25c-0.028-0.103-0.063-0.257-0.105-0.462
				c-0.041-0.205-0.088-0.43-0.14-0.672c-0.052-0.243-0.099-0.472-0.14-0.687c-0.043-0.214-0.068-0.387-0.077-0.518
				c-0.01,0.131-0.035,0.304-0.077,0.518c-0.042,0.215-0.086,0.441-0.133,0.68c-0.047,0.237-0.094,0.462-0.141,0.672
				s-0.084,0.371-0.111,0.482l-1.344,5.236h-2.408l-2.549-9.996h2.086l1.274,5.46c0.056,0.215,0.116,0.485,0.183,0.813
				c0.064,0.326,0.125,0.653,0.182,0.979c0.056,0.327,0.098,0.603,0.126,0.826c0.028-0.233,0.069-0.511,0.126-0.833
				s0.114-0.635,0.175-0.938c0.061-0.303,0.114-0.538,0.161-0.707l1.456-5.6h2.002l1.456,5.6c0.047,0.169,0.1,0.404,0.161,0.707
				c0.061,0.304,0.118,0.619,0.175,0.945c0.057,0.327,0.098,0.603,0.126,0.826c0.028-0.233,0.069-0.511,0.126-0.833
				s0.119-0.644,0.189-0.966s0.128-0.595,0.175-0.819l1.274-5.46H714.877z"/>
			<path fill="#FF2839" d="M721.891,337.979h-5.755v-9.996h5.755v1.736h-3.641v2.198h3.389v1.735h-3.389v2.576h3.641V337.979z"/>
			<path fill="#FF2839" d="M726.889,327.982c1.362,0,2.367,0.247,3.017,0.742c0.648,0.495,0.974,1.246,0.974,2.254
				c0,0.457-0.087,0.856-0.26,1.197s-0.401,0.63-0.686,0.868c-0.285,0.237-0.591,0.432-0.918,0.581l2.941,4.354h-2.353l-2.38-3.836
				h-1.135v3.836h-2.113v-9.996H726.889z M726.735,329.719h-0.645v2.702h0.687c0.7,0,1.202-0.117,1.505-0.351
				s0.455-0.578,0.455-1.036c0-0.476-0.164-0.813-0.49-1.015C727.92,329.819,727.417,329.719,726.735,329.719z"/>
			<path fill="#FF2839" d="M736.409,327.982c1.288,0,2.229,0.278,2.82,0.833c0.594,0.556,0.89,1.318,0.89,2.289
				c0,0.588-0.122,1.134-0.364,1.638s-0.646,0.91-1.211,1.219c-0.564,0.308-1.332,0.462-2.303,0.462h-0.91v3.556h-2.114v-9.996
				H736.409z M736.296,329.719h-0.966v2.968h0.7c0.597,0,1.071-0.119,1.421-0.357c0.35-0.237,0.525-0.623,0.525-1.154
				C737.977,330.204,737.417,329.719,736.296,329.719z"/>
			<path fill="#FF2839" d="M751.081,332.967c0,1.036-0.17,1.938-0.512,2.709c-0.34,0.77-0.863,1.369-1.567,1.799
				s-1.599,0.644-2.681,0.644c-1.083,0-1.977-0.214-2.682-0.644s-1.227-1.031-1.567-1.806c-0.341-0.775-0.511-1.681-0.511-2.717
				c0-1.035,0.17-1.937,0.511-2.701c0.341-0.766,0.862-1.36,1.567-1.785s1.604-0.638,2.695-0.638c1.082,0,1.975,0.213,2.674,0.638
				c0.7,0.425,1.221,1.021,1.561,1.792C750.911,331.027,751.081,331.931,751.081,332.967z M743.787,332.967
				c0,1.045,0.2,1.869,0.603,2.471c0.4,0.602,1.045,0.903,1.932,0.903c0.904,0,1.554-0.302,1.945-0.903
				c0.393-0.602,0.588-1.426,0.588-2.471c0-1.046-0.195-1.869-0.588-2.472c-0.392-0.602-1.035-0.902-1.932-0.902
				s-1.545,0.301-1.945,0.902C743.987,331.098,743.787,331.921,743.787,332.967z"/>
			<path fill="#FF2839" d="M756.89,337.979h-4.55v-1.204l1.218-0.56v-6.469l-1.218-0.56v-1.204h4.55v1.204l-1.218,0.56v6.469
				l1.218,0.56V337.979z"/>
			<path fill="#FF2839" d="M767.46,337.979h-2.688l-4.354-7.56h-0.057c0.02,0.476,0.04,0.951,0.063,1.428
				c0.023,0.476,0.044,0.952,0.063,1.428v4.704h-1.891v-9.996h2.674l4.34,7.49h0.043c-0.02-0.457-0.037-0.915-0.057-1.372
				c-0.019-0.457-0.033-0.919-0.042-1.386v-4.732h1.904V337.979z"/>
			<path fill="#FF2839" d="M773.831,337.979h-2.114v-8.232H769v-1.764h7.546v1.764h-2.716V337.979z"/>
		</g>
	</g>
</g>
</svg>
